<svg version="1.1" xmlns="http://www.w3.org/2000/svg" preserveAspectRatio="xMinYMin meet" viewBox="75.57136000000001 94.98313545965839 1.380110933333313 1.0118975353855575"><g data-fips="09" data-geo-i-d="09001" data-county="Fairfield"><path d="M75.57136000000001,95.88611067824695 75.57505777777777,95.8928104059307 75.57911111111112,95.89847158315492 75.5867284907385,95.91112474474257 75.59518364444445,95.92516650272492 75.60023253333334,95.93327552100304 75.60535253333333,95.94166727188741 75.6121088,95.95269739787436 75.61765546666668,95.96174629381943 75.62284728888889,95.96900330927812 75.62285565372387,95.96902072961055 75.62334506666667,95.97003995652985 75.62270506666667,95.97380943700728 75.62000213333333,95.98153615670014 75.6204288,95.9871892450429 75.61978951111111,95.99245369195913 75.62125092399282,95.99472382881714 75.62144995555556,95.99503299504394 75.62583111111111,95.98555743970142 75.63130453333333,95.97901659788917 75.6594119111111,95.96687624340629 75.66528071111112,95.96598939468288 75.67289742222223,95.97113312942763 75.67362275555556,95.98021702871065 75.6835072,95.97955745420839 75.68521386666667,95.97079387093285 75.6892672,95.96523353699324 75.6957365465046,95.95906170605156 75.69671537777778,95.95812783631655 75.70524272091002,95.95282171299793 75.70820408888889,95.95097890118632 75.71001884444445,95.95121457277395 75.71186560000001,95.95394264193605 75.71116871111111,95.96040600933071 75.7128064,95.96561052452242 75.7172152888889,95.96287731306913 75.7199578502644,95.95659276823714 75.72141084444445,95.95326299252066 75.72131342222222,95.94455132060907 75.73638511499215,95.93655413162872 75.73807857777778,95.935655499139 75.74943004444445,95.94713544262957 75.75591893333333,95.93266259584354 75.76863004444445,95.92724124489422 75.77113343414706,95.92732803396927 75.77951075555556,95.9276184632879 75.78179391059165,95.92976264020834 75.78868266666666,95.93623162116708 75.81352746666667,95.92615578616936 75.81597886386575,95.92345686681918 75.8369912888889,95.90031795865576 75.82414506666666,95.88297382443298 75.8434273992694,95.87930082535334 75.85375288888889,95.87733388284161 75.86712177777778,95.87138760540904 75.8674114450299,95.87115444417395 75.87669606214877,95.86368053254174 75.87814471111112,95.86251432081484 75.88497137777777,95.86043741108512 75.9023232,95.87025491643367 75.91256320000001,95.86185349345408 75.92158552518478,95.84550967391402 75.92173653333334,95.84523608800163 75.92189070657373,95.84527828714047 75.92654577777778,95.84655242464794 75.93225025423432,95.84197462868457 75.94477795555555,95.83192006230111 75.95756993461526,95.8260467004868 75.96247182222223,95.8237958799748 75.96750151111112,95.82545084000662 75.96794737777778,95.82961921620023 75.97200340697273,95.83147741403127 75.99626453333335,95.84259105437121 76.00991857777778,95.83881358802822 76.01183857777778,95.83605494763022 76.0107008,95.8329580597055 76.01041635555555,95.83040789844942 76.01209813333334,95.82186787130482 76.00213546666667,95.81224204375556 76.01119786666668,95.78845683423748 76.01042488888889,95.77976354820825 76.01070008888888,95.7645405011541 76.02402488888889,95.74845021703672 76.02719857777778,95.74070855550761 76.02584746666668,95.72453164179188 76.030912,95.71397179189225 76.0399992888889,95.707971933001 76.04248817777778,95.70257724035694 76.04063928888888,95.69680345057793 76.0305408,95.68534892497905 76.02422186666668,95.67951671341469 76.00657493333334,95.66726348648314 76.00152604444445,95.65855028365489 76.00024604444444,95.65485627183278 75.99213937777778,95.6492674744103 75.98396088888889,95.63363509716405 75.97720533333333,95.62510667500817 75.9765496888889,95.61917114443548 75.95856426666667,95.61087579692312 75.95622613333335,95.5948686480244 75.94119964444444,95.58353931101672 75.93183502222223,95.57497265273821 75.92112995555556,95.5782200240287 75.9144824888889,95.56518587597603 75.90078293333335,95.56976075698788 75.89426062222222,95.55403893079313 75.87714844444444,95.55723522728721 75.86810808888889,95.53774652921047 75.85304462222223,95.53403197895503 75.8220352,95.51840354615709 75.81371448888889,95.49409636100259 75.78256711111112,95.51004903504642 75.77495751111111,95.51640995910921 75.77225528888889,95.49912949680343 75.77238328888889,95.48670735094089 75.73489066666667,95.37683964818922 75.74422328888889,95.36800430981603 75.73785031111112,95.3552205520459 75.72841031111112,95.35051829091134 75.7203643708071,95.34963112064575 75.71909902222222,95.37393559341703 75.71837274669839,95.39426492595979 75.71837084444445,95.39431816350799 75.71195235555555,95.48231911221583 75.7091776,95.52742229611812 75.70911644444445,95.52811044239941 75.70904888888889,95.52897227543588 75.70896426666667,95.53006283759962 75.70896426666667,95.5305535368096 75.70889315555556,95.53102809711933 75.70823433941462,95.54279414556134 75.7078976,95.54880723426018 75.70783502222223,95.55018304086522 75.70781511111112,95.55063183181518 75.70774328888889,95.55269641779053 75.70768568888889,95.55433684136909 75.70704426666667,95.56404850570416 75.70668871111111,95.56898486289508 75.70654364444445,95.57086766965446 75.7040576,95.59733564114151 75.70246054690674,95.62505164296985 75.70245333333334,95.62517680240153 75.70152675555555,95.63488678072468 75.70116088594823,95.63948922276427 75.69850808888889,95.6728497068095 75.6980807111111,95.6826648506177 75.69853937777778,95.69055389771573 75.6970944,95.70207939057713 75.72026026666667,95.73870038884311 75.73151820305415,95.75715042107572 75.74562915555556,95.78026833477836 75.74406315139066,95.78119700457871 75.73622333792298,95.78584595115032 75.72658702222223,95.79155973045246 75.72293902222222,95.79380906748946 75.6944710587062,95.81129691946536 75.68728272201658,95.81571192866187 75.68715306666667,95.8157915588739 75.65198855744804,95.83681350536611 75.63935786666667,95.84436260670549 75.63401102222223,95.84759773087603 75.59399189977977,95.87220111863908 75.57136000000001,95.88611067824695z" stroke="#0E478F" stroke-width="0.003" stroke-opacity="0.8" fill="royalblue" fill-opacity="0.75"></path></g><g data-fips="09" data-geo-i-d="09003" data-county="Hartford"><path d="M76.0826564930427,94.994364585752 76.0678848,95.06350728457798 76.16920177777777,95.05727606786212 76.15577244444445,95.10644375075395 76.1490872888889,95.13023556270088 76.13109546666666,95.13176505330856 76.12185102222222,95.17121762952593 76.13415253333334,95.18466508239126 76.1251384888889,95.2165054219531 76.07684551111112,95.22437348963895 76.08963555555556,95.30424174039578 76.08992,95.30605171179143 76.1008,95.37545709929171 76.11453795555556,95.37382045603877 76.13262151111111,95.37097240232154 76.13607537777779,95.40571190761176 76.12792675555555,95.45144440895544 76.12704000000001,95.45419370016178 76.15753244444444,95.4495265795534 76.15771520000001,95.44948951486703 76.1747512888889,95.4481542208618 76.18289351111112,95.46162177790748 76.19363057777778,95.46417678341513 76.19962311111111,95.46566469972889 76.20249315555556,95.44250289715377 76.21145315555556,95.44069599859947 76.21252195555556,95.45504896786983 76.2302272,95.43870083947859 76.26511573333335,95.43319124013978 76.26457528888889,95.42025846959658 76.27443413333334,95.4180743754813 76.28299306666666,95.41084358507038 76.29188408888889,95.40902529329833 76.29420515555556,95.39629669313152 76.29233991111111,95.38677253112908 76.35353884444444,95.37488523065505 76.35162737777779,95.38146663088665 76.412992,95.37250920684383 76.4405824,95.36841446517204 76.46810311111112,95.42843315685704 76.49503288888889,95.42359674102437 76.50330382222222,95.42206406817007 76.50818346666668,95.41066955633798 76.50900124444445,95.38387655784166 76.49462826666667,95.35385274527458 76.4813304888889,95.34471516526142 76.47841493333334,95.32862327708769 76.47279715555557,95.29195061931878 76.47011626666666,95.27453722840147 76.46415573333334,95.23126294082935 76.46331164444445,95.2242962257119 76.4614904888889,95.21024115117339 76.45482382222222,95.21097007587913 76.43908906666667,95.21338863156805 76.44058311111111,95.20327490201082 76.4467128888889,95.16479116999156 76.43140977777777,95.16834007995533 76.43212088888889,95.15592897431584 76.43496533333334,95.08378421671921 76.44961493333334,95.08178025165775 76.43789934134344,94.99881066131054 76.42444017777778,94.99873559208298 76.40685638810739,95.00091608858187 76.39236906666666,95.00271254554808 76.38589724444445,95.00792603933391 76.38027875555557,95.00792603933391 76.3684032,95.00763885886465 76.36838680368008,95.00751084056913 76.36769208888889,95.00208643674738 76.36765086523043,95.00208391414765 76.34266026666667,95.00055464493857 76.30511857777778,94.99634872076862 76.26251520000001,94.99691648484688 76.26130631111111,94.99969299510116 76.26415075555555,95.0008418588398 76.26543075555556,95.00266084873512 76.2637952,95.00725594946434 76.2613568,95.01151376645203 76.2608704,95.0115922575842 76.25915875555556,95.01065322898688 76.25802595555555,95.0109585823833 76.2579128888889,95.01263560570145 76.25859271111112,95.01415943613736 76.25974186666667,95.0152965410297 76.2586752,95.01759365782988 76.25725297777778,95.01931643854512 76.25723377777778,95.02223835458793 76.25519004444445,95.02419738582752 76.25476337777778,95.0286951672613 76.24905999035734,95.02952403127597 76.2192064,95.03386242090309 76.22148195555556,94.99663020986083 76.19758791111111,94.9962472311847 76.18587093333333,94.99546690467271 76.18585713010695,94.99546674164557 76.18578986666667,94.99546594721073 76.10383741556103,94.99469980477232 76.0892096,94.99456305384808 76.0826564930427,94.994364585752z" stroke="#0E478F" stroke-width="0.003" stroke-opacity="0.8" fill="royalblue" fill-opacity="0.75"></path></g><g data-fips="09" data-geo-i-d="09005" data-county="Litchfield"><path d="M75.72139733333334,95.32978310836447 75.7203643708071,95.34963112064575 75.72841031111112,95.35051829091134 75.73785031111112,95.3552205520459 75.74422328888889,95.36800430981603 75.73489066666667,95.37683964818922 75.77238328888889,95.48670735094089 75.77225528888889,95.49912949680343 75.77495751111111,95.51640995910921 75.78256711111112,95.51004903504642 75.81371448888889,95.49409636100259 75.8220352,95.51840354615709 75.85304462222223,95.53403197895503 75.86810808888889,95.53774652921047 75.8562744888889,95.52283382466504 75.86071182222223,95.50471199694826 75.90950044444445,95.49662247689541 75.94368213333334,95.50004776222583 75.96773617777778,95.49619228479332 75.97814755555555,95.49363576101314 75.97178595555556,95.4539171610549 75.98575217777778,95.45321963076626 76.02214897777779,95.44145925576385 76.02989866666667,95.4268007783889 76.04322915555555,95.42406737420202 76.04805404444446,95.42327537730654 76.04762737777777,95.40671431125105 76.05307591111111,95.40385351826316 76.06317795555556,95.39867084445251 76.07562666666668,95.39971711594774 76.07362062222222,95.38734428892934 76.1008,95.37545709929171 76.08992,95.30605171179143 76.08963555555556,95.30424174039578 76.07684551111112,95.22437348963895 76.1251384888889,95.2165054219531 76.13415253333334,95.18466508239126 76.12185102222222,95.17121762952593 76.13109546666666,95.13176505330856 76.1490872888889,95.13023556270088 76.15577244444445,95.10644375075395 76.16920177777777,95.05727606786212 76.0678848,95.06350728457798 76.0826564930427,94.994364585752 76.05101937777778,94.99340641159813 76.05099513875015,94.99340548430186 75.99838044466361,94.99139260568121 75.92547697777778,94.98860343007686 75.9245824,94.98853831528214 75.92322902291599,94.98847971271115 75.88046435555556,94.98662793109611 75.87952355555555,94.98658579663338 75.78111146666667,94.98313545965839 75.74235448888889,94.9840442684817 75.74071822222223,95.03147309904605 75.73832888888889,95.07123635971847 75.73580302222223,95.10579003530405 75.73453937777778,95.1343329063462 75.7319224888889,95.16660431925621 75.7298176,95.1994703706606 75.7297720888889,95.19995895177658 75.72553884444446,95.26197703282135 75.72549786168327,95.2629961602315 75.72485617777778,95.27895084294087 75.72139733333334,95.32978310836447z" stroke="#0E478F" stroke-width="0.003" stroke-opacity="0.8" fill="royalblue" fill-opacity="0.75"></path></g><g data-fips="09" data-geo-i-d="09007" data-county="Middlesex"><path d="M76.26457528888889,95.42025846959658 76.26511573333335,95.43319124013978 76.26746453333334,95.46608845474235 76.27040568888889,95.5103300688678 76.27140977777778,95.52417509096702 76.27812551111111,95.52203550578369 76.2770496,95.53323949988618 76.27440355555557,95.56670455030817 76.26941084444445,95.58092856488665 76.2751928888889,95.57962741797056 76.29628942222223,95.57509974350293 76.31358648888889,95.57120343871458 76.31734115555557,95.57097010786691 76.33516657777778,95.56686485790487 76.33743502222222,95.58489063450524 76.35012337777778,95.59119926335426 76.36456675555556,95.61611928398361 76.36343537777779,95.66988478321338 76.38304426666667,95.67479373300009 76.3835328,95.688420082389 76.41174328888889,95.71635737822257 76.41758135737793,95.7397150106481 76.41831395555556,95.73918470067136 76.42080213333334,95.73305201100791 76.4235264,95.7314144429975 76.42928924444445,95.73029905553156 76.43117511111112,95.73441141490923 76.43972693333333,95.73550307878054 76.44477582222223,95.7300474046844 76.45423828899472,95.72548594279252 76.45461831111112,95.72530274289127 76.46397226666667,95.72603882796639 76.47863111111111,95.71772945079047 76.51133866666667,95.71819027108359 76.51648853333333,95.71840412081131 76.52339835264952,95.73088739011936 76.52506382222222,95.73389584770915 76.55248497777778,95.72642200502875 76.5520760888889,95.71909108439567 76.55718387073138,95.71657037274431 76.55143253333334,95.70124647702582 76.55173617777778,95.67455890016143 76.53749546666667,95.6576590051549 76.53020657777778,95.65064103936083 76.53261937777778,95.62552459518675 76.52634097777778,95.61705665720297 76.5002296888889,95.61199808475428 76.491584,95.58026661457032 76.49656391111112,95.58084416187533 76.58273351111112,95.5686130373213 76.57775146666667,95.52863912334787 76.57036017777779,95.49093857014658 76.57003093333334,95.47561647009917 76.49056853333335,95.4778773636337 76.46810311111112,95.42843315685704 76.4405824,95.36841446517204 76.412992,95.37250920684383 76.35162737777779,95.38146663088665 76.35353884444444,95.37488523065505 76.29233991111111,95.38677253112908 76.29420515555556,95.39629669313152 76.29188408888889,95.40902529329833 76.28299306666666,95.41084358507038 76.27443413333334,95.4180743754813 76.26457528888889,95.42025846959658z" stroke="#0E478F" stroke-width="0.003" stroke-opacity="0.8" fill="royalblue" fill-opacity="0.75"></path></g><g data-fips="09" data-geo-i-d="09009" data-county="New Haven"><path d="M75.86071182222223,95.50471199694826 75.8562744888889,95.52283382466504 75.86810808888889,95.53774652921047 75.87714844444444,95.55723522728721 75.89426062222222,95.55403893079313 75.90078293333335,95.56976075698788 75.9144824888889,95.56518587597603 75.92112995555556,95.5782200240287 75.93183502222223,95.57497265273821 75.94119964444444,95.58353931101672 75.95622613333335,95.5948686480244 75.95856426666667,95.61087579692312 75.9765496888889,95.61917114443548 75.97720533333333,95.62510667500817 75.98396088888889,95.63363509716405 75.99213937777778,95.6492674744103 76.00024604444444,95.65485627183278 76.00152604444445,95.65855028365489 76.00657493333334,95.66726348648314 76.02422186666668,95.67951671341469 76.0305408,95.68534892497905 76.04063928888888,95.69680345057793 76.04248817777778,95.70257724035694 76.0399992888889,95.707971933001 76.030912,95.71397179189225 76.02584746666668,95.72453164179188 76.02719857777778,95.74070855550761 76.02402488888889,95.74845021703672 76.01070008888888,95.7645405011541 76.01042488888889,95.77976354820825 76.01119786666668,95.78845683423748 76.00213546666667,95.81224204375556 76.01209813333334,95.82186787130482 76.01387164444445,95.81860306116921 76.03239111111112,95.79798524569597 76.04668444444445,95.78599935851364 76.05287111111112,95.78269106390984 76.05646051405503,95.7832004301879 76.07285404444445,95.78552675583353 76.07434737777778,95.78628291838822 76.0744965782966,95.78780331410461 76.07456071111112,95.78845683423748 76.0782592,95.78826780110992 76.08352142222222,95.78269106390984 76.0903480888889,95.77087428103138 76.0986688,95.76066276169513 76.11587768888889,95.74354522800891 76.11759436302279,95.74294846214346 76.11947834213923,95.7422935295659 76.13465173333333,95.73701851086278 76.13619753630543,95.73557356014695 76.1399424,95.73207288110694 76.13667626666667,95.72604545080002 76.13395474435677,95.71980325673138 76.13378462160405,95.71941303532729 76.13257955555557,95.716648827911 76.14063715555557,95.7147789839371 76.14590364444445,95.7062078257292 76.1506936888889,95.70083474856328 76.15458062222223,95.70134207335654 76.15468073685518,95.7024219316051 76.15576533333333,95.71411941514134 76.15776000000001,95.72148025774796 76.15610240000001,95.72601801334187 76.16178062222222,95.73015147094853 76.1643768888889,95.73569416527337 76.16373688888889,95.73919415984898 76.15783466666666,95.74241019628809 76.15710577777777,95.74631745533934 76.1574208,95.74718948476004 76.15963695204331,95.74823715732447 76.16163413333334,95.74918129756543 76.16398791111112,95.75223604243038 76.16880782222222,95.75002207676937 76.17334684444445,95.75173102691677 76.18748871111111,95.74950380252693 76.18860650941333,95.74900553321886 76.192672,95.74719326794113 76.19540622222222,95.7398118410114 76.19714346666666,95.7387278206692 76.21199431111111,95.73866633552485 76.21733546666667,95.74121460699469 76.21778702222223,95.7429332593296 76.23850120080668,95.73232225348801 76.24096568888889,95.73105967817582 76.2613496888889,95.72905687428585 76.2635064888889,95.72905687428585 76.25931306666668,95.75334535977278 76.28626560000001,95.73641215329835 76.29336177777779,95.74111434291714 76.2942520888889,95.74409287335762 76.2924984888889,95.7459949337487 76.29468800000001,95.75027648352062 76.30595982222222,95.74981306523472 76.30902115555556,95.74817972450688 76.3125056,95.74382898268152 76.31293226666666,95.73786986089435 76.32189226666668,95.72897740411003 76.32864853333334,95.7268960059578 76.33442493981319,95.7297138802005 76.33504853333334,95.7300180768874 76.3437952,95.7289764580359 76.36107591111112,95.72424590617932 76.37472995555557,95.72736811105199 76.3851832888889,95.7245297495074 76.39385884444445,95.7279357677104 76.41085511111112,95.74458376376785 76.41758135737793,95.7397150106481 76.41174328888889,95.71635737822257 76.3835328,95.688420082389 76.38304426666667,95.67479373300009 76.36343537777779,95.66988478321338 76.36456675555556,95.61611928398361 76.35012337777778,95.59119926335426 76.33743502222222,95.58489063450524 76.33516657777778,95.56686485790487 76.31734115555557,95.57097010786691 76.31358648888889,95.57120343871458 76.29628942222223,95.57509974350293 76.2751928888889,95.57962741797056 76.26941084444445,95.58092856488665 76.27440355555557,95.56670455030817 76.2770496,95.53323949988618 76.27812551111111,95.52203550578369 76.27140977777778,95.52417509096702 76.27040568888889,95.5103300688678 76.26746453333334,95.46608845474235 76.26511573333335,95.43319124013978 76.2302272,95.43870083947859 76.21252195555556,95.45504896786983 76.21145315555556,95.44069599859947 76.20249315555556,95.44250289715377 76.19962311111111,95.46566469972889 76.19363057777778,95.46417678341513 76.18289351111112,95.46162177790748 76.1747512888889,95.4481542208618 76.15771520000001,95.44948951486703 76.15753244444444,95.4495265795534 76.12704000000001,95.45419370016178 76.12792675555555,95.45144440895544 76.13607537777779,95.40571190761176 76.13262151111111,95.37097240232154 76.11453795555556,95.37382045603877 76.1008,95.37545709929171 76.07362062222222,95.38734428892934 76.07562666666668,95.39971711594774 76.06317795555556,95.39867084445251 76.05307591111111,95.40385351826316 76.04762737777777,95.40671431125105 76.04805404444446,95.42327537730654 76.04322915555555,95.42406737420202 76.02989866666667,95.4268007783889 76.02214897777779,95.44145925576385 75.98575217777778,95.45321963076626 75.97178595555556,95.4539171610549 75.97814755555555,95.49363576101314 75.96773617777778,95.49619228479332 75.94368213333334,95.50004776222583 75.90950044444445,95.49662247689541 75.86071182222223,95.50471199694826z" stroke="#0E478F" stroke-width="0.003" stroke-opacity="0.8" fill="royalblue" fill-opacity="0.75"></path></g><g data-fips="09" data-geo-i-d="09011" data-county="New London"><path d="M76.46810311111112,95.42843315685704 76.49056853333335,95.4778773636337 76.57003093333334,95.47561647009917 76.57036017777779,95.49093857014658 76.57775146666667,95.52863912334787 76.58273351111112,95.5686130373213 76.49656391111112,95.58084416187533 76.491584,95.58026661457032 76.5002296888889,95.61199808475428 76.52634097777778,95.61705665720297 76.53261937777778,95.62552459518675 76.53020657777778,95.65064103936083 76.53749546666667,95.6576590051549 76.55173617777778,95.67455890016143 76.55143253333334,95.70124647702582 76.55718387073138,95.71657037274431 76.56256426666667,95.71391501362557 76.56704355555556,95.7181316042147 76.57403733333334,95.71877315178583 76.61405368888889,95.71390555057606 76.62128142222222,95.70721386518285 76.62185600000001,95.70305994258402 76.62087466666667,95.69905245322676 76.62306817977507,95.69837374019474 76.62352995555555,95.6982308573806 76.63251128888889,95.6973552967765 76.63980373333334,95.69864828244306 76.64858737777779,95.70591916603922 76.6549176888889,95.69860095548034 76.6556288,95.68525330387658 76.65676657777779,95.68288639768345 76.66416213333333,95.67578513436709 76.6690688,95.67502761804383 76.67369102222223,95.67644795352135 76.67380262547215,95.67664475471042 76.67632213333333,95.68108748826239 76.68509866666668,95.68803193591259 76.70455395555557,95.69831604639808 76.72048355555556,95.69860000894072 76.72667075470478,95.69317799848415 76.72901688888889,95.69112189291317 76.73284053333333,95.68433779532643 76.73992035555555,95.67915880975517 76.7414386975377,95.67924912198617 76.7844280888889,95.68180611152621 76.80842453333334,95.67826593522769 76.81266204444444,95.66947473944748 76.81402650907123,95.66939139421622 76.81461546666668,95.66935541904067 76.82065422222222,95.67452670526711 76.8307576888889,95.66946526958236 76.83864746666667,95.66195710307127 76.84530915555555,95.6618055665898 76.85455502222223,95.6645009661769 76.85540124444444,95.66506446596367 76.85922844444445,95.6672435990519 76.88085191111111,95.66327261350816 76.89369955555556,95.66845198561504 76.89986417777779,95.67653980075677 76.89919075555557,95.67857744859282 76.91447964444446,95.66551526208714 76.9211768888889,95.65556857030369 76.91665706666667,95.64667277410341 76.9153863111111,95.63758335706743 76.91974186666667,95.63060006171125 76.91889829244467,95.6222302004059 76.91844053333334,95.61768788330939 76.9122624,95.60741780860286 76.9113088,95.59749112855869 76.91195520000001,95.59367493679312 76.91402737777778,95.59152828428597 76.9291448888889,95.58443545516815 76.94386986666666,95.58717596324712 76.94387648529793,95.58698496754036 76.94679586425629,95.50268179128567 76.94748750065516,95.48269240210179 76.94978938827215,95.41611731516329 76.94979128888889,95.41606231577802 76.95085852544356,95.38035499971318 76.9510139407008,95.37515342315307 76.9010368,95.37105233613796 76.88229048888888,95.37391465936429 76.83582862222222,95.38024783587618 76.83201208888889,95.3800232933256 76.81759786666667,95.37686629025691 76.81285120000001,95.37583295015011 76.7194432,95.3553081210988 76.71469724444445,95.3528989746824 76.69209102222223,95.34888669333 76.6879672888889,95.35829967132047 76.6683655111111,95.34146494635554 76.64953671111111,95.32327996121793 76.62964693333333,95.3044389346132 76.62639644444445,95.3042579351139 76.62219022222223,95.31828666787283 76.60493724444446,95.32499699626968 76.61074417777778,95.33959794418524 76.58407608888889,95.36176884915497 76.56232817777779,95.37165088485644 76.56923733333333,95.39546248433527 76.566688,95.4079211682893 76.53301546666667,95.41186492407664 76.52682666666666,95.42391429996849 76.50818346666668,95.41066955633798 76.50330382222222,95.42206406817007 76.49503288888889,95.42359674102437 76.46810311111112,95.42843315685704z" stroke="#0E478F" stroke-width="0.003" stroke-opacity="0.8" fill="royalblue" fill-opacity="0.75"></path></g><g data-fips="09" data-geo-i-d="09013" data-county="Tolland"><path d="M76.43212088888889,95.15592897431584 76.43140977777777,95.16834007995533 76.4467128888889,95.16479116999156 76.44058311111111,95.20327490201082 76.43908906666667,95.21338863156805 76.45482382222222,95.21097007587913 76.4614904888889,95.21024115117339 76.46331164444445,95.2242962257119 76.46415573333334,95.23126294082935 76.47011626666666,95.27453722840147 76.47279715555557,95.29195061931878 76.47841493333334,95.32862327708769 76.4813304888889,95.34471516526142 76.49462826666667,95.35385274527458 76.50900124444445,95.38387655784166 76.50818346666668,95.41066955633798 76.52682666666666,95.42391429996849 76.53301546666667,95.41186492407664 76.566688,95.4079211682893 76.56923733333333,95.39546248433527 76.56232817777779,95.37165088485644 76.58407608888889,95.36176884915497 76.61074417777778,95.33959794418524 76.60493724444446,95.32499699626968 76.62219022222223,95.31828666787283 76.62639644444445,95.3042579351139 76.62964693333333,95.3044389346132 76.62464284444445,95.29614098650136 76.62034275555555,95.29109021511928 76.62776746666667,95.29114262103656 76.64608497777778,95.29124933840211 76.6591104,95.29111498883121 76.66703857777779,95.2651437758509 76.6888384,95.26698921937249 76.68302364444445,95.18932761302426 76.6451776,95.18906896404684 76.6457031111111,95.07158348522708 76.69215715555556,95.07049237607268 76.72943715555556,95.07083089932047 76.72734664733106,95.00390111884619 76.70351146666667,95.00261298127656 76.70349155555556,95.00261265608253 76.65416477620964,95.00180703140498 76.62256142222223,95.00129086718923 76.6075334138321,95.00120679675744 76.57447253333333,95.00102184552698 76.53902808174286,95.00030638924315 76.51738071143687,94.99986942681107 76.47524977777778,94.99901898494586 76.43789934134344,94.99881066131054 76.44961493333334,95.08178025165775 76.43496533333334,95.08378421671921 76.43212088888889,95.15592897431584z" stroke="#0E478F" stroke-width="0.003" stroke-opacity="0.8" fill="royalblue" fill-opacity="0.75"></path></g><g data-fips="09" data-geo-i-d="09015" data-county="Windham"><path d="M76.62034275555555,95.29109021511928 76.62464284444445,95.29614098650136 76.62964693333333,95.3044389346132 76.64953671111111,95.32327996121793 76.6683655111111,95.34146494635554 76.6879672888889,95.35829967132047 76.69209102222223,95.34888669333 76.71469724444445,95.3528989746824 76.7194432,95.3553081210988 76.81285120000001,95.37583295015011 76.81759786666667,95.37686629025691 76.83201208888889,95.3800232933256 76.83582862222222,95.38024783587618 76.88229048888888,95.37391465936429 76.9010368,95.37105233613796 76.9510139407008,95.37515342315307 76.95147093333333,95.35985582886948 76.95146745195997,95.35973648956247 76.94956231111112,95.29439455864137 76.94955227591552,95.29395214172291 76.94857813333334,95.25099034753492 76.94843871034597,95.24696330189482 76.9473656888889,95.21596164077023 76.94735217777777,95.21436938348316 76.9463744,95.18433768969288 76.9463744,95.18342136260723 76.94614588013967,95.17573046368581 76.9459969545504,95.17071781057913 76.94424252973361,95.11163500855595 76.94369991111111,95.09334994744295 76.94276124444444,95.02384329105246 76.94176,95.0090039112741 76.8825260320576,95.00829704343656 76.87766755555555,95.0082390645019 76.82629738052587,95.00643979699043 76.80901262222223,95.00583437724137 76.7548472888889,95.00538731702582 76.72908425976343,95.00399502450904 76.72734664733106,95.00390111884619 76.72943715555556,95.07083089932047 76.69215715555556,95.07049237607268 76.6457031111111,95.07158348522708 76.6451776,95.18906896404684 76.68302364444445,95.18932761302426 76.6888384,95.26698921937249 76.66703857777779,95.2651437758509 76.6591104,95.29111498883121 76.64608497777778,95.29124933840211 76.62776746666667,95.29114262103656 76.62034275555555,95.29109021511928z" stroke="#0E478F" stroke-width="0.003" stroke-opacity="0.8" fill="royalblue" fill-opacity="0.75"></path></g></svg>