<svg version="1.1" xmlns="http://www.w3.org/2000/svg" preserveAspectRatio="xMinYMin meet" viewBox="74.10567466666667 97.06537195783737 0.526190933333325 1.272905301069457"><g data-fips="10" data-geo-id="10001" data-county="Kent"><path d="M74.12600359299776,97.56571552019022 74.12893958097898,97.61217461181866 74.12894080000001,97.61219389465327 74.13244444444445,97.67480254165248 74.13363342222223,97.68668193140297 74.13483448888888,97.70641278939277 74.13484586611598,97.70663070018098 74.13593528888889,97.72749327180473 74.13616853333333,97.7324289330484 74.13757866666667,97.75100142030388 74.13873160787982,97.76961640815331 74.14889249564018,97.93343943511852 74.15037084444445,97.95724024585692 74.15055857777779,97.95828510506892 74.1516280888889,97.97689429996382 74.15167004444444,97.97789775552866 74.1524672,97.99025021976892 74.15266062222223,97.99312482080623 74.15267482793138,97.99337338261725 74.27199075555556,97.98808026361966 74.29657671111111,97.96973452787304 74.30530275555556,97.94853730356164 74.31790008888889,97.93875058017207 74.32190648888889,97.92587750812119 74.3358912,97.9189716499981 74.38121742222222,97.91253301362026 74.38148266666667,97.8863185597813 74.3871047111111,97.87981815586559 74.39598293333333,97.87274643165085 74.41762631111112,97.88594642033559 74.43821084444446,97.88044454192216 74.44485506729771,97.8873373031717 74.44441173333334,97.88426216546272 74.44441173333334,97.88262998746802 74.44507946666667,97.86747482930187 74.44270151111112,97.85545755767626 74.4402816,97.84867319003543 74.424256,97.81960195749511 74.42079075555556,97.81511964042879 74.39653475555555,97.79320884260811 74.39081671111111,97.7910258704973 74.3848696888889,97.78488128744435 74.38520462222223,97.7836660377054 74.38201315555555,97.77777353838854 74.38151325231979,97.7773149625037 74.38077511111112,97.77663783799892 74.38137386666666,97.75659768689358 74.37466666666667,97.69474061940971 74.37495111695111,97.69188257444176 74.37634417777778,97.67788381658684 74.38211982222222,97.66703036008613 74.38322915555555,97.66688356766319 74.38592711111112,97.66528901343908 74.38718933333334,97.65046272557757 74.38443235555556,97.63979005529035 74.378848,97.63380087508075 74.37830481121159,97.63295744936904 74.37815751111111,97.63272873013109 74.37800746666666,97.61455370926853 74.37879253333334,97.61247211853807 74.38011448888889,97.60445732006626 74.37626595555555,97.59520710540443 74.36234453333333,97.57651250806633 74.35706737777778,97.56582941120675 74.35694151111112,97.56502996821044 74.35595662222222,97.55415563788546 74.3544696888889,97.55047469296964 74.33925475555556,97.53682256754357 74.33292515555556,97.53444702960327 74.32535964444445,97.52915415512604 74.32544355555557,97.52833127028727 74.31795413333334,97.52341580802108 74.31702186666668,97.52236297120368 74.31598364444444,97.52092483260597 74.31529102222223,97.51995655364406 74.31694435555555,97.51511493997528 74.31526542222223,97.51256938309066 74.30735928888889,97.50837929455027 74.30272853333334,97.50284052725809 74.30231318585258,97.50241269375546 74.28561848888889,97.51624422265871 74.27439928888889,97.51318830847643 74.27114311111112,97.53030525680033 74.25083377777777,97.55483114422307 74.23332622222222,97.55468685298902 74.22604017777778,97.55353159239262 74.20546133333333,97.5673455689128 74.19320106666666,97.57144269151094 74.17942186666667,97.56544990674715 74.12600359299776,97.56571552019022z" stroke="#0E478F" stroke-width="0.005" stroke-opacity="0.8" fill="royalblue" fill-opacity="0.75"></path></g><g data-fips="10" data-geo-id="10003" data-county="New Castle"><path d="M74.26076586666667,97.2617907505591 74.2600824888889,97.26473035135305 74.26297315555556,97.27381419249033 74.26706915555556,97.28168581040201 74.26960824643015,97.2813553827707 74.27138133333334,97.28112463897034 74.27076693333333,97.28032717635438 74.2702208,97.27802333956615 74.27066453333333,97.27529111777432 74.26954951111111,97.27053529634455 74.26871893333333,97.26415425934145 74.26908302222223,97.25967829058163 74.2688384,97.25898027708762 74.26076586666667,97.2617907505591z" stroke="#0E478F" stroke-width="0.005" stroke-opacity="0.8" fill="royalblue" fill-opacity="0.75"></path><path d="M74.25301617777778,97.2833489902097 74.25073066666667,97.29266642698715 74.2549496888889,97.29952258768441 74.2649408,97.30195851621805 74.26831075555556,97.29372119781439 74.25301617777778,97.2833489902097z" stroke="#0E478F" stroke-width="0.005" stroke-opacity="0.8" fill="royalblue" fill-opacity="0.75"></path><path d="M74.10569167266368,97.22055883689508 74.10567466666667,97.23241316232317 74.10609829916659,97.24186265606401 74.1065344,97.25158880639269 74.10693262222223,97.25794339904738 74.10743386022081,97.26650564448548 74.10800598662891,97.27627741743352 74.11127466666667,97.33207701113912 74.11209323968235,97.34508558738926 74.11214955776427,97.34598048433293 74.11219625352476,97.34672247265286 74.11531792272477,97.39630581726308 74.11908658977508,97.45611474819253 74.1213101474383,97.49137658206834 74.1213191111111,97.49151869145301 74.12600359299776,97.56571552019022 74.17942186666667,97.56544990674715 74.19320106666666,97.57144269151094 74.20546133333333,97.5673455689128 74.22604017777778,97.55353159239262 74.23332622222222,97.55468685298902 74.25083377777777,97.55483114422307 74.27114311111112,97.53030525680033 74.27439928888889,97.51318830847643 74.28561848888889,97.51624422265871 74.30231318585258,97.50241269375546 74.30186951111111,97.50195567828088 74.2956928,97.48197618594541 74.29434097777778,97.47856070630611 74.28552746666666,97.46217915231739 74.2837248,97.45562756895964 74.2713671111111,97.44287868938468 74.260032,97.4350102920949 74.26063288888889,97.43170557203113 74.2549944888889,97.42673850330867 74.25409066666667,97.42406235166848 74.24751004444445,97.41482849468564 74.24718151111112,97.41371400548593 74.24492942222223,97.39899908913104 74.24492942222223,97.39790275066952 74.24872604444445,97.38299160648121 74.24872604444445,97.38208482916484 74.25675662222223,97.37024947085324 74.26351431111111,97.3710992712153 74.26792675555556,97.35985463344518 74.2610759111111,97.35363093432838 74.2617472,97.34265801292617 74.26178915555555,97.34130712833439 74.26443662222222,97.32478068908497 74.2651384888889,97.32347739038951 74.26551588402596,97.32277479006252 74.26628693333333,97.32133929581417 74.26077653333333,97.31669021542379 74.26019626666667,97.31627694748035 74.24994417777778,97.3063872394561 74.2495232,97.30598866692466 74.24910222222223,97.30471912304395 74.24871537777778,97.30433530249019 74.24570026666667,97.30195851621805 74.2455296,97.3016632570959 74.23745137777779,97.29668793583214 74.23670044444445,97.29580208135381 74.23155697777779,97.28889199511343 74.23153422222224,97.28874433554704 74.23019164444445,97.28078498018378 74.2304192,97.28019426495098 74.23041635555556,97.28016749803767 74.23058986666668,97.27966261657316 74.23028266666667,97.27490712048429 74.23051022222222,97.27444927454574 74.22985031111112,97.27298709942056 74.22938382222222,97.27177597953857 74.22999822222222,97.2695899977411 74.23048746666667,97.26777321271906 74.23064675555555,97.26715283526981 74.23148871111111,97.2662222578011 74.24913991111111,97.23940324673961 74.2509075436155,97.2388777235401 74.2668472888889,97.2341385872796 74.2708623231141,97.2283778087891 74.28974803106667,97.2012735829835 74.28995982222223,97.20096956110766 74.30418346666667,97.20697620611203 74.30468124444445,97.19921366574529 74.30601813333334,97.19695126194014 74.3082368,97.19570173001757 74.31378417777778,97.19283658660214 74.31651439970268,97.18581145469109 74.31726862222222,97.18387062888925 74.31925120000001,97.18043180345063 74.32160640000001,97.17952584545509 74.32309973333334,97.17980318090241 74.3240952888889,97.18069711728403 74.32608711111112,97.1813747256533 74.32701155555556,97.18026540396744 74.3275463111111,97.17719248212352 74.32715946666667,97.17513638914426 74.327296,97.17129767839265 74.328576,97.16759927986092 74.32861582222222,97.16543191860727 74.32948053333334,97.1613484985594 74.33220027774912,97.15550752796642 74.3329856,97.15382085657974 74.33739448888889,97.14022445860455 74.33718115555556,97.13754183330948 74.33995448888889,97.13328640283417 74.34500337777779,97.13032593569054 74.347168,97.12530855480568 74.34651591111111,97.12500785097548 74.34617742222223,97.1247275012025 74.34641361733753,97.12449584419268 74.35498666666668,97.11608694161741 74.35641740728654,97.11540790027462 74.3740343103404,97.10704617858408 74.37831878536612,97.10501242084547 74.37837226666667,97.10498703389204 74.37151146666666,97.09987509483001 74.36229191111111,97.09310945133696 74.3440248888889,97.0828045561357 74.33964287045745,97.08071726149083 74.33782455685953,97.07985112083209 74.33720035555555,97.07955378429298 74.33711017180445,97.07951886871288 74.32447502222223,97.07462684930717 74.31196088888889,97.0707191046181 74.31133634059009,97.07059374700393 74.2980231111111,97.06792149348765 74.28315804444445,97.06614062627783 74.28270661591509,97.06612494820749 74.26102542222223,97.06537195783737 74.25434951111112,97.06580815516477 74.25428327174984,97.06581474587601 74.24490864377124,97.06674749957823 74.24452053333333,97.06678611537018 74.24364511649686,97.06694804757151 74.2430336,97.06706116396853 74.22774044444445,97.0699634561445 74.21532017777778,97.07349807283238 74.21047253333333,97.0751592840883 74.19530951111112,97.08181758344028 74.19223991129309,97.08355352336514 74.17881671111112,97.09114414193193 74.16798222222222,97.09895040366645 74.16170034839296,97.10443783751603 74.15675804444444,97.1087547783179 74.1550159051528,97.11052042088214 74.15188656223594,97.11369185892006 74.14957795555556,97.11603141913108 74.14285226666667,97.12376616043088 74.13721884444445,97.1310725414734 74.13103786666667,97.14052416558766 74.1265452395466,97.14884424607692 74.12584604444444,97.15013901647876 74.12177066666666,97.15884708963435 74.11641884444445,97.17362108753527 74.1058872888889,97.17362201207438 74.1058616888889,97.19352515700993 74.1058616888889,97.19376176472264 74.10567466666667,97.21051154539747 74.10570453333334,97.2115926215439 74.10569167266368,97.22055883689508z" stroke="#0E478F" stroke-width="0.005" stroke-opacity="0.8" fill="royalblue" fill-opacity="0.75"></path></g><g data-fips="10" data-geo-id="10005" data-county="Sussex"><path d="M74.15267482793138,97.99337338261725 74.15307448888889,98.0003659878879 74.15421074396879,98.01891690471587 74.15624208542066,98.05206814791455 74.1595908275638,98.10668237111528 74.16351635421988,98.17064507697746 74.16351647377465,98.1706470240529 74.16351928888889,98.17069287114879 74.16406044444444,98.1790293749116 74.16430933333334,98.18342659277432 74.16457600000001,98.18800371729805 74.16463715555555,98.18939526700485 74.1659128888889,98.21003386407416 74.16629404444444,98.21635489840212 74.16763164444444,98.23854009094487 74.167634215683,98.23858285478457 74.16861724444445,98.25493015726042 74.16862385845945,98.25505505434323 74.16961493333334,98.27376752097403 74.17110115555556,98.29697905179103 74.171328,98.3007005641775 74.17335395555556,98.32999917653989 74.19322595555556,98.33111436312365 74.19517582222223,98.33124240857661 74.20580865799879,98.33160076599263 74.2182136888889,98.3320188490483 74.24125226666666,98.33297145174585 74.2447992888889,98.3333810030806 74.24748444444445,98.33348815799617 74.25154346666667,98.33336284121313 74.25829475555555,98.3337560445183 74.26837831111112,98.33413108380903 74.26889244444445,98.33414561313302 74.2869952,98.3346950008322 74.29484302222222,98.33496833084733 74.29585706666667,98.33496833084733 74.30890524444445,98.3353651567799 74.31091057777778,98.33543416974022 74.32584320000001,98.33583825732518 74.32708321089116,98.33587053081675 74.36170951111112,98.33677173552076 74.36185275215126,98.33677459789205 74.36448142222223,98.33682712631861 74.37440284444445,98.33701781559253 74.38585386666668,98.3372357455117 74.38672355555556,98.33727751533013 74.40273493333333,98.33728387160448 74.41358791111112,98.33737376741894 74.4239352888889,98.33740827285031 74.42400304833956,98.33740878392146 74.47248841649059,98.33777448054988 74.48148195555555,98.33784231330354 74.48690773333334,98.33792857623101 74.52079394704057,98.33817535126715 74.53478755555555,98.33827725890683 74.56574364444444,98.33811018202289 74.60291624369486,98.33805744689457 74.61694862222222,98.33803753976653 74.61949724444445,98.33802391933452 74.62064430982244,98.33802585737905 74.6286336,98.33803935582394 74.62932551111112,98.3380402638526 74.6318656,98.33804934413868 74.63129031111112,98.30614798253751 74.62397724444445,98.19583750991114 74.62366008888888,98.1955617778267 74.62328838683392,98.19520243807551 74.62310471111111,98.19502487042682 74.62263466666667,98.19478189562703 74.62029013333333,98.1733701719378 74.62008177777778,98.14729709075394 74.61033173333334,98.07694719835987 74.60962346666666,98.0661211790157 74.60824675555556,98.04601706010206 74.60304142222223,98.02317317578871 74.59996088888889,98.01713815319633 74.59659022222222,98.01794662687735 74.59265326232612,98.03306607962921 74.59262506666667,98.03317434921979 74.58607573333333,98.03612824216802 74.57136213333334,98.03681789026105 74.55358435555556,98.02956436027601 74.55235697777778,98.02862374142055 74.53141248820452,98.0145238283182 74.53116302222223,98.0143558684061 74.52065493333333,97.99927434209297 74.50166826666667,97.98022417886455 74.47956266666667,97.9499988363435 74.45043342222222,97.91728094150267 74.44459946666667,97.90683047103632 74.45151857777778,97.89365941935401 74.4451256888889,97.8885111217859 74.44488391111112,97.88753737008398 74.44485506729771,97.8873373031717 74.43821084444446,97.88044454192216 74.41762631111112,97.88594642033559 74.39598293333333,97.87274643165085 74.3871047111111,97.87981815586559 74.38148266666667,97.8863185597813 74.38121742222222,97.91253301362026 74.3358912,97.9189716499981 74.32190648888889,97.92587750812119 74.31790008888889,97.93875058017207 74.30530275555556,97.94853730356164 74.29657671111111,97.96973452787304 74.27199075555556,97.98808026361966 74.15267482793138,97.99337338261725z" stroke="#0E478F" stroke-width="0.005" stroke-opacity="0.8" fill="royalblue" fill-opacity="0.75"></path></g></svg>