<svg version="1.1" xmlns="http://www.w3.org/2000/svg" preserveAspectRatio="xMinYMin meet" viewBox="73.15928248888889 97.84194209490357 0.14959360000000288 0.18629754896971917"><g data-fips="11" data-geo-i-d="11001" data-county="District of Columbia"><path d="M73.15928248888889,97.89791872996248 73.16060444444444,97.89968490418647 73.16152888888888,97.90288437265235 73.16380444444445,97.90626649623667 73.16885333333333,97.9118420446147 73.17091555555557,97.91750850429374 73.17248,97.91915351277336 73.17781333333333,97.92390552517438 73.18030222222222,97.92545899219142 73.18599111111111,97.92756068247944 73.18872439835812,97.92790897205568 73.19459626666666,97.92865718951643 73.19594737777777,97.92947955763321 73.19658737777777,97.93002779725374 73.19928960000001,97.93971260018253 73.20301937777778,97.94751603799946 73.20519182222222,97.9475681064893 73.20597404444445,97.94839023500322 73.20810737777778,97.95195267158152 73.20796515555556,97.95377948630329 73.20952960000001,97.95606293241889 73.2115207111111,97.95551491267571 73.2120184888889,97.95396216494815 73.21130737777779,97.952226697067 73.21216071111111,97.95195267158152 73.2135437563144,97.95296781659033 73.21365404444444,97.95304876658336 73.21557404444445,97.9556062496208 73.21664071111113,97.95843763118731 73.21678293333333,97.96053825385394 73.21649848888889,97.96190818854578 73.22176588881274,97.97418908696882 73.22190364444444,97.97451023190165 73.22112142222223,97.98254504094777 73.21479182222222,97.98391451154065 73.21301404444445,97.98391451154065 73.21280880931698,97.9844744343612 73.21244515555556,97.98546654331517 73.21251626666667,97.98893565675404 73.21351182222223,97.9903049926507 73.21415182222223,97.98975726175506 73.21514737777778,97.9898485505583 73.2165696,97.99121786721648 73.21735253333333,97.99450410946804 73.21664142222222,98.0010751827301 73.21735253333333,98.00636879938263 73.21898808888889,98.00700765499613 73.21678364444445,98.01987469565691 73.21670684444445,98.02823964387329 73.22707651436978,98.01767298154205 73.24345102222223,98.00098390969653 73.24444657777778,98.00061881628042 73.24963768888888,97.99486832442052 73.25902435555557,97.9861056044459 73.27150827644914,97.97324585336311 73.27421148247139,97.97046093158073 73.27737173333334,97.9672049974371 73.28021617777777,97.96464797122533 73.30119466666666,97.94354866162958 73.30183466666666,97.94290918154228 73.30787911111112,97.93687948806603 73.3088760888889,97.93583793881307 73.29596520060231,97.92263283309826 73.29059840000001,97.91714294118829 73.28574501831851,97.91232142845223 73.25020976316857,97.87700858313815 73.24266808888889,97.86951163559999 73.24260322121337,97.86944402984798 73.23854364444445,97.86521295723972 73.23463253333334,97.86127987397703 73.23335253333333,97.85990781200576 73.21863182222222,97.8454536601284 73.2152760888889,97.84194209490357 73.21420924599673,97.84302092597706 73.20583182222222,97.85149186272798 73.19349974470494,97.8636877333928 73.18344524679702,97.87362948129245 73.17937777777779,97.87765090484086 73.17283555555555,97.88460048292933 73.17013333333334,97.88688636548193 73.15928248888889,97.89791872996248z" stroke="#0E478F" stroke-width="0.003" stroke-opacity="0.8" fill="royalblue" fill-opacity="0.75"></path></g></svg>