<svg version="1.1" xmlns="http://www.w3.org/2000/svg" preserveAspectRatio="xMinYMin meet" viewBox="14.044721777777786 111.77778337915674 3.868608711111099 2.5185006148482785"><g data-fips="15" data-geo-id="15001" data-county="Hawaii"><path d="M17.025976888888888,113.67451046565408 17.020896711111103,113.68340261527969 17.026600339733342,113.68957405602553 17.02934400000001,113.69254263917301 17.029936355555563,113.70388681948795 17.032561777777786,113.7074451586677 17.04101048888889,113.71400564275011 17.045844622222226,113.72257316250085 17.047163022222232,113.72767381128429 17.042968177777787,113.72988196152153 17.041782044444435,113.73733530392633 17.0432512,113.7414544569325 17.046057244444434,113.74432909722792 17.068282311111115,113.74982749685428 17.08023263513672,113.77235143442975 17.082164622222223,113.7759924457276 17.087310933333335,113.79247127173936 17.08846222222223,113.81538815478709 17.091405511111105,113.81630730609393 17.093501155555554,113.81854553878814 17.09478613333334,113.8224446139224 17.09961742222222,113.85006659541837 17.100162133333328,113.86605791137174 17.101162666666664,113.86768423412394 17.109941333333335,113.87151008055295 17.11189119999999,113.87126267139503 17.112433066666664,113.86845439147069 17.116072533333337,113.86898769052931 17.12062293333333,113.8716390650067 17.12170026666667,113.87374730037206 17.119881955555563,113.88168962792085 17.120519822222217,113.9037768442902 17.12234168888889,113.90999345772256 17.131315911111113,113.9213754372067 17.1279296,113.93219318167968 17.13863680000001,113.94962487291176 17.145812622222223,113.97220180519369 17.14676906666666,113.98043920868669 17.14429013333334,114.00922132740261 17.141024000000005,114.02750317781653 17.13595377777777,114.03971568684554 17.134286222222222,114.06101613830474 17.135403377777788,114.0703207534733 17.125481244444444,114.11687400031317 17.12256782222222,114.14305342367535 17.131836444444446,114.1731890686092 17.13515164444444,114.17346070401828 17.147535644444442,114.19228337083739 17.149100800000006,114.20469182170012 17.150897777777775,114.20666424104871 17.17052942222223,114.21635437077462 17.20454471111112,114.22372188701809 17.234774755555556,114.24788610008135 17.26148053333333,114.25721059985767 17.284894577777777,114.27893624981884 17.286989511111116,114.28521151433625 17.288735288888894,114.29185481854796 17.29292444444444,114.2953608861329 17.299907555555546,114.29628399400502 17.309521066666658,114.29074449329941 17.324050488888883,114.27804835011442 17.333333333333336,114.26435615626534 17.333151288888885,114.26283955479809 17.34117973333333,114.25648722397486 17.349784177777778,114.25560518099674 17.35358506666667,114.24877571738443 17.353932799999995,114.2351043916868 17.36398008888888,114.21749920372945 17.367751822222232,114.21360883508748 17.374971733333325,114.20975821369098 17.381425066666676,114.19920092963139 17.382985244444455,114.19365863763751 17.382879288888883,114.18203835984355 17.381107911111112,114.17244263252506 17.38586382222222,114.16743868646905 17.386822335855648,114.16707310657284 17.390360177777783,114.16572375405538 17.401669688888898,114.14867774252367 17.403636622222216,114.14703781284021 17.408247466666662,114.14618284322152 17.41359146666667,114.14071044691966 17.41358933333334,114.13779163674359 17.411740444444455,114.134534801962 17.41846684444445,114.1304649557358 17.446639644444442,114.12364821043381 17.455277511111106,114.11989342108711 17.470208711111102,114.10583754693526 17.47406719999999,114.09911958520343 17.48098204444444,114.09286130668019 17.49994595555555,114.08283701237502 17.508524088888894,114.0818852156939 17.52132906666666,114.07699434129152 17.529494755555547,114.07034786423957 17.535098311111103,114.05808490778958 17.554936888888896,114.04553752199573 17.56088362862649,114.03820083135932 17.56173653333333,114.03714853872044 17.566747733333333,114.03379338851732 17.58960426666666,114.02782409931906 17.60429439999999,114.03000875404165 17.631365688888884,114.03784757964637 17.638215111111116,114.03755530870603 17.644496355555546,114.03389357730448 17.655172977777774,114.03170597807728 17.66425955555555,114.03222199585078 17.68270222222222,114.02640329966988 17.697228800000005,114.01546877234874 17.73388159999999,113.99586119025528 17.763173688888898,113.9847981019102 17.79138773333333,113.97125216969235 17.8029376,113.95892508455361 17.81746844444444,113.9467090836613 17.828428799999994,113.93480247663652 17.857552355555548,113.91310390822458 17.87126044444445,113.9042805796917 17.892590222222214,113.88503762068873 17.903667199999997,113.87172656315512 17.913330488888885,113.84321393385868 17.913201066666666,113.8407309466962 17.90974791111112,113.83491145957868 17.900990577777783,113.82922525122386 17.893415822222234,113.82867593253933 17.88258275555555,113.82051282531992 17.866666666666667,113.81475878116967 17.846370133333345,113.80432534499386 17.83152213333334,113.79230144502452 17.828832000000006,113.78766017773492 17.824753777777772,113.78403474837543 17.815391288888897,113.77848581277766 17.812612266666676,113.77187446582997 17.814956088888884,113.76558361377883 17.814845155555545,113.76384494683563 17.813078044444453,113.76217571252994 17.803425422222226,113.76131202009084 17.79602346666666,113.75708708627943 17.78931342222222,113.75071014721847 17.789218125471294,113.74742548726297 17.78864497777779,113.72766852496659 17.791216355555562,113.71367709830739 17.78690275555556,113.70020449658512 17.784244526125523,113.6946028965173 17.779713422222226,113.68505405027315 17.773210311111104,113.6769658825805 17.745506133333343,113.67655942009209 17.732286577777774,113.68479946181372 17.721297066666658,113.68685730686762 17.7158272,113.68548239225568 17.715608702278406,113.6851218232352 17.71136924444444,113.67812557750571 17.711316792366215,113.66351545671768 17.711276800000007,113.65237470241325 17.712913066666665,113.64894698279811 17.712305777777775,113.6315340806345 17.710638933333335,113.61981800593188 17.714503822222227,113.61093930111598 17.716854044444435,113.60192235237177 17.71779057777777,113.59349140673147 17.71637973333333,113.58920993487554 17.710199466666666,113.57977170957405 17.707579733333336,113.57982539380217 17.70130417777778,113.576304867317 17.691200000000006,113.56599675176638 17.689160533333336,113.5575352977209 17.68445511111111,113.55034081423982 17.675097599999997,113.53996238976387 17.671669333333334,113.53818566932048 17.649821155555564,113.51813995194696 17.639400533333337,113.51133423332962 17.63236551111111,113.50295894472514 17.606447644444437,113.48726977331663 17.585553066666662,113.46884115529676 17.576797155555568,113.46320726509829 17.56765866666667,113.46133857711301 17.542961777777784,113.45068218053899 17.502166755555564,113.4290303817807 17.49162666666667,113.42265415058931 17.489451377777772,113.42020789452535 17.462075022222216,113.40767978961269 17.444827733333337,113.40088137967703 17.420401066666678,113.39341540098879 17.41027911111111,113.392601301434 17.40539662222222,113.38896769865299 17.380314311111114,113.38022629922531 17.373604977777784,113.38100261492369 17.364138666666662,113.38624961819346 17.357565866666665,113.38709784169485 17.352509866666676,113.38555134393033 17.350464711111112,113.38401088484478 17.345566577777774,113.37536606854708 17.333642666666673,113.36936416183032 17.329506133333336,113.36860291894082 17.31273528888889,113.3531164325981 17.281244627429686,113.33691123399156 17.256743822222212,113.32430149990213 17.25452657777777,113.31897824105538 17.253686044444436,113.31113044782595 17.246653866666666,113.30389146380868 17.228278044444433,113.29397503129469 17.224366933333336,113.29372188000531 17.220805688888888,113.29322770286605 17.200740266666656,113.2826728874818 17.170991644444438,113.27416164374273 17.15632284444445,113.27704528693057 17.150129066666665,113.28062169464569 17.14441742222223,113.28652351508086 17.13674524444444,113.30126767700102 17.13348622222222,113.32447956917713 17.13838293333334,113.36950277568002 17.149020444444453,113.39902306968192 17.161293511111115,113.4202987498768 17.173059555555565,113.4325227033428 17.188848355555557,113.45302335439946 17.190774755555566,113.46019873114949 17.188291555555548,113.48320697418434 17.186170311111105,113.49286771890716 17.18377813333334,113.49793500261045 17.18137457777777,113.49835190706318 17.179940977777775,113.49727370290304 17.168648533333343,113.50337734481771 17.161302044444447,113.51450866970202 17.143087644444456,113.53115870438106 17.141707377777777,113.53511851421757 17.14197404444444,113.53798674154827 17.136364800000006,113.54634747370494 17.12912925595946,113.56039009409358 17.12664035555556,113.56522012878888 17.11965155555556,113.57438955464647 17.11862186666666,113.57800314106831 17.1190483848761,113.582680295598 17.119400533333344,113.58654178162833 17.10911217777777,113.59154915104159 17.105566577777772,113.59068877237651 17.104931700903823,113.59007574365722 17.10275484444444,113.58797377604326 17.09168568888888,113.58937324297968 17.083270399999996,113.59289111774987 17.078882844444443,113.59657974779086 17.063863338542937,113.61569589373062 17.062210133333327,113.61779983249787 17.05121280000001,113.62942465167168 17.031359288888883,113.64586074260015 17.029464888888896,113.66370603720634 17.025976888888888,113.67451046565408z" stroke="#0E478F" stroke-width="0.0075" stroke-opacity="0.8" fill="royalblue" fill-opacity="0.75"></path></g><g data-fips="15" data-geo-id="15003" data-county="Honolulu"><path d="M15.446983822222219,112.27890232155308 15.445681777777788,112.28119259649816 15.451649355767465,112.285291539868 15.466189511111104,112.29527808491001 15.477821155555548,112.30851624705463 15.47964444444444,112.31388522294172 15.480056177777787,112.32090127191871 15.478755555555553,112.34861331497784 15.488393955555553,112.36223101214362 15.498394311111102,112.36986215471882 15.5076608,112.37884204160599 15.514561422222222,112.3925683405098 15.515733333333326,112.39960005535792 15.515538488888888,112.40818723677981 15.517013333333328,112.41225526162786 15.517827737988975,112.41265702742668 15.529427199999999,112.41837916971863 15.537977599999998,112.4268366069198 15.544675555555559,112.43554845731823 15.549696,112.44669158007551 15.55164296825244,112.4544675601785 15.555229155555551,112.46878898971694 15.557333333333332,112.47479224531307 15.55832888888888,112.47899066885223 15.56430222222223,112.49044011569451 15.570986666666673,112.4934931040939 15.581653333333332,112.49280618894907 15.582828785673964,112.49259855493754 15.612810442096352,112.48730241138081 15.62702222222223,112.48479186804606 15.636298682503831,112.48326311561591 15.657582222222219,112.47975552834939 15.662821688888895,112.47694720126064 15.666335882059382,112.47181910837708 15.667220622222219,112.47052801267218 15.678662400000011,112.47758459615895 15.679476622222218,112.48234242463718 15.678390755555565,112.48690541456557 15.707786666666673,112.4874877968725 15.722666666666678,112.48692907629098 15.736879880004988,112.49553352630609 15.739340822124804,112.49702327392573 15.743152800659907,112.4993308413418 15.750365866666673,112.50369711491686 15.76398222222223,112.50753578084182 15.768654696296533,112.51368958293203 15.768675555555557,112.5137170545067 15.769528888888898,112.51890600922331 15.771662222222222,112.52195822356862 15.779840000000009,112.52417102712417 15.791573333333327,112.52211083210936 15.800928711111112,112.51840849042527 15.809388040662048,112.51011801334843 15.811555555555566,112.50799366463505 15.817102222222214,112.50868048682345 15.834902044444446,112.50561722744206 15.843622711005164,112.50808048244956 15.845028266666668,112.50847749314738 15.849671111111114,112.5132591940517 15.847679999999997,112.51745617835985 15.847893333333337,112.51951645872597 15.850880000000002,112.52081365290599 15.857706666666672,112.51936384666128 15.861759999999999,112.51745617835985 15.86789333333333,112.51038760333005 15.892599466666677,112.49279397708622 15.892243602828806,112.485291957713 15.892053333333328,112.48128065176701 15.887873314983821,112.48163604994711 15.88487111111111,112.48189130597643 15.87015068566543,112.47208330291548 15.86218666666666,112.46677663621693 15.859839999999997,112.4641046390451 15.851520000000002,112.45112545990112 15.850240000000001,112.44723141262101 15.848817777777771,112.43929019023696 15.851591111111116,112.43134840383915 15.85144888888889,112.42829372035571 15.844337777777785,112.41851817196591 15.842785422222228,112.41589008370656 15.842456601139203,112.41493763568917 15.842243555555555,112.4143205333198 15.84174648888889,112.41322068924492 15.841610666666668,112.41315576755466 15.841218844444445,112.41307480633505 15.840857600000001,112.41302668784654 15.840480711111114,112.41301064834575 15.838989511111121,112.41336657196419 15.837709511111118,112.41393253400801 15.83630862222223,112.41411049448966 15.830328888888896,112.41225526162786 15.828472177777783,112.40437724353083 15.828791466666674,112.39717089817391 15.829120219771742,112.3961435847859 15.832305777777785,112.38618861406978 15.835500088888896,112.3813839065674 15.839460977777769,112.37736518149953 15.841773511111105,112.3702961521169 15.83102791111111,112.37040006673591 15.825778488888885,112.37464825786745 15.81185991111112,112.36868393494423 15.806429155555554,112.37143003874601 15.801657599999999,112.38009197102684 15.812916622222232,112.38665539843396 15.806126933333326,112.4006297575973 15.802279822222227,112.40651446105336 15.800622593422931,112.40571216722203 15.796257422222213,112.40359888287853 15.782471111111105,112.39254771451267 15.778176720770839,112.38666555331737 15.77678222222223,112.38475539814485 15.775075555555548,112.37719174656577 15.768967111111104,112.37323475902033 15.757518222222219,112.37009901970556 15.754318222222214,112.36454860578839 15.751907010221517,112.35248326006118 15.749244444444452,112.33915865710073 15.751410488888885,112.33180057173206 15.760091022222232,112.32989963471762 15.760394666666677,112.31624739833012 15.749283555555566,112.29517027704598 15.746744888888882,112.29276406999463 15.739093333333344,112.29044039055098 15.735091200000008,112.2951289889001 15.73077262222222,112.2931310830247 15.731662222222218,112.28158794133816 15.715147377777773,112.2581798714757 15.707877688888887,112.25412761918093 15.698631111111112,112.24026944644359 15.699342222222226,112.23506749808911 15.698068622222229,112.22352824347757 15.694151111111104,112.22045483286651 15.687822222222227,112.2098957874942 15.682009600000008,112.19415634331905 15.666753422222227,112.17644907835799 15.653667555555552,112.17660981581388 15.64992,112.18004954114691 15.631554133333339,112.1862069476704 15.617991111111102,112.19818783851835 15.599004444444452,112.21800644852864 15.597005511111114,112.22264303042213 15.596942222222223,112.22925326600104 15.587630222222227,112.2411866469474 15.567512888888896,112.25695457414807 15.56657777777778,112.25832136873262 15.56857671111112,112.26036808719545 15.568554666666671,112.26529887119129 15.557252812928002,112.27162915667174 15.555121777777781,112.27282273100565 15.523555555555564,112.27621740138689 15.508832711111104,112.27347047181897 15.463520000000003,112.27592374624427 15.446983822222219,112.27890232155308z" stroke="#0E478F" stroke-width="0.0075" stroke-opacity="0.8" fill="royalblue" fill-opacity="0.75"></path></g><g data-fips="15" data-geo-id="15005" data-county="Kalawao"><path d="M16.34520703662151,112.57924555732733 16.352625777777778,112.58457595969723 16.374298311111104,112.58707274630656 16.382216533333324,112.59917611613204 16.382298311111118,112.58336110126173 16.384758044444446,112.59797132776944 16.396703999999996,112.59856228569345 16.41381546666667,112.62196478314519 16.426495288888894,112.62032873304805 16.427465955555554,112.60814604753172 16.41369030681031,112.59238082427147 16.393842488888893,112.58652138370722 16.39053653333334,112.58143240081789 16.38993493333334,112.57454860067423 16.38197546666666,112.55893608461247 16.377554488888887,112.55520825633758 16.374043022222214,112.55407546638764 16.36691057777777,112.5588849775086 16.366603377777775,112.56051352829284 16.368111644444454,112.5622412156754 16.364253866666676,112.57631191857769 16.36172942222222,112.57924055172349 16.35618986666666,112.58174889603582 16.34520703662151,112.57924555732733z" stroke="#0E478F" stroke-width="0.0075" stroke-opacity="0.8" fill="royalblue" fill-opacity="0.75"></path></g><g data-fips="15" data-geo-id="15007" data-county="Kauai"><path d="M14.373018311111103,111.93323765356256 14.373900800000007,111.94190654187821 14.382810311111118,111.9518287742407 14.388810666666663,111.96660919666314 14.396590222222223,111.97337368396174 14.420100977777778,111.98025276945762 14.430012444444442,111.98605874448585 14.457802666666673,111.99191961306133 14.46343608888888,112.0002288705743 14.471277511111111,112.00705106578987 14.480901688888885,112.02054547433355 14.49760782222222,112.03223636671014 14.504334933333343,112.0389370070212 14.508509866666666,112.03705323591062 14.515407644444451,112.03394088058526 14.524785066666665,112.03850936777147 14.538107022222215,112.04191893957059 14.558636088888893,112.04534526431276 14.569097955555561,112.04212738825076 14.582341688888887,112.04429155252822 14.595312355555548,112.04669706586654 14.616982755555547,112.05703810132617 14.624741688888895,112.05276923810837 14.632897422222232,112.04691163600451 14.637035377777769,112.04196108915197 14.645605688888889,112.03807942769886 14.651105422222221,112.03072496795001 14.657273142153949,112.03048782561972 14.657962666666673,112.03046131409695 14.659362844444454,112.02346199127437 14.663193599999998,112.01676653359895 14.671722666666675,112.0131890669024 14.680826311111115,112.00876440545447 14.686750577777781,112.00511921429067 14.69320533333333,111.99376889549512 14.69875057777778,111.9868653610144 14.696182044444443,111.97300713482814 14.699089066666662,111.9626957092886 14.696843377777785,111.95682406384267 14.694694399999996,111.94900544826382 14.692557511111106,111.9383465591507 14.695474488888896,111.9243417543586 14.695800853345423,111.92255749419661 14.696739555555562,111.91742537186606 14.702439822222226,111.91493106966855 14.7070008888889,111.90921260217073 14.708171377777782,111.89846616234168 14.714752000000004,111.88886828054679 14.717232355555563,111.88026499503673 14.7223943111111,111.87568448362113 14.724968533333332,111.86198093527983 14.72477937777777,111.84556709147633 14.720723200000005,111.84303197796645 14.715483733333329,111.84100353723272 14.718018844444448,111.83356738699653 14.71103715555556,111.82363892529821 14.711258311111104,111.81581990701619 14.699764622222231,111.80669316279648 14.697546666666677,111.80281460028328 14.684609422222215,111.79130174420408 14.676261688888898,111.79200304280818 14.66156728888889,111.78979159392718 14.661034666666659,111.78379994477756 14.647135288888887,111.77778337915674 14.644095288888881,111.78310166552247 14.634862222222223,111.78505898691316 14.626341688888898,111.7874533540836 14.613955555555549,111.78350726722496 14.605632000000009,111.78412258052822 14.59734044444445,111.78150997135694 14.586354488888881,111.78015793467053 14.577120711111114,111.78810013903824 14.57959395555556,111.79198921659282 14.57891768888888,111.79655253946457 14.570129066666677,111.80010182771377 14.56511502222222,111.79190779551094 14.55602204444444,111.79072641477823 14.550016000000001,111.79215820354761 14.546542933333331,111.78616284518448 14.535818666666657,111.78235498566721 14.528212622222217,111.78488998882382 14.520136533333325,111.78478551714508 14.498382222222224,111.80176083603283 14.484930844444454,111.80842579832408 14.472099555555562,111.81784882082715 14.45232426666666,111.82782081556438 14.44226918753494,111.83085405884435 14.431622399999995,111.83406570568206 14.422928355555552,111.83994707459496 14.413835377777772,111.84893589047398 14.408379733333337,111.86466605556143 14.403379911111108,111.88151677334551 14.37600284444444,111.90654239737688 14.375919644444448,111.91965339277947 14.373018311111103,111.93323765356256z" stroke="#0E478F" stroke-width="0.0075" stroke-opacity="0.8" fill="royalblue" fill-opacity="0.75"></path><path d="M14.04804053333333,112.07211993095683 14.044721777777786,112.09801102626164 14.055267555555556,112.11312014893993 14.067168711111117,112.12205198822144 14.075839288888893,112.125296616901 14.079696355555562,112.11996594076169 14.076294400000007,112.11799472733009 14.087266133333328,112.0924155195299 14.097922844444454,112.07366753213473 14.107292444444445,112.0600118779657 14.117255822222232,112.0538297646478 14.133843200000006,112.05078378830177 14.151895466666671,112.04471303846094 14.165998222222212,112.03600021056857 14.165324799999993,112.02471212224893 14.161218133333326,112.01207448614129 14.166476088888885,111.99071740930876 14.175423288888892,111.9743015538676 14.177174044444454,111.97292738338874 14.17916515555555,111.9741734929543 14.182161066666676,111.973245621957 14.184726044444446,111.9714189966045 14.185250133333325,111.96884234449766 14.180591644444455,111.95910342883714 14.170934755555553,111.95377000800602 14.153635555555553,111.95518506965274 14.142047288888898,111.95997390051026 14.135280355555551,111.98479206845485 14.133333333333335,111.98769880737116 14.131696355555565,111.99044522485772 14.124764444444454,111.99571704839985 14.10313173333333,112.00780616511084 14.086998755555559,112.01491304181775 14.078068622222217,112.02347502153002 14.076068977777787,112.02724223316945 14.070165333333334,112.03361438853003 14.059402666666676,112.04133650732749 14.057935644444438,112.04352367761498 14.04804053333333,112.07211993095683z" stroke="#0E478F" stroke-width="0.0075" stroke-opacity="0.8" fill="royalblue" fill-opacity="0.75"></path></g><g data-fips="15" data-geo-id="15009" data-county="Maui"><path d="M16.568967111111103,112.78107331327384 16.57072497777778,112.78431716223969 16.57505137777777,112.78730742056683 16.577328355555558,112.79196241479941 16.5775616,112.8038407347709 16.576733155555566,112.80539879251444 16.5840824888889,112.81919889268654 16.617390933333326,112.85671302196889 16.684265244444436,112.88929479336615 16.693180444444444,112.88745950002416 16.699737599999995,112.8772572289768 16.706825955555562,112.8732796720801 16.709910755555555,112.87292214921624 16.71858062222222,112.8741346796879 16.729911466666678,112.8799027718548 16.73668053333333,112.88681603756083 16.737639626336,112.891516692599 16.73809208888888,112.89373421094615 16.737961244444442,112.90789402357925 16.74066631111111,112.92103092065396 16.744607999999992,112.92512848004625 16.745928533333327,112.92955206848775 16.7476224,112.94531228718357 16.751165866666675,112.98234450278584 16.749586488888884,112.98747263558766 16.74620373333334,112.99283610891334 16.75172693333334,113.01439236055663 16.750761244444444,113.01887558671253 16.754926222222217,113.02389270425749 16.75955768888889,113.02631913647522 16.762518755555558,113.02576457128944 16.76576640000001,113.02332901109821 16.769565155555554,113.02590967010826 16.770025791295282,113.0270213765302 16.77102506666666,113.02943300866175 16.76976142222223,113.03271163796657 16.77133297777778,113.03546831911645 16.798127644444442,113.04129595054515 16.803040000000006,113.04104301068631 16.810926933333334,113.03859941611881 16.816557511111103,113.03480669123705 16.837017599999996,113.03381690103001 16.851419022222217,113.03539235743936 16.85798826666667,113.03342949043474 16.861840355555554,113.03096294593195 16.864433066666667,113.02757639428785 16.877567288888894,113.02367087385382 16.891374397804793,113.01657633427985 16.898741333333337,113.01279078638638 16.906426311111115,113.00747990505079 16.91714986666666,113.00324166201608 16.929466311111113,113.00077143474326 16.935426844444454,113.00232910496479 16.943364977777776,113.00659853348762 16.94596835555555,113.00412305915947 16.955184355555563,113.00238989167 16.96136177777777,113.00282451568131 16.963848533333334,113.00665020028178 16.965216000000005,113.00697463682953 16.974294755555558,113.00399768842385 16.980632888888895,112.99931556399434 17.003118222222234,112.98804334287074 17.00873102222223,112.98358399973027 17.024175644444444,112.98536456587145 17.02870400000001,112.98363491685559 17.03552995555555,112.97559277265785 17.037979733333326,112.96965162276439 17.04483413333334,112.96225382901446 17.05241315555555,112.95890555004782 17.056604444444446,112.95979944742757 17.065336888888893,112.95038657317906 17.072686933333333,112.93853482112192 17.07575751111112,112.93164443199542 17.07703964444445,112.91527553840997 17.076017066666665,112.90437685823306 17.07762702222222,112.89759393861888 17.075239822222223,112.8907064205079 17.064571022222218,112.88092050615195 17.064155022222216,112.87626000018011 17.04299591111111,112.86659837450712 17.024150755555556,112.86485324646222 17.00245973333333,112.84862395711257 16.99546808888889,112.85118799076041 16.98436622222222,112.85210174674815 16.974662400000003,112.83672289404589 16.97232426666667,112.82617898415609 16.948091733333342,112.82292414714017 16.945452088888892,112.81610596410896 16.9435712,112.81433951731636 16.91282417777778,112.791421942788 16.911677866666672,112.78416110027266 16.908755911111115,112.78283951330326 16.90541724444445,112.78408192729071 16.903047822222227,112.78317828561536 16.902998044444455,112.77246498062544 16.894183111111104,112.7679713662665 16.879568355555563,112.7656491139035 16.871028622222227,112.76833454703093 16.86305280000001,112.76046156422589 16.848214755555556,112.76423975014079 16.835855644444443,112.75857090139934 16.829996799999996,112.76141411746444 16.82320711111111,112.76728687778154 16.820867555555562,112.7651100400326 16.815894044444434,112.7652486157626 16.803037155555547,112.77190690497521 16.800499911111103,112.77575399310595 16.792145777777783,112.78188485513036 16.786210111108975,112.78326114649283 16.766102755555565,112.78792327616077 16.74638274866417,112.79484205671349 16.729033955555558,112.80092854838074 16.725061196886056,112.79844665057341 16.724583111111112,112.79814797285928 16.71590186666666,112.78458893793629 16.714038755555563,112.77545783359915 16.711480888888886,112.77045422048943 16.705484088888888,112.7679348197104 16.703721955555558,112.76605265623452 16.70241706666667,112.757736349955 16.69780835555555,112.75516108059574 16.691025066666672,112.74518916764572 16.67819306666667,112.7167611842677 16.675688533333332,112.71687011146891 16.66647253333334,112.70831710411198 16.65390364444445,112.70526611161846 16.650632921929255,112.70149509229061 16.64550684444445,112.69558466692904 16.635564088888895,112.6944487114929 16.631420444444444,112.69985639760607 16.63145813333334,112.70176327311577 16.626075733333327,112.69946023886843 16.609558044444444,112.6996202262173 16.608592355555547,112.70363583484563 16.60971235555555,112.7054458977179 16.607313066666677,112.70965098295285 16.602724266666662,112.71378126118088 16.593412266666665,112.71525904466542 16.58246755555556,112.73566572759421 16.573077333333337,112.75664898726049 16.568967111111103,112.78107331327384z" stroke="#0E478F" stroke-width="0.0075" stroke-opacity="0.8" fill="royalblue" fill-opacity="0.75"></path><path d="M16.567278222222214,113.07621306797967 16.566276977777772,113.08017225038459 16.581021155555554,113.0957084981588 16.591069155555548,113.097255024011 16.606247822222212,113.09172858596648 16.60988657777778,113.09456206660633 16.61785386666666,113.08950700381999 16.637266488888883,113.0823476930671 16.649786311111107,113.0919609157557 16.668448711111118,113.084230765892 16.67554417777778,113.08546006189289 16.679702044444436,113.08353980319765 16.682920533333323,113.0798632051359 16.68253226666667,113.07447414391675 16.673409422222218,113.07094989525838 16.671273955555566,113.06846288532907 16.67633137777777,113.0487676817746 16.680669866666662,113.04490617011697 16.68050915555555,113.04001377523794 16.672992711111107,113.0289126430684 16.663367111111114,113.02118968702143 16.65644728888888,113.01991716549146 16.63236693333333,113.02964115424456 16.6296192,113.03470110388952 16.603330133333333,113.05105839975948 16.583039999999993,113.05755434434715 16.571262577777777,113.06923063667338 16.567278222222214,113.07621306797967z" stroke="#0E478F" stroke-width="0.0075" stroke-opacity="0.8" fill="royalblue" fill-opacity="0.75"></path><path d="M16.31110328888889,112.79343918443328 16.31208675555556,112.80390543226656 16.313128533333334,112.80847298288093 16.316763022222222,112.81411652144686 16.347796622222226,112.83142442679835 16.35111608888888,112.83513254258969 16.361362488888883,112.85263280225077 16.36342542222222,112.86108294891251 16.359821511111114,112.88300995180084 16.366402133333334,112.9058217608028 16.378389333333327,112.92224446430475 16.39181582222223,112.91926608903402 16.420209066666676,112.91885852389909 16.433567999999994,112.91481168875126 16.448175644444444,112.90732444021167 16.461169066666663,112.90324221674804 16.46477297777777,112.90314183237766 16.470527288888885,112.89981540979055 16.485385244444437,112.8769742633338 16.491048533333338,112.86589621850828 16.49175537777778,112.85735513170238 16.490968177777784,112.85306418793206 16.479831466666678,112.83427420018353 16.471433244444437,112.82450020908038 16.42867982222223,112.78505788271451 16.41354666666666,112.77961389374228 16.39997937777777,112.77753702458087 16.37574826666666,112.77679092598835 16.362799644444447,112.77231956144897 16.348443733333344,112.77412396428444 16.33733262222223,112.77429831224431 16.330105600000003,112.7761635903341 16.31350755555555,112.786571282265 16.31110328888889,112.79343918443328z" stroke="#0E478F" stroke-width="0.0075" stroke-opacity="0.8" fill="royalblue" fill-opacity="0.75"></path><path d="M16.134579200000008,112.64319621823621 16.143046399999992,112.64948972088229 16.175975822222224,112.65383406866883 16.249554488888883,112.65088602768205 16.26537386666668,112.64608119657984 16.287585422222218,112.64170453744626 16.298197333333338,112.64293020199887 16.321052444444447,112.64762160008088 16.332767999999994,112.6512244313227 16.336945777777775,112.65280897004963 16.355185777777784,112.66215264851563 16.388357688888895,112.67025114997318 16.42038684444445,112.67811133273634 16.432393955555565,112.68114552994966 16.442924799999997,112.68307405459612 16.456710399999995,112.67817381576778 16.47418666666666,112.67695996242159 16.496213333333333,112.6695142537117 16.506936177777767,112.66041429491844 16.52224568888889,112.65042796168343 16.540912355555562,112.63579555039959 16.55261013333333,112.62236807424185 16.560046933333332,112.61087485759244 16.562413511111117,112.59971979173284 16.5551032888889,112.5957119336536 16.54282808888889,112.59726064910998 16.541624177777784,112.58952829804426 16.538857955555553,112.58632996950512 16.51804800000001,112.58340228311792 16.482173155555554,112.58748988883355 16.46820124444445,112.5926502795043 16.44946204444445,112.59524754363629 16.42912924444445,112.58938493189659 16.429418666666667,112.5914034799763 16.427965155555547,112.59416472205136 16.42420195555555,112.59548393288226 16.41369030681031,112.59238082427147 16.427465955555554,112.60814604753172 16.426495288888894,112.62032873304805 16.41381546666667,112.62196478314519 16.396703999999996,112.59856228569345 16.384758044444446,112.59797132776944 16.382298311111118,112.58336110126173 16.382216533333324,112.59917611613204 16.374298311111104,112.58707274630656 16.352625777777778,112.58457595969723 16.34520703662151,112.57924555732733 16.327120355555557,112.57512290231115 16.32159502222223,112.57525255831833 16.317828977777776,112.57676647183521 16.309856711111106,112.57652089127606 16.28588728888889,112.56970543593971 16.274888533333332,112.57019128721234 16.264386133333332,112.56705419177308 16.252709688888878,112.56624034797899 16.250222222222227,112.56762090426984 16.243837866666663,112.56765065087667 16.223606755555558,112.56391624621877 16.21871004444444,112.56235868219966 16.211822222222228,112.55346901859849 16.204741688888884,112.5515237866617 16.19452799999999,112.55279238683171 16.183798044444444,112.55219432334951 16.172739555555562,112.54738910357844 16.170175999999994,112.54859748423381 16.16841742222223,112.55226755578336 16.169630577777774,112.55471776350257 16.172846222222223,112.55624034392429 16.177592888888892,112.56228621909852 16.177061688888898,112.57509010694453 16.177994666666667,112.58008633291895 16.17299911111111,112.59025503959657 16.163659377777773,112.59836631676349 16.158421333333333,112.59989059530811 16.15044622222223,112.60873695220151 16.147647288888887,112.6171076425527 16.143108977777775,112.62861775878099 16.134579200000008,112.64319621823621z" stroke="#0E478F" stroke-width="0.0075" stroke-opacity="0.8" fill="royalblue" fill-opacity="0.75"></path></g></svg>