<svg version="1.1" xmlns="http://www.w3.org/2000/svg"><g data-fips="25" data-geo-i-d="25001" data-county="Barnstable"><path d="M77.72814237116032,95.48379513246263 77.73058560000001,95.49120164643642 77.73272675555556,95.49220170595584 77.73767324444445,95.49147896751569 77.74247395555557,95.48973619269813 77.74417564444445,95.49316566055788 77.74612042240364,95.49547800837055 77.75014684444444,95.49482096802109 77.7570816,95.49007810337054 77.76453191111112,95.47741474218809 77.77165724444446,95.47181266150105 77.78767573333333,95.46731409740909 77.80351265461128,95.46511503298098 77.82422115555555,95.46223939775444 77.82436826220238,95.46223605700305 77.8250226955737,95.46222119499954 77.84356517438307,95.461800098863 77.84416698394006,95.46178643183508 77.84690833584328,95.46172417600056 77.8507896888889,95.46163603074315 77.87147093333333,95.45871032933726 77.8769272888889,95.45661977853727 77.88355128888888,95.45257341035068 77.89420231111112,95.439915622499 77.90195024142457,95.42696299963427 77.90557226666667,95.42090693185833 77.91129173333333,95.40805621306913 77.93170844444445,95.40613892976006 77.93736462222222,95.40705478238576 77.95260373333335,95.4023194011231 77.95921493333333,95.39801358659716 77.9628487111111,95.39061015103336 77.96274346666667,95.38770865093669 77.96597191111111,95.38357211118226 77.97217137777778,95.38012985599448 77.98181902222223,95.37855898932673 77.9876096,95.38023356412839 77.99353742222222,95.38410584323432 78.00057813333333,95.38705508099105 78.00842453333334,95.38505532299749 78.01555911111112,95.37964556523107 78.02217244444445,95.37971311878908 78.02700657777778,95.38180438790299 78.03084088888889,95.38863999985955 78.0304448,95.39621869461425 78.03193813333333,95.40274644688277 78.03347626666667,95.40424821671698 78.03761706666667,95.40279305080585 78.04059022222222,95.3964412754867 78.04002844444445,95.39343826805549 78.04738346666667,95.3860361829484 78.05479553415168,95.38300004594942 78.08635662222223,95.37007028488318 78.10942506666667,95.36514171065036 78.12204302222223,95.36515598591131 78.1384832576094,95.35987669619641 78.1587640888889,95.35336348756329 78.1827392,95.35143116699089 78.20135395555556,95.34866965140523 78.21211662222223,95.34464566912123 78.21723662222222,95.34501885294934 78.22481137777778,95.34920273546001 78.23948871111112,95.36200107242979 78.24131342222223,95.36844872396392 78.23823786666667,95.3838413562739 78.23249066666666,95.39441804273471 78.22775822222222,95.40996773053985 78.22449422222223,95.44147351327942 78.216096,95.45306757951546 78.21254684444445,95.45965865574175 78.21423715555555,95.46641909563758 78.2200448,95.47228292532056 78.22865351111112,95.46690175214049 78.23060266666667,95.45618265437594 78.23349617777778,95.43139072212497 78.24555235555556,95.40175348957935 78.2522488888889,95.39375598311256 78.2569464888889,95.37431430822691 78.25948515555557,95.36994181771261 78.26527004444445,95.3458566042864 78.27323662222221,95.32586073336674 78.27295857777779,95.2786563577336 78.26776746666667,95.21365194783004 78.26111004444445,95.17948768151271 78.24455253333333,95.11599637190193 78.23211733333333,95.07977239615926 78.21376142222222,95.04139721323914 78.1983992888889,95.01458728870315 78.18060017777778,94.99292574750712 78.16346737777778,94.97923767456885 78.1397560888889,94.96680427372627 78.1083264,94.95627589569438 78.08760533333333,94.95272227635267 78.07509404444444,94.95314097996325 78.06177706666666,94.95630176382534 78.05291591111111,94.96178460112083 78.04772622222222,94.97054480992415 78.04903822222222,94.97357538551829 78.05235555555556,94.97366158805136 78.05635128888889,94.97630986189445 78.06670151111112,94.98767362250305 78.07429973333333,95.00214866497458 78.08235164444444,95.0100951653731 78.08651804444445,95.01239343566806 78.08945208888889,95.01251212782063 78.08974577777778,95.01116821282503 78.08492515555557,95.00516809357876 78.08331022222222,94.99886197014433 78.0839424,94.99378079075956 78.0893752888889,94.98326665839872 78.09531164444445,94.97754919528893 78.10148906666667,94.97437323318437 78.1117048888889,94.97181299583605 78.1167687111111,94.9722526402171 78.13472497777778,94.98210022463584 78.14537955555556,94.98982527712525 78.15424355555555,95.00013626759693 78.15852231111111,95.0077336285693 78.1626488888889,95.02003807775597 78.16716728888889,95.04543739157151 78.16959573333334,95.09023833387697 78.16731591111112,95.12523985122172 78.17314844444444,95.14157733777492 78.17700124444444,95.13438640213533 78.17861546666667,95.11770681739294 78.18367786666667,95.10715766883207 78.18349226666668,95.10102458199457 78.19022577777778,95.09846010551554 78.20050702222223,95.09931558021336 78.2040512,95.11599732747143 78.20491733333334,95.1283028660797 78.21357937777779,95.13514680149552 78.22014435555556,95.13642780461748 78.22208853333333,95.13965359715738 78.21581297777779,95.1495037702639 78.21903217777778,95.18559284458726 78.21949013333334,95.21451248799163 78.2162048,95.22189050248275 78.20463360000001,95.23469259274484 78.19858354611662,95.23766898594727 78.17648782222223,95.24853799947584 78.15391217777777,95.25454092919304 78.13548231111112,95.26188933020006 78.12157653333334,95.26071581889914 78.09274595555556,95.26947323572861 78.0876416,95.26842759723559 78.06857031111112,95.2770066425521 78.05521777777778,95.28581985637152 78.03789866666668,95.30466470692294 78.03473493333334,95.30451133426311 78.02859448888888,95.29762250517453 78.02760955992363,95.29545017015828 78.02652231111111,95.2930520714965 78.01531946666667,95.28526811476095 77.95531306666666,95.28101124672341 77.94960229900396,95.2798534061074 77.92890595555556,95.27565710243539 77.88689635555555,95.25929441966346 77.8708992,95.24754826039458 77.85428551111112,95.23126961720183 77.84344462222222,95.2180651885051 77.84014980693817,95.21228091524264 77.82018631111112,95.23535542041733 77.80892586666667,95.24016571272429 77.77240533333334,95.25801599012814 77.7771591111111,95.26536111403345 77.78077511111111,95.2726710438408 77.76503869893781,95.30042020796827 77.77669048888889,95.30557826654604 77.77873635555555,95.31090979154527 77.7774648888889,95.3192028815051 77.76287146666667,95.32386659646545 77.75184,95.33532961691822 77.76050844444444,95.33610370770995 77.76262542222223,95.3384935204067 77.76781965178311,95.35761618828758 77.76879502222222,95.36120637028199 77.76803911111112,95.36610385580087 77.75970204444445,95.37107612594414 77.75814115555556,95.37714032228115 77.76337706666666,95.3812145011971 77.76710897777778,95.38971117633386 77.75858773333334,95.40343884438144 77.75825848888888,95.40816938416975 77.76566044444445,95.42922508720882 77.76643697777779,95.43468275916015 77.76515697777778,95.43937857350164 77.76086755555556,95.44176911835581 77.75722737777778,95.44624579297962 77.7561848888889,95.4535275333962 77.7569408,95.4607228923887 77.75384248888889,95.46693785621466 77.72814237116032,95.48379513246263z" stroke="#0E478F" stroke-width="0.003" stroke-opacity="0.8" fill="royalblue" fill-opacity="0.75"></path></g><g data-fips="25" data-geo-i-d="25003" data-county="Berkshire"><path d="M75.72754346666666,94.94896627060788 75.73555271111111,94.98400883572609 75.74235448888889,94.9840442684817 75.78111146666667,94.98313545965839 75.87952355555555,94.98658579663338 75.88046435555556,94.98662793109611 75.92322902291599,94.98847971271115 75.9245824,94.98853831528214 75.92547697777778,94.98860343007686 75.99838044466361,94.99139260568121 76.05099513875015,94.99340548430186 76.05002595555555,94.97641904684002 76.03691591111111,94.94134239842127 76.044928,94.9193422234386 76.03831964444446,94.88957807791837 76.06405973333334,94.89391703363441 76.08561066666667,94.79178011404986 76.08757333333334,94.79088859724945 76.08876586666666,94.73162230447957 76.06798364444445,94.73557449077256 76.04416995555556,94.71597161247644 76.0401720888889,94.66615540159457 76.0421176888889,94.65807705331011 76.08058097777777,94.66715368763916 76.11122986666668,94.51261388506198 76.10379662222223,94.5110648355336 76.10637582222222,94.49714573184158 76.12370560000001,94.41506283507485 76.12099271111111,94.39109955245607 76.1061048888889,94.39588543043129 76.09201137777778,94.38382475242457 76.12134897777779,94.36741501775724 76.12532764444445,94.35404711665261 76.07202915555555,94.3554037807298 76.07252266983204,94.31819063890889 75.98756023635421,94.31589317780882 75.90047502222222,94.31353822354458 75.83820302222223,94.5415704042875 75.81617375482055,94.62289071834229 75.750458279872,94.86482941661657 75.72754346666666,94.94896627060788z" stroke="#0E478F" stroke-width="0.003" stroke-opacity="0.8" fill="royalblue" fill-opacity="0.75"></path></g><g data-fips="25" data-geo-i-d="25005" data-county="Bristol"><path d="M77.6305464888889,95.40693875612189 77.6259896888889,95.41649021679508 77.63193813333334,95.42702039619047 77.63775288888888,95.42943899221407 77.63789741968883,95.42849779811266 77.63845831111111,95.42484509950424 77.63645511111112,95.41448476158672 77.6305464888889,95.40693875612189z" stroke="#0E478F" stroke-width="0.003" stroke-opacity="0.8" fill="royalblue" fill-opacity="0.75"></path><path d="M77.23968,95.13314476495769 77.23968,95.13367280265936 77.23980134798855,95.13364723143758 77.24330666666667,95.13290856371125 77.24529848888889,95.1325264406476 77.2472896,95.13233537821833 77.25127182222222,95.13166665500432 77.2517696,95.13157112251831 77.25333404444444,95.13138005709752 77.25888071111112,95.13052025529966 77.25900883511075,95.13050304248142 77.26030293333334,95.13032918658801 77.26957151437128,95.12881725794976 77.27021333779761,95.12871255971478 77.27025920000001,95.12870507837982 77.26983253333334,95.13329068438183 77.26983253333334,95.1334817438197 77.26876586666667,95.14475223682985 77.27087725072178,95.15279940887527 77.2711730005462,95.1539265230366 77.27360213333334,95.16318325587622 77.27324871915926,95.16419586214931 77.26777031111112,95.17989051126435 77.26805546666667,95.18094052893355 77.2727488,95.18876736459413 77.27104213333334,95.19048531624364 77.26961991111112,95.19210778177403 77.26585102222222,95.19592517776202 77.26421546666667,95.20060116280848 77.26990435555555,95.21405455238512 77.27011768888889,95.2147223739979 77.26983324444444,95.2164395960673 77.26983324444444,95.21844296083827 77.26921000864753,95.22078394384206 77.26876657777778,95.22244949340562 77.2688376888889,95.22426188615742 77.26983324444444,95.22616960995234 77.27232213333333,95.22760036373062 77.27367395555557,95.22788651046812 77.27488284444445,95.22998487895353 77.27694506666667,95.23523048510341 77.27687395555556,95.23923591768371 77.27794062222223,95.24123758197643 77.28503154360861,95.24537958583298 77.28512355555556,95.2454333307195 77.28612419962802,95.24599951369129 77.30886985124488,95.25886801173652 77.32523235555556,95.26812352945223 77.35023009434795,95.30632852999474 77.35060693333334,95.3069042850441 77.35125475555556,95.30795688704248 77.36802301944114,95.33522755583232 77.37198933333333,95.34167630150742 77.37288248888889,95.34194953884412 77.37516231111111,95.3425083863273 77.37516444444445,95.3424360315741 77.38219377777777,95.34414015372985 77.38596266666667,95.34518735612701 77.38589155555556,95.34794807667357 77.38589155555556,95.3483288559548 77.3958056650644,95.35073082702635 77.40160782222223,95.35213651865408 77.40738133333333,95.35338062116779 77.41497742222222,95.35556321284419 77.41533297777778,95.35556321284419 77.41661297777779,95.35594394481785 77.416768,95.35723651222548 77.41548231111112,95.37387374278615 77.41547804444444,95.3739346418693 77.41532361150387,95.3761308475386 77.41463057813903,95.38598557318561 77.41462186666666,95.38610943762077 77.41122275555556,95.39039896451018 77.41048248888889,95.39783476558588 77.41090844444444,95.40608186683878 77.41113742222223,95.40827209389556 77.41333902222223,95.4106885758956 77.41751608888889,95.41890732607116 77.4177336888889,95.42043817610022 77.42407111111112,95.4871043666076 77.42537244444445,95.51056742751373 77.45019520000001,95.49932131760099 77.46956942222222,95.50247867789409 77.481888,95.51320964209484 77.48585671111111,95.5090492658035 77.4943838466912,95.50213744141158 77.49734826666666,95.49973439500909 77.50878222222222,95.49683329841585 77.52411875555556,95.4985825193614 77.52294826666666,95.48856703377754 77.52588444444444,95.4792481085778 77.53859271111111,95.4799405938787 77.54432071111111,95.49389122823766 77.54813937777777,95.47984180358594 77.55250844444446,95.47003892698763 77.55979022222222,95.46999332413965 77.55532088888889,95.44617070919602 77.54858666666667,95.43816758206432 77.54752213333333,95.43305434938941 77.5488632888889,95.43110457369151 77.55264853333334,95.4311568600497 77.55521564444444,95.43459625394804 77.55993742222223,95.4281469946373 77.56274275555556,95.41876850175788 77.56088888888888,95.41270461557357 77.5610660005507,95.40500408650867 77.56108657777779,95.40410935923717 77.56289991111112,95.40242212064192 77.56794737777778,95.40284345909092 77.5704312888889,95.40600768496176 77.57453226666667,95.41739735708461 77.58124017777779,95.42025181379007 77.58223573333333,95.41930097686836 77.57900657777778,95.40327050120305 77.57283413333333,95.39480043598525 77.57812280832015,95.39077889553657 77.57861617777777,95.39040372097139 77.5860864,95.39019253373752 77.58989582222223,95.38182627068778 77.60166044444445,95.38666693135156 77.60382293333333,95.38876747654852 77.60472177777778,95.39156809158358 77.60433493333333,95.39917781277802 77.60436828349646,95.39950936886615 77.60569244444444,95.41267228338432 77.6114475569497,95.42305561984193 77.61532657777778,95.43005313310945 77.6155584,95.42517976555044 77.61764906666666,95.41927720575659 77.62259413333334,95.4163903734913 77.61410702222221,95.39015923838656 77.6159872,95.38752028651383 77.6219271111111,95.38555669565966 77.62263017991062,95.38602874771036 77.62116124444445,95.37063553723596 77.61193813333334,95.3358904290583 77.60710897777778,95.31779998333218 77.5918656,95.26056328937591 77.5771136,95.25740679618545 77.56673280000001,95.23099207024507 77.49241742222223,95.2427757387448 77.49464391111111,95.216748690916 77.48510577777778,95.20687500912356 77.52980124444446,95.16454005555357 77.52017351111111,95.12162632779504 77.51598080000001,95.12101768314105 77.51685262222222,95.12000294338677 77.51740444444444,95.11844926958541 77.5175224888889,95.11756444135813 77.51681564444445,95.11226762559008 77.5136440888889,95.10445391087528 77.51127253333333,95.0988214136118 77.47592177777777,95.06686604297309 77.47258026666667,95.04809785046686 77.47220053333334,95.0458583277221 77.46162133333333,94.98398106409238 77.46048213333334,94.97751184326052 77.45387875555556,94.94007166008208 77.43085297777777,94.95221829518445 77.4125376,94.96184687059034 77.39116017777778,94.97300836136681 77.38420835555556,94.97664699372623 77.3741304888889,94.98194986988798 77.36065422222222,94.98903337748692 77.30612266666667,95.01772095385091 77.25202204444444,95.04563255323941 77.23984660565291,95.04583219150956 77.23982151111112,95.06341833999707 77.23989262222223,95.0652354615797 77.2397511111111,95.1052940096946 77.23968,95.10548515684272 77.23968,95.11301874454008 77.23968,95.11316815186568 77.23968,95.13314476495769z" stroke="#0E478F" stroke-width="0.003" stroke-opacity="0.8" fill="royalblue" fill-opacity="0.75"></path></g><g data-fips="25" data-geo-i-d="25007" data-county="Dukes"><path d="M77.63448675555556,95.7359807939045 77.63034097777778,95.73714621411537 77.63819804444444,95.7440966567283 77.64464213333333,95.74561566133744 77.65032106666666,95.74556837034987 77.65222328888889,95.73710080854471 77.64872533333335,95.7336338054831 77.64482488888889,95.73101899834609 77.64105742222223,95.73404626133681 77.63448675555556,95.7359807939045z" stroke="#0E478F" stroke-width="0.003" stroke-opacity="0.8" fill="royalblue" fill-opacity="0.75"></path><path d="M77.62929635555555,95.647192859693 77.62575857777779,95.65304423079522 77.63952711111111,95.67198325553005 77.6518520888889,95.68429708470323 77.67063822222222,95.696816702517 77.67560035555556,95.6942419866499 77.67739306666667,95.68926263585223 77.67607822222222,95.68642536221842 77.67879964444444,95.68003746900017 77.69063751111112,95.66938856362128 77.70079786666666,95.66344687628538 77.71745706666667,95.65824056346833 77.79615502222222,95.65109004637196 77.83943537777779,95.65138748803497 77.86939591111111,95.65376128633217 77.90145137777779,95.65214245294831 77.90345813333333,95.6469418171054 77.90274275555555,95.62157556283401 77.90490097777777,95.60635515862765 77.90191573333334,95.5833885299255 77.89238542222223,95.584865979044 77.88743964444444,95.5908114525643 77.88584177777778,95.59471599839438 77.88614826666667,95.60384491891149 77.87768675555556,95.61601407740375 77.87323875555556,95.61853140359936 77.86740693333334,95.61786322274712 77.86573795555556,95.61686615075666 77.86497991111112,95.61059711755391 77.86170026666667,95.6027888433911 77.85416248888889,95.59944511685208 77.8463424,95.59818323242251 77.8394304,95.594257099092 77.83284124444445,95.58800852251989 77.82890951111112,95.58030739395019 77.82713742222222,95.57373492672264 77.82901831111111,95.56186666904865 77.8287808,95.5527960399026 77.82166755555555,95.53745043634287 77.81876906666666,95.53547549842767 77.81344,95.53827417835254 77.7982008888889,95.53481400817266 77.79666204444445,95.52603838690912 77.79302755555555,95.52486801963656 77.76047644444445,95.54509809618264 77.73377351111111,95.5638208394059 77.72346453333333,95.5736941429899 77.71627164444445,95.58836031810122 77.7156039111111,95.59462782172764 77.70711751111111,95.60402124573571 77.70366222222222,95.60517209766645 77.67544817777778,95.64732548555315 77.6711296,95.65118098410271 77.66521528888889,95.65245693999734 77.65312782222222,95.64680066440917 77.64458026666667,95.64495807105294 77.62929635555555,95.647192859693z" stroke="#0E478F" stroke-width="0.003" stroke-opacity="0.8" fill="royalblue" fill-opacity="0.75"></path><path d="M77.54676551111112,95.58849022593458 77.54592355555556,95.59185256256237 77.5477824,95.59430260991932 77.55571057777779,95.59200332293409 77.56217102222223,95.58805593444045 77.58025742222223,95.58304903404175 77.60572728888889,95.58180009034021 77.61242453333334,95.57858610128937 77.62782791111111,95.56330574129855 77.64090453333334,95.55980998003955 77.66025244444444,95.55907285659589 77.68116408888889,95.54521291296818 77.68428017777778,95.54043977005979 77.68378951111112,95.53670070764596 77.70004906666666,95.52111756865074 77.72076017777778,95.51129943580804 77.74195271111111,95.49615809721234 77.74612042240364,95.49547800837055 77.74417564444445,95.49316566055788 77.74247395555557,95.48973619269813 77.73767324444445,95.49147896751569 77.73272675555556,95.49220170595584 77.73058560000001,95.49120164643642 77.72814237116032,95.48379513246263 77.69240675555555,95.50722723237553 77.686112,95.51549668479254 77.67092053333334,95.52953701630679 77.66203093333334,95.53224770032182 77.65177884444444,95.5452916714658 77.63303395555556,95.54948185775592 77.61403377777778,95.55665081741327 77.59623111111111,95.56701283377748 77.5815032888889,95.57034788795008 77.56537031111111,95.57389237064675 77.56219377777778,95.57337166601229 77.54676551111112,95.58849022593458z" stroke="#0E478F" stroke-width="0.003" stroke-opacity="0.8" fill="royalblue" fill-opacity="0.75"></path></g><g data-fips="25" data-geo-i-d="25009" data-county="Essex"><path d="M77.33867377777777,94.39443007644972 77.32893297777778,94.39945935956874 77.3887232,94.43850539524713 77.38167253333333,94.44654460707028 77.39379626666667,94.45654284467003 77.39977671111112,94.44021961535262 77.40733013333333,94.44663736093986 77.41478684444445,94.4555439650799 77.45694791111111,94.45069423668991 77.46932195555556,94.44592044710538 77.49097813333334,94.47972301539025 77.48589511111112,94.48341459964726 77.47043626666667,94.47983985947923 77.46063786666667,94.49728860721468 77.45767111111113,94.52127721181137 77.48344533333334,94.5275039626618 77.4856256,94.54621025951808 77.47998293333333,94.5500617434183 77.47368604444445,94.56466486068081 77.47316266666667,94.57443430307899 77.49273884444445,94.604523348726 77.50423395555556,94.60805216109185 77.50340622222222,94.61418517409739 77.52370204444445,94.61744750976186 77.53344426666668,94.60482497291811 77.53909516544975,94.60541177155899 77.53922133333333,94.60311928273211 77.54535324444444,94.59689744154596 77.55120924444445,94.59740824263363 77.55143466666667,94.61267630832964 77.55634275555556,94.63016277043205 77.57817457777777,94.63199291562827 77.58080568888889,94.62804358566282 77.57625457777777,94.623323315974 77.57284124444445,94.62091487297667 77.56288782222222,94.6141620500023 77.56264186914547,94.59750622451816 77.5625152,94.58892645700911 77.56274480102371,94.58861066291644 77.56658275555556,94.5833316814496 77.56964053333334,94.58207847316169 77.57646791111112,94.58313888186848 77.58628124444445,94.58892260138099 77.59125902222222,94.58506684996172 77.59076124444445,94.5829460816714 77.5918272,94.57995663579393 77.59666346666667,94.57166619789467 77.6122375111111,94.56057707712802 77.61963306666667,94.55941983402005 77.62375751111112,94.56318079294854 77.62773973333333,94.5603842048185 77.63122417777778,94.54774972511822 77.62340195555556,94.53241215360245 77.61271111111111,94.53048539619482 77.61084373333334,94.53149943593698 77.6062016,94.52939993989096 77.60611120497607,94.52898958864976 77.60250513278983,94.5126174240396 77.60187946666667,94.50977634344056 77.6025728,94.50644447435377 77.61885013333334,94.50278519031556 77.63677084444446,94.50153030684173 77.64238862222223,94.4989239268777 77.65042417777778,94.49177993703407 77.6578393115626,94.48987431443926 77.68370986666667,94.48322534265628 77.69810204444445,94.47703747016756 77.70333297777778,94.48220662771834 77.71302147995492,94.4797190592993 77.72545848888889,94.47652564824959 77.73546524444446,94.46545281282326 77.7376512,94.46128488151061 77.73950648888889,94.46011027447358 77.74169102222223,94.45983980250168 77.74394097777778,94.46020010953826 77.74546346666668,94.46217741298159 77.74685297777778,94.46469458954823 77.74711822222223,94.46883041247192 77.74718435555556,94.47233530483547 77.7494136888889,94.47358693368598 77.75663857777778,94.47185048481805 77.77021511111111,94.45445522540956 77.78245688888889,94.42701576781896 77.79156551111112,94.42096710355304 77.79981226666666,94.4208395125221 77.80162204444444,94.41620835487211 77.80142791111112,94.40781027008664 77.80126468693611,94.40710693870739 77.79878260674496,94.39641066556712 77.79877404444446,94.39637376390701 77.78501688888889,94.39897105115298 77.77934862222222,94.39585448639423 77.77862044444446,94.39139837878088 77.77929671111112,94.38123454860192 77.78131128888889,94.36961110965953 77.77416746666667,94.36507081876695 77.76348373333335,94.36824025465589 77.75036586666667,94.379674375707 77.73753315555555,94.39443394454688 77.73682204444445,94.40199269799224 77.7319808,94.40315877133509 77.70577763027627,94.39362122029806 77.70393244444445,94.39294954399224 77.70323911111112,94.38741293850946 77.6928519111111,94.3753321810274 77.68977635555557,94.3736045019624 77.67863395555555,94.3718903166488 77.66850062222223,94.36417781259598 77.66858524444444,94.3594387560163 77.67434453333334,94.35333877487479 77.67305457777778,94.34730011241895 77.65840568888889,94.31239752314139 77.65687167974272,94.30653278292422 77.64962133333333,94.27880589456164 77.64589876788601,94.25090163254815 77.64072462222222,94.21209477445366 77.64103395555556,94.19106511463318 77.63785315555556,94.19146293932147 77.63143466666668,94.19433690160983 77.62675484444445,94.19814211820994 77.61875555555557,94.20207806061612 77.59208106666668,94.18105070552666 77.58025386666667,94.17724634370283 77.57189316571258,94.17721432801359 77.57163662222223,94.17721334562953 77.57162737777777,94.17718908232872 77.56257493333334,94.17841485198511 77.56032071111112,94.17913011532046 77.55968071111111,94.17951831436739 77.54723626666667,94.18737880358711 77.53493333333334,94.19426801351267 77.51148466000924,94.19916324635733 77.50781244793089,94.19992983486662 77.48892373333334,94.20387277225795 77.47953706666668,94.21386396764404 77.47733262222222,94.21842250322192 77.47302025256448,94.22902758213257 77.47299484444444,94.22909006080602 77.46545706666667,94.25507216490894 77.42879748953715,94.24402428507318 77.41688675555555,94.24043437940179 77.40465564444445,94.24615420446302 77.39334897777778,94.25274586832701 77.39287336335154,94.25314719906586 77.39185564444445,94.25400595684603 77.3870912,94.25962756762578 77.38149069487595,94.26673773670007 77.37877048888889,94.27019089329505 77.38182897777777,94.32162321206758 77.36310257777778,94.31612069691528 77.36303857777779,94.31610036291325 77.36298524444445,94.31608099719058 77.35189048888888,94.3128129420118 77.34513493333334,94.31397493757036 77.3365304888889,94.31678300064483 77.33650541554205,94.31680395627811 77.32963642994532,94.32254459540329 77.34179342222222,94.38752029064233 77.33867377777777,94.39443007644972z" stroke="#0E478F" stroke-width="0.003" stroke-opacity="0.8" fill="royalblue" fill-opacity="0.75"></path></g><g data-fips="25" data-geo-i-d="25011" data-county="Franklin"><path d="M76.07252266983204,94.31819063890889 76.07202915555555,94.3554037807298 76.12532764444445,94.35404711665261 76.12134897777779,94.36741501775724 76.09201137777778,94.38382475242457 76.1061048888889,94.39588543043129 76.12099271111111,94.39109955245607 76.12370560000001,94.41506283507485 76.10637582222222,94.49714573184158 76.17646293333333,94.51147019813534 76.18052551111111,94.5666088473863 76.25007715555556,94.5832487777052 76.26114986666667,94.60339200366516 76.30159857777778,94.59661023450764 76.29909902222222,94.64224744559192 76.32416853333334,94.63824003570379 76.38290844444445,94.6255023924356 76.38674275555556,94.62584340789718 76.41301404444444,94.62144184851314 76.45163306666667,94.615019562604 76.45603840000001,94.6403877553854 76.53331768888889,94.62754074999896 76.54651377777778,94.6800615720765 76.54727395555555,94.70469056315451 76.55025635555556,94.70981909833534 76.54688568888889,94.74054272480788 76.55084586666666,94.73980525580416 76.5765312,94.70179468718642 76.57879537777778,94.67432411224706 76.57701546666668,94.64119770517888 76.59846542222223,94.60790858427534 76.59286186666667,94.5709633045729 76.62587164444444,94.53825476302292 76.60863217777778,94.51897084453942 76.60342471111112,94.47654399665768 76.61416320000001,94.47794618477954 76.61008782222223,94.45390456874313 76.618848,94.44346915563291 76.63804302222223,94.43935961249731 76.64004835555556,94.41706288876638 76.63681422222223,94.39412062787216 76.60666026666667,94.38275502531648 76.59873217731491,94.33714265310721 76.59665493333334,94.33707267863088 76.56797690836908,94.33589140055292 76.50699858672192,94.33337956197241 76.47914969363549,94.33223236648763 76.47394204444446,94.33201784236432 76.43256093668822,94.3304547743122 76.31205441564659,94.3259027094968 76.23745675997178,94.32308465282728 76.22463075555557,94.32260011479357 76.17223649277639,94.32108123553684 76.13848119337315,94.32010266865285 76.07260231111111,94.31819279243999 76.07252266983204,94.31819063890889z" stroke="#0E478F" stroke-width="0.003" stroke-opacity="0.8" fill="royalblue" fill-opacity="0.75"></path></g><g data-fips="25" data-geo-i-d="25013" data-county="Hampden"><path d="M76.044928,94.9193422234386 76.03691591111111,94.94134239842127 76.05002595555555,94.97641904684002 76.05099513875015,94.99340548430186 76.05101937777778,94.99340641159813 76.0826564930427,94.994364585752 76.0892096,94.99456305384808 76.10383741556103,94.99469980477232 76.18578986666667,94.99546594721073 76.18585713010695,94.99546674164557 76.18587093333333,94.99546690467271 76.19758791111111,94.9962472311847 76.22148195555556,94.99663020986083 76.2192064,95.03386242090309 76.24905999035734,95.02952403127597 76.25476337777778,95.0286951672613 76.25519004444445,95.02419738582752 76.25723377777778,95.02223835458793 76.25725297777778,95.01931643854512 76.2586752,95.01759365782988 76.25974186666667,95.0152965410297 76.25859271111112,95.01415943613736 76.2579128888889,95.01263560570145 76.25802595555555,95.0109585823833 76.25915875555556,95.01065322898688 76.2608704,95.0115922575842 76.2613568,95.01151376645203 76.2637952,95.00725594946434 76.26543075555556,95.00266084873512 76.26415075555555,95.0008418588398 76.26130631111111,94.99969299510116 76.26251520000001,94.99691648484688 76.30511857777778,94.99634872076862 76.34266026666667,95.00055464493857 76.36765086523043,95.00208391414765 76.36769208888889,95.00208643674738 76.36838680368008,95.00751084056913 76.3684032,95.00763885886465 76.38027875555557,95.00792603933391 76.38589724444445,95.00792603933391 76.39236906666666,95.00271254554808 76.40685638810739,95.00091608858187 76.42444017777778,94.99873559208298 76.43789934134344,94.99881066131054 76.47524977777778,94.99901898494586 76.51738071143687,94.99986942681107 76.53902808174286,95.00030638924315 76.57447253333333,95.00102184552698 76.6075334138321,95.00120679675744 76.62256142222223,95.00129086718923 76.65416477620964,95.00180703140498 76.70349155555556,95.00261265608253 76.70399217777778,94.87655359388317 76.69910328888889,94.87730570963714 76.65733262222223,94.87703038262995 76.61232071111111,94.85539939902883 76.61312568888889,94.83744800316202 76.64268942222223,94.79642674090044 76.62434631111111,94.79946025708864 76.61680782222223,94.8111971320738 76.59266346666666,94.80894309844153 76.56257777777778,94.81998869494636 76.56108942222222,94.82052642257469 76.54068124444444,94.83291108261307 76.54534471111111,94.84965549188675 76.5187712,94.85357023715355 76.5127488,94.8093022896448 76.482048,94.81371325298204 76.42717155555556,94.82189472583624 76.41148017777778,94.82405034096547 76.3931008,94.82662833682836 76.37805653333334,94.82877226257652 76.3565112888889,94.80948572604257 76.37409208888889,94.77448446053309 76.3662592,94.7580172462846 76.36399075555555,94.75701661348333 76.34873955555555,94.76885973900482 76.33312995555556,94.81324749038502 76.32514133333333,94.81543990454279 76.30900977777777,94.82732058446236 76.31156551111111,94.85582261278248 76.2445944888889,94.84012142100082 76.2357944888889,94.8044933688787 76.22156657777778,94.79666497059158 76.19012693333333,94.80101057690422 76.18242133333334,94.8171674672061 76.17978311111112,94.82409834933873 76.15125191111112,94.80230440081633 76.17379413333335,94.77708666651262 76.17053582222223,94.71244717185454 76.16310186666666,94.70466747366186 76.12172444444445,94.70162920437218 76.08876586666666,94.73162230447957 76.08757333333334,94.79088859724945 76.08561066666667,94.79178011404986 76.06405973333334,94.89391703363441 76.03831964444446,94.88957807791837 76.044928,94.9193422234386z" stroke="#0E478F" stroke-width="0.003" stroke-opacity="0.8" fill="royalblue" fill-opacity="0.75"></path></g><g data-fips="25" data-geo-i-d="25015" data-county="Hampshire"><path d="M76.0421176888889,94.65807705331011 76.0401720888889,94.66615540159457 76.04416995555556,94.71597161247644 76.06798364444445,94.73557449077256 76.08876586666666,94.73162230447957 76.12172444444445,94.70162920437218 76.16310186666666,94.70466747366186 76.17053582222223,94.71244717185454 76.17379413333335,94.77708666651262 76.15125191111112,94.80230440081633 76.17978311111112,94.82409834933873 76.18242133333334,94.8171674672061 76.19012693333333,94.80101057690422 76.22156657777778,94.79666497059158 76.2357944888889,94.8044933688787 76.2445944888889,94.84012142100082 76.31156551111111,94.85582261278248 76.30900977777777,94.82732058446236 76.32514133333333,94.81543990454279 76.33312995555556,94.81324749038502 76.34873955555555,94.76885973900482 76.36399075555555,94.75701661348333 76.3662592,94.7580172462846 76.37409208888889,94.77448446053309 76.3565112888889,94.80948572604257 76.37805653333334,94.82877226257652 76.3931008,94.82662833682836 76.41148017777778,94.82405034096547 76.42717155555556,94.82189472583624 76.482048,94.81371325298204 76.5127488,94.8093022896448 76.5187712,94.85357023715355 76.54534471111111,94.84965549188675 76.54068124444444,94.83291108261307 76.56108942222222,94.82052642257469 76.56257777777778,94.81998869494636 76.59266346666666,94.80894309844153 76.61680782222223,94.8111971320738 76.62434631111111,94.79946025708864 76.64268942222223,94.79642674090044 76.64989937777779,94.79065322694012 76.64603448888889,94.7825962862107 76.64510720000001,94.77247603458241 76.64869048888889,94.7728364029926 76.64921386666667,94.76048944010742 76.65544462222222,94.75229005809322 76.64587022222223,94.7495272026278 76.65010133333334,94.73287049241125 76.62610275555556,94.73801202445873 76.60470115555556,94.74192533479143 76.59467804444445,94.69377402255667 76.5789888,94.70234404839914 76.5765312,94.70179468718642 76.55084586666666,94.73980525580416 76.54688568888889,94.74054272480788 76.55025635555556,94.70981909833534 76.54727395555555,94.70469056315451 76.54651377777778,94.6800615720765 76.53331768888889,94.62754074999896 76.45603840000001,94.6403877553854 76.45163306666667,94.615019562604 76.41301404444444,94.62144184851314 76.38674275555556,94.62584340789718 76.38290844444445,94.6255023924356 76.32416853333334,94.63824003570379 76.29909902222222,94.64224744559192 76.30159857777778,94.59661023450764 76.26114986666667,94.60339200366516 76.25007715555556,94.5832487777052 76.18052551111111,94.5666088473863 76.17646293333333,94.51147019813534 76.10637582222222,94.49714573184158 76.10379662222223,94.5110648355336 76.11122986666668,94.51261388506198 76.08058097777777,94.66715368763916 76.0421176888889,94.65807705331011z" stroke="#0E478F" stroke-width="0.003" stroke-opacity="0.8" fill="royalblue" fill-opacity="0.75"></path></g><g data-fips="25" data-geo-i-d="25017" data-county="Middlesex"><path d="M76.87198575681423,94.3469537590884 76.8731712,94.35439934907225 76.90115057777777,94.38220951519419 76.9006343111111,94.42201391974737 76.91033386666668,94.41798314246034 76.95859057777778,94.41923010241766 76.9594631111111,94.41194613745049 77.03850595555555,94.44348461541112 77.02828871111112,94.52186102718576 77.05893760000001,94.52804236836509 77.05656462222223,94.52135248088791 77.07027413333333,94.50055823683218 77.0788608,94.5074328579841 77.08928782222223,94.50892505489844 77.09846257777778,94.50252263224326 77.12797866666666,94.50970105990459 77.13250346666668,94.5285112984466 77.13433528888889,94.53207832823668 77.11262791111112,94.57595280213707 77.1246976,94.5835668961044 77.12078008888889,94.60201874970082 77.1135288888889,94.63609031335697 77.08142151111112,94.64980407528145 77.09856,94.66011142387762 77.08226488888889,94.67910488534659 77.07732835555557,94.68859793543595 77.06687857777779,94.69527412934838 77.07145955555555,94.70285203471293 77.08152604444444,94.70839150249729 77.09499164444445,94.73325802164038 77.1191992888889,94.71843013454175 77.14756408888888,94.71611204717811 77.15172195555556,94.71666801149613 77.16494435555556,94.71478079005662 77.1655480888889,94.73301665757322 77.15765617777778,94.75359069066528 77.15094897777777,94.7781494260235 77.13978453333334,94.7760565599345 77.12382720000001,94.777957246661 77.11991822222222,94.77647071869598 77.11393208888889,94.77474487835113 77.10011164444445,94.77990976061628 77.09165866666667,94.79065034484901 77.08492942222223,94.81495686959998 77.08286506666667,94.82250253064365 77.09659733333334,94.84414332496411 77.11591964444445,94.85667382969211 77.12746808888889,94.84973419236744 77.15368817777778,94.84811985232051 77.1574200888889,94.87189199512687 77.17111537777778,94.88135200921037 77.18118613333334,94.8799543492139 77.19533013333333,94.86398017681864 77.2052096,94.85966498989495 77.22503466666667,94.86023307295781 77.22351857777778,94.85098282901711 77.23750044444445,94.84754589705338 77.25369884444444,94.843949434996 77.266368,94.83920565666861 77.26194702222223,94.82689909204504 77.27044622222222,94.82525725993597 77.2671367111111,94.81996853006751 77.27658524444445,94.80803358606414 77.27466951111111,94.79275423486862 77.29569991111111,94.7935237216048 77.29176177777778,94.77196767123314 77.28095146666666,94.74629794349332 77.27900728888889,94.73958026347202 77.27834524444445,94.73059527076052 77.31914097777778,94.71680363523461 77.33133653333333,94.71812715306427 77.33390933333334,94.7210818791096 77.34879573333333,94.72569065591932 77.34930275555556,94.7290046803987 77.34968675555557,94.73564853170282 77.36328462222222,94.74654598438929 77.36516266666666,94.75384158553013 77.37517866666667,94.76009824041918 77.38408106666667,94.74900903302252 77.3939896888889,94.74013024325201 77.38386844444445,94.73004712765393 77.39077475555555,94.72266305995636 77.39944106666667,94.71458744753296 77.39195377777779,94.71165260529764 77.3902200888889,94.7012520558016 77.38677333333334,94.6953972923327 77.39191111111111,94.68602849173031 77.40645688888888,94.68441074475922 77.40894791111111,94.6812088062228 77.41795768888889,94.67272819120063 77.42688426666668,94.67780650057128 77.4279672888889,94.68201243462741 77.4281216,94.68489097279704 77.43784391111112,94.69330252524475 77.4442488888889,94.6921391620715 77.45611804444445,94.68698025720417 77.45731057777778,94.68454644084386 77.46087537777778,94.67844847784797 77.46555804444445,94.67743594086937 77.45942115555556,94.67337311008568 77.45354880000001,94.66455926487001 77.45884728888889,94.65549186933524 77.47179022222222,94.66001610941696 77.48203591111111,94.64590791144443 77.48751573333334,94.63391065565193 77.49103857777779,94.6242818495673 77.4966208,94.6107472947518 77.49273884444445,94.604523348726 77.47316266666667,94.57443430307899 77.47368604444445,94.56466486068081 77.47998293333333,94.5500617434183 77.4856256,94.54621025951808 77.48344533333334,94.5275039626618 77.45767111111113,94.52127721181137 77.46063786666667,94.49728860721468 77.47043626666667,94.47983985947923 77.48589511111112,94.48341459964726 77.49097813333334,94.47972301539025 77.46932195555556,94.44592044710538 77.45694791111111,94.45069423668991 77.41478684444445,94.4555439650799 77.40733013333333,94.44663736093986 77.39977671111112,94.44021961535262 77.39379626666667,94.45654284467003 77.38167253333333,94.44654460707028 77.3887232,94.43850539524713 77.32893297777778,94.39945935956874 77.33867377777777,94.39443007644972 77.34179342222222,94.38752029064233 77.32963642994532,94.32254459540329 77.32934755555556,94.32278600528619 77.32060088888889,94.3329500473471 77.3127616,94.34711236222125 77.30189866666666,94.36091914662364 77.27629795555555,94.36072563358394 77.26088960000001,94.35979289199057 77.24819552592584,94.35938357173865 77.23595162529905,94.35898876468167 77.20365936792669,94.35794748185387 77.19169837009878,94.35756178786514 77.18564425697636,94.35736656616535 77.17862880243698,94.35714034413479 77.15862708066837,94.35649535913842 77.1251984932731,94.35541738961447 77.06266857307001,94.3534009393381 77.06182115555555,94.35337361155095 77.05869226666667,94.35327684295618 77.04755632730809,94.35294515234223 76.98075235555555,94.35095531764128 76.96173733036402,94.35025576790542 76.93838928469228,94.34939679817501 76.87198575681423,94.3469537590884z" stroke="#0E478F" stroke-width="0.003" stroke-opacity="0.8" fill="royalblue" fill-opacity="0.75"></path></g><g data-fips="25" data-geo-i-d="25019" data-county="Nantucket"><path d="M78.02629262222223,95.68784070187296 78.02685997437113,95.69113627805444 78.02774897777778,95.69629987478488 78.03251484444445,95.70299652897737 78.04006115555556,95.70898740751676 78.05356444444445,95.7140967038952 78.10084906666667,95.73949306911518 78.13783537777778,95.75228994833694 78.1396854236155,95.75246011977491 78.15326791111112,95.75370945362275 78.16303004444444,95.75035214331893 78.18467057777778,95.75197407796931 78.21139555555555,95.75643867065253 78.2210944,95.7551251436117 78.24000000000001,95.7475224038094 78.24659555555556,95.74272327795339 78.24752213333333,95.74073314875982 78.25053795555556,95.73129618828334 78.25046968888888,95.71787517256907 78.2394550221851,95.69521933834139 78.20910506666667,95.6327500913314 78.19839004444445,95.61646333667983 78.18734008888889,95.61088432790433 78.18733394848896,95.61094522641024 78.18697671111111,95.61448808789685 78.18837701557469,95.61650652198439 78.18980551111112,95.61856552327825 78.1948743111111,95.62538813176653 78.19721813333334,95.62940419965051 78.20023182222222,95.63386534820486 78.20173866666667,95.6410036514165 78.20027720594027,95.6568644806772 78.19994168888888,95.6605051788543 78.18944853333333,95.67724900831143 78.17773155555555,95.6894860525941 78.16385991111112,95.69860474163869 78.15669902222223,95.69988444985904 78.15643427864278,95.69992686517577 78.1486438437354,95.70117497971343 78.13371733333334,95.70356630262906 78.08262826666667,95.70284603970983 78.07633531208796,95.70584910795236 78.07382044444445,95.70704919004429 78.05899306666667,95.70704919004429 78.05154268989256,95.70217808208602 78.05144675555556,95.70211535704556 78.04840177777778,95.69471434146473 78.04495928888889,95.69242352886064 78.03688391111112,95.68819287499173 78.02629262222223,95.68784070187296z" stroke="#0E478F" stroke-width="0.003" stroke-opacity="0.8" fill="royalblue" fill-opacity="0.75"></path></g><g data-fips="25" data-geo-i-d="25021" data-county="Norfolk"><path d="M77.62159857777777,94.78184875993527 77.61537422222223,94.80184911626398 77.63412266666667,94.83912598259809 77.66102471111111,94.81792320037567 77.6639424,94.81561275905452 77.66704181597952,94.79014395034983 77.66135182222223,94.78809964049255 77.64498346666667,94.77943797290163 77.63579681853973,94.77655562015023 77.62159857777777,94.78184875993527z" stroke="#0E478F" stroke-width="0.003" stroke-opacity="0.8" fill="royalblue" fill-opacity="0.75"></path><path d="M77.39077475555555,94.72266305995636 77.38386844444445,94.73004712765393 77.3939896888889,94.74013024325201 77.40291697777778,94.74899172858068 77.41145955555555,94.74174842401013 77.42067413333334,94.7259205085117 77.4261056,94.7219407616663 77.42965546666667,94.71652853995867 77.43231431111111,94.70958918456986 77.43246435555555,94.70495320551326 77.4350976,94.69708017392165 77.43019804444445,94.69497103187354 77.42484551111112,94.69410984187009 77.41953422222223,94.69614588695178 77.40713600000001,94.7066589100045 77.39944106666667,94.71458744753296 77.39077475555555,94.72266305995636z" stroke="#0E478F" stroke-width="0.003" stroke-opacity="0.8" fill="royalblue" fill-opacity="0.75"></path><path d="M77.15455857777778,94.92019542621725 77.15577671111112,94.93245146430922 77.15886151111111,94.93597655855677 77.15677368888889,94.96944805682527 77.15679288888889,95.00132533251195 77.15679409702258,95.01508095871611 77.18534860857295,95.01456203004768 77.20934618781746,95.01412591229033 77.23989262222223,95.01357077500734 77.23984660565291,95.04583219150956 77.25202204444444,95.04563255323941 77.30612266666667,95.01772095385091 77.36065422222222,94.98903337748692 77.3741304888889,94.98194986988798 77.38420835555556,94.97664699372623 77.39116017777778,94.97300836136681 77.4125376,94.96184687059034 77.43085297777777,94.95221829518445 77.45387875555556,94.94007166008208 77.46755128888888,94.93273516624649 77.4929536,94.91922047330115 77.49556693333334,94.91782847800968 77.50966826666668,94.91038766473287 77.51600782222222,94.90621768794418 77.52443022222222,94.90175303122335 77.54740408888888,94.88962603447271 77.56453191111112,94.8805865137609 77.57173688888889,94.81576736739464 77.56886044444444,94.81462940237027 77.56651377777779,94.81558971181474 77.56630044444445,94.81174838276351 77.56388266666667,94.80454523464894 77.55997155555555,94.79734219100996 77.56015715555556,94.7946313426608 77.580736,94.7750523813443 77.57220195555556,94.75457984484962 77.55541973333334,94.76544217488683 77.54391998962461,94.75845794204122 77.54138168888889,94.76297210551076 77.54224426666667,94.77188598674326 77.53432817777778,94.77440950611967 77.51886933333333,94.775100428546 77.51388657777778,94.77147467963806 77.50762666666667,94.76042408013879 77.50722400910593,94.75809213657146 77.5067320888889,94.75524311703093 77.50857884444444,94.74835434486096 77.52059235555556,94.73778894853325 77.51695833802361,94.73121695398129 77.50393386666667,94.73882162931685 77.49091911111111,94.7353523674384 77.48473315555556,94.73746875622058 77.48153315555555,94.74026292993327 77.48416426666667,94.7583306014759 77.48068835555556,94.76582372915021 77.47322026666667,94.76543929159608 77.46688782222222,94.77537910156418 77.45901226666668,94.77234437945523 77.4444544,94.7754012031625 77.44430791111111,94.7753992812847 77.43402311111112,94.78118577904294 77.43074915555556,94.78351771014951 77.43335324444445,94.79379654601638 77.41811840000001,94.81306790673713 77.40416995555556,94.78469853431481 77.40020764444445,94.78563529871039 77.38668657777778,94.76687899769394 77.37730346666666,94.76264243493512 77.37517866666667,94.76009824041918 77.36516266666666,94.75384158553013 77.36328462222222,94.74654598438929 77.34968675555557,94.73564853170282 77.34930275555556,94.7290046803987 77.34879573333333,94.72569065591932 77.33390933333334,94.7210818791096 77.33133653333333,94.71812715306427 77.31914097777778,94.71680363523461 77.27834524444445,94.73059527076052 77.27900728888889,94.73958026347202 77.28095146666666,94.74629794349332 77.29176177777778,94.77196767123314 77.29569991111111,94.7935237216048 77.27466951111111,94.79275423486862 77.27658524444445,94.80803358606414 77.2671367111111,94.81996853006751 77.27044622222222,94.82525725993597 77.26194702222223,94.82689909204504 77.266368,94.83920565666861 77.25369884444444,94.843949434996 77.23750044444445,94.84754589705338 77.22351857777778,94.85098282901711 77.22503466666667,94.86023307295781 77.2052096,94.85966498989495 77.19533013333333,94.86398017681864 77.18118613333334,94.8799543492139 77.17111537777778,94.88135200921037 77.17082880000001,94.90571619754849 77.15455857777778,94.92019542621725z" stroke="#0E478F" stroke-width="0.003" stroke-opacity="0.8" fill="royalblue" fill-opacity="0.75"></path></g><g data-fips="25" data-geo-i-d="25023" data-county="Plymouth"><path d="M77.45387875555556,94.94007166008208 77.46048213333334,94.97751184326052 77.46162133333333,94.98398106409238 77.47220053333334,95.0458583277221 77.47258026666667,95.04809785046686 77.47592177777777,95.06686604297309 77.51127253333333,95.0988214136118 77.5136440888889,95.10445391087528 77.51681564444445,95.11226762559008 77.5175224888889,95.11756444135813 77.51740444444444,95.11844926958541 77.51685262222222,95.12000294338677 77.51598080000001,95.12101768314105 77.52017351111111,95.12162632779504 77.52980124444446,95.16454005555357 77.48510577777778,95.20687500912356 77.49464391111111,95.216748690916 77.49241742222223,95.2427757387448 77.56673280000001,95.23099207024507 77.5771136,95.25740679618545 77.5918656,95.26056328937591 77.60710897777778,95.31779998333218 77.61193813333334,95.3358904290583 77.62116124444445,95.37063553723596 77.62263017991062,95.38602874771036 77.62823395555556,95.38979108572954 77.64602382222223,95.3894666909886 77.65257742222222,95.38505246887195 77.65318044444444,95.38292135138005 77.6500167111111,95.37397365531265 77.64170595555557,95.36936989763487 77.64214826666667,95.3628975982945 77.64388551111111,95.36016229683159 77.64684942222223,95.35943229143106 77.66989582222223,95.36483907433592 77.67054364444445,95.36637222593893 77.67206826666667,95.37028534784031 77.67515164444445,95.37398507387675 77.67789297777779,95.37357590733637 77.6834688,95.36149950712372 77.6830592,95.35487503380133 77.68009955555556,95.3486782188642 77.6807131182705,95.34019963993141 77.68072462222223,95.34004066019693 77.68508657777778,95.3233599572643 77.69287395555556,95.32084479347678 77.70354133333333,95.32925080757377 77.71052444444445,95.33223886911739 77.71203484444445,95.32368946368732 77.70929635555557,95.30560398700551 77.70386986666666,95.29563411786226 77.70437664884489,95.29320772950982 77.70572017777778,95.28677467207086 77.71111893333334,95.28390732144538 77.71861831111111,95.28846319191715 77.74545564444445,95.29708325558225 77.75530951111112,95.30328624444499 77.75922275555556,95.30298711303678 77.76381084444445,95.29987663137393 77.76503869893781,95.30042020796827 77.78077511111111,95.2726710438408 77.7771591111111,95.26536111403345 77.77240533333334,95.25801599012814 77.80892586666667,95.24016571272429 77.82018631111112,95.23535542041733 77.84014980693817,95.21228091524264 77.83748977777778,95.20761065293853 77.83596942222223,95.19931673399442 77.83675377777779,95.19281115491125 77.84143146666666,95.18506310555318 77.8484856888889,95.1665919071483 77.84385137777778,95.13714137187544 77.83399182222223,95.12033641433953 77.8329528888889,95.11577276822011 77.83368106666667,95.11116959918206 77.82901973333334,95.09885008876586 77.80723768888889,95.07938037855862 77.79692231111112,95.08151732196319 77.78974862222223,95.0882776011804 77.78382862222223,95.08875273332282 77.7788352,95.08581870927026 77.77333262222223,95.07893290172792 77.76116266666666,95.06822594317515 77.7588103111111,95.0710670994558 77.75112817777779,95.06925875849407 77.7431543866597,95.06147079090717 77.72516906666667,95.04390094993363 77.71730915555557,95.0319974756695 77.71660741440661,95.02849788549486 77.71576604444445,95.02430169984152 77.72742471111111,95.01878908140421 77.73383253333334,95.01934610823037 77.73952142222223,95.02628841703608 77.7451136,95.02411029784409 77.74754702222222,95.01977105310337 77.74459306666667,95.01108972114602 77.74489005216883,95.0083634030494 77.7462328888889,94.99603467697926 77.75937848888888,94.98729154503441 77.76402702222224,94.9876286160086 77.76482986666667,94.98291136772482 77.76128711111112,94.96603506452192 77.7616328675594,94.96166526905691 77.76188515555556,94.95847656362415 77.768192,94.95344853844426 77.76699093333333,94.94668955824017 77.7500935111111,94.92780661518177 77.73904717175097,94.91061321700893 77.7348871111111,94.90413690724205 77.71999004444444,94.8752555966894 77.71427484444445,94.86983882098224 77.7111416888889,94.85441860660117 77.70860871111111,94.83224001963603 77.7027128888889,94.82937807828468 77.69225337290062,94.82016404622865 77.69085866666667,94.81893531110995 77.68569742222223,94.81235052717889 77.67839502222222,94.79756985064247 77.67398115555555,94.79263703378419 77.66704181597952,94.79014395034983 77.6639424,94.81561275905452 77.66102471111111,94.81792320037567 77.63412266666667,94.83912598259809 77.61537422222223,94.80184911626398 77.62159857777777,94.78184875993527 77.63579681853973,94.77655562015023 77.63123555555556,94.77512445213252 77.61700053333333,94.77431148866987 77.60938168888889,94.76691647957182 77.60293475555555,94.75759046544056 77.59556124444445,94.74317523319084 77.59447893333333,94.73529371135695 77.57684906666667,94.73622739403558 77.56978488888889,94.73834567527847 77.55713991111112,94.74179265175391 77.54763377777778,94.75185266244375 77.54391998962461,94.75845794204122 77.55541973333334,94.76544217488683 77.57220195555556,94.75457984484962 77.580736,94.7750523813443 77.56015715555556,94.7946313426608 77.55997155555555,94.79734219100996 77.56388266666667,94.80454523464894 77.56630044444445,94.81174838276351 77.56651377777779,94.81558971181474 77.56886044444444,94.81462940237027 77.57173688888889,94.81576736739464 77.56453191111112,94.8805865137609 77.54740408888888,94.88962603447271 77.52443022222222,94.90175303122335 77.51600782222222,94.90621768794418 77.50966826666668,94.91038766473287 77.49556693333334,94.91782847800968 77.4929536,94.91922047330115 77.46755128888888,94.93273516624649 77.45387875555556,94.94007166008208z" stroke="#0E478F" stroke-width="0.003" stroke-opacity="0.8" fill="royalblue" fill-opacity="0.75"></path></g><g data-fips="25" data-geo-i-d="25025" data-county="Suffolk"><path d="M77.37517866666667,94.76009824041918 77.37730346666666,94.76264243493512 77.38668657777778,94.76687899769394 77.40020764444445,94.78563529871039 77.40416995555556,94.78469853431481 77.41811840000001,94.81306790673713 77.43335324444445,94.79379654601638 77.43074915555556,94.78351771014951 77.43402311111112,94.78118577904294 77.44430791111111,94.7753992812847 77.4444544,94.7754012031625 77.45901226666668,94.77234437945523 77.46688782222222,94.77537910156418 77.47322026666667,94.76543929159608 77.48068835555556,94.76582372915021 77.48416426666667,94.7583306014759 77.48153315555555,94.74026292993327 77.48473315555556,94.73746875622058 77.49091911111111,94.7353523674384 77.50393386666667,94.73882162931685 77.51695833802361,94.73121695398129 77.51264853333333,94.72342189667614 77.50111857777777,94.72538963425839 77.4999608888889,94.71879178663652 77.50076097495389,94.71620766847937 77.50494335747791,94.70269761166236 77.5062208,94.69857057712267 77.51235342222222,94.69303887004341 77.52371042053355,94.69002493397204 77.52538524444445,94.6895804541547 77.52896213333334,94.69009913291703 77.53701120000001,94.69874280340173 77.54451768888889,94.70152048576529 77.54432568888889,94.69601214129221 77.53086364444445,94.66943225950095 77.53052017777777,94.66515517368015 77.53065742222222,94.66199457573205 77.53120711111112,94.66004114151207 77.53230577777778,94.6591120587249 77.53052017777777,94.65725192466748 77.5250944,94.6557643539027 77.52289706666667,94.65120705644793 77.52172942222222,94.64562671540676 77.51879466666668,94.64509032070588 77.51877939026154,94.64502382407659 77.51779911111112,94.64075661615038 77.51986204444444,94.63151226707487 77.52320426666667,94.62448029783755 77.53896177777777,94.60783535033141 77.53909516544975,94.60541177155899 77.53344426666668,94.60482497291811 77.52370204444445,94.61744750976186 77.50340622222222,94.61418517409739 77.50423395555556,94.60805216109185 77.49273884444445,94.604523348726 77.4966208,94.6107472947518 77.49103857777779,94.6242818495673 77.48751573333334,94.63391065565193 77.48203591111111,94.64590791144443 77.47179022222222,94.66001610941696 77.45884728888889,94.65549186933524 77.45354880000001,94.66455926487001 77.45942115555556,94.67337311008568 77.46555804444445,94.67743594086937 77.46087537777778,94.67844847784797 77.45731057777778,94.68454644084386 77.45611804444445,94.68698025720417 77.4442488888889,94.6921391620715 77.43784391111112,94.69330252524475 77.4281216,94.68489097279704 77.4279672888889,94.68201243462741 77.42688426666668,94.67780650057128 77.41795768888889,94.67272819120063 77.40894791111111,94.6812088062228 77.40645688888888,94.68441074475922 77.39191111111111,94.68602849173031 77.38677333333334,94.6953972923327 77.3902200888889,94.7012520558016 77.39195377777779,94.71165260529764 77.39944106666667,94.71458744753296 77.40713600000001,94.7066589100045 77.41953422222223,94.69614588695178 77.42484551111112,94.69410984187009 77.43019804444445,94.69497103187354 77.4350976,94.69708017392165 77.43246435555555,94.70495320551326 77.43231431111111,94.70958918456986 77.42965546666667,94.71652853995867 77.4261056,94.7219407616663 77.42067413333334,94.7259205085117 77.41145955555555,94.74174842401013 77.40291697777778,94.74899172858068 77.3939896888889,94.74013024325201 77.38408106666667,94.74900903302252 77.37517866666667,94.76009824041918z" stroke="#0E478F" stroke-width="0.003" stroke-opacity="0.8" fill="royalblue" fill-opacity="0.75"></path></g><g data-fips="25" data-geo-i-d="25027" data-county="Worcester"><path d="M76.57879537777778,94.67432411224706 76.5765312,94.70179468718642 76.5789888,94.70234404839914 76.59467804444445,94.69377402255667 76.60470115555556,94.74192533479143 76.62610275555556,94.73801202445873 76.65010133333334,94.73287049241125 76.64587022222223,94.7495272026278 76.65544462222222,94.75229005809322 76.64921386666667,94.76048944010742 76.64869048888889,94.7728364029926 76.64510720000001,94.77247603458241 76.64603448888889,94.7825962862107 76.64989937777779,94.79065322694012 76.64268942222223,94.79642674090044 76.61312568888889,94.83744800316202 76.61232071111111,94.85539939902883 76.65733262222223,94.87703038262995 76.69910328888889,94.87730570963714 76.70399217777778,94.87655359388317 76.70349155555556,95.00261265608253 76.70351146666667,95.00261298127656 76.72734664733106,95.00390111884619 76.72908425976343,95.00399502450904 76.7548472888889,95.00538731702582 76.80901262222223,95.00583437724137 76.82629738052587,95.00643979699043 76.87766755555555,95.0082390645019 76.8825260320576,95.00829704343656 76.94176,95.0090039112741 76.94276124444444,95.02384329105246 76.96639288888889,95.02223548346512 77.02693275284587,95.02035991147626 77.05220730778305,95.01957686904268 77.07965580421931,95.01872646333376 77.09378567371563,95.0182886889423 77.10086542222223,95.0180693415999 77.11328782222223,95.01783580717529 77.13484995802617,95.01723774734893 77.13592462222222,95.01720793968971 77.13613795555555,95.01711222761392 77.15409386433878,95.01528137597818 77.154912,95.01519795449369 77.15562311111111,95.01510223925742 77.15679409702258,95.01508095871611 77.15679288888889,95.00132533251195 77.15677368888889,94.96944805682527 77.15886151111111,94.93597655855677 77.15577671111112,94.93245146430922 77.15455857777778,94.92019542621725 77.17082880000001,94.90571619754849 77.17111537777778,94.88135200921037 77.1574200888889,94.87189199512687 77.15368817777778,94.84811985232051 77.12746808888889,94.84973419236744 77.11591964444445,94.85667382969211 77.09659733333334,94.84414332496411 77.08286506666667,94.82250253064365 77.08492942222223,94.81495686959998 77.09165866666667,94.79065034484901 77.10011164444445,94.77990976061628 77.11393208888889,94.77474487835113 77.11991822222222,94.77647071869598 77.12382720000001,94.777957246661 77.13978453333334,94.7760565599345 77.15094897777777,94.7781494260235 77.15765617777778,94.75359069066528 77.1655480888889,94.73301665757322 77.16494435555556,94.71478079005662 77.15172195555556,94.71666801149613 77.14756408888888,94.71611204717811 77.1191992888889,94.71843013454175 77.09499164444445,94.73325802164038 77.08152604444444,94.70839150249729 77.07145955555555,94.70285203471293 77.06687857777779,94.69527412934838 77.07732835555557,94.68859793543595 77.08226488888889,94.67910488534659 77.09856,94.66011142387762 77.08142151111112,94.64980407528145 77.1135288888889,94.63609031335697 77.12078008888889,94.60201874970082 77.1246976,94.5835668961044 77.11262791111112,94.57595280213707 77.13433528888889,94.53207832823668 77.13250346666668,94.5285112984466 77.12797866666666,94.50970105990459 77.09846257777778,94.50252263224326 77.08928782222223,94.50892505489844 77.0788608,94.5074328579841 77.07027413333333,94.50055823683218 77.05656462222223,94.52135248088791 77.05893760000001,94.52804236836509 77.02828871111112,94.52186102718576 77.03850595555555,94.44348461541112 76.9594631111111,94.41194613745049 76.95859057777778,94.41923010241766 76.91033386666668,94.41798314246034 76.9006343111111,94.42201391974737 76.90115057777777,94.38220951519419 76.8731712,94.35439934907225 76.87198575681423,94.3469537590884 76.8506232888889,94.3461677956227 76.85047509022948,94.34616373037096 76.81322524444444,94.34514191753121 76.74408746924907,94.34228722585567 76.7421379175212,94.34220672709705 76.72102517337025,94.34133495583575 76.71144817777778,94.3409395056969 76.65523942850973,94.33904613694395 76.59873217731491,94.33714265310721 76.60666026666667,94.38275502531648 76.63681422222223,94.39412062787216 76.64004835555556,94.41706288876638 76.63804302222223,94.43935961249731 76.618848,94.44346915563291 76.61008782222223,94.45390456874313 76.61416320000001,94.47794618477954 76.60342471111112,94.47654399665768 76.60863217777778,94.51897084453942 76.62587164444444,94.53825476302292 76.59286186666667,94.5709633045729 76.59846542222223,94.60790858427534 76.57701546666668,94.64119770517888 76.57879537777778,94.67432411224706z" stroke="#0E478F" stroke-width="0.003" stroke-opacity="0.8" fill="royalblue" fill-opacity="0.75"></path></g></svg>