<svg version="1.1" xmlns="http://www.w3.org/2000/svg" preserveAspectRatio="xMinYMin meet" viewBox="42.66258062222222 95.02944923086001 4.242558577777778 6.369983491745401"><g data-fips="32" data-geo-id="32001" data-county="Churchill"><path d="M43.21765262222222,96.916835277267 43.21696782222222,97.00953622193121 43.22942008888889,97.00952695266966 43.22948053333333,97.09242534910882 43.24283662222222,97.09240035470685 43.24287502222222,97.11255283882255 43.2562496,97.11249083526812 43.256433066666666,97.21220614721014 43.24314524444444,97.21218119974542 43.24313457777778,97.23953439587208 43.24218595555556,97.25715672700808 43.24977848888889,97.23866437335376 43.2620096,97.23607824916637 43.29841706666667,97.20314680423924 43.33516657777778,97.15680612614794 43.336128,97.16652670415066 43.32231964444444,97.17339827321817 43.32298382222222,97.25256669027438 43.31438435555556,97.2525491457474 43.3137024,97.36145033264839 43.29412622222222,97.36144941082324 43.29372942222222,97.48138272259573 43.30674346666667,97.48193478170367 43.306985955555554,97.49486172906904 43.32008177777778,97.49637312236283 43.32033635555556,97.5081843145052 43.333503288888885,97.50826524969008 43.33349902222222,97.5216429864017 43.3466944,97.52167700885359 43.346636800000006,97.53506298633785 43.35999217777778,97.53501426161709 43.359908266666665,97.54839286680323 43.37327217777778,97.54826970146591 43.37309653333333,97.56280158327964 43.38588586666667,97.56237427590561 43.385935644444444,97.57582712309011 43.40202453333334,97.57573341036786 43.40201528888888,97.58927256550542 43.41529671111112,97.5893552358149 43.41528035555556,97.60272346523038 43.42853262222223,97.60257101601492 43.428703999999996,97.6156638022704 43.44183537777778,97.61556831115146 43.441841066666676,97.62916059871856 43.45565937777778,97.62913122300644 43.4553088,97.65626591943082 43.471715555555555,97.65661552590561 43.4716224,97.66735330224027 43.48508302222222,97.66741477116028 43.48522524444445,97.68099337917917 43.497944888888895,97.6810915251746 43.49793991111111,97.69533486997099 43.512605155555555,97.69544308167555 43.51250773333334,97.70801091185199 43.52515484444445,97.70819611912515 43.52546204444444,97.73491449372237 43.55270115555556,97.73528292046065 43.55282844444445,97.76954383847203 44.1848064,97.77043784435776 44.24855608888889,97.75232540075142 44.24774115555556,97.7504443325321 44.246431288888886,97.7453295291707 44.24569386666667,97.74365902107172 44.24364017777778,97.74122603156373 44.241134933333335,97.73988349529432 44.23841564444445,97.73873429873873 44.23557404444445,97.73839430126107 44.233514666666665,97.7365824785923 44.23072284444445,97.7331016569201 44.23237262222222,97.72933926243498 44.234667377777775,97.72656384046162 44.23605902222222,97.72117397485674 44.234966755555554,97.71275920177324 44.230016,97.71072203656003 44.23046471111111,97.70517405681014 44.234304711111115,97.70480729204634 44.237216000000004,97.70135776745676 44.24015644444445,97.69701396504948 44.23750613333334,97.69285053609995 44.23948373333334,97.6829241678293 44.24632888888889,97.67802691479318 44.2572864,97.66891019101197 44.265459911111115,97.66682209823685 44.2718336,97.65553641950004 44.27739662222223,97.64591267088501 44.28207644444445,97.64322635427715 44.286695111111115,97.63736507804686 44.287610311111116,97.63011897397992 44.289963377777774,97.61904630019562 44.28913351111111,97.60936292124333 44.283785244444445,97.59824443025992 44.280318577777784,97.59095626320232 44.27876977777778,97.57991268135414 44.27209386666667,97.57036123820683 44.27197226666667,97.56276574470573 44.2680384,97.55477600111453 44.26513137777778,97.54345963479547 44.26240568888888,97.53528546478222 44.259259022222224,97.52758009135394 44.25967502222222,97.51837214928801 44.25791075555555,97.51249581058295 44.259812977777784,97.4995751716717 44.264672000000004,97.49121142499831 44.266554311111115,97.4875066325871 44.27016675555555,97.48519091377977 44.27226524444445,97.48660041169256 44.28288568888889,97.48883696009361 44.29165795555556,97.48681845788836 44.29741582222222,97.48523231592192 44.30388053333334,97.48420645498037 44.30738986666667,97.48078741353855 44.31034666666667,97.47559961813064 44.312783644444444,97.4709727594423 44.31429120000001,97.46636397358436 44.314675199999996,97.46191316259163 44.31901511111111,97.45795539975506 44.31926542222222,97.45222633575536 44.32352995555556,97.44889120320211 44.330532266666665,97.44755820634131 44.33678862222222,97.44622978481675 44.342993066666665,97.44226645111455 44.34459022222222,97.43526718574142 44.34503466666666,97.4295591162335 44.34664888888889,97.42353834331288 44.34332088888889,97.41856143184083 44.33894257777778,97.41650479732506 44.33453368888889,97.41570441433483 44.33353031111111,97.41398387944184 44.333600000000004,97.41065688977486 44.335310222222226,97.4086156611432 44.340928,97.40593875287534 44.346153244444444,97.40476146738777 44.35024355555556,97.40021425245149 44.35471075555556,97.40109866312514 44.359118933333335,97.39786774123316 44.36202808888889,97.38985652645584 44.366816711111106,97.3871650126121 44.36961137777778,97.38733824593882 44.37226666666667,97.38481710196554 44.37286328888889,97.38240920626473 44.377152711111115,97.379533066796 44.38134044444445,97.37686047284474 44.38183822222222,97.37179145384968 44.38141155555556,97.36746035051186 44.38141155555556,97.36414200548462 44.38354488888889,97.36146876914856 44.38752711111111,97.36017820131602 44.39392711111112,97.36091475000131 44.40032782222222,97.35575319981413 44.41049671111111,97.35501474791067 44.41945742222222,97.3530786912438 44.42374257777778,97.34945257615838 44.42733084444444,97.3467547534145 44.43414897777778,97.34610471418864 44.443000177777776,97.35029896464653 44.44683662222223,97.34874539985306 44.449325511111105,97.34542608463413 44.45124551111111,97.33887915281178 44.455085511111115,97.33500600460009 44.45622328888889,97.32928807159638 44.45792995555556,97.32218697861514 44.45777777777778,97.31861630400977 44.457681066666666,97.31240612077251 44.45975822222223,97.30658098909491 44.46044657777778,97.29938879346653 44.45978524444445,97.29238865854632 44.458855111111106,97.28887907491499 44.4603448888889,97.2836221831984 44.461839644444446,97.27928787564953 44.46580764444444,97.27359172766134 44.47006008888889,97.2674362525007 44.47087644444445,97.2635753924243 44.47020586666667,97.25815022201267 44.46687928888889,97.25575602053286 44.46135751111112,97.25179842015682 44.458526577777775,97.24940398056556 44.45470293333334,97.24627435976733 44.45675875555556,97.24287306652198 44.46000355555555,97.23879275321829 44.459732622222226,97.232911027951 44.46400426666667,97.22652715414938 44.464573155555556,97.22088357733091 44.46692266666667,97.21764446172381 44.46841742222222,97.21246301313181 44.46620942222223,97.20885478375979 44.46036906666667,97.2031190808973 44.45695004444444,97.19691891489869 44.45381546666667,97.19173763131727 44.45530951111112,97.18535056093194 44.45338595555556,97.18100033174186 44.45687466666667,97.17461126124286 44.45929528888889,97.16850078427916 44.46143075555556,97.16294454034487 44.46000568888889,97.1584993813984 44.45758435555556,97.15525894534335 44.45445048888889,97.15451909665636 44.4501056,97.14998178671941 44.44811093333333,97.1469259030553 44.44761173333333,97.14071934437726 44.447611022222226,97.13497750794028 44.44810808888889,97.12775021733674 44.45081315555556,97.12228294692315 44.45309155555555,97.11737134828647 44.45266488888889,97.11005691669129 44.45202488888889,97.09617347257462 44.45607822222223,97.09061924686095 44.45396480000001,97.08520896493349 44.453038222222226,97.07837787319289 44.456576000000005,97.07108303505507 44.464184888888894,97.06219253534884 44.46596266666667,97.05469020934794 44.46874382222222,97.04854783135059 44.46958933333333,97.04135055470621 44.47150933333334,97.03375403796193 44.47108266666667,97.02717503024436 44.47158044444445,97.02040998808387 44.46994417777778,97.01586866531777 44.468237511111106,97.0081754798582 44.46702862222222,97.00150111837026 44.46603306666667,96.99399162314603 44.46645973333333,96.98852118481264 44.46439751111111,96.98434849971855 44.461339022222226,96.97767163302768 44.45821013333333,96.97071581661801 44.45173902222222,96.96635737728897 44.445622755555554,96.96236875806093 44.4401472,96.95708113211973 44.43822720000001,96.94455604927774 44.430190933333336,96.94056605904521 44.426066488888885,96.93045077291288 44.42179911111111,96.92451077036134 44.41632355555556,96.91782760217423 44.41475626666667,96.91530452297377 43.73263715555556,96.91749342526867 43.21765262222222,96.916835277267z" stroke="#0E478F" stroke-width="0.003" stroke-opacity="0.8" fill="royalblue" fill-opacity="0.75"></path></g><g data-fips="32" data-geo-id="32003" data-county="Clark"><path d="M45.584408888888895,99.78336103409208 45.58524231111112,100.37599537784573 45.620791466666674,100.37728413641226 45.62076231111111,100.4201843949818 45.6206336500672,100.55899938450132 45.68828871111111,100.62479204297489 45.732051911111114,100.66628324053752 45.74648533333334,100.6798684138476 45.76140777826276,100.6946764409829 45.761647644444444,100.69491444227472 45.761989688888896,100.69523274417813 45.77608106666667,100.70851507124581 45.777181866666666,100.71012203563768 45.86607502222222,100.79653582541856 45.928598755555555,100.85640139355428 45.93345493333333,100.86197215401504 45.93455146666666,100.86285391714075 45.94204728888889,100.87007993215339 45.94379733333333,100.87189309782468 45.96136862863075,100.88889286266931 46.006227200000005,100.93227364112147 46.02926791111111,100.95459542616899 46.10801848888889,101.03173425500535 46.108396088888895,101.03189482341843 46.117839644444445,101.04102829344143 46.118532977777775,101.04144711142145 46.132753066666666,101.05561739480875 46.149062400000005,101.0709422019892 46.15252053333334,101.07476307095823 46.19106702222222,101.11223514411438 46.26331306666667,101.18369054414458 46.27521422222223,101.19495747372781 46.27528462222222,101.19497053326761 46.36086755555556,101.27915874735328 46.36142293333334,101.2796761573562 46.48285368888889,101.39943272260541 46.48058737777778,101.39339899010108 46.47962808888889,101.38319777762271 46.480431644444444,101.37641497043776 46.48360604444444,101.36840866986435 46.48737848888889,101.3622116125677 46.501906488888885,101.34985931057963 46.50409315555556,101.34526791021494 46.504598755555556,101.34147815206643 46.503298844444444,101.33605467496012 46.49732835555556,101.32887110053126 46.490654577777775,101.32399937649338 46.47620906666667,101.31722046625798 46.47341582222222,101.31255393954973 46.47512746666667,101.30904927934536 46.48538026666667,101.298297791508 46.492512,101.29537666554074 46.507292444444445,101.29588265491608 46.515384888888896,101.29355350889358 46.52193848888889,101.28918800124826 46.52604657777778,101.2805144404934 46.52830648888889,101.25935605885087 46.52854186666667,101.24158553988937 46.526493155555556,101.22669634531246 46.524561777777784,101.22207780404713 46.5209152,101.21882105930158 46.51835804444445,101.20115961273055 46.51867662222222,101.19405548900038 46.515819377777774,101.17290778444367 46.50844231111111,101.14278709747622 46.509560177777786,101.11814299254772 46.503598933333336,101.09342923329528 46.49853511111111,101.07993805097914 46.487369244444444,101.04465622140299 46.46968533333333,101.027500003396 46.46248888888889,101.01434182602151 46.4608,101.00975386406387 46.459465244444445,100.99459906485534 46.45482595555556,100.9816303365559 46.45145386666667,100.97461406968293 46.45034311111112,100.96566150333793 46.451765333333334,100.95386944865868 46.454183111111114,100.9500253991834 46.461792,100.9442589298744 46.465418666666665,100.93901627351052 46.46620088888889,100.93560833663886 46.465845333333334,100.93386061243996 46.46385422222222,100.93132633495038 46.46257422222223,100.92590791708233 46.461863111111114,100.91000069258395 46.45960248888889,100.89786090796098 46.459982933333336,100.89536729691253 46.46428017777778,100.88919234204684 46.468049066666666,100.88036003833204 46.46868906666666,100.8688160238074 46.46527573333333,100.86155576200915 46.45183502222222,100.84195804055676 46.44308835555555,100.83327466916995 46.44266097777778,100.82165548335016 46.44820835555555,100.80983827078293 46.449346133333336,100.803447389728 46.44749653333334,100.80003371929334 46.439745422222224,100.79495536784255 46.43469653333334,100.7897015121496 46.43170915555555,100.7834839388184 46.43178026666667,100.78059389227322 46.437469155555554,100.76123712910896 46.43860693333334,100.74169886204064 46.4345536,100.73021867225327 46.43633066666667,100.71172457968731 46.426944000000006,100.697696684898 46.428508444444454,100.69418926969522 46.432917333333336,100.6903309089147 46.43860622222222,100.67628466966538 46.438108444444445,100.67349279981741 46.435663644444446,100.66516038028567 46.435663644444446,100.66069770889622 46.43714346666667,100.65501785030338 46.44834844444444,100.64761245708209 46.457111466666674,100.64603300579785 46.45888426666667,100.63751826793124 46.43536284444445,100.61383245716772 46.42949973333333,100.60457800785305 46.430203733333336,100.59075066431578 46.4243968,100.58491139162896 46.41468017777778,100.57902331966191 46.41339804444444,100.57682482583986 46.41541831111111,100.56595517991613 46.41426417777778,100.56077801569938 46.406688,100.54894015933633 46.40444017777778,100.54064551493931 46.40480497777777,100.52180554290433 46.405134933333336,100.51878768321083 46.40673991111112,100.5158224399338 46.40899772236373,100.51327982322483 46.41339591111112,100.5083265690057 46.41443057777778,100.50278370985802 46.41391288888889,100.50001299328792 46.41115448888889,100.49617548649036 46.40753422222222,100.49425665335296 46.40667235555556,100.49148471619316 46.406844444444445,100.48913921188851 46.406844444444445,100.48423511865045 46.409430755555555,100.4797572796403 46.409775644444444,100.47613240151848 46.40671658429582,100.46969196546807 46.40473457777778,100.46551879971109 46.39708515555556,100.45768401121917 46.39609528888889,100.45578258850871 46.39600497777778,100.45088581048707 46.39741297777778,100.44777157851448 46.40207715555556,100.44222738820531 46.40983822222223,100.43574804258455 46.42325831111111,100.43282676983273 46.42860728888889,100.43277747944755 46.459350755555555,100.42432629939563 46.46194488888889,100.4220471822801 46.46403555555556,100.41833828450136 46.48411306666667,100.402348041501 46.48685866666667,100.4034874940825 46.491105422222226,100.41130817535115 46.494795377777784,100.41309460398875 46.50079004444444,100.4097066014934 46.50864924444445,100.4025267976698 46.52655573333334,100.39415470069432 46.54521671111112,100.39359282593608 46.56944284444445,100.39473066161116 46.57300551111111,100.39708993761977 46.57448462222222,100.3994218341189 46.57435022222223,100.4022529395084 46.57394702222223,100.40658346971536 46.57340871111111,100.4090814581389 46.573677511111114,100.4119121677271 46.57461902222222,100.41341156038186 46.576233244444445,100.41424356399688 46.580536888888886,100.41507643800597 46.58699804444445,100.41371530889438 46.59900302222223,100.40543438232238 46.603635911111105,100.40464718038744 46.60738204444444,100.40562369688602 46.610968888888884,100.41254432901995 46.61429048888889,100.41634421849704 46.61574755555555,100.41673159123039 46.629568711111105,100.40763216038027 46.63683555555556,100.39930559340846 46.64009031111111,100.39799082690584 46.64499555555556,100.39788779324238 46.66872462222222,100.40163653453025 46.675122488888896,100.41296694058639 46.69349475555556,100.43253278737228 46.69953635555556,100.43474994760737 46.71400533333333,100.45504171460952 46.71591964444444,100.46169433720375 46.71439715555556,100.46485369098038 46.70989795555556,100.46896389024293 46.70854471111112,100.472051657619 46.70893724444445,100.47523165011398 46.71002453333334,100.4764006894662 46.73407857777778,100.48678219464628 46.74087466666667,100.49614119067266 46.743665066666665,100.50184109831596 46.74620728888889,100.50474363253423 46.753670400000004,100.50979398078803 46.76352071111111,100.51474549686851 46.76743893333334,100.51498462363149 46.781376,100.513820631179 46.79652977777778,100.50909061173297 46.80759182222223,100.5032365457298 46.814958222222224,100.50316004745054 46.823729777777785,100.50656809573319 46.82544,100.50595174028705 46.82795306666667,100.50291824198922 46.83505635555555,100.49124814662048 46.83577742222223,100.48641016556357 46.835055644444445,100.48080222260606 46.83598506666667,100.47525540054562 46.85188906666667,100.44380092738662 46.85214933333334,100.44224762970846 46.84980693333334,100.43880560895474 46.84570951111111,100.43541446570751 46.845173333333335,100.43385745894453 46.84576426666667,100.42940276486739 46.84738702222222,100.42674442299364 46.854392177777775,100.42209736063865 46.85993102222222,100.42183238328097 46.86231466666667,100.42053125048481 46.870077155555556,100.40052082753215 46.88495857777778,100.36856362526441 46.89045191111112,100.36089846176685 46.90002631111112,100.35675187017934 46.900093866666666,100.31164224336248 46.89983573333333,100.30692922571629 46.89903928888889,100.29080553392296 46.89883377777778,100.27252457018966 46.89995733333333,100.24971419258645 46.89949582222222,100.24077892726217 46.900760177777784,100.18294346147017 46.900743822222225,100.13707880310382 46.9002752,100.1101335349645 46.898861511111114,100.08666759950397 46.89801955555556,99.97942647628597 46.89765902222222,99.97600195452436 46.89737813333333,99.94827960018719 46.8973376,99.78243425395897 46.8973376511488,99.78242251183423 46.815651555555554,99.78219878048272 46.391252622222225,99.78178736637524 46.39110613333334,99.77324129662772 45.695398399999995,99.77358699921449 45.695468088888894,99.78352541851008 45.584408888888895,99.78336103409208z" stroke="#0E478F" stroke-width="0.003" stroke-opacity="0.8" fill="royalblue" fill-opacity="0.75"></path></g><g data-fips="32" data-geo-id="32005" data-county="Douglas"><path d="M42.664247195470224,97.73467432316347 42.66491662222223,97.77608463477674 42.6659456,97.83825831503019 42.734709333333335,97.89885027401962 42.95987271111112,98.09837146591825 42.96030862222223,98.09872598629286 42.96146702222222,98.09975855006708 43.02635875555555,98.15747590092073 43.026473244444446,98.1575833445514 43.057342577777774,98.18468444660486 43.05733475555556,98.18468353644442 43.11040426666666,98.23306066404436 43.11458346666667,98.23625470283714 43.14067697777778,98.25894407419516 43.144240912080356,98.26217560795075 43.14363591111111,98.15873334453195 43.1304448,98.15868872891704 43.12897137777778,98.0851926931104 43.12356195555556,98.07890998516592 43.08886826666667,98.08139232889235 43.09055431111111,98.01230261370341 43.077846755555555,97.99934371143489 43.07777137777777,97.9725095925152 43.06496711111111,97.97259907929953 43.06522026666667,97.94575116553787 43.077757866666666,97.94562784191064 43.07851591111111,97.87929235267686 43.09155911111111,97.87935453484162 43.092161422222226,97.85312665497675 43.133451377777774,97.84630636166582 43.156834133333334,97.84636034132086 43.15703751111111,97.82013465250263 43.156114488888896,97.76131309062464 43.09495324444445,97.75988668752005 42.985941333333336,97.75931959879806 42.84293973333333,97.76013221065729 42.84288711111111,97.74673517832782 42.83647075555556,97.73346276193917 42.664247195470224,97.73467432316347z" stroke="#0E478F" stroke-width="0.003" stroke-opacity="0.8" fill="royalblue" fill-opacity="0.75"></path></g><g data-fips="32" data-geo-id="32007" data-county="Elko"><path d="M44.787012266666665,95.50824222274383 44.78690204444445,95.98082288883074 45.09384106666666,95.98068720682915 45.39864533333334,95.98114513239652 45.39887360000001,96.29460991983488 45.51047324444445,96.79791204128924 45.62846648888889,96.79747864730417 45.8660416,96.79742191525361 45.87868444444445,96.79822545955162 46.29203555555556,96.80283541157924 46.90013687440853,96.80762133108986 46.90051342222222,96.7005609139831 46.90049564444445,96.5454289091821 46.90074595555556,96.52067008091737 46.90117831111111,96.51557047481836 46.900964977777775,96.45557347749124 46.90092302222223,96.4543325928883 46.90113351111111,96.44424657284529 46.90239644444445,96.23842547905049 46.90216462222222,96.20804008774638 46.90218453333334,96.20753407121427 46.9026304,96.19582601235555 46.903363460878936,95.98115971381387 46.90336355555555,95.98113194117226 46.90385991111111,95.78500216262947 46.90307342222223,95.78200480692374 46.903896177777774,95.77346376770299 46.90472462222222,95.51603401830938 46.90421902222222,95.50821943549192 46.90457813333334,95.39849963469085 46.90491164444445,95.3894219795555 46.90495928888889,95.26671278767877 46.904069688888896,95.17435852917998 46.90410168888889,95.17437953161266 46.9051392,95.14168049593599 46.90366364444444,95.037570133636 46.89902506666667,95.037569176836 46.899017244444444,95.0374801943729 46.88940515555556,95.03749645999414 46.88941297777778,95.0373605940833 46.85706026666667,95.03746392874734 46.85694008888889,95.03733571719351 46.73294270281742,95.03709754866539 46.73290311111112,95.03709747261928 46.60083128888889,95.035874660497 46.5790272,95.03669369856183 46.57901582222222,95.03672910065973 46.50789902222222,95.03681330016121 46.420824888888895,95.03325385603276 46.35990471111112,95.02981764686194 46.34234524444445,95.02944923086001 46.310487466666665,95.03029897661744 46.29389511111111,95.03164821071996 46.283244800000006,95.03164821071996 46.199620977777776,95.03538093596799 46.1950882273984,95.03537681447169 46.04387911111112,95.03523932431784 46.0413632,95.0346987092467 45.9990208,95.03529003663581 45.80490737777778,95.03454274329872 45.777127822222226,95.03403465513952 45.60342684444444,95.0346556512028 45.59673173333333,95.03357919021059 45.591031466666664,95.03342896258566 45.52044088888889,95.03296392440362 45.50242702222222,95.03344140182983 45.502422044444444,95.03342896258566 45.49763911111111,95.0337408997876 45.497628444444445,95.03370262537031 45.489238755555554,95.03406527450832 45.4892416,95.03404996482584 45.48368355555555,95.03403656885051 45.4836608,95.0339915966261 45.39674097777778,95.03394566751152 45.394537955555556,95.03390069521994 45.27447964444445,95.0341609599366 45.24908231111112,95.03511971962706 45.1814912,95.03486520006324 45.16757760000001,95.03454178645116 45.16563697777778,95.03456475078795 45.15571413333334,95.03468052918743 45.15431751111112,95.03411216038697 45.14812302222222,95.03433989128405 45.13755093333334,95.03389782464703 45.09709013333333,95.03363373135855 45.09373368888889,95.03407771362251 45.06599324444445,95.03406910192834 45.065408000000005,95.03371410769802 44.82193351111111,95.0325266321735 44.793418666666675,95.03335337020107 44.78705172323627,95.03218659664483 44.787012266666665,95.50824222274383z" stroke="#0E478F" stroke-width="0.003" stroke-opacity="0.8" fill="royalblue" fill-opacity="0.75"></path></g><g data-fips="32" data-geo-id="32009" data-county="Esmeralda"><path d="M43.79168355555556,98.83986668187103 43.78467529681921,98.84011459064119 43.91043768888889,98.95501301411733 44.05177671111112,99.0841450712008 44.060588088888885,99.0928149514492 44.06055182222222,99.09284008770648 44.10611484444445,99.13407953228688 44.156711111111115,99.18202230889104 44.177118577777776,99.19866783168843 44.2078392888889,99.2276462100251 44.29343431111111,99.30822833809054 44.31601066666667,99.32749325209393 44.3865472,99.3940735505382 44.41537066666667,99.4199902324564 44.44379804444445,99.44647203504687 44.444361244444444,99.44638452085965 44.532689777777776,99.52986158377996 44.610811733333335,99.60289793402244 44.6258368,99.61596311143995 44.681955207215644,99.668515510746 44.682326755555565,99.31367589832996 44.68283377777778,98.75749523878363 44.68223146666667,98.74501034274326 44.64610844444445,98.70330295274542 44.62857742222223,98.70129644961935 44.62868622222222,98.6834266744011 44.308607288888886,98.31758463273762 43.922180977777785,98.74660041195088 43.910433422222226,98.76182054899456 43.83894471111111,98.84238983338324 43.79375857777778,98.84222583145126 43.79168355555556,98.83986668187103z" stroke="#0E478F" stroke-width="0.003" stroke-opacity="0.8" fill="royalblue" fill-opacity="0.75"></path></g><g data-fips="32" data-geo-id="32011" data-county="Eureka"><path d="M45.08650026666667,97.67640144725806 45.08377173333334,97.68995615274561 45.509496177777784,97.69017167689296 45.51628088888889,97.68960305843761 45.57719395555556,97.68960305843761 45.57714702222222,97.63546688684193 45.576812800000006,97.50391299938823 45.57701333333333,97.45236901627861 45.576806399999995,97.41742582407406 45.579752533333334,97.41872537031111 45.585069511111115,97.41800238008496 45.588620088888895,97.41392769417266 45.59974471111111,97.40911215730279 45.60395306666667,97.40449523942429 45.60392462222223,97.39297083820614 45.606184533333334,97.38971739242808 45.60847644444445,97.38410847309602 45.612377599999995,97.38156600669559 45.61597084444445,97.37878935960808 45.62182471111112,97.37084304192479 45.624434488888895,97.3599735517416 45.62998968888889,97.33624912628574 45.63086151111111,97.31396333565831 45.64203946666667,97.29759592393431 45.63992533333334,97.27688985092016 45.63525546666666,97.25450948597339 45.63670542222222,97.23243902556828 45.636248888888886,97.21390532379837 45.63226951111111,97.19714349544807 45.62967395555556,97.16813463632985 45.64095715555556,97.15052099068981 45.645531733333335,97.13518195469504 45.64500408888889,97.111659796725 45.64308195555556,97.08757347396045 45.652759466666666,97.07050426429876 45.65698488888889,97.05170385206064 45.65070222222222,97.03487518121304 45.64945137777778,97.01762128365095 45.65187555555556,96.99885064608927 45.641294933333334,96.97679338732476 45.6401728,96.95341478609285 45.63302968888889,96.9322335932244 45.63035235555555,96.9146667751335 45.63446044444445,96.89207317893153 45.63439644444445,96.8669362971531 45.63019591111111,96.84670288308078 45.62635093333334,96.82374941705292 45.6337088,96.80953072876505 45.630500266666665,96.79988459740673 45.62846648888889,96.79747864730417 45.51047324444445,96.79791204128924 45.39887360000001,96.29460991983488 45.39864533333334,95.98114513239652 45.09384106666666,95.98068720682915 45.093614933333335,96.03096065249466 45.08670933333333,96.0314888177898 45.08736853333333,96.18101832133286 45.08437688888889,96.84753739770116 45.09127395555556,96.84913483987356 45.089525333333334,97.47324942172108 45.08670008888889,97.49584786433144 45.08650026666667,97.67640144725806z" stroke="#0E478F" stroke-width="0.003" stroke-opacity="0.8" fill="royalblue" fill-opacity="0.75"></path></g><g data-fips="32" data-geo-id="32013" data-county="Humboldt"><path d="M43.142351644444446,95.75912994268478 43.14325973333334,96.01836903064574 43.157619200000006,96.01838409729739 43.52945422222223,96.01793962953894 43.52943075555556,96.11666244205506 43.77728711111111,96.11688150346102 44.341888,96.11488077668272 44.34176071111111,96.27777573906283 44.58668728888889,96.2853514001292 44.586242133333336,96.42595948020941 44.62450631111112,96.31705344441882 44.786727822222225,96.31650051414624 44.78690204444445,95.98082288883074 44.787012266666665,95.50824222274383 44.78705172323627,95.03218659664483 44.786990933333335,95.0321754564897 44.781371022222224,95.03166639168457 44.77091128888888,95.03166639168457 44.76060302222222,95.03166639168457 44.75120853333333,95.03152764208045 44.65934364444444,95.03119751244093 44.64529706666667,95.0316692623627 44.512986311111106,95.03224052461667 44.484933688888894,95.03188743350432 44.356457955555555,95.03302803481671 44.35486364444444,95.0333772918519 44.17886791111111,95.03315434170179 43.948665600000005,95.03443653313005 43.9485374464512,95.034437412318 43.7326208,95.03591867450487 43.66093795555556,95.03740269341203 43.59366471111111,95.03941290248633 43.53715982222222,95.03855371605627 43.536193422222226,95.03857380852767 43.523120355555555,95.03883883717313 43.37705102222222,95.03750028719853 43.22966755555556,95.03808967380044 43.21288817777778,95.03709938623405 43.19926542222222,95.03745244712665 43.147247929388094,95.03710552453884 43.146794666666665,95.16833530620366 43.14522524444445,95.4220773793894 43.14740977777778,95.58925259922998 43.16114844444444,95.58908571235017 43.16038186666667,95.75967461313948 43.142351644444446,95.75912994268478z" stroke="#0E478F" stroke-width="0.003" stroke-opacity="0.8" fill="royalblue" fill-opacity="0.75"></path></g><g data-fips="32" data-geo-id="32015" data-county="Lander"><path d="M44.23046471111111,97.70517405681014 44.230016,97.71072203656003 44.234966755555554,97.71275920177324 44.23605902222222,97.72117397485674 44.234667377777775,97.72656384046162 44.23237262222222,97.72933926243498 44.23072284444445,97.7331016569201 44.233514666666665,97.7365824785923 44.23557404444445,97.73839430126107 44.23841564444445,97.73873429873873 44.241134933333335,97.73988349529432 44.24364017777778,97.74122603156373 44.24569386666667,97.74365902107172 44.246431288888886,97.7453295291707 44.24774115555556,97.7504443325321 44.24855608888889,97.75232540075142 44.5640128,97.68815214154155 44.922976,97.68939303519238 45.08377173333334,97.68995615274561 45.08650026666667,97.67640144725806 45.08670008888889,97.49584786433144 45.089525333333334,97.47324942172108 45.09127395555556,96.84913483987356 45.08437688888889,96.84753739770116 45.08736853333333,96.18101832133286 45.08670933333333,96.0314888177898 45.093614933333335,96.03096065249466 45.09384106666666,95.98068720682915 44.78690204444445,95.98082288883074 44.786727822222225,96.31650051414624 44.62450631111112,96.31705344441882 44.586242133333336,96.42595948020941 44.41475626666667,96.91530452297377 44.41632355555556,96.91782760217423 44.42179911111111,96.92451077036134 44.426066488888885,96.93045077291288 44.430190933333336,96.94056605904521 44.43822720000001,96.94455604927774 44.4401472,96.95708113211973 44.445622755555554,96.96236875806093 44.45173902222222,96.96635737728897 44.45821013333333,96.97071581661801 44.461339022222226,96.97767163302768 44.46439751111111,96.98434849971855 44.46645973333333,96.98852118481264 44.46603306666667,96.99399162314603 44.46702862222222,97.00150111837026 44.468237511111106,97.0081754798582 44.46994417777778,97.01586866531777 44.47158044444445,97.02040998808387 44.47108266666667,97.02717503024436 44.47150933333334,97.03375403796193 44.46958933333333,97.04135055470621 44.46874382222222,97.04854783135059 44.46596266666667,97.05469020934794 44.464184888888894,97.06219253534884 44.456576000000005,97.07108303505507 44.453038222222226,97.07837787319289 44.45396480000001,97.08520896493349 44.45607822222223,97.09061924686095 44.45202488888889,97.09617347257462 44.45266488888889,97.11005691669129 44.45309155555555,97.11737134828647 44.45081315555556,97.12228294692315 44.44810808888889,97.12775021733674 44.447611022222226,97.13497750794028 44.44761173333333,97.14071934437726 44.44811093333333,97.1469259030553 44.4501056,97.14998178671941 44.45445048888889,97.15451909665636 44.45758435555556,97.15525894534335 44.46000568888889,97.1584993813984 44.46143075555556,97.16294454034487 44.45929528888889,97.16850078427916 44.45687466666667,97.17461126124286 44.45338595555556,97.18100033174186 44.45530951111112,97.18535056093194 44.45381546666667,97.19173763131727 44.45695004444444,97.19691891489869 44.46036906666667,97.2031190808973 44.46620942222223,97.20885478375979 44.46841742222222,97.21246301313181 44.46692266666667,97.21764446172381 44.464573155555556,97.22088357733091 44.46400426666667,97.22652715414938 44.459732622222226,97.232911027951 44.46000355555555,97.23879275321829 44.45675875555556,97.24287306652198 44.45470293333334,97.24627435976733 44.458526577777775,97.24940398056556 44.46135751111112,97.25179842015682 44.46687928888889,97.25575602053286 44.47020586666667,97.25815022201267 44.47087644444445,97.2635753924243 44.47006008888889,97.2674362525007 44.46580764444444,97.27359172766134 44.461839644444446,97.27928787564953 44.4603448888889,97.2836221831984 44.458855111111106,97.28887907491499 44.45978524444445,97.29238865854632 44.46044657777778,97.29938879346653 44.45975822222223,97.30658098909491 44.457681066666666,97.31240612077251 44.45777777777778,97.31861630400977 44.45792995555556,97.32218697861514 44.45622328888889,97.32928807159638 44.455085511111115,97.33500600460009 44.45124551111111,97.33887915281178 44.449325511111105,97.34542608463413 44.44683662222223,97.34874539985306 44.443000177777776,97.35029896464653 44.43414897777778,97.34610471418864 44.42733084444444,97.3467547534145 44.42374257777778,97.34945257615838 44.41945742222222,97.3530786912438 44.41049671111111,97.35501474791067 44.40032782222222,97.35575319981413 44.39392711111112,97.36091475000131 44.38752711111111,97.36017820131602 44.38354488888889,97.36146876914856 44.38141155555556,97.36414200548462 44.38141155555556,97.36746035051186 44.38183822222222,97.37179145384968 44.38134044444445,97.37686047284474 44.377152711111115,97.379533066796 44.37286328888889,97.38240920626473 44.37226666666667,97.38481710196554 44.36961137777778,97.38733824593882 44.366816711111106,97.3871650126121 44.36202808888889,97.38985652645584 44.359118933333335,97.39786774123316 44.35471075555556,97.40109866312514 44.35024355555556,97.40021425245149 44.346153244444444,97.40476146738777 44.340928,97.40593875287534 44.335310222222226,97.4086156611432 44.333600000000004,97.41065688977486 44.33353031111111,97.41398387944184 44.33453368888889,97.41570441433483 44.33894257777778,97.41650479732506 44.34332088888889,97.41856143184083 44.34664888888889,97.42353834331288 44.34503466666666,97.4295591162335 44.34459022222222,97.43526718574142 44.342993066666665,97.44226645111455 44.33678862222222,97.44622978481675 44.330532266666665,97.44755820634131 44.32352995555556,97.44889120320211 44.31926542222222,97.45222633575536 44.31901511111111,97.45795539975506 44.314675199999996,97.46191316259163 44.31429120000001,97.46636397358436 44.312783644444444,97.4709727594423 44.31034666666667,97.47559961813064 44.30738986666667,97.48078741353855 44.30388053333334,97.48420645498037 44.29741582222222,97.48523231592192 44.29165795555556,97.48681845788836 44.28288568888889,97.48883696009361 44.27226524444445,97.48660041169256 44.27016675555555,97.48519091377977 44.266554311111115,97.4875066325871 44.264672000000004,97.49121142499831 44.259812977777784,97.4995751716717 44.25791075555555,97.51249581058295 44.25967502222222,97.51837214928801 44.259259022222224,97.52758009135394 44.26240568888888,97.53528546478222 44.26513137777778,97.54345963479547 44.2680384,97.55477600111453 44.27197226666667,97.56276574470573 44.27209386666667,97.57036123820683 44.27876977777778,97.57991268135414 44.280318577777784,97.59095626320232 44.283785244444445,97.59824443025992 44.28913351111111,97.60936292124333 44.289963377777774,97.61904630019562 44.287610311111116,97.63011897397992 44.286695111111115,97.63736507804686 44.28207644444445,97.64322635427715 44.27739662222223,97.64591267088501 44.2718336,97.65553641950004 44.265459911111115,97.66682209823685 44.2572864,97.66891019101197 44.24632888888889,97.67802691479318 44.23948373333334,97.6829241678293 44.23750613333334,97.69285053609995 44.24015644444445,97.69701396504948 44.237216000000004,97.70135776745676 44.234304711111115,97.70480729204634 44.23046471111111,97.70517405681014z" stroke="#0E478F" stroke-width="0.003" stroke-opacity="0.8" fill="royalblue" fill-opacity="0.75"></path></g><g data-fips="32" data-geo-id="32017" data-county="Lincoln"><path d="M45.58616177777778,99.76591447636575 45.584408888888895,99.78336103409208 45.695468088888894,99.78352541851008 45.695398399999995,99.77358699921449 46.39110613333334,99.77324129662772 46.391252622222225,99.78178736637524 46.815651555555554,99.78219878048272 46.8973376511488,99.78242251183423 46.89778133333334,99.68049032382207 46.897351111111114,99.64254535447401 46.896534044444444,99.56410979413991 46.896482133333336,99.56184370176106 46.895767466666676,99.55026690218443 46.89645013333333,99.52321751111243 46.896228266666675,99.51178307283419 46.8965880888889,99.48924572184906 46.89677866666667,99.43435113038369 46.89637404444444,99.38968356888884 46.89637404444444,99.38909100666612 46.89649777777778,99.38146409500696 46.89649777777778,99.38101358588526 46.896407466666666,99.31222993989456 46.896407466666666,99.31198387332202 46.89652266666667,99.26960311987546 46.89603697777778,99.25764280185443 46.895915728447996,99.22107501775383 46.89585706666667,99.20337594646756 46.895868444444446,99.1939656602767 46.89584497777778,99.1807420573569 46.8958656,99.18020861198703 46.89567146666667,99.11300170409012 46.89601991111112,99.10223769150772 46.89613807339592,99.07392108284209 46.89654897777778,98.97535754810961 46.89650844444445,98.97513092236667 46.89659022222222,98.97449330849781 46.89698915555556,98.96611292968913 46.897835377777774,98.95773869166723 46.89886364444445,98.91789940125624 46.89800746666667,98.90549148191336 46.897828977777785,98.87950241597883 46.89802097777778,98.85350587641474 46.897476977777785,98.74657243717014 46.897846755555555,98.61230157681753 46.897846488420974,98.61215506431462 46.897679644444445,98.52058408916072 46.89819235555555,98.5072355482703 46.89769244444444,98.38046506635878 46.897713066666675,98.38034074679558 46.89743288888889,98.29382068828781 46.89789582222222,98.25398369157111 46.89787591111111,98.25036499325537 46.89766826666666,98.22748800222507 46.897668367018674,98.22743846888912 46.897860730419914,98.1324194017666 46.820620088888894,98.13246312446691 46.81613653333334,98.1321925897882 46.221620622222225,98.13245857002033 46.221620622222225,98.70071760459021 45.586590577777784,98.7009216909356 45.58590791111111,99.39741410601498 45.58616177777778,99.76591447636575z" stroke="#0E478F" stroke-width="0.003" stroke-opacity="0.8" fill="royalblue" fill-opacity="0.75"></path></g><g data-fips="32" data-geo-id="32019" data-county="Lyon"><path d="M42.871008,97.60790560551436 42.892588088888886,97.64601362354554 42.916283022222224,97.65892783595335 42.97850311111111,97.65971969132283 42.97909048888889,97.67428607658162 42.96908728888889,97.69590435495685 42.978629688888894,97.71238056161813 42.985941333333336,97.75931959879806 43.09495324444445,97.75988668752005 43.156114488888896,97.76131309062464 43.15703751111111,97.82013465250263 43.156834133333334,97.84636034132086 43.133451377777774,97.84630636166582 43.092161422222226,97.85312665497675 43.09155911111111,97.87935453484162 43.07851591111111,97.87929235267686 43.077757866666666,97.94562784191064 43.06522026666667,97.94575116553787 43.06496711111111,97.97259907929953 43.07777137777777,97.9725095925152 43.077846755555555,97.99934371143489 43.09055431111111,98.01230261370341 43.08886826666667,98.08139232889235 43.12356195555556,98.07890998516592 43.12897137777778,98.0851926931104 43.1304448,98.15868872891704 43.14363591111111,98.15873334453195 43.144240912080356,98.26217560795075 43.179191466666666,98.29385794260055 43.199297422222216,98.31124158093296 43.21069084444444,98.32194438653269 43.26614559732196,98.37120563806035 43.288192,98.37184017801825 43.44400995555555,98.37126205939467 43.44389475555556,98.05247166531491 43.44737848888889,97.973007247048 43.367446755555555,97.97379070278762 43.367227022222224,97.88970886203269 43.42730666666667,97.77124940046937 43.42974364444444,97.77033891808537 43.55282844444445,97.76954383847203 43.55270115555556,97.73528292046065 43.52546204444444,97.73491449372237 43.52515484444445,97.70819611912515 43.51250773333334,97.70801091185199 43.512605155555555,97.69544308167555 43.49793991111111,97.69533486997099 43.497944888888895,97.6810915251746 43.48522524444445,97.68099337917917 43.48508302222222,97.66741477116028 43.4716224,97.66735330224027 43.471715555555555,97.65661552590561 43.4553088,97.65626591943082 43.45565937777778,97.62913122300644 43.441841066666676,97.62916059871856 43.44183537777778,97.61556831115146 43.428703999999996,97.6156638022704 43.42853262222223,97.60257101601492 43.41528035555556,97.60272346523038 43.41529671111112,97.5893552358149 43.40201528888888,97.58927256550542 43.40202453333334,97.57573341036786 43.385935644444444,97.57582712309011 43.38588586666667,97.56237427590561 43.37309653333333,97.56280158327964 43.37327217777778,97.54826970146591 43.359908266666665,97.54839286680323 43.35999217777778,97.53501426161709 43.346636800000006,97.53506298633785 43.3466944,97.52167700885359 43.33349902222222,97.5216429864017 43.333503288888885,97.50826524969008 43.32033635555556,97.5081843145052 43.32008177777778,97.49637312236283 43.306985955555554,97.49486172906904 43.30674346666667,97.48193478170367 43.29372942222222,97.48138272259573 43.29412622222222,97.36144941082324 43.3137024,97.36145033264839 43.31438435555556,97.2525491457474 43.32298382222222,97.25256669027438 43.32231964444444,97.17339827321817 43.336128,97.16652670415066 43.33516657777778,97.15680612614794 43.29841706666667,97.20314680423924 43.2620096,97.23607824916637 43.24977848888889,97.23866437335376 43.24218595555556,97.25715672700808 43.24313457777778,97.23953439587208 43.19377066666667,97.24106475703478 43.176080355555555,97.26659799854944 43.03729351111111,97.52838275836267 42.981417244444444,97.55869655831924 42.91744,97.59348953442127 42.871008,97.60790560551436z" stroke="#0E478F" stroke-width="0.003" stroke-opacity="0.8" fill="royalblue" fill-opacity="0.75"></path></g><g data-fips="32" data-geo-id="32021" data-county="Mineral"><path d="M43.26614559732196,98.37120563806035 43.28819057777778,98.39077823230858 43.308685511111115,98.40920922801557 43.31921208888889,98.41971739562909 43.356388977777776,98.45243558460776 43.37708444444445,98.47192674006045 43.413565866666666,98.50339530356757 43.43287608888889,98.52062121497599 43.47798257777778,98.56145689332428 43.54000568888889,98.61838688712228 43.557974755555556,98.63370618237758 43.580933688888884,98.6542598221382 43.646869333333335,98.71549688374625 43.682163200000005,98.74660041195088 43.73265208888889,98.79252718016812 43.78467529681921,98.84011459064119 43.79168355555556,98.83986668187103 43.79375857777778,98.84222583145126 43.83894471111111,98.84238983338324 43.910433422222226,98.76182054899456 43.922180977777785,98.74660041195088 44.308607288888886,98.31758463273762 43.949344,97.91189048580345 43.94931626666666,97.83793622595158 44.1848064,97.77043784435776 43.55282844444445,97.76954383847203 43.42974364444444,97.77033891808537 43.42730666666667,97.77124940046937 43.367227022222224,97.88970886203269 43.367446755555555,97.97379070278762 43.44737848888889,97.973007247048 43.44389475555556,98.05247166531491 43.44400995555555,98.37126205939467 43.288192,98.37184017801825 43.26614559732196,98.37120563806035z" stroke="#0E478F" stroke-width="0.003" stroke-opacity="0.8" fill="royalblue" fill-opacity="0.75"></path></g><g data-fips="32" data-geo-id="32023" data-county="Nye"><path d="M43.94931626666666,97.83793622595158 43.949344,97.91189048580345 44.308607288888886,98.31758463273762 44.62868622222222,98.6834266744011 44.62857742222223,98.70129644961935 44.64610844444445,98.70330295274542 44.68223146666667,98.74501034274326 44.68283377777778,98.75749523878363 44.682326755555565,99.31367589832996 44.681955207215644,99.668515510746 44.70615111111111,99.69116132691403 44.75254897777778,99.73512234735625 44.79936355555556,99.7783768874249 45.125700977777775,100.08669236896648 45.154928355555555,100.1147548402523 45.163923200000006,100.1228241338683 45.24064711111111,100.1971785851746 45.24382222222223,100.19929204991074 45.33271537777778,100.28365656485255 45.44197973333333,100.38822219985434 45.4445504,100.39046015826708 45.57307875555556,100.51404393638278 45.587217777777774,100.52757453728027 45.61570986666667,100.55420870738385 45.6206336500672,100.55899938450132 45.62076231111111,100.4201843949818 45.620791466666674,100.37728413641226 45.58524231111112,100.37599537784573 45.584408888888895,99.78336103409208 45.58616177777778,99.76591447636575 45.58590791111111,99.39741410601498 45.586590577777784,98.7009216909356 46.221620622222225,98.70071760459021 46.221620622222225,98.13245857002033 45.800820622222226,97.84141964409457 45.79442844444445,97.83792982075478 45.57719395555556,97.68960305843761 45.51628088888889,97.68960305843761 45.509496177777784,97.69017167689296 45.08377173333334,97.68995615274561 44.922976,97.68939303519238 44.5640128,97.68815214154155 44.24855608888889,97.75232540075142 44.1848064,97.77043784435776 43.94931626666666,97.83793622595158z" stroke="#0E478F" stroke-width="0.003" stroke-opacity="0.8" fill="royalblue" fill-opacity="0.75"></path></g><g data-fips="32" data-geo-id="32027" data-county="Pershing"><path d="M43.137063822222224,96.43375295926967 43.13650062222222,96.91755561943731 43.21765262222222,96.916835277267 43.73263715555556,96.91749342526867 44.41475626666667,96.91530452297377 44.586242133333336,96.42595948020941 44.58668728888889,96.2853514001292 44.34176071111111,96.27777573906283 44.341888,96.11488077668272 43.77728711111111,96.11688150346102 43.52943075555556,96.11666244205506 43.52945422222223,96.01793962953894 43.157619200000006,96.01838409729739 43.155173688888894,96.43327682802379 43.137063822222224,96.43375295926967z" stroke="#0E478F" stroke-width="0.003" stroke-opacity="0.8" fill="royalblue" fill-opacity="0.75"></path></g><g data-fips="32" data-geo-id="32029" data-county="Storey"><path d="M42.86999466666666,97.60027964245413 42.871008,97.60790560551436 42.91744,97.59348953442127 42.981417244444444,97.55869655831924 43.03729351111111,97.52838275836267 43.176080355555555,97.26659799854944 43.178808177777775,97.26147314740189 43.1363328,97.28962659638681 43.12329386666667,97.28847762459075 43.11423715555556,97.29860539963397 43.08376675555555,97.29512937740978 43.045588622222226,97.30080146173577 43.0416704,97.31791339909138 43.01387093333334,97.32130147727732 42.99316977777779,97.31998703862729 42.953847466666666,97.33943612913262 42.93568213333334,97.36803090417916 42.90494151111112,97.37087530106454 42.888350577777786,97.3602639327001 42.88308764444445,97.36358893126126 42.88271217777778,97.42243689878397 42.88278044444445,97.42712251177608 42.91195093333334,97.42710777768067 42.910474666666666,97.46703212079802 42.89635555555555,97.46670080899945 42.89033671111112,97.48040832668744 42.90268302222222,97.50688106004557 42.90266026666667,97.52029126900923 42.90928284444444,97.52040897070137 42.9095104,97.53378142195996 42.89606115555556,97.53367937376996 42.89601706666667,97.58035089650917 42.882875022222215,97.58032149852086 42.88247466666667,97.6003071945244 42.86999466666666,97.60027964245413z" stroke="#0E478F" stroke-width="0.003" stroke-opacity="0.8" fill="royalblue" fill-opacity="0.75"></path></g><g data-fips="32" data-geo-id="32031" data-county="Washoe"><path d="M42.66258275555556,97.6282949275835 42.66258062222222,97.6314656323695 42.663463523318754,97.68616310352053 42.75144035555556,97.68624535600182 42.76472675555556,97.68107318014005 42.764432355555556,97.66777991368608 42.78988017777778,97.64727276526233 42.80596906666666,97.64684051165857 42.829602844444445,97.64057572100228 42.82960213333334,97.62722269100573 42.842902755555556,97.62716760987772 42.84295608888889,97.61386138351527 42.871008,97.60790560551436 42.86999466666666,97.60027964245413 42.88247466666667,97.6003071945244 42.882875022222215,97.58032149852086 42.89601706666667,97.58035089650917 42.89606115555556,97.53367937376996 42.9095104,97.53378142195996 42.90928284444444,97.52040897070137 42.90266026666667,97.52029126900923 42.90268302222222,97.50688106004557 42.89033671111112,97.48040832668744 42.89635555555555,97.46670080899945 42.910474666666666,97.46703212079802 42.91195093333334,97.42710777768067 42.88278044444445,97.42712251177608 42.88271217777778,97.42243689878397 42.88308764444445,97.36358893126126 42.888350577777786,97.3602639327001 42.90494151111112,97.37087530106454 42.93568213333334,97.36803090417916 42.953847466666666,97.33943612913262 42.99316977777779,97.31998703862729 43.01387093333334,97.32130147727732 43.0416704,97.31791339909138 43.045588622222226,97.30080146173577 43.08376675555555,97.29512937740978 43.11423715555556,97.29860539963397 43.12329386666667,97.28847762459075 43.1363328,97.28962659638681 43.178808177777775,97.26147314740189 43.176080355555555,97.26659799854944 43.19377066666667,97.24106475703478 43.24313457777778,97.23953439587208 43.24314524444444,97.21218119974542 43.256433066666666,97.21220614721014 43.2562496,97.11249083526812 43.24287502222222,97.11255283882255 43.24283662222222,97.09240035470685 43.22948053333333,97.09242534910882 43.22942008888889,97.00952695266966 43.21696782222222,97.00953622193121 43.21765262222222,96.916835277267 43.13650062222222,96.91755561943731 43.137063822222224,96.43375295926967 43.155173688888894,96.43327682802379 43.157619200000006,96.01838409729739 43.14325973333334,96.01836903064574 43.142351644444446,95.75912994268478 43.16038186666667,95.75967461313948 43.16114844444444,95.58908571235017 43.14740977777778,95.58925259922998 43.14522524444445,95.4220773793894 43.146794666666665,95.16833530620366 43.147247929388094,95.03710552453884 43.121691391364976,95.03693507845458 43.121651911111115,95.03693481514566 43.0616192,95.03588805606796 42.86170311111111,95.0351053670484 42.81593813333333,95.03391122065287 42.77411057777778,95.03416287364365 42.75744995555556,95.03397533006863 42.747369955555556,95.03397915749431 42.67599004444444,95.03531491436128 42.66725617777777,95.0365023355142 42.66725831111111,95.0367855526111 42.66718151111112,95.15115979569288 42.667884799999996,95.27041972809029 42.66748088888889,95.38944766485085 42.66788977777778,95.39527699737147 42.667042844444445,95.50824507114972 42.66676195555556,95.80747344996402 42.6671232,96.10051558900338 42.667212799999994,96.10582593220117 42.667213511111115,96.10728814835474 42.66774826666666,96.2162700255185 42.66842097777778,96.24339851239867 42.669563733333334,96.45049850649654 42.66940088888889,96.61679762862776 42.66940088888889,96.61734605410278 42.66938168888889,96.67115619945794 42.66938097777778,96.67215425224764 42.66871182222222,96.79885415144099 42.6686336,96.83118429609364 42.66867555555556,96.84451803823185 42.668593066666666,96.8495753142187 42.66834915555555,96.95662748894839 42.66685653333333,97.05405293395728 42.666235022222224,97.11943948469437 42.666309688888894,97.12020102314862 42.66584757013831,97.16253400105987 42.665728711111115,97.17341768860457 42.665429333333336,97.34290882249013 42.664450844444445,97.42928654527722 42.66444992245476,97.4293503348576 42.66351644444445,97.49390225644069 42.66331733333333,97.53475225069302 42.66288670145849,97.54765429997529 42.66288355555556,97.54774854403219 42.66281742222222,97.55004822281126 42.66281671111111,97.55051053839291 42.66301013333333,97.57080778782372 42.662923415921775,97.58247641167435 42.66258275555556,97.6282949275835z" stroke="#0E478F" stroke-width="0.003" stroke-opacity="0.8" fill="royalblue" fill-opacity="0.75"></path></g><g data-fips="32" data-geo-id="32033" data-county="White Pine"><path d="M45.576806399999995,97.41742582407406 45.57701333333333,97.45236901627861 45.576812800000006,97.50391299938823 45.57714702222222,97.63546688684193 45.57719395555556,97.68960305843761 45.79442844444445,97.83792982075478 45.800820622222226,97.84141964409457 46.221620622222225,98.13245857002033 46.81613653333334,98.1321925897882 46.820620088888894,98.13246312446691 46.897860730419914,98.1324194017666 46.89795626666666,98.08517719675291 46.89836942222223,98.06626798144846 46.89815822222223,97.952192900653 46.89882951111112,97.95105294643697 46.899161600000006,97.94877297794802 46.898414933333335,97.83282742268023 46.89985493333334,97.37877645754845 46.89939342222222,97.33932178339599 46.89971697777778,97.13920692437677 46.89935431111112,97.10705649813035 46.89975893333334,97.08218885732948 46.89981582222222,97.00342933929095 46.899816097214575,97.00337308265765 46.90022755555556,96.91914294249105 46.900028444444445,96.88828791260383 46.900347733333334,96.82532328968921 46.90009528888889,96.81943384888696 46.90013687440853,96.80762133108986 46.29203555555556,96.80283541157924 45.87868444444445,96.79822545955162 45.8660416,96.79742191525361 45.62846648888889,96.79747864730417 45.630500266666665,96.79988459740673 45.6337088,96.80953072876505 45.62635093333334,96.82374941705292 45.63019591111111,96.84670288308078 45.63439644444445,96.8669362971531 45.63446044444445,96.89207317893153 45.63035235555555,96.9146667751335 45.63302968888889,96.9322335932244 45.6401728,96.95341478609285 45.641294933333334,96.97679338732476 45.65187555555556,96.99885064608927 45.64945137777778,97.01762128365095 45.65070222222222,97.03487518121304 45.65698488888889,97.05170385206064 45.652759466666666,97.07050426429876 45.64308195555556,97.08757347396045 45.64500408888889,97.111659796725 45.645531733333335,97.13518195469504 45.64095715555556,97.15052099068981 45.62967395555556,97.16813463632985 45.63226951111111,97.19714349544807 45.636248888888886,97.21390532379837 45.63670542222222,97.23243902556828 45.63525546666666,97.25450948597339 45.63992533333334,97.27688985092016 45.64203946666667,97.29759592393431 45.63086151111111,97.31396333565831 45.62998968888889,97.33624912628574 45.624434488888895,97.3599735517416 45.62182471111112,97.37084304192479 45.61597084444445,97.37878935960808 45.612377599999995,97.38156600669559 45.60847644444445,97.38410847309602 45.606184533333334,97.38971739242808 45.60392462222223,97.39297083820614 45.60395306666667,97.40449523942429 45.59974471111111,97.40911215730279 45.588620088888895,97.41392769417266 45.585069511111115,97.41800238008496 45.579752533333334,97.41872537031111 45.576806399999995,97.41742582407406z" stroke="#0E478F" stroke-width="0.003" stroke-opacity="0.8" fill="royalblue" fill-opacity="0.75"></path></g><g data-fips="32" data-geo-id="32510" data-county="Carson City"><path d="M42.663463523318754,97.68616310352053 42.664247195470224,97.73467432316347 42.83647075555556,97.73346276193917 42.84288711111111,97.74673517832782 42.84293973333333,97.76013221065729 42.985941333333336,97.75931959879806 42.978629688888894,97.71238056161813 42.96908728888889,97.69590435495685 42.97909048888889,97.67428607658162 42.97850311111111,97.65971969132283 42.916283022222224,97.65892783595335 42.892588088888886,97.64601362354554 42.871008,97.60790560551436 42.84295608888889,97.61386138351527 42.842902755555556,97.62716760987772 42.82960213333334,97.62722269100573 42.829602844444445,97.64057572100228 42.80596906666666,97.64684051165857 42.78988017777778,97.64727276526233 42.764432355555556,97.66777991368608 42.76472675555556,97.68107318014005 42.75144035555556,97.68624535600182 42.663463523318754,97.68616310352053z" stroke="#0E478F" stroke-width="0.003" stroke-opacity="0.8" fill="royalblue" fill-opacity="0.75"></path></g></svg>