<svg version="1.1" xmlns="http://www.w3.org/2000/svg" preserveAspectRatio="xMinYMin meet" viewBox="76.40373546666666 91.78158021515473 1.3180074666666712 2.579338931468911"><g data-fips="33" data-geo-i-d="33001" data-county="Belknap"><path d="M76.99078613333333,93.49050757340362 77.00190862222223,93.50159304613025 76.99372586666667,93.5166658354899 76.99291377777779,93.5197364561352 77.00882062222223,93.54196793855908 77.02213475555556,93.5512695386347 77.01971484444445,93.56128063601403 77.02948053333333,93.578381297639 77.0464192,93.59099698901565 77.05738951111111,93.58694398891822 77.07023715555556,93.63386632855673 77.083584,93.64241414720556 77.11178595555556,93.62349427263504 77.12041031111112,93.62551906723377 77.17585493333334,93.66575669104718 77.18756835555556,93.67422161162983 77.26289706666667,93.72907726872305 77.34328106666666,93.78926700086134 77.3635072,93.76679290429685 77.3977856,93.72072090603217 77.37543182222223,93.56412340825673 77.39543111111112,93.5406573772925 77.36926933333334,93.52086692251777 77.36253084444445,93.52931824027598 77.3490424888889,93.51538611780357 77.32746026666668,93.50887914921111 77.3093824,93.49198320396192 77.27243448888889,93.45969941964108 77.26675911111111,93.45246619476912 77.26631466666667,93.45204767603533 77.19830044444444,93.38683844341284 77.1330432,93.32245992004768 77.14029084444445,93.3844444876679 77.09766897777779,93.39038788916818 77.05006506666666,93.39770247666482 77.04533404444444,93.42007822436187 77.04836195555556,93.43649160801851 77.04395662222223,93.44971629556423 77.04806897777779,93.46000590098075 77.0398656,93.47438614273369 77.02179840000001,93.4857063646985 77.00785493333333,93.47974309341208 76.99078613333333,93.49050757340362z" stroke="#0E478F" stroke-width="0.003" stroke-opacity="0.8" fill="royalblue" fill-opacity="0.75"></path></g><g data-fips="33" data-geo-i-d="33003" data-county="Carroll"><path d="M77.10961564444445,93.19215819948359 77.11244728888889,93.21004294344566 77.12440533333333,93.28792568400615 77.12870826666666,93.2888744050731 77.1330432,93.32245992004768 77.19830044444444,93.38683844341284 77.26631466666667,93.45204767603533 77.26675911111111,93.45246619476912 77.27243448888889,93.45969941964108 77.3093824,93.49198320396192 77.32746026666668,93.50887914921111 77.3490424888889,93.51538611780357 77.36253084444445,93.52931824027598 77.36926933333334,93.52086692251777 77.39543111111112,93.5406573772925 77.42022542222223,93.50746381324149 77.43182506666666,93.57228520058865 77.45078186666666,93.57230775083416 77.4630648888889,93.55215224658534 77.48413795555555,93.54961589695895 77.49387093333334,93.59561128835279 77.53775217777778,93.53835990116687 77.5380288974083,93.53861886987839 77.5424512,93.53774774900376 77.54287146666667,93.5386748038982 77.54293191111111,93.53876603708655 77.54607075555556,93.52881882874581 77.54533262222223,93.52762964325134 77.54430435555555,93.52715867208792 77.54309902222222,93.5256662574375 77.54249955555555,93.52022220605734 77.54152248888889,93.51868054960896 77.53824142222223,93.5171045053462 77.5334784,93.51132204537359 77.53235626666667,93.51162825906593 77.53051306666667,93.5099489715262 77.52880118684658,93.46659656623903 77.52838755555555,93.45611680986701 77.52394951111111,93.381525185809 77.52392675555556,93.38053664282471 77.52374186666667,93.37079787093622 77.52385208888889,93.36767128570338 77.52184817777778,93.33033227814346 77.51891191476474,93.29181928269367 77.51890719156133,93.29175731130228 77.51888568888889,93.29147518193017 77.51827271111111,93.24535443930782 77.51697850835798,93.2077958880124 77.51633564444444,93.18913066279245 77.51620124444445,93.16936198732589 77.5122176,93.04600418596789 77.51013902222222,92.99470712366178 77.51016177777778,92.99443583210089 77.5095736904709,92.97719109460851 77.50501902222223,92.84346015408923 77.50487893333333,92.83060158335313 77.50489884444445,92.83022229591356 77.50380716951588,92.8043382263006 77.47954844444445,92.80544114571148 77.48104533333333,92.85137820321816 77.44111360000001,92.85342280519887 77.33194168888889,92.84467617098755 77.29603555555556,92.95065924537599 77.28941653333334,92.99587049475299 77.27226168888889,93.0018147127412 77.26678186666668,92.99557544622985 77.26703075555555,92.96454447663389 77.2576128,92.92247839396981 77.23787448888889,92.9095816759922 77.23031182222222,92.87403851755653 77.21536142222223,92.87652878019317 77.20781724444444,92.87778478474696 77.21730062222223,92.92086645977251 77.23581297777778,92.93302029980565 77.24336497777777,92.96901895053436 77.23972977777778,92.98981279108722 77.250592,93.0188678244853 77.26460017777778,93.01857289179378 77.23831964444445,93.06429051854857 77.24121173333333,93.08512076940973 77.25371377777778,93.16968873925636 77.10961564444445,93.19215819948359z" stroke="#0E478F" stroke-width="0.003" stroke-opacity="0.8" fill="royalblue" fill-opacity="0.75"></path></g><g data-fips="33" data-geo-i-d="33005" data-county="Cheshire"><path d="M76.40373546666666,94.20976098904711 76.40421217144164,94.2108348158082 76.40645262222222,94.21588140489476 76.40992,94.22042814900726 76.41073635555556,94.22472822903127 76.41071360000001,94.22956132909476 76.41163875555556,94.23796305223723 76.41164846166329,94.23802412657166 76.41402026666667,94.25294651496392 76.41628444444446,94.25648437676506 76.43139271111112,94.27022771631371 76.43318186666667,94.27225391651943 76.43609173333333,94.27656190812957 76.43814542222222,94.28062640736928 76.43872142222223,94.28356585214304 76.43849102222222,94.28576985682366 76.43722382222222,94.28711547086297 76.4338944,94.28884467137567 76.43254684444445,94.29152410717332 76.43300835555556,94.29415983453899 76.43512533333335,94.29622009647946 76.43671395555556,94.29628789891412 76.43876622222223,94.29564667853947 76.44395377777778,94.29250537458658 76.44497848888889,94.29115213191588 76.44530773333334,94.28831671347916 76.44590293333333,94.28740900252915 76.4477560888889,94.2870525018366 76.45075768888888,94.28784784422294 76.45314346666666,94.29083633861134 76.45411555555556,94.29316115837392 76.45519786666668,94.29455600699688 76.45912604444445,94.29690102316631 76.46036266666667,94.29871614418022 76.4615552,94.30214767706875 76.4624192,94.30890072494444 76.46359395555555,94.31356146339537 76.46732302222223,94.31811920522566 76.47217706666667,94.3258647328667 76.47396408888889,94.32984844951007 76.47394204444446,94.33201784236432 76.47914969363549,94.33223236648763 76.50699858672192,94.33337956197241 76.56797690836908,94.33589140055292 76.59665493333334,94.33707267863088 76.59873217731491,94.33714265310721 76.65523942850973,94.33904613694395 76.71144817777778,94.3409395056969 76.72102517337025,94.34133495583575 76.7421379175212,94.34220672709705 76.74408746924907,94.34228722585567 76.81322524444444,94.34514191753121 76.85047509022948,94.34616373037096 76.83962097777778,94.2723992654094 76.817984,94.27143801821235 76.81122417777777,94.228395757563 76.799136,94.1452947205857 76.79753031111112,94.13482491917523 76.79559822222222,94.12164887529858 76.75575324444445,94.12067063377111 76.7564472888889,94.10025699812772 76.75818595555556,94.0620537931577 76.75879182222224,94.04861756824336 76.77015324444444,93.98700329005544 76.77520924444444,93.94529512557321 76.77287182222223,93.94164525905245 76.67306880000001,93.93866459627213 76.68859662222222,93.88982441189987 76.61334542222222,93.90154144088588 76.56381226666667,93.90847345093096 76.56510151111111,93.91595638630169 76.53231004444444,93.91350182194697 76.53543466666667,93.93841904303511 76.4930616888889,93.93499191070629 76.49273600000001,93.9114195546201 76.47851111517213,93.90993538821519 76.47889564444445,93.9159671089582 76.47871857777778,93.91759400603017 76.47800817777778,93.91906490108725 76.47535146666667,93.92145198217091 76.47492266666667,93.9224607851545 76.47510044444445,93.92434676230422 76.47858773333333,93.93178677408142 76.48120675555556,93.93347950529753 76.48411448888889,93.93330117145972 76.48575715555556,93.93403691691219 76.48646755555556,93.93483794335393 76.48666737777778,93.93833621731028 76.48655644444445,93.93904851478186 76.4851584,93.93936032494938 76.48502542222222,93.94029574566346 76.48642346666666,93.94281351347519 76.48856872839488,93.94528310853335 76.49000106666666,93.94693193919196 76.4921088,93.95056199758211 76.49232995555556,93.95599595525351 76.49199715555557,93.95739868927356 76.49077688888889,93.96004820792982 76.48669368888889,93.96372227203824 76.48538524444444,93.9661718469927 76.48494151111112,93.96888817645748 76.48767004444444,93.974720708214 76.49053084444445,93.98273476132468 76.49044195555555,93.98573951023269 76.48982044444445,93.98749788996876 76.48720355555555,93.9920610622477 76.48341191111112,93.99760124028724 76.47665066666667,94.00525695665608 76.47017813333333,94.01117741758381 76.46827306666667,94.0137807550783 76.46765297777777,94.01580592713483 76.46803057777778,94.01916419411 76.46869617777779,94.02081065875763 76.47129031111112,94.02401296081226 76.4727096888889,94.02746027902796 76.47224533333333,94.03204277319034 76.47076266666667,94.039270918416 76.47118435555556,94.04216095879036 76.47360142222223,94.048164324981 76.47499733333333,94.05020972814631 76.47787804444445,94.05172112228306 76.48381511111111,94.05674423919564 76.48439111111111,94.05830117379638 76.4844359111111,94.06094621637044 76.48357191111111,94.06272474715811 76.4809144888889,94.06588201938122 76.47872213333333,94.06645764203608 76.47506773333333,94.06574880861844 76.47292373333333,94.06694088852959 76.47079822222223,94.06999098796999 76.46953671111112,94.07325870942697 76.46909511111112,94.07717079544747 76.47002595555556,94.08052561352403 76.47175324444444,94.08252616589499 76.47173191111112,94.0836372309237 76.46863288888889,94.08794909518593 76.46305635555557,94.0941937483278 76.4609976888889,94.09448433964559 76.45920355555556,94.09268537203303 76.45745351111111,94.09230827201165 76.45377991111111,94.09444254900794 76.4497088,94.09846695053236 76.44143928888889,94.10024825209715 76.43882595555556,94.10184583911955 76.43134435555555,94.1028185582384 76.42155662222223,94.11081058114466 76.42018346666667,94.1135426848592 76.41987271111111,94.11571797973914 76.42033706666668,94.11698386972276 76.4219072,94.11900554634899 76.42327964444445,94.11938442095698 76.42414222222223,94.12016159212817 76.42493795555555,94.12227156092543 76.42551182222222,94.12542568945912 76.42570951111111,94.12948977244685 76.42517546666667,94.13641769798046 76.42720568888889,94.14620944228383 76.42707200000001,94.14905062241715 76.42647395555555,94.15022744904275 76.42368640000001,94.15182370163569 76.42295608888888,94.15293347989629 76.42198186666667,94.15721705036381 76.42206648888889,94.16616185011654 76.42115533262543,94.16794382156476 76.42113635555556,94.16798093493834 76.41792924444444,94.17206348221714 76.41549653333334,94.17448123617325 76.41138417777778,94.1766543166824 76.4074488888889,94.17811884498414 76.4068736,94.17876229440117 76.40503822222223,94.18802021278749 76.40524017777778,94.19226052134573 76.40447004444445,94.196246331695 76.40454257777778,94.19692354379796 76.40523946666667,94.19742902233952 76.40587946666668,94.20295214040863 76.40373546666666,94.20976098904711z" stroke="#0E478F" stroke-width="0.003" stroke-opacity="0.8" fill="royalblue" fill-opacity="0.75"></path></g><g data-fips="33" data-geo-i-d="33007" data-county="Coos"><path d="M76.96712746666667,92.68332424679863 76.96662117160369,92.68360227562513 77.01554844444445,92.75740409465072 77.02263395555556,92.7529670686315 77.09368604444445,92.78459649335491 77.10163982222223,92.83442112866916 77.1502848,92.82617905781083 77.15140266666667,92.83346701040173 77.17709795555555,92.82911917105642 77.19584853333333,92.83980599501321 77.21536142222223,92.87652878019317 77.23031182222222,92.87403851755653 77.23787448888889,92.9095816759922 77.2576128,92.92247839396981 77.26703075555555,92.96454447663389 77.26678186666668,92.99557544622985 77.27226168888889,93.0018147127412 77.28941653333334,92.99587049475299 77.29603555555556,92.95065924537599 77.33194168888889,92.84467617098755 77.44111360000001,92.85342280519887 77.48104533333333,92.85137820321816 77.47954844444445,92.80544114571148 77.50380716951588,92.8043382263006 77.50309688888889,92.78749100813152 77.50204515555556,92.74878822067348 77.50018631111112,92.71166057376576 77.4963392,92.61644424911938 77.49476124444445,92.59020809142424 77.49215644444445,92.53226239166091 77.490455223827,92.47924485620712 77.48903893333333,92.4350700138173 77.48500977777778,92.35399709567994 77.48443164444444,92.33486449327508 77.47936284444445,92.245237820655 77.47363057777778,92.15911917559637 77.46996551111111,92.0895601727855 77.46915271111111,92.0846633874857 77.46176924444444,91.94457423918337 77.45948444444446,91.90736160329823 77.45641671111112,91.84076184078302 77.45143182222223,91.7816054918465 77.4502656,91.78158021515473 77.44747875555555,91.78248208062013 77.44158435555555,91.78518961388437 77.43633706666667,91.79254015429831 77.4338311111111,91.79827152672985 77.43236053333334,91.8027076401581 77.43277582222223,91.8043014845453 77.43335182222224,91.80508676761195 77.43595306666667,91.804807826596 77.43478115555556,91.80873511030515 77.43236622222223,91.81192444079369 77.43064035555555,91.8125257047108 77.42838613333333,91.81509136342166 77.42569813333333,91.82174395868915 77.42583893333334,91.82523060465715 77.4225656888889,91.83231943092396 77.42011591111111,91.83393366565218 77.41727786666667,91.84226574825585 77.4158264888889,91.84353429234511 77.41196088888888,91.84475534053843 77.40814151111111,91.84546937405 77.40574933333333,91.84530677314058 77.40036693333334,91.84121837025407 77.39861902222222,91.83890942507972 77.39531022222222,91.83730745138612 77.3920384,91.8401770333437 77.38932337777779,91.84153854472919 77.38782791111112,91.8413314920393 77.3848832,91.84407765695016 77.38412373333333,91.84633993754083 77.38322631111112,91.84756294584074 77.38246755555556,91.84788611461295 77.38127146666667,91.84666311320117 77.3811328,91.84500075899932 77.38041955555556,91.842761655375 77.37781973333333,91.8399689657013 77.37475982222223,91.83795188249954 77.3725312,91.83712260538911 77.37126542222222,91.83401245692306 77.37011484444444,91.8333427276712 77.3667320888889,91.83329727065129 77.36049777777778,91.8371811905237 77.35421582222222,91.83651048816378 77.35324871111112,91.83406397423394 77.3505344,91.83593472837718 77.34894364444445,91.83795592279715 77.34675768888889,91.83793370115669 77.34540302222221,91.83607614359693 77.3464376888889,91.83413569433485 77.34374115555555,91.82718852966187 77.34309617777778,91.82640354917984 77.34090951111112,91.82559633153485 77.33724515555555,91.81931803331281 77.33653120000001,91.81857942424386 77.33305386666667,91.81825507990968 77.32875306666668,91.81407279347428 77.32649671111112,91.81416373795511 77.3247032888889,91.8112756750088 77.32405902222223,91.80995892063936 77.32350933333333,91.80457739603753 77.32141937777777,91.79598207895643 77.32271004444445,91.79374207158855 77.32155946666667,91.79258665451069 77.31746133333334,91.79045872572615 77.31255537777778,91.79218937974161 77.31147377777778,91.79198113792316 77.31004657777778,91.78964695820702 77.31018524444445,91.78784546045759 77.30938026666668,91.78511783253936 77.30887395555555,91.78465580116729 77.30026026666667,91.78793543559416 77.29699057777778,91.79059115495305 77.29429617777778,91.79474988356813 77.29289102222222,91.79837664708128 77.29137208888889,91.80001710605407 77.28759608888889,91.80022430794601 77.28469546666666,91.80262779517122 77.28289991111112,91.80498368087282 77.27753671111111,91.80618533733016 77.27521208888889,91.80736372450471 77.27383182222222,91.81059759575965 77.27362488888889,91.81207602052677 77.27189902222223,91.81433956354243 77.26646826666666,91.81625845257949 77.26391324444445,91.81529042706197 77.26103751111111,91.81824699653839 77.25977173333334,91.8187562467064 77.25866737777777,91.81882596512753 77.25463893333334,91.81760436487286 77.25309795555556,91.81984546105357 77.25282275555556,91.82104579576279 77.25351466666667,91.82275430967013 77.25542542222222,91.82483153537594 77.25736177777777,91.83039501790452 77.25743217777779,91.83281845452032 77.25706453333333,91.83427307343266 77.25566293333334,91.83672159863772 77.25296853333334,91.83945586363028 77.2491512888889,91.84109817811289 77.24662044444445,91.84133048202435 77.24324195555556,91.84278286515621 77.24257422222223,91.84349793319157 77.24100764444444,91.8471206056332 77.24077653333335,91.84889701517695 77.23863466666667,91.85288893898856 77.23739235555556,91.8544571548619 77.23688604444445,91.85459549509383 77.23419591111112,91.85277079091824 77.23242595555556,91.85055420724396 77.23063324444445,91.84651465460823 77.22479075555556,91.84512801260283 77.2217080888889,91.84621167669607 77.21818737777778,91.84893438079055 77.21448391111112,91.85221135145363 77.20319004444444,91.85010987037398 77.19925617777778,91.8487485623636 77.1965880888889,91.849210077674 77.19582933333334,91.8500411998235 77.19546097777778,91.85071073418547 77.19546168888888,91.85232546139008 77.19617422222223,91.8529949691009 77.19780764444444,91.85281017363539 77.19925688888888,91.8550488851952 77.20408675555556,91.85911005059276 77.2114688,91.86386252144563 77.21441208888889,91.86663183807693 77.21517013333333,91.86840865333693 77.21523911111112,91.86963119144123 77.21560675555556,91.86995524548318 77.22018204444444,91.87136349647206 77.2214008888889,91.87115554186937 77.22434346666667,91.87263341648486 77.22730666666666,91.87941661515681 77.22808746666666,91.88211654936822 77.228224,91.88453881219615 77.22265884444445,91.89000265819092 77.22286506666667,91.89212387092633 77.22042524444444,91.90026387776392 77.21746062222222,91.90197003515404 77.21610453333334,91.90335328699939 77.2156672,91.90496653426723 77.21516017777779,91.91098428331864 77.21311431111111,91.91790013295125 77.21100017777778,91.9209189993826 77.20916195555556,91.92255595952082 77.20987306666667,91.9273727694638 77.20959715555556,91.92919409615251 77.20764444444445,91.93527787694765 77.20697742222222,91.93629228197005 77.20534684444445,91.93707576146625 77.20307271111112,91.93940294517155 77.20020195555556,91.94629218749577 77.20121244444445,91.94898797236183 77.20314097777778,91.95076224195115 77.20764088888889,91.95905521795794 77.20731875555556,91.96138151198102 77.20616675555556,91.96489194127372 77.20359537777777,91.96834672816374 77.19781191111112,91.97438202901226 77.19423075555557,91.97548744126345 77.19205120000001,91.9798867110061 77.19228088888889,91.98101418382039 77.19163946666667,91.98439949216024 77.18936817777778,91.9866562536932 77.18723413333333,91.98748639726597 77.18519253333334,91.9901570812957 77.18400071111111,91.99393370646422 77.18253297777778,91.99547692391681 77.18056035555556,91.99598359790406 77.17870435555555,92.00220031582828 77.17590613333333,92.00487132401484 77.17312995555557,92.00464270184693 77.16923093333334,92.00551891403506 77.16913991111112,92.00604866343721 77.16982826666667,92.00694600348233 77.16962204444444,92.00777484723008 77.16774257777779,92.0099622122799 77.16526577777778,92.01060773091828 77.16327395555555,92.01558029789666 77.16327466666668,92.01684602853723 77.1570368,92.0185769229867 77.15669404444445,92.01954354295665 77.15832533333334,92.02412167762381 77.15716408888889,92.03452206367523 77.155168,92.03734859827432 77.1535872,92.0366570764576 77.1523256888889,92.03690972949633 77.1519352888889,92.0378297395578 77.15184213333333,92.0405212381792 77.15493404444445,92.04422612077752 77.15589191111111,92.04466694668224 77.1575616,92.04475752692957 77.16042666666667,92.04355984325537 77.16189511111112,92.04567439230047 77.16185031111112,92.04758355906696 77.15981582222223,92.05505959705275 77.15559466666667,92.06313129999755 77.1548664888889,92.07347635757802 77.15543893333334,92.07414329500824 77.15550648888889,92.07531519501589 77.15478186666667,92.0761551258479 77.1804167111111,92.07589258590957 77.17955768888889,92.07758147134783 77.1700544,92.08668792527709 77.16439822222222,92.08866814205655 77.15739591111111,92.08570935727383 77.14516693333334,92.08562990446597 77.14131768888889,92.08730543034598 77.1377664,92.08771776717931 77.13415751111111,92.08995539731828 77.12925866666667,92.09546512826887 77.12811235555556,92.10149314990535 77.12868693333334,92.10539820719751 77.1330808888889,92.11371718828968 77.13623964444444,92.11608448551905 77.13964800000001,92.12348229103384 77.1440192,92.12523008498005 77.14500053333333,92.13108717029971 77.14359893333334,92.14229417230719 77.14453475555557,92.146381327281 77.14407537777778,92.1490677605805 77.14350293333334,92.15021503241084 77.14475448888889,92.16265774888598 77.14900835555555,92.1665626837329 77.15236764444445,92.1709483898404 77.1549952,92.17549442945291 77.15953564444445,92.17820360636077 77.15987911111111,92.17912136391523 77.15851093333333,92.18508844030131 77.15771164444445,92.18584645480625 77.1558912,92.18529526378957 77.15478186666667,92.18563762531365 77.15379697777779,92.1873574341521 77.14941013333333,92.1923940809444 77.14569244444445,92.19546082918916 77.14535111111113,92.19614743724331 77.145536,92.19696553413095 77.14722702222222,92.19854949735888 77.14681457777777,92.19987947093915 77.13963164444445,92.20934900086047 77.13661297777777,92.21106810347207 77.13540124444445,92.21235162657379 77.13501226666666,92.2132457606781 77.13482382222222,92.21662648604048 77.13095964444445,92.22050068037764 77.12702862222223,92.22157730103133 77.12291484444445,92.22407662910413 77.1203320888889,92.22763028472582 77.11987484444445,92.22861648071479 77.11978382222223,92.23068011407507 77.12115413333333,92.23322419062912 77.1211768888889,92.23471487112218 77.11740017777778,92.2381324570446 77.11601777777778,92.23971328545801 77.1151608888889,92.2414575630589 77.1152,92.24340940643606 77.11641884444445,92.24454176633074 77.11811271111111,92.24823657553273 77.11857422222224,92.25108574994337 77.11842275555556,92.25252281981358 77.11736035555556,92.25423762962438 77.11454435555557,92.2558862058155 77.11128462222221,92.26570148060662 77.11025706666668,92.26643437581059 77.109504,92.26643437581059 77.10922951111111,92.26565536103539 77.10726613333333,92.26650355422123 77.10271004444445,92.27227113831293 77.10186666666667,92.274297125045 77.10212337777779,92.27679617860295 77.10374115555557,92.27998574826884 77.1063352888889,92.28155941831409 77.1064192,92.28333250222185 77.10549191111112,92.2851045294917 77.10355271111112,92.29244964485085 77.10456462222223,92.29557321589363 77.1034688,92.29852727542385 77.09942186666667,92.30435077986661 77.09866311111111,92.3049419149469 77.09554346666667,92.30468842894899 77.0894464,92.30765103978419 77.08661404444445,92.31144700753461 77.08680533333333,92.31302082345911 77.08735075555556,92.31416684706855 77.087264,92.31501833592284 77.08339840000001,92.31837909015849 77.08116266666667,92.32271522645968 77.07858915555556,92.32479853972957 77.0760768,92.32611359260937 77.07429902222222,92.32984225101129 77.07431964444444,92.33180313046941 77.0716864,92.33458810603193 77.06743182222222,92.3353371524579 77.06221866666667,92.33722174242533 77.06177208888889,92.33801281131804 77.06171235555556,92.3401456393888 77.06180206639289,92.34038768059278 77.0623224888889,92.34179176843642 77.06530915555555,92.34325862622113 77.06653866666667,92.34650861007741 77.06662471111112,92.35339544967354 77.06621297777778,92.35543161076197 77.06623217777778,92.36018938154268 77.06672213333334,92.36147059950497 77.06789973333333,92.36270874961114 77.06837831111112,92.3627307698261 77.0708856888889,92.36121936290505 77.07188906666667,92.36158470660467 77.07204906666668,92.3624535146904 77.07127751111112,92.36659418699207 77.071392,92.3678982823103 77.07513315555556,92.37157821486042 77.08095146666668,92.38236846646296 77.08462222222222,92.38520203768444 77.08500977777778,92.38664278344699 77.08389546666666,92.38970725056308 77.08389546666666,92.39062165694392 77.08432924444445,92.39160407747323 77.08540017777777,92.39251845391138 77.08667875555555,92.39560361757248 77.0858368,92.3977073168619 77.08697813333335,92.4034678408417 77.08855182222223,92.40671244712337 77.08823395555555,92.40888475150794 77.08700444444445,92.41085095680549 77.0870727111111,92.41144500570931 77.09153848888889,92.41498517086697 77.09342933333333,92.41560217752081 77.09652693333334,92.41569217794238 77.09725653333334,92.41699516838509 77.09686968888889,92.41827513047156 77.09548231111111,92.42031701146678 77.09465244444445,92.42125093305721 77.09465244444445,92.42288375980863 77.09541404444444,92.42517643889562 77.09493617777778,92.42700411809471 77.09398897777778,92.42941560661956 77.09398897777778,92.43104820338144 77.0952192,92.4327097457697 77.09655822222223,92.43390438730906 77.10150186666667,92.43483409130437 77.10171733333334,92.43595071607189 77.10128924444444,92.43734521724801 77.10145493333334,92.43851177418435 77.10211911111111,92.43991121168884 77.10423964444445,92.44015011228718 77.10561066666668,92.44004015815918 77.10671857777778,92.43898658712403 77.10745244444445,92.43696435681562 77.10851982222223,92.43666146602412 77.10975217777778,92.43769708607994 77.1116288,92.44029904981895 77.11390506666667,92.44614729430461 77.11427549558947,92.44861385292424 77.11429262222222,92.44872789073533 77.11370026666667,92.45039592235892 77.1110144,92.45101255221923 77.1110144,92.4532501539675 77.11137848888889,92.45393570828222 77.11670471111113,92.45831566940218 77.11877546666668,92.46291112514018 77.11775573333334,92.46386334515907 77.1172280888889,92.46509731111937 77.11668195555556,92.46512029161292 77.115904,92.46638720212738 77.11533511111111,92.4735115597071 77.11708657777778,92.48090873613162 77.11724586666668,92.48341986558208 77.1165632,92.48531462759507 77.11588906666667,92.4870015829267 77.11572337777778,92.48909897231205 77.11683626666667,92.49207014417183 77.11671893333333,92.4946906414278 77.1175488,92.49702042776366 77.12052053333333,92.49729703998958 77.12668373333334,92.50001416076131 77.12977706666668,92.50202321052316 77.1287296,92.5056736716666 77.12702364444445,92.50793312817795 77.12361102222222,92.5111718952061 77.12181475555556,92.51190169106536 77.12051911111111,92.51128570802331 77.11918577777777,92.5100467336809 77.11772444444445,92.50976918382874 77.11610097777779,92.5122770681255 77.11385955555556,92.51969725522744 77.11361066666666,92.52165272042633 77.11390933333334,92.5248537915908 77.11299840000001,92.52630404731372 77.11047182222222,92.52720332740267 77.10606293333333,92.52764348050488 77.10185315555556,92.5256492907844 77.09143466666667,92.52473202036342 77.09006862222223,92.52530693801316 77.08876586666666,92.52660946475484 77.08719146666667,92.52951883467453 77.08601102222222,92.5332374259835 77.08578417777778,92.5349938436391 77.08671715555555,92.53697773332868 77.09292373333334,92.54253984737997 77.10208497777778,92.5495151869354 77.10358542222222,92.55238749423903 77.10363093333333,92.55405155173025 77.10260906666667,92.55669718528773 77.10088248888889,92.56002600325036 77.09688533333333,92.56593101865104 77.09459128888889,92.56766450550705 77.09361493333334,92.5678929069964 77.08952533333334,92.56732439507529 77.08852693333334,92.56864692475294 77.08873173333333,92.57058378795236 77.09005013333334,92.57254352460686 77.0937536,92.57564206750237 77.09443555555556,92.57687266277708 77.09514026666668,92.58015445518177 77.09636764444444,92.58202213214005 77.10025173333334,92.58539436852561 77.10075164444444,92.5862368985176 77.10034275555556,92.58758192996362 77.09954844444445,92.5883566300214 77.09868515555556,92.58849322342675 77.09493973333333,92.58896082907765 77.09268622222223,92.58978536122095 77.09048746666666,92.59060988166891 77.08783217777778,92.59352601796313 77.08765582222223,92.59582492691096 77.08592568888889,92.60185489401319 77.08481422222222,92.60376872207402 77.07764053333334,92.6058688765199 77.07312142222223,92.6042780688243 77.07191893333334,92.60450632648765 77.06239502222223,92.6058937948406 77.06112355555555,92.60632537846092 77.05648924444445,92.6123592398528 77.05378773333334,92.61354221789313 77.05181155555556,92.61504507357122 77.05052942222223,92.61705413561862 77.05018453333334,92.61815231380925 77.05040782222223,92.62019215964517 77.05134151111112,92.62129526092899 77.0553976888889,92.62421882654317 77.05571271111111,92.62596153654815 77.05397262222223,92.62840463042107 77.0523960888889,92.62958927480747 77.04723911111111,92.62901937320234 77.0465080888889,92.62963510581287 77.04368853333334,92.6361068782787 77.04247395555556,92.6451428426239 77.04047644444445,92.6497633827733 77.03879751111111,92.65169754608708 77.0354176,92.6535181106992 77.02941582222222,92.654335752749 77.02807964444445,92.65501694636677 77.0276032,92.65596901063671 77.02815431111111,92.65784919223088 77.02759111111111,92.66209730261708 77.02339555555555,92.66658108279213 77.01979022222223,92.66874269307762 77.01373582222223,92.6738850315021 77.0076152888889,92.67795875527993 77.0026048,92.67943904323829 76.99470293333334,92.67854808761119 76.99091911111111,92.67891641728892 76.98778808888889,92.67986510435055 76.98642773333333,92.68100092025867 76.98494506666667,92.68313412373081 76.98324764444445,92.68752570861426 76.9826816,92.68823139705624 76.98132551111111,92.68852800262168 76.97810986666667,92.68793478998002 76.97469155555557,92.68432959929734 76.9734464,92.68350939222617 76.96926862222223,92.68288626602428 76.96712746666667,92.68332424679863z" stroke="#0E478F" stroke-width="0.003" stroke-opacity="0.8" fill="royalblue" fill-opacity="0.75"></path></g><g data-fips="33" data-geo-i-d="33009" data-county="Grafton"><path d="M76.56220373333333,93.46184180878335 76.56195911111112,93.46648878745314 76.56341333333333,93.4706197830127 76.56567324444445,93.47250544814437 76.56659057777777,93.4740316142863 76.56663845062236,93.47451668543954 76.56699377777778,93.47811691005288 76.56639004444445,93.47995716494053 76.56560355555555,93.48055027649984 76.56556282020864,93.48056732291045 76.6518663111111,93.49527206829612 76.67826631111112,93.50628793969369 76.72432924444445,93.52640609163032 76.71454151111111,93.54130187100526 76.73536497777779,93.55056630520795 76.75056640000001,93.52671320841064 76.75223822222222,93.5357405517916 76.84600177777779,93.55054374667515 76.84907235555555,93.54566403576197 76.87672035555556,93.50566662143721 76.90723342222222,93.46974862467827 76.92947840000001,93.53550804214021 76.94400782222223,93.52058921446293 76.95822222222222,93.52737159076597 76.96994133333334,93.51242813670868 76.98802986666666,93.51091572090994 76.99372586666667,93.5166658354899 77.00190862222223,93.50159304613025 76.99078613333333,93.49050757340362 77.00785493333333,93.47974309341208 77.02179840000001,93.4857063646985 77.0398656,93.47438614273369 77.04806897777779,93.46000590098075 77.04395662222223,93.44971629556423 77.04836195555556,93.43649160801851 77.04533404444444,93.42007822436187 77.05006506666666,93.39770247666482 77.09766897777779,93.39038788916818 77.14029084444445,93.3844444876679 77.1330432,93.32245992004768 77.12870826666666,93.2888744050731 77.12440533333333,93.28792568400615 77.11244728888889,93.21004294344566 77.10961564444445,93.19215819948359 77.25371377777778,93.16968873925636 77.24121173333333,93.08512076940973 77.23831964444445,93.06429051854857 77.26460017777778,93.01857289179378 77.250592,93.0188678244853 77.23972977777778,92.98981279108722 77.24336497777777,92.96901895053436 77.23581297777778,92.93302029980565 77.21730062222223,92.92086645977251 77.20781724444444,92.87778478474696 77.21536142222223,92.87652878019317 77.19584853333333,92.83980599501321 77.17709795555555,92.82911917105642 77.15140266666667,92.83346701040173 77.1502848,92.82617905781083 77.10163982222223,92.83442112866916 77.09368604444445,92.78459649335491 77.02263395555556,92.7529670686315 77.01554844444445,92.75740409465072 76.96662117160369,92.68360227562513 76.96505742222223,92.68446099061856 76.96156373333334,92.68679811397428 76.95971626666667,92.68875991128988 76.95743075555555,92.6900806782427 76.94884408888889,92.68962184699994 76.94654293333333,92.69060618984497 76.94054897777778,92.69646910471175 76.93974186666667,92.69795190767326 76.93974115555555,92.69945059499048 76.94229404444445,92.70386184586908 76.94199751111111,92.70552854104788 76.93976106666668,92.7064648545528 76.93594453333333,92.70594048104343 76.93288533333333,92.70699618836035 76.93199075555556,92.70786083919583 76.93100586666668,92.71429606498003 76.93137706666667,92.71516160233836 76.93338737777779,92.71721297401089 76.93352177777778,92.71824758605685 76.93309724444445,92.71928615890177 76.93120711111112,92.72088974268163 76.9307328,92.72216004416136 76.93156195555555,92.72601255893113 76.93335253333333,92.7311936056613 76.93354240000001,92.7323085297642 76.93304746666668,92.73410767987757 76.93201706666667,92.73510817824189 76.92882631111111,92.73670138173571 76.9235584,92.73762923860889 76.91856995555557,92.73948888583433 76.91539942980332,92.74186732226204 76.91070648888889,92.74538765223772 76.90479786666667,92.7486997288626 76.8981752888889,92.74945936205704 76.89250844444445,92.75258827034878 76.89068657777779,92.75292034036752 76.88827520000001,92.75218262536413 76.88398577777778,92.74935993419146 76.8694528,92.74211118593627 76.86619804444445,92.74133057423394 76.8587136,92.74306978269337 76.85327075555556,92.74755528895932 76.85041066666668,92.75197681910882 76.84594133333334,92.75377337384124 76.84334293333333,92.7536998026815 76.83899520000001,92.7518107816487 76.82978204444446,92.75200962885039 76.82621653333334,92.75299192407583 76.81342577777778,92.75205337514373 76.81093902222223,92.75330311334179 76.81091862705252,92.75337986016962 76.80961137777778,92.75829881587603 76.80831573333334,92.75974028230449 76.79835448888889,92.7646081989894 76.79290524444444,92.76751066369562 76.78965831111111,92.76842411499479 76.78639644444445,92.76906918786887 76.78166542222222,92.76740828469312 76.77933440000001,92.76706635740159 76.77643662222222,92.7690870788484 76.77596017777778,92.77208473436252 76.77700195555556,92.77367195839395 76.77701902222222,92.78269058611798 76.77685973333334,92.78559711940946 76.77620266666666,92.78745921197633 76.77366755555556,92.79147731380499 76.77226382222221,92.79283947097355 76.76707413333334,92.79729035361773 76.76205866666668,92.79876264675687 76.75812977777778,92.80299553094684 76.75346915555556,92.81194010229271 76.75180515555556,92.81815629338621 76.75273671111111,92.8207830037187 76.75410204444445,92.8211146857673 76.7564984888889,92.8257024297601 76.75748835555557,92.83300930609428 76.76160711111112,92.84203564494413 76.76436480000001,92.84489455501367 76.76553955555555,92.84770766531324 76.76594560000001,92.85040649592233 76.76397795555556,92.85528174283786 76.76189724444444,92.86276552694477 76.76167111111111,92.86607690210153 76.76255146666666,92.86990901147445 76.76235171305457,92.87086817231787 76.76214542222222,92.87185870653201 76.75832533333333,92.88045147267412 76.75870862222223,92.88258235456618 76.7580536888889,92.88650364876044 76.75728568888889,92.88815819130772 76.75480106666666,92.89013108279238 76.75407857777778,92.8916268254133 76.75294862222223,92.89874397277303 76.75638186666667,92.90352593927079 76.75911395555556,92.90898674028858 76.76229617777778,92.92042926700734 76.76615608888889,92.92647829705137 76.76985813333333,92.92745369660818 76.77109399399062,92.93039777450821 76.7714368,92.93121438368087 76.77149724444445,92.93247714319021 76.76962986666666,92.93592530913716 76.7695168,92.93689856897704 76.77014542222223,92.95089407831875 76.77307804444445,92.9542460424316 76.77565013333333,92.95549245246978 76.77603342222223,92.95646637760615 76.77332906666668,92.96323584876741 76.77238115555556,92.96331510034116 76.77103786666667,92.96228482151061 76.77017031111112,92.96229968143037 76.76698311111112,92.96402538777969 76.76277902222223,92.96800759284312 76.76112,92.97567802225913 76.76100906666667,92.97766876229002 76.77178737777778,92.98436943251505 76.77377208888889,92.98461898449025 76.77654542222223,92.98606874159128 76.77778488888889,92.9876075838267 76.77794204444444,92.98971278124026 76.77733119999999,92.9942833538105 76.77660871111111,92.99618336337488 76.775616,92.99747244367143 76.77419306666667,92.99836547651552 76.77154702222222,92.99883475882622 76.76712177777779,92.99806648033925 76.76609137777778,92.99872486393878 76.76531128888888,93.00043959670387 76.7663608888889,93.00218100890321 76.77170986666667,93.00625070212456 76.76977493333334,93.01281546864547 76.76546133333333,93.0160619449531 76.76566115555556,93.01826212218336 76.76196835555555,93.02262264312475 76.75993528888888,93.02771709397308 76.75934364444444,93.02864331017267 76.75814186666666,93.0293607218457 76.75586204444446,93.03170981252748 76.7554040888889,93.03559738039351 76.75276657777778,93.03789180501649 76.74675128888889,93.04126253673108 76.74497991111112,93.04254963614142 76.74383004444444,93.04423637620077 76.74339911111112,93.04567773378562 76.74353991111111,93.04755530361285 76.74632106666667,93.05241909704574 76.74666382222222,93.05422424613518 76.74620586666667,93.0553468724643 76.74360247445291,93.05692086902343 76.7433654302267,93.05706418255467 76.74311395555556,93.05721622014241 76.74214613333334,93.05843769290493 76.7417856,93.05999738266556 76.7393728,93.06245502138412 76.73566008888889,93.06262116788942 76.73455644444445,93.06246293313313 76.73311573333334,93.06372879922536 76.73237333333333,93.06506188490596 76.73196871111111,93.067186056729 76.72967324444446,93.07134517590265 76.7271288888889,93.07193352010812 76.7251256888889,93.07412764585126 76.7253752888889,93.07735886317143 76.72634595555556,93.08246437732177 76.72621155555557,93.08384251313277 76.72247537777778,93.0861182447087 76.71681066666667,93.09210372877158 76.71700906666668,93.09460054786373 76.71977742222222,93.09848888980687 76.72052906666667,93.10152999849275 76.72000711111112,93.11070969192109 76.71958897777778,93.11353970070522 76.71843413333335,93.11681222226261 76.71841706666666,93.11794451965383 76.7187392,93.11875371356655 76.72110577777778,93.11930107406295 76.72825315555556,93.12533553335595 76.729632,93.12728365786899 76.72982115555557,93.12848786680047 76.72574506666666,93.13552493179358 76.72471111111112,93.1366766226297 76.7211576888889,93.1383715227683 76.71803164444445,93.13839621500776 76.71620337777777,93.13918734886312 76.71559253333334,93.14063723941743 76.71538844444446,93.14274583786757 76.7169664,93.15059389929128 76.71696568888889,93.15193192514545 76.71607964444445,93.16242869238535 76.71524266666667,93.16473889438647 76.71395413333333,93.16670940514165 76.7039168,93.17552653238647 76.69685973333333,93.18020108678891 76.69239182222222,93.18373834021183 76.68926293333332,93.18826224016951 76.68722844444444,93.19256278025154 76.68677973333334,93.19695279589101 76.68563982222223,93.19802829477851 76.68108515555555,93.1991235073651 76.6786816,93.19885217281524 76.6779392,93.19986547762898 76.67713066666667,93.20148850492714 76.67656817777778,93.20548027076572 76.67775715555555,93.2089538533233 76.67926755555555,93.21164102829519 76.67958944931151,93.21246955133233 76.68007366154305,93.21371584425317 76.68090595555556,93.21585798808222 76.67571626666667,93.21858430120625 76.67243662222224,93.21878650101505 76.66989795555556,93.21962093774786 76.6685952,93.22153634938087 76.66637084444444,93.22870330168283 76.66675271111112,93.2311824870909 76.66996337777779,93.23956696066963 76.67043342222222,93.25048776197171 76.66962702222223,93.25377336601157 76.6675640888889,93.25748756330137 76.66612977777778,93.26147257316717 76.66590577777778,93.26318260471106 76.66743182222223,93.26840208242584 76.6690247111111,93.27168668633422 76.66962986666667,93.27597029124412 76.66855324444444,93.27939833017072 76.66435271111112,93.2832320975435 76.6626247111111,93.28925172187105 76.66094079999999,93.29240906922124 76.65988551111111,93.29387291759267 76.65488355555556,93.29772347280198 76.6540088888889,93.29932213279835 76.65385173333333,93.30148414551378 76.65439288888889,93.31233339428167 76.65407658732067,93.3126473513439 76.65241955555557,93.31429207342859 76.65008711111112,93.31584597163447 76.64605084444445,93.31701678420296 76.64490737777778,93.31778287100002 76.64347306666667,93.31985361873654 76.64208426666667,93.3235902332367 76.64096355555556,93.32554853811232 76.6345152,93.33495615817674 76.62572942222222,93.34006789446752 76.61209244444444,93.34886203563096 76.60716088888888,93.34888171886229 76.60368213333334,93.35585310592178 76.600992,93.3582354307317 76.597472,93.36243993514552 76.59594666666666,93.36549792597404 76.59220266666667,93.37132124785859 76.5902976,93.3736134266429 76.58686933333333,93.37601864290615 76.58462791111111,93.37979596244571 76.58287928888889,93.38662993510766 76.58275256844509,93.38983943657138 76.58275241676758,93.38984327806685 76.58238577777777,93.39912831239111 76.58357262222222,93.40101626253244 76.5844679111111,93.40402800792072 76.5842432,93.40798345561677 76.58359324444444,93.4124547684481 76.58256284444445,93.41537647233274 76.57895751111111,93.42207166200421 76.57750257777778,93.42332981283823 76.57669688888889,93.42557672487122 76.57595804444445,93.43220392910902 76.57680853333333,93.43501164219789 76.57665208888889,93.43869478189741 76.57582435555555,93.44031222474273 76.57065457777777,93.44253589065235 76.56718577777778,93.44462584408015 76.56595484444445,93.44581571869396 76.56557511111112,93.44671474099987 76.56570951111111,93.44848818202536 76.56720924444446,93.45012795350641 76.56729884444445,93.45075673336768 76.56606862222223,93.45423749825642 76.56365511111112,93.45612466885953 76.56220373333333,93.46184180878335z" stroke="#0E478F" stroke-width="0.003" stroke-opacity="0.8" fill="royalblue" fill-opacity="0.75"></path></g><g data-fips="33" data-geo-i-d="33011" data-county="Hillsborough"><path d="M76.7564472888889,94.10025699812772 76.75575324444445,94.12067063377111 76.79559822222222,94.12164887529858 76.79753031111112,94.13482491917523 76.799136,94.1452947205857 76.81122417777777,94.228395757563 76.817984,94.27143801821235 76.83962097777778,94.2723992654094 76.85047509022948,94.34616373037096 76.8506232888889,94.3461677956227 76.87198575681423,94.3469537590884 76.93838928469228,94.34939679817501 76.96173733036402,94.35025576790542 76.98075235555555,94.35095531764128 77.04755632730809,94.35294515234223 77.05869226666667,94.35327684295618 77.06182115555555,94.35337361155095 77.06266857307001,94.3534009393381 77.1251984932731,94.35541738961447 77.15862708066837,94.35649535913842 77.17862880243698,94.35714034413479 77.18564425697636,94.35736656616535 77.19169837009878,94.35756178786514 77.20365936792669,94.35794748185387 77.23595162529905,94.35898876468167 77.24819552592584,94.35938357173865 77.26088960000001,94.35979289199057 77.27629795555555,94.36072563358394 77.30189866666666,94.36091914662364 77.3127616,94.34711236222125 77.32060088888889,94.3329500473471 77.32934755555556,94.32278600528619 77.32963642994532,94.32254459540329 77.33650541554205,94.31680395627811 77.32615822222222,94.30405367662264 77.30896995555555,94.29981255140737 77.26148622222223,94.28812102882186 77.25649422222223,94.27557069050174 77.25196942222223,94.27547379640416 77.25462826666667,94.26217359620881 77.23576888888888,94.23833050984143 77.20741902222223,94.2370885134695 77.19658595555556,94.1734912403373 77.19029048888889,94.13416837117788 77.23800177777778,94.12693324003295 77.24288995555557,94.11838865563337 77.23215857777778,94.05825644045156 77.23207964444445,94.05796664536274 77.19777991111111,94.04913791839104 77.18770986666667,94.02422118720618 77.17405795555557,94.0327111458115 77.16330026666667,94.01665159373309 77.1464768,94.01875743639124 77.14313457777779,93.99997933847968 77.05508195555556,94.01432671163926 77.03625173333333,93.91852197055996 76.99017955555556,93.93094672496268 76.90232888888889,93.95496531436277 76.86171377777778,93.86531124062631 76.79354737777778,93.88405671177847 76.77379911111112,93.8893338767984 76.78330453333334,93.9111222211834 76.77287182222223,93.94164525905245 76.77520924444444,93.94529512557321 76.77015324444444,93.98700329005544 76.75879182222224,94.04861756824336 76.75818595555556,94.0620537931577 76.7564472888889,94.10025699812772z" stroke="#0E478F" stroke-width="0.003" stroke-opacity="0.8" fill="royalblue" fill-opacity="0.75"></path></g><g data-fips="33" data-geo-i-d="33013" data-county="Merrimack"><path d="M76.7440888888889,93.73688786386582 76.73589617777778,93.75256559777128 76.75346346666667,93.81848175675468 76.76779804444445,93.81878736444851 76.77045688888889,93.85006527895655 76.79354737777778,93.88405671177847 76.86171377777778,93.86531124062631 76.90232888888889,93.95496531436277 76.99017955555556,93.93094672496268 77.03625173333333,93.91852197055996 77.05508195555556,94.01432671163926 77.14313457777779,93.99997933847968 77.1464768,94.01875743639124 77.16330026666667,94.01665159373309 77.17405795555557,94.0327111458115 77.18770986666667,94.02422118720618 77.19777991111111,94.04913791839104 77.23207964444445,94.05796664536274 77.22456035555555,94.02708763187172 77.23290453333334,94.02717617226838 77.25787235555556,93.96771751109384 77.27684053333334,93.93011446044456 77.28518471111111,93.90890533427996 77.28786488888889,93.90673418696258 77.31143395555556,93.85408668917053 77.33313493333333,93.80641339077673 77.33522773333333,93.79880239113308 77.34328106666666,93.78926700086134 77.26289706666667,93.72907726872305 77.18756835555556,93.67422161162983 77.17585493333334,93.66575669104718 77.12041031111112,93.62551906723377 77.11178595555556,93.62349427263504 77.083584,93.64241414720556 77.07023715555556,93.63386632855673 77.05738951111111,93.58694398891822 77.0464192,93.59099698901565 77.02948053333333,93.578381297639 77.01971484444445,93.56128063601403 77.02213475555556,93.5512695386347 77.00882062222223,93.54196793855908 76.99291377777779,93.5197364561352 76.99372586666667,93.5166658354899 76.98802986666666,93.51091572090994 76.96994133333334,93.51242813670868 76.95822222222222,93.52737159076597 76.94400782222223,93.52058921446293 76.92947840000001,93.53550804214021 76.90723342222222,93.46974862467827 76.87672035555556,93.50566662143721 76.84907235555555,93.54566403576197 76.84600177777779,93.55054374667515 76.80689422222223,93.61323993216321 76.79191964444445,93.64071800077787 76.76177635555555,93.63657927808279 76.75892195555556,93.65486053572842 76.76671288888889,93.66618348979432 76.76422826666668,93.6980711538434 76.7440888888889,93.73688786386582z" stroke="#0E478F" stroke-width="0.003" stroke-opacity="0.8" fill="royalblue" fill-opacity="0.75"></path></g><g data-fips="33" data-geo-i-d="33015" data-county="Rockingham"><path d="M77.19029048888889,94.13416837117788 77.19658595555556,94.1734912403373 77.20741902222223,94.2370885134695 77.23576888888888,94.23833050984143 77.25462826666667,94.26217359620881 77.25196942222223,94.27547379640416 77.25649422222223,94.27557069050174 77.26148622222223,94.28812102882186 77.30896995555555,94.29981255140737 77.32615822222222,94.30405367662264 77.33650541554205,94.31680395627811 77.3365304888889,94.31678300064483 77.34513493333334,94.31397493757036 77.35189048888888,94.3128129420118 77.36298524444445,94.31608099719058 77.36303857777779,94.31610036291325 77.36310257777778,94.31612069691528 77.38182897777777,94.32162321206758 77.37877048888889,94.27019089329505 77.38149069487595,94.26673773670007 77.3870912,94.25962756762578 77.39185564444445,94.25400595684603 77.39287336335154,94.25314719906586 77.39334897777778,94.25274586832701 77.40465564444445,94.24615420446302 77.41688675555555,94.24043437940179 77.42879748953715,94.24402428507318 77.46545706666667,94.25507216490894 77.47299484444444,94.22909006080602 77.47302025256448,94.22902758213257 77.47733262222222,94.21842250322192 77.47953706666668,94.21386396764404 77.48892373333334,94.20387277225795 77.50781244793089,94.19992983486662 77.51148466000924,94.19916324635733 77.53493333333334,94.19426801351267 77.54723626666667,94.18737880358711 77.55968071111111,94.17951831436739 77.56032071111112,94.17913011532046 77.56257493333334,94.17841485198511 77.57162737777777,94.17718908232872 77.57163662222223,94.17721334562953 77.57189316571258,94.17721432801359 77.58025386666667,94.17724634370283 77.59208106666668,94.18105070552666 77.61875555555557,94.20207806061612 77.62675484444445,94.19814211820994 77.63143466666668,94.19433690160983 77.63785315555556,94.19146293932147 77.64103395555556,94.19106511463318 77.64125226666667,94.1837155558331 77.64205511111112,94.17751809185017 77.64339555555556,94.17410562203348 77.64372951408576,94.17370601786664 77.64551182222223,94.17157331947007 77.64573795555556,94.1574859769025 77.64617315555556,94.15490151374138 77.64713813333334,94.1517576774335 77.6490872888889,94.1481048720346 77.65464675555556,94.14385463674992 77.6543032888889,94.14058980045431 77.65489351111111,94.13500653694948 77.65760284444444,94.12543637455181 77.65995946666666,94.12263681500013 77.66288782222223,94.1181622988615 77.66390755555557,94.11484553957757 77.66478511742713,94.11358115564809 77.6672832,94.10998179243043 77.66821831111112,94.10900627493413 77.67068657777777,94.10860693001308 77.67343715555556,94.10461527751139 77.6748992,94.10160484332506 77.67330631111112,94.09962436528113 77.67338666666667,94.09806267612018 77.67432742257898,94.09663882446854 77.67806435555556,94.09098257160927 77.67853013333334,94.08626657200014 77.68072959999999,94.07996762438701 77.68236444444445,94.07725148438664 77.68412373333334,94.07544130391614 77.68523520000001,94.07500187482097 77.68689493333333,94.07552102300743 77.68891093333335,94.07509909392573 77.68946204444444,94.07413856223155 77.68958293333333,94.07142604623951 77.69330275555556,94.05921333773873 77.695744,94.05615588045157 77.69921635555555,94.05515419851316 77.70000853333333,94.0540785873585 77.70120248888888,94.05056861477289 77.7015928888889,94.04521913260082 77.70280817777778,94.04232437661906 77.70421831111112,94.0401794820301 77.70796231111112,94.03852479641608 77.71097884444445,94.03555578052391 77.7148088888889,94.02609227310165 77.71436373333334,94.02201628580315 77.714752,94.0125379797193 77.72174293333333,94.00906546784611 77.72172942222223,94.00882117759292 77.72110506666667,93.9979546026662 77.72018062222223,93.99591032852989 77.71811840000001,93.99406068680793 77.71001173333333,93.9943537128193 77.70062435555556,93.99571660558544 77.69756882545515,93.99552647332861 77.69749546666667,93.99552190852503 77.69465102222223,93.991725188841 77.6870082992214,93.98984898259673 77.68433991111111,93.98919390813508 77.68348657777777,93.98831767055695 77.67964657777779,93.97994408447587 77.6772280888889,93.97682803139307 77.67620162426638,93.97603735614837 77.67609031111111,93.97595161212845 77.66819697777778,93.97371278933315 77.66563770925433,93.97006272638762 77.66479644444445,93.96886285448815 77.65766684444445,93.96317000803711 77.64714097777778,93.95308517685567 77.63911111111112,93.94770648711147 77.63514666666667,93.95197362725605 77.62921528888889,93.95216359557105 77.61998293333335,93.94429645232769 77.60892444444445,93.94597908530244 77.60999822222223,93.97494663551964 77.59968995555556,93.98877136850982 77.5580864,93.97931601812681 77.52476373333333,93.98687769218046 77.50217244444445,93.98724182792722 77.45924551111112,93.98754559722384 77.4921344,93.93273888040025 77.42012586666667,93.8721665033562 77.41609671111112,93.86872677618841 77.33522773333333,93.79880239113308 77.33313493333333,93.80641339077673 77.31143395555556,93.85408668917053 77.28786488888889,93.90673418696258 77.28518471111111,93.90890533427996 77.27684053333334,93.93011446044456 77.25787235555556,93.96771751109384 77.23290453333334,94.02717617226838 77.22456035555555,94.02708763187172 77.23207964444445,94.05796664536274 77.23215857777778,94.05825644045156 77.24288995555557,94.11838865563337 77.23800177777778,94.12693324003295 77.19029048888889,94.13416837117788z" stroke="#0E478F" stroke-width="0.003" stroke-opacity="0.8" fill="royalblue" fill-opacity="0.75"></path></g><g data-fips="33" data-geo-i-d="33017" data-county="Strafford"><path d="M77.34328106666666,93.78926700086134 77.33522773333333,93.79880239113308 77.41609671111112,93.86872677618841 77.42012586666667,93.8721665033562 77.4921344,93.93273888040025 77.45924551111112,93.98754559722384 77.50217244444445,93.98724182792722 77.52476373333333,93.98687769218046 77.5580864,93.97931601812681 77.59968995555556,93.98877136850982 77.60999822222223,93.97494663551964 77.60892444444445,93.94597908530244 77.61998293333335,93.94429645232769 77.62921528888889,93.95216359557105 77.63514666666667,93.95197362725605 77.63911111111112,93.94770648711147 77.63427555555556,93.94332212083947 77.63335111111111,93.9413734100767 77.63249777777777,93.93806045553801 77.632,93.9323110678771 77.62993777777778,93.92753573099594 77.62929777777778,93.92402707632297 77.6326392888889,93.91330490652403 77.63356373333335,93.90501924635791 77.63320817777779,93.90248428065819 77.63470151111112,93.89946168052225 77.63554476659591,93.89883099537926 77.63626595555556,93.89829160057073 77.63662151111112,93.89702398801128 77.63569706666668,93.89205078582735 77.63320817777779,93.88522414562792 77.63349262222222,93.88327353321608 77.6339904,93.88249327035533 77.63644160000001,93.88094246755705 77.63861191111111,93.88036895289308 77.6395776,93.87902975513056 77.6397184,93.87696091334882 77.63912731215652,93.87531804278127 77.63885084444445,93.87454961238276 77.63856853333334,93.872451349898 77.64131342222223,93.85798878785413 77.6419320888889,93.85693888599022 77.64400426666667,93.85540498119005 77.64645688888889,93.84827258506317 77.64647822222223,93.84744697134082 77.64539196206407,93.8454931890732 77.64490524444444,93.8446177423761 77.64336426666667,93.8438886988285 77.64234453333333,93.84391797785804 77.64179057777778,93.83808726278902 77.64069475555556,93.8357339281433 77.64065794593827,93.83545767955087 77.64062933333334,93.83524294696093 77.63700693333334,93.83302127965574 77.63675804444445,93.83286900065023 77.63550506666667,93.83229599859087 77.63433884444444,93.83193384282367 77.63340657777778,93.83164489755714 77.62940444444445,93.83040417405476 77.62682737777779,93.83093814713769 77.62582897777779,93.8303426741048 77.62398364444445,93.82475665151371 77.62413582222223,93.82373545189122 77.62509013333334,93.82305789676582 77.62544853333334,93.82224657780588 77.62254080000001,93.81922282828896 77.61634488888889,93.81679453967823 77.61416391111112,93.81837337793003 77.61194168888889,93.8173042248838 77.61094613333334,93.81627313305029 77.6107712,93.81390917035927 77.6096824888889,93.8106086439052 77.60836906666667,93.8086995279453 77.60836977777778,93.8086887859429 77.60800027485064,93.80841524698212 77.60171733333334,93.80376386167342 77.59523271111111,93.80148730131312 77.5944504888889,93.80080363252934 77.59381048888889,93.79660378032585 77.59181937777778,93.79142680993732 77.58918826666667,93.79006020987768 77.58485048888889,93.78898566310014 77.58306092456279,93.78736379395161 77.57795200000001,93.78273336913841 77.57695644444445,93.78087709271571 77.57944533333334,93.77765289582211 77.58123377777778,93.77581404821335 77.58194773333334,93.77327943276653 77.58057955555556,93.76984570643853 77.57903288888889,93.76943724200416 77.57695644444445,93.76993365295884 77.57524977777777,93.76807697655548 77.57336177777778,93.7665065738972 77.57395555555556,93.76488140285156 77.57368604444444,93.75523598202015 77.57126684444444,93.75519981729616 77.57054506666667,93.75478831983196 77.5654441583749,93.75060730309312 77.56519182222223,93.75040046529158 77.56033208888888,93.74570728184375 77.55972195555556,93.74428977170508 77.55932586666667,93.74082797194629 77.55894400000001,93.73867707686932 77.55583288888889,93.73808361164754 77.54558222222222,93.7407184737158 77.54450915555556,93.74210185169738 77.54202453333333,93.74069989810309 77.54107733333333,93.73768372811145 77.53924337777778,93.73448456285087 77.5366912,93.73366323344379 77.53441493333334,93.7318161785382 77.53010461033244,93.72079675908569 77.52898631111111,93.71793747241631 77.52948906666667,93.71309011334344 77.52788764444445,93.70883807832735 77.52401137777778,93.70239146293409 77.52225066666666,93.70017460449941 77.522272,93.69950346508972 77.52139688979818,93.69717598211304 77.52109155555556,93.69636387975594 77.52109653333333,93.69223784604614 77.52163200000001,93.68978674633587 77.51989404444444,93.68707035942938 77.51983431111111,93.68512105987901 77.52007822222222,93.68321866962927 77.52328817777777,93.68189655075184 77.52350933333334,93.67898798120117 77.52333013333333,93.67748862246634 77.52123235555557,93.67522972584685 77.52058524444445,93.67334953006846 77.52017848888889,93.66520361011844 77.52048924444445,93.66285320334305 77.52327253333333,93.65789168890585 77.52671857777777,93.65532461767862 77.52915911111111,93.65427895954716 77.5317056,93.65174893884358 77.53361137777777,93.64814856452479 77.53289813333333,93.64477221931281 77.53331057777778,93.64265700946441 77.53873777777778,93.63929797942339 77.53881173333333,93.63718845039375 77.53838933333333,93.63467728821783 77.535424,93.6302521342356 77.5346488888889,93.62741057625017 77.53509973333334,93.62430635386548 77.53671822222223,93.6212450727771 77.53923555555556,93.61160467735638 77.5385400888889,93.60856331646724 77.53640320000001,93.60505536735559 77.5363256888889,93.60506908599706 77.5352768,93.60540617161766 77.53177173333334,93.60444390467947 77.53034240000001,93.6033463917321 77.52942577777779,93.60099450977553 77.53388942222223,93.59769877802094 77.53429048888889,93.59588374423193 77.53317333333334,93.59458417721983 77.53274880000001,93.5923887654348 77.53477831111111,93.58741252403273 77.5381703111111,93.5810683613701 77.54013511111111,93.57949888000527 77.54100764444445,93.57097923258195 77.54328533333333,93.5692526045153 77.54283662222223,93.56772791377186 77.54179128888889,93.56639242889918 77.54379022222223,93.56043238672603 77.5437752888889,93.55669308045572 77.54184035555555,93.55511804883287 77.54153671111112,93.55435503587204 77.54165617777778,93.55067811693931 77.54082133333334,93.54788962620427 77.53773795555556,93.54521773055197 77.53717902222223,93.54429862547887 77.53704462222223,93.5428184145033 77.5372224,93.54068680638215 77.53800391111112,93.53862379173154 77.5380288974083,93.53861886987839 77.53775217777778,93.53835990116687 77.49387093333334,93.59561128835279 77.48413795555555,93.54961589695895 77.4630648888889,93.55215224658534 77.45078186666666,93.57230775083416 77.43182506666666,93.57228520058865 77.42022542222223,93.50746381324149 77.39543111111112,93.5406573772925 77.37543182222223,93.56412340825673 77.3977856,93.72072090603217 77.3635072,93.76679290429685 77.34328106666666,93.78926700086134z" stroke="#0E478F" stroke-width="0.003" stroke-opacity="0.8" fill="royalblue" fill-opacity="0.75"></path></g><g data-fips="33" data-geo-i-d="33019" data-county="Sullivan"><path d="M76.47818240000001,93.89943047868854 76.47867164444445,93.9013249853877 76.47850666666668,93.90986560544744 76.47851111517213,93.90993538821519 76.49273600000001,93.9114195546201 76.4930616888889,93.93499191070629 76.53543466666667,93.93841904303511 76.53231004444444,93.91350182194697 76.56510151111111,93.91595638630169 76.56381226666667,93.90847345093096 76.61334542222222,93.90154144088588 76.68859662222222,93.88982441189987 76.67306880000001,93.93866459627213 76.77287182222223,93.94164525905245 76.78330453333334,93.9111222211834 76.77379911111112,93.8893338767984 76.79354737777778,93.88405671177847 76.77045688888889,93.85006527895655 76.76779804444445,93.81878736444851 76.75346346666667,93.81848175675468 76.73589617777778,93.75256559777128 76.7440888888889,93.73688786386582 76.76422826666668,93.6980711538434 76.76671288888889,93.66618348979432 76.75892195555556,93.65486053572842 76.76177635555555,93.63657927808279 76.79191964444445,93.64071800077787 76.80689422222223,93.61323993216321 76.84600177777779,93.55054374667515 76.75223822222222,93.5357405517916 76.75056640000001,93.52671320841064 76.73536497777779,93.55056630520795 76.71454151111111,93.54130187100526 76.72432924444445,93.52640609163032 76.67826631111112,93.50628793969369 76.6518663111111,93.49527206829612 76.56556282020864,93.48056732291045 76.56363946666667,93.48137217787448 76.55116373333334,93.49279905573766 76.54121528888889,93.49679862820147 76.53466595555555,93.50095400920301 76.530176,93.50620549025348 76.52791111111111,93.51596317184598 76.52779875555555,93.517600090418 76.5289336888889,93.52500294994647 76.52950542222223,93.53877290409504 76.52742400000001,93.54435453729468 76.5233088,93.55114595847058 76.5221688888889,93.55213165021655 76.5196672,93.55199532169004 76.51843626666667,93.55544757323864 76.51852444444445,93.55870348954343 76.51657742222223,93.56569035574861 76.51671040000001,93.56824562667335 76.51818311111111,93.57095864276548 76.5229824,93.57504018872453 76.52638364444445,93.57860873716409 76.52914204444446,93.58533839485472 76.52952035555556,93.58706357354677 76.52947342222222,93.59011093965876 76.52855253333334,93.59837695131398 76.52767928888889,93.60238605121691 76.52658417777778,93.60415482958172 76.52158151111111,93.60946084771643 76.52088888888889,93.6108482710051 76.52079786666667,93.61308806798047 76.52226346666667,93.62665926943782 76.52181617777778,93.62853996739112 76.51982791111112,93.63308376154887 76.5186424888889,93.63908252493434 76.51845973333333,93.64649273016263 76.51808730431404,93.64848097938838 76.51807515920818,93.64854581611647 76.51557546666666,93.66188893204068 76.5154624,93.66605133913448 76.51440020369493,93.67362483306769 76.51284551111111,93.68470809763377 76.5118200888889,93.6866094615539 76.5062016,93.69217718132761 76.50461795555556,93.69617994127755 76.50419342222223,93.69978033547468 76.50481848888889,93.7101840510575 76.50510791111111,93.7117715944747 76.50604302222223,93.71327008694031 76.51274737777779,93.71781130525586 76.51524195555555,93.71821523483199 76.52112355555556,93.71803918838134 76.52259342222223,93.7189575582883 76.52201244444446,93.72085684691649 76.51882453333333,93.72532609683796 76.51606115555556,93.72809647164311 76.51485795555556,93.72986248142416 76.51084477534158,93.737657450305 76.51079173072604,93.73776047424147 76.50912924444445,93.74098928593581 76.50819342222222,93.74364845944784 76.50830435555557,93.74489979400934 76.50937173333334,93.74755976994491 76.51375502222223,93.7546895991136 76.51724871111111,93.75793068071164 76.51853866666667,93.76032228221482 76.51878257777778,93.76190848542616 76.51437084444444,93.77128899009044 76.50997902222223,93.7913203354361 76.50456888888888,93.80257041190319 76.50020764444444,93.81031666543552 76.49050951111111,93.81515902603687 76.48968675555555,93.81616377377668 76.48804053333333,93.82060535602773 76.48786702222223,93.82906482742175 76.48949048888889,93.83484469284583 76.49122417777778,93.83812532923703 76.49160248888889,93.83961966208832 76.49153871023324,93.83995493112285 76.4910464,93.84254282388098 76.48877795555556,93.84758457442356 76.48675555555556,93.85365148050684 76.48671075555556,93.85735455567209 76.48811093333335,93.86344388123362 76.48873315555555,93.86955404580185 76.48784426666667,93.87122708540778 76.47980088888889,93.87956719354021 76.48040177777779,93.88280050007737 76.48444515555556,93.88957768202596 76.48468977777779,93.89200787796199 76.48362382222223,93.89372416845917 76.47818240000001,93.89943047868854z" stroke="#0E478F" stroke-width="0.003" stroke-opacity="0.8" fill="royalblue" fill-opacity="0.75"></path></g></svg>