<svg version="1.1" xmlns="http://www.w3.org/2000/svg" preserveAspectRatio="xMinYMin meet" viewBox="74.26871893333333 95.64336837557693 1.1844515555555546 2.259874327712666"><g data-fips="34" data-geo-id="34001" data-county="Atlantic"><path d="M74.72932835555555,97.30637432279264 74.67714062222223,97.36492920622403 74.76908159999999,97.44868775726773 74.76853546666668,97.45171084218876 74.77111893333333,97.45659129562955 74.77191893333334,97.48577238141974 74.76272995555556,97.5270376188561 74.76530204444445,97.5408867034788 74.79119431111111,97.55792643490703 74.82000071111112,97.55604979485418 74.84290488888888,97.56736486523513 74.86606577777778,97.56402100183361 74.88030506666666,97.57256087857435 74.90894080000001,97.56505569756506 74.914816,97.57306989073534 74.92260408888889,97.56645976959875 74.93830826666667,97.56872753850604 74.95914595555556,97.55351688727117 74.9733248,97.56344759312451 74.99293825078627,97.56238318013622 75.00672213333333,97.5500776346371 75.05074204444445,97.52139471391003 75.08430791111111,97.50686450477298 75.08747591111111,97.50295090257488 75.08850346666667,97.4948148136746 75.08857457777778,97.49150305217796 75.11680711111111,97.46895921718969 75.13969493333333,97.44135959120982 75.14431994271823,97.43360524408575 75.1613560888889,97.4050341426331 75.16289137777778,97.3981339967294 75.16104675555556,97.39443948773277 75.15851093333333,97.39351813060944 75.15471004444446,97.38436925680351 75.15559054050858,97.37884432216686 75.14568391111112,97.37288823924348 75.10698951111111,97.38007217999113 75.08096497777778,97.32593730985171 75.06606222222223,97.33141760022981 75.0676487111111,97.3406837753862 75.06010880000001,97.32427154795646 75.05532728888889,97.33394453662837 75.03952782222223,97.33128202819367 75.01011697777778,97.31035160923766 75.0018624,97.31419027257712 74.99189973333334,97.30576723666711 74.98413511111112,97.28819614642303 74.96835626666667,97.28798111472533 74.95913386666668,97.27560680612585 74.93615786666668,97.2618618417472 74.91342364444445,97.26195786088866 74.90934897777778,97.25790092639126 74.90810382222223,97.22297330169914 74.90402773333334,97.21143184727636 74.89714133333334,97.20231325049426 74.89607893333333,97.20115438938701 74.86303573333333,97.17374774926877 74.85424640000001,97.16661731900342 74.80882702222222,97.21737006246059 74.76681031111112,97.26438506605956 74.75394844444445,97.27879129439017 74.72932835555555,97.30637432279264z" stroke="#0E478F" stroke-width="0.003" stroke-opacity="0.8" fill="royalblue" fill-opacity="0.75"></path></g><g data-fips="34" data-geo-id="34003" data-county="Bergen"><path d="M75.18530986666667,95.9612410985635 75.18582471111111,95.96579053526008 75.20104391111111,95.98851105131308 75.21810986666668,95.99867661982492 75.22706986666667,95.99974668206097 75.25607751111112,96.00266759440109 75.25669333333333,95.99622652235331 75.27747697777778,96.01276209932077 75.27359004444445,96.02986664878718 75.27248284444444,96.03602369949212 75.27840071111112,96.05295997519832 75.28367146666666,96.05410815796475 75.28332586666667,96.0779667410035 75.28641351111112,96.0807334661271 75.28508657777778,96.08872156536066 75.29381120000001,96.09706696172249 75.30134684444444,96.10980815735394 75.29186062222222,96.1144755464679 75.29124764444444,96.13722359153437 75.28532195555556,96.15049125115313 75.27852444444446,96.16414220777497 75.279584,96.17030760051595 75.27286826666666,96.18191244196763 75.28507804444445,96.1902960777944 75.30595342222222,96.19172814218265 75.31321813333334,96.20492506371941 75.32319786666667,96.17333699647023 75.34583253333334,96.16212608695538 75.36510648888888,96.14729347538537 75.36798577777779,96.14755847508663 75.36968817777777,96.14964554328128 75.3693952,96.15058145931553 75.369664,96.15260265172039 75.36900337777779,96.15417276572029 75.37898453333334,96.16125986777294 75.38927852807339,96.17032553311397 75.39823819542684,96.15388128632173 75.39907701867293,96.15234151863447 75.40047502222222,96.14977521923316 75.40054572413227,96.14965700504351 75.40055223795748,96.14964611386151 75.40395946666666,96.14394893195163 75.4105016888889,96.12411667814972 75.41455573333334,96.1143401557389 75.42175749776483,96.09912176077844 75.42180906666667,96.09901277463737 75.42513351111111,96.09207283776034 75.42826240000001,96.08501830768233 75.43487644444446,96.06253253605064 75.43488967034625,96.06247869860597 75.43580088888889,96.05876937409539 75.43615644444445,96.05867526860337 75.43631644444444,96.05686747446585 75.43780977777777,96.05178541876536 75.443712,96.02674552551723 75.4453931587126,96.02052166458913 75.44965147119176,96.00475406710697 75.45139271111111,95.99830548477988 75.45317048888889,95.98370323471536 75.44698311111111,95.98360901550443 75.44532622222222,95.98333201019642 75.44387271111111,95.9824981602305 75.4404408888889,95.97984012985285 75.40699429751552,95.96000948769776 75.34858737777778,95.9253645492915 75.34858382222222,95.9253626631367 75.31200995555557,95.9038492227228 75.30895217777778,95.90205672802702 75.24807822222223,95.86638568349187 75.23887132919809,95.86139002740671 75.22746952996147,95.8552028577316 75.19967431111112,95.92373300396214 75.18530986666667,95.9612410985635z" stroke="#0E478F" stroke-width="0.003" stroke-opacity="0.8" fill="royalblue" fill-opacity="0.75"></path></g><g data-fips="34" data-geo-id="34005" data-county="Burlington"><path d="M74.62469902222223,96.92321503336603 74.62400420226581,96.92404521183059 74.64081493333333,96.91990224437689 74.64477724444444,96.92254487819707 74.65930382222221,96.93483116828533 74.65297564444444,96.94648785668892 74.65415111111112,96.95396493705226 74.6573568,96.95651338187324 74.65517582222222,96.96224167467575 74.6559424,96.96561811028103 74.66371626666667,96.97057854750368 74.67062897777778,96.97252625715534 74.68440817777778,96.97331830865068 74.67692088888889,96.98081262988045 74.67801244444445,96.98366508048852 74.69299840000001,96.99022448876963 74.69702186666667,96.99572722983616 74.71591466666666,97.02208648826584 74.73609386666668,97.10994308476154 74.75471288888889,97.11881026014508 74.7781632,97.11098144653228 74.79507982222223,97.11275643215873 74.81548515555556,97.12820726691663 74.82873599999999,97.14751045388147 74.85424640000001,97.16661731900342 74.86303573333333,97.17374774926877 74.89607893333333,97.20115438938701 74.89714133333334,97.20231325049426 74.90402773333334,97.21143184727636 74.90810382222223,97.22297330169914 74.90934897777778,97.25790092639126 74.91342364444445,97.26195786088866 74.93615786666668,97.2618618417472 74.95913386666668,97.27560680612585 74.96835626666667,97.28798111472533 74.98413511111112,97.28819614642303 74.99189973333334,97.30576723666711 75.0018624,97.31419027257712 75.01011697777778,97.31035160923766 75.03952782222223,97.33128202819367 75.05532728888889,97.33394453662837 75.06010880000001,97.32427154795646 75.0676487111111,97.3406837753862 75.06606222222223,97.33141760022981 75.08096497777778,97.32593730985171 75.07994097777778,97.31548822557929 75.09467022222222,97.30811528098072 75.10016071111112,97.29015723904007 75.10065208888889,97.12637534801759 75.06899697777777,97.05057837394824 75.02446151111111,96.94119612302934 75.017664,96.92433905888633 74.98445866666667,96.842766204698 74.95976177777779,96.78779439986684 74.94939093333333,96.78898315322624 74.93448391111112,96.78364847081468 74.90700586666667,96.76297616011323 74.8961344,96.76079028120995 74.89801386666667,96.75482316324334 74.8728184888889,96.74775718786859 74.87554204444444,96.76589520015351 74.86400433114567,96.77646910576404 74.86392604444444,96.77685830824915 74.86271715555556,96.7796492566381 74.86175075555556,96.78105863873364 74.85112533333333,96.79062579126389 74.84948977777779,96.79136989410637 74.84735644444446,96.79155591844831 74.840672,96.79109085656697 74.83812835555555,96.79171775918046 74.83529671111111,96.7931082702356 74.83058631111112,96.79626680243106 74.82161351111111,96.80401830251135 74.81948017777778,96.80448326930285 74.81692017777777,96.8043902762181 74.80845724444445,96.80215840115093 74.79978168888888,96.79834543230317 74.79774613333333,96.797812993355 74.79729280000001,96.7976944146381 74.79537280000001,96.79778741757212 74.79302613333334,96.79853143611896 74.79046613333334,96.8011354320808 74.78868764444445,96.80448326930285 74.78555875555556,96.81248016300614 74.7839232,96.81973228520171 74.78186097777778,96.82252134156528 74.77802097777779,96.82549619947567 74.77254542222222,96.82809908538931 74.77019804444444,96.82977231263905 74.76870471111111,96.8314454956355 74.76807283520547,96.83266013245999 74.76749582222223,96.83376928750182 74.76635804444444,96.83739423239692 74.76557582222222,96.83850955827745 74.7635136,96.83990368798302 74.75185137777778,96.8430636016067 74.74644622222222,96.84585162965865 74.73136995555555,96.85105562009349 74.73132669741177,96.85106146778243 74.72930773333333,96.85133439322045 74.72297884444444,96.85021929334546 74.71977884444445,96.85059099548667 74.71487217777778,96.85272731121694 74.70619591111111,96.85755907735532 74.68492810434844,96.87085555666614 74.68464853333334,96.87103032385448 74.67810631111111,96.87660379450564 74.67383893333334,96.88161949874173 74.66103893333333,96.89480704809424 74.65876266666666,96.89647851324659 74.65563377777778,96.89814993430456 74.64536538229113,96.90181103390687 74.63870862222223,96.90418432594095 74.63347155912982,96.90782512972687 74.63323306666668,96.90799092459498 74.63024568888889,96.91207580052196 74.62469902222223,96.92321503336603z" stroke="#0E478F" stroke-width="0.003" stroke-opacity="0.8" fill="royalblue" fill-opacity="0.75"></path></g><g data-fips="34" data-geo-id="34007" data-county="Camden"><path d="M74.57179022222222,97.01253568393366 74.56710649975915,97.01971645288168 74.58215537777778,97.0435341883839 74.60703644444445,97.0641522564383 74.60355342222223,97.08830576884202 74.6127864888889,97.09705932675354 74.61307591111111,97.09709820408396 74.61316977777777,97.09736386520629 74.6138112,97.09801644269821 74.61406577777778,97.09869400543934 74.61426986666667,97.0988365518736 74.61404800000001,97.09948263495605 74.61419235555556,97.09962703085145 74.61380764444445,97.09974828612593 74.6132992,97.10036011265169 74.61309013333333,97.10107652534441 74.61267697777778,97.10217241753107 74.61232,97.10263242746348 74.61227306666666,97.10311187089722 74.61341084444445,97.10394394658556 74.61356942222223,97.10436599639216 74.61346915555556,97.10463903150878 74.6137024,97.10612173057567 74.6138368,97.10638827955461 74.61459555555557,97.10657245684288 74.61481528888889,97.10647527793807 74.61516657777779,97.10678995194938 74.61573688888889,97.10700096776802 74.61630577777778,97.1073082351654 74.61653973333334,97.10757755567053 74.60475022222222,97.12055264171877 74.62183253333335,97.11473588070494 74.63159111111112,97.12156862341415 74.63509546666667,97.13667781890456 74.65090915555555,97.15124608797812 74.6494208,97.16587112959309 74.66774755555556,97.17639002206919 74.67551928888889,97.18794890943552 74.70671857777778,97.19565736748757 74.7184824888889,97.20573056682579 74.73147733333333,97.22620383289086 74.73584,97.25707178062146 74.75394844444445,97.27879129439017 74.76681031111112,97.26438506605956 74.80882702222222,97.21737006246059 74.85424640000001,97.16661731900342 74.82873599999999,97.14751045388147 74.81548515555556,97.12820726691663 74.79507982222223,97.11275643215873 74.7781632,97.11098144653228 74.75471288888889,97.11881026014508 74.73609386666668,97.10994308476154 74.71591466666666,97.02208648826584 74.69702186666667,96.99572722983616 74.69299840000001,96.99022448876963 74.67801244444445,96.98366508048852 74.67692088888889,96.98081262988045 74.68440817777778,96.97331830865068 74.67062897777778,96.97252625715534 74.66371626666667,96.97057854750368 74.6559424,96.96561811028103 74.65517582222222,96.96224167467575 74.6573568,96.95651338187324 74.65415111111112,96.95396493705226 74.65297564444444,96.94648785668892 74.65930382222221,96.93483116828533 74.64477724444444,96.92254487819707 74.64081493333333,96.91990224437689 74.62400420226581,96.92404521183059 74.61545457777778,96.93425950673586 74.60364942222223,96.93927065009966 74.60337010765063,96.93932782450446 74.60002275555556,96.94001300803313 74.5901931121669,96.94366474784425 74.58978204444445,96.94381745606432 74.581888,96.94836393610167 74.57858632729351,96.95076957088293 74.57641244444444,96.95235343585429 74.57413688888889,96.95458002429729 74.57171911111111,96.95856913316793 74.57136233542444,96.9601134857561 74.57015466666667,96.9653407669862 74.56987022222222,96.9775835307864 74.57003548828828,96.97887670401147 74.57065244444445,96.98370402723663 74.57213766057124,96.98872177679601 74.57221688888889,96.98898943569162 74.57413688888889,96.99325360507142 74.57570133333333,96.99807467366907 74.57363911111112,97.00882804645198 74.57179022222222,97.01253568393366z" stroke="#0E478F" stroke-width="0.003" stroke-opacity="0.8" fill="royalblue" fill-opacity="0.75"></path></g><g data-fips="34" data-geo-id="34009" data-county="Cape May"><path d="M74.68658133333334,97.89240872509906 74.68993848888888,97.89876891300143 74.69264853333333,97.90079742298282 74.71390506666667,97.90324270328959 74.72326115555556,97.90267869728493 74.73276444444444,97.90006610628542 74.75035804444444,97.89113880690138 74.75875768888889,97.88950771636193 74.76252586666666,97.89143137485435 74.7630520888889,97.8923721547285 74.77280142222223,97.87945420906945 74.79512604444444,97.85671353914829 74.80325902222222,97.85072522517694 74.81406364444445,97.84519656658195 74.8185912888889,97.83776511547681 74.8239808,97.8167526054482 74.85275306666666,97.76945498680173 74.87582151111111,97.74360953745227 74.87686471111111,97.73909995440604 74.86994844444445,97.73289269167206 74.86910577777778,97.73081949981812 74.86980195555556,97.72815138176661 74.90031644444444,97.67313479408723 74.91452942222223,97.65590805257175 74.91797688888889,97.64358888047796 74.92529351111111,97.6354824911562 74.94081351111112,97.6136097937984 74.95258951111111,97.60057720418916 74.96461653333334,97.58958487500637 74.97887502222223,97.58236646405774 74.98422115555556,97.57479811317121 74.98584817777778,97.56871191800496 74.99293825078627,97.56238318013622 74.9733248,97.56344759312451 74.95914595555556,97.55351688727117 74.93830826666667,97.56872753850604 74.92260408888889,97.56645976959875 74.914816,97.57306989073534 74.90894080000001,97.56505569756506 74.88030506666666,97.57256087857435 74.86606577777778,97.56402100183361 74.84290488888888,97.56736486523513 74.82000071111112,97.55604979485418 74.79119431111111,97.55792643490703 74.76530204444445,97.5408867034788 74.75047395555555,97.55506458285892 74.74034915555556,97.62242862050192 74.72247608888888,97.63165932120634 74.71904213333333,97.64633300001196 74.72715643202396,97.67519780060613 74.73409351111111,97.6775902808111 74.74690346666667,97.69237548462071 74.74779448888889,97.70631193122625 74.7430776888889,97.73421979281173 74.7393536,97.74739034333264 74.73517226666667,97.75781161330045 74.710528,97.80566520783142 74.70259911111111,97.82355862347399 74.69840853333334,97.83671373691145 74.68658133333334,97.89240872509906z" stroke="#0E478F" stroke-width="0.003" stroke-opacity="0.8" fill="royalblue" fill-opacity="0.75"></path></g><g data-fips="34" data-geo-id="34011" data-county="Cumberland"><path d="M74.37599786666667,97.44892342308731 74.3687744,97.46122839504199 74.3770354467129,97.487419742358 74.38271715555555,97.48968703045873 74.38564906666667,97.49713110536499 74.38625351111112,97.50416317899057 74.389312,97.50921623047515 74.40709973333334,97.52473068043696 74.41382542222222,97.51881354270326 74.4234887111111,97.51800983659396 74.42933831111111,97.52110138332276 74.43380408888889,97.52667811337312 74.43430826666668,97.53292733796867 74.44252373333333,97.55303988807049 74.44905955555556,97.56120169313179 74.46122808888889,97.57237068707647 74.4637632,97.56993122453537 74.46569244444446,97.56364332455652 74.47350826666667,97.55906139876937 74.48760462222222,97.56285488163473 74.49290168888889,97.57591440442434 74.4939512888889,97.58062374594734 74.49311573333334,97.58327317326672 74.49483448888888,97.58657378086927 74.51554844444445,97.59699167740763 74.52027946666668,97.59711658641078 74.53023075555556,97.612653927556 74.54044017777778,97.61536631024093 74.54814791111112,97.63388257032577 74.55006293333334,97.64421480699184 74.5469504,97.65225861478993 74.55900088888889,97.66378249963219 74.56948124444445,97.6712257297719 74.57630577777778,97.66399352378349 74.57843911111111,97.65500053001477 74.58773546666667,97.64316945124526 74.60210204444445,97.64469021339055 74.63218702222223,97.64063354415174 74.6399616,97.63471787531377 74.64790542222222,97.64249303555026 74.65000035555556,97.65020669028617 74.6480504888889,97.66045648428178 74.66808746666668,97.66262919456884 74.68354417777779,97.66169515832469 74.69341724444445,97.66356046477952 74.72715643202396,97.67519780060613 74.71904213333333,97.64633300001196 74.72247608888888,97.63165932120634 74.74034915555556,97.62242862050192 74.75047395555555,97.55506458285892 74.76530204444445,97.5408867034788 74.76272995555556,97.5270376188561 74.77191893333334,97.48577238141974 74.77111893333333,97.45659129562955 74.76853546666668,97.45171084218876 74.76908159999999,97.44868775726773 74.67714062222223,97.36492920622403 74.6226816,97.3153378599493 74.61371946666667,97.33764161522478 74.60999182222223,97.3774023733209 74.61445333333333,97.3930298059625 74.60705920000001,97.41801343222622 74.54014862222223,97.359311662603 74.4971136,97.32429183989056 74.4746247111111,97.34993109128649 74.44051911111112,97.38605925693624 74.4231992888889,97.38736588951143 74.40482631111112,97.41881931239168 74.38234311111111,97.41348465778394 74.37204977777778,97.42197366019035 74.37599786666667,97.44892342308731z" stroke="#0E478F" stroke-width="0.003" stroke-opacity="0.8" fill="royalblue" fill-opacity="0.75"></path></g><g data-fips="34" data-geo-id="34013" data-county="Essex"><path d="M75.1107128888889,96.20828605348416 75.1166968888889,96.20574373488563 75.12352213333334,96.21168065717231 75.11831040000001,96.21635826124353 75.11343075555557,96.22589918643725 75.14624284444444,96.24707361107656 75.1619392,96.25072034870566 75.16642702222222,96.24884306065863 75.17497813333334,96.24231010876201 75.19571768888889,96.2505045713402 75.21994737777779,96.25620553429226 75.22633102222223,96.26233182435304 75.2289792,96.27180570754527 75.26230115555556,96.2728335764216 75.28056675555555,96.28705788354144 75.29757368888889,96.26018192234933 75.29453724444444,96.25335371066988 75.29174257777778,96.24160732771516 75.29458275555557,96.2282595543393 75.29414755555555,96.22590106350484 75.29046328888889,96.22358941201267 75.28000568888889,96.22424922220303 75.27631075555556,96.22621734858677 75.27311075555556,96.2308159714356 75.26706702222222,96.2316605796309 75.26260764444444,96.22930878664872 75.25974755555555,96.21798872235343 75.26376888888889,96.2036960979638 75.27230151111111,96.18837846861909 75.27286826666666,96.18191244196763 75.279584,96.17030760051595 75.27852444444446,96.16414220777497 75.28532195555556,96.15049125115313 75.24788480000001,96.12337966137547 75.2370688,96.11560567148793 75.23186062222223,96.11186170121874 75.20690488888889,96.09361720287501 75.2022912,96.0930980295962 75.18983893333333,96.08753169327937 75.18527857777778,96.07811161847519 75.18431075555556,96.07763465046135 75.1458744888889,96.06711784683696 75.13859057777778,96.10661675561887 75.14321493333334,96.12289363916516 75.14370773333334,96.13299309706079 75.1374784,96.15650484290235 75.11675591111111,96.17553028122907 75.1107128888889,96.20828605348416z" stroke="#0E478F" stroke-width="0.003" stroke-opacity="0.8" fill="royalblue" fill-opacity="0.75"></path></g><g data-fips="34" data-geo-id="34015" data-county="Gloucester"><path d="M74.37151146666666,97.09987509483001 74.37837226666667,97.10498703389204 74.37831878536612,97.10501242084547 74.3740343103404,97.10704617858408 74.39770453333334,97.15173348929883 74.39887004444445,97.1697184884681 74.4273728,97.19028372781987 74.43433244444445,97.20304053136309 74.45678577777778,97.20693831981576 74.4627320888889,97.21280303549541 74.48655786666667,97.21352465304143 74.49068515555557,97.22695763076898 74.49965724444445,97.2296060142558 74.52446151111111,97.22460475424397 74.6226816,97.3153378599493 74.67714062222223,97.36492920622403 74.72932835555555,97.30637432279264 74.75394844444445,97.27879129439017 74.73584,97.25707178062146 74.73147733333333,97.22620383289086 74.7184824888889,97.20573056682579 74.70671857777778,97.19565736748757 74.67551928888889,97.18794890943552 74.66774755555556,97.17639002206919 74.6494208,97.16587112959309 74.65090915555555,97.15124608797812 74.63509546666667,97.13667781890456 74.63159111111112,97.12156862341415 74.62183253333335,97.11473588070494 74.60475022222222,97.12055264171877 74.61653973333334,97.10757755567053 74.61630577777778,97.1073082351654 74.61573688888889,97.10700096776802 74.61516657777779,97.10678995194938 74.61481528888889,97.10647527793807 74.61459555555557,97.10657245684288 74.6138368,97.10638827955461 74.6137024,97.10612173057567 74.61346915555556,97.10463903150878 74.61356942222223,97.10436599639216 74.61341084444445,97.10394394658556 74.61227306666666,97.10311187089722 74.61232,97.10263242746348 74.61267697777778,97.10217241753107 74.61309013333333,97.10107652534441 74.6132992,97.10036011265169 74.61380764444445,97.09974828612593 74.61419235555556,97.09962703085145 74.61404800000001,97.09948263495605 74.61426986666667,97.0988365518736 74.61406577777778,97.09869400543934 74.6138112,97.09801644269821 74.61316977777777,97.09736386520629 74.61307591111111,97.09709820408396 74.6127864888889,97.09705932675354 74.60355342222223,97.08830576884202 74.60703644444445,97.0641522564383 74.58215537777778,97.0435341883839 74.56710649975915,97.01971645288168 74.56695395555556,97.01995030977014 74.56538951111112,97.02161848133375 74.56332528466886,97.02359125409819 74.56325617777779,97.02365729821157 74.55948728888889,97.02504736312022 74.54255255738894,97.02552560423945 74.53651697777778,97.02569604967073 74.53203697777778,97.02690073569548 74.5277696,97.03032933245979 74.51703111111111,97.04061401306431 74.51671011534549,97.0408033909472 74.50949333333334,97.0450609271526 74.49953706666666,97.0492296266081 74.49356017777778,97.05109711530653 74.47384248888889,97.0558739684855 74.45804373333334,97.05648343838305 74.44645404444445,97.05518946569345 74.44014805422096,97.05541180621859 74.4368128,97.05552940237183 74.4316920888889,97.05627040245682 74.42363377777778,97.05898424154178 74.41464888888889,97.06469404012955 74.40225066666666,97.07608895083092 74.38895217777778,97.08747719183208 74.3795648,97.09469794722719 74.37151146666666,97.09987509483001z" stroke="#0E478F" stroke-width="0.003" stroke-opacity="0.8" fill="royalblue" fill-opacity="0.75"></path></g><g data-fips="34" data-geo-id="34017" data-county="Hudson"><path d="M75.25974755555555,96.21798872235343 75.26260764444444,96.22930878664872 75.26706702222222,96.2316605796309 75.27311075555556,96.2308159714356 75.27631075555556,96.22621734858677 75.28000568888889,96.22424922220303 75.29046328888889,96.22358941201267 75.29414755555555,96.22590106350484 75.29458275555557,96.2282595543393 75.29174257777778,96.24160732771516 75.29453724444444,96.25335371066988 75.29757368888889,96.26018192234933 75.28056675555555,96.28705788354144 75.27643306666667,96.29355428345006 75.2629990941223,96.31537814563359 75.27590755555556,96.31733084488397 75.28664817777778,96.31568797892818 75.29957262222223,96.31183696200358 75.31111395555556,96.3116232700131 75.31604906666668,96.30847685211134 75.32076302222222,96.297746723498 75.3269184,96.30016156137181 75.33217920000001,96.29144858250558 75.32686435555556,96.28780703379778 75.33011271111111,96.27146995839158 75.34415288888889,96.27199890316804 75.34872177777778,96.26298184560324 75.36032497777778,96.25424022899753 75.36249407288548,96.23922013478372 75.36276124444444,96.23736983139555 75.36279070714347,96.23721510341066 75.36371434683008,96.23236427030639 75.36574341151233,96.22170656824109 75.36797582222222,96.20997868454253 75.37077210397987,96.20436091512101 75.37124693333334,96.20340692603315 75.37188888741888,96.2022294757681 75.3761557724507,96.19440273622581 75.37678603822926,96.1932465576119 75.38217032560739,96.18336858438526 75.38627232625515,96.17584203476623 75.38865949801884,96.17146151814443 75.38927852807339,96.17032553311397 75.37898453333334,96.16125986777294 75.36900337777779,96.15417276572029 75.369664,96.15260265172039 75.3693952,96.15058145931553 75.36968817777777,96.14964554328128 75.36798577777779,96.14755847508663 75.36510648888888,96.14729347538537 75.34583253333334,96.16212608695538 75.32319786666667,96.17333699647023 75.31321813333334,96.20492506371941 75.30595342222222,96.19172814218265 75.28507804444445,96.1902960777944 75.27286826666666,96.18191244196763 75.27230151111111,96.18837846861909 75.26376888888889,96.2036960979638 75.25974755555555,96.21798872235343z" stroke="#0E478F" stroke-width="0.003" stroke-opacity="0.8" fill="royalblue" fill-opacity="0.75"></path></g><g data-fips="34" data-geo-id="34019" data-county="Hunterdon"><path d="M74.52791893333334,96.37583860347246 74.52809244444445,96.37686663715567 74.5286784,96.37905279112715 74.52988302222222,96.38092430300905 74.53387591111112,96.38546569342364 74.53642595555556,96.38738662776515 74.54200391111111,96.38959394450193 74.54676693333333,96.3904223702805 74.55084728888889,96.390436411301 74.55399395555555,96.38932248056457 74.56187164444445,96.38195880659102 74.56575573333333,96.37997310635883 74.56942364444446,96.37954431416925 74.58325902222222,96.38190357108489 74.58780231111112,96.3842814623492 74.59532444444444,96.38695882243724 74.59861333333335,96.39015090993254 74.61084231111111,96.40522453939468 74.61787377777779,96.4109076808651 74.61883946666667,96.41337710866426 74.61944746666667,96.41623287733573 74.62038044444445,96.42594825375772 74.61983786666667,96.43217207735788 74.61973262222223,96.44038381027372 74.6202488888889,96.44602729175435 74.62231253333334,96.45817766568186 74.62262257777778,96.46315851740434 74.62241635555556,96.46780614542865 74.62092302222221,96.47210286164884 74.6184704,96.47581223558771 74.61827555555556,96.47978405150509 74.61880746666667,96.48317144082381 74.61648497777779,96.49121482348605 74.61648497777779,96.49232040429948 74.61872,96.4987142608039 74.62192142222223,96.51265102324587 74.62294115555557,96.5225149546062 74.62352912019882,96.52391368513452 74.6248192,96.52698259391393 74.62677191111112,96.5288496984178 74.6336192,96.53097359077692 74.63508746248284,96.53221440883681 74.6360384,96.53301802621958 74.63697027397255,96.5344909793331 74.63704817777779,96.53461411529233 74.64062862222222,96.53750733200377 74.64653155555555,96.54022765606615 74.64904888888888,96.54062733674033 74.65442062222222,96.53952260569076 74.66428373333333,96.53652301821818 74.66762595555556,96.53442826499264 74.6692423111111,96.53402200739886 74.67455928888889,96.5356610305827 74.67700124444444,96.53831139472955 74.678944,96.53971497783596 74.68828657777779,96.54406840751365 74.69119431111112,96.54634025141682 74.6922688,96.5482926829854 74.69937646602318,96.5656553417374 74.69959324444444,96.5661848143319 74.70313102222222,96.5767440579026 74.7050624,96.58370791385796 74.7057152,96.59301487167687 74.70664817777778,96.5974635106638 74.70723251372864,96.59832314056868 74.71482524444444,96.6003902226708 74.76888035555555,96.5936082905226 74.75934008888889,96.56460446211923 74.80745528888889,96.55788495481485 74.80286577777778,96.52829116071459 74.84576213333334,96.52129314051965 74.82134044444444,96.46182334758109 74.81042417777778,96.43585575108409 74.82597048888888,96.44703360004334 74.84966471111112,96.39998170493007 74.8706488888889,96.37189296963658 74.86453191111111,96.35616133293924 74.87807786666667,96.33703812462556 74.86112426666666,96.32645719651634 74.86296888888889,96.31291759496719 74.85824426666667,96.29522116827911 74.8686464,96.26226522727738 74.86263822222223,96.24483967975239 74.81033031111112,96.22350963363657 74.79190755555555,96.22334819943423 74.7450176,96.18074970695768 74.71839146666667,96.21188248758287 74.68876302222223,96.25334339133485 74.67847964444444,96.25805258348197 74.65461831111112,96.26814519411727 74.61176462222222,96.29748236058266 74.58961137777779,96.31957530678358 74.56290986666667,96.3299709414216 74.53796337777779,96.36224693622006 74.5312928466112,96.36464617274598 74.53145173333334,96.36584763409482 74.53098951111112,96.36914473655855 74.52824462222223,96.37373098803738 74.52791893333334,96.37583860347246z" stroke="#0E478F" stroke-width="0.003" stroke-opacity="0.8" fill="royalblue" fill-opacity="0.75"></path></g><g data-fips="34" data-geo-id="34021" data-county="Mercer"><path d="M74.70723251372864,96.59832314056868 74.70953884444445,96.60171592151573 74.71423217777779,96.6062870827209 74.71871288888889,96.60973855593438 74.72539733333333,96.61626785254462 74.73186844444444,96.62139660658396 74.735424,96.6226090169411 74.74033137777778,96.62307532240158 74.7437447111111,96.62503376763166 74.74694471111111,96.62755167915459 74.75156693333334,96.63193447021087 74.76038471111112,96.6416314772126 74.76288568888889,96.64584827716317 74.76587235555556,96.65153486974243 74.76870542222223,96.65822481517625 74.77111598298454,96.66538005759391 74.7711232,96.66540147856631 74.77574542222223,96.67555832279137 74.7788032,96.68329204577448 74.78307057777778,96.6872983003807 74.79188835555556,96.69167693873426 74.79501724444445,96.6944716553416 74.81222684444445,96.70294820499463 74.82225351111111,96.71030604440946 74.82925511111111,96.71599520819021 74.82993351111112,96.71682493205662 74.83242311111111,96.72315598987512 74.83673511780452,96.73104216483671 74.83690311111111,96.73134938574843 74.83953422222223,96.74019333546231 74.84045866666666,96.74270665299665 74.84138311111111,96.74410289728849 74.84302696410589,96.74567530696609 74.843232,96.74587142907092 74.84863644444444,96.74801221706515 74.85354311111111,96.75117672725492 74.8559616,96.75406187776392 74.86413937777779,96.76699690032036 74.86470826666667,96.76904392731954 74.86463715555556,96.77332292998327 74.86400433114567,96.77646910576404 74.87554204444444,96.76589520015351 74.8728184888889,96.74775718786859 74.89801386666667,96.75482316324334 74.8961344,96.76079028120995 74.90700586666667,96.76297616011323 74.93448391111112,96.78364847081468 74.94939093333333,96.78898315322624 74.95976177777779,96.78779439986684 74.94074595555556,96.74673333766083 74.95560888888889,96.74949024920733 74.97771306666667,96.73969624525512 74.99145386666667,96.71479111139098 75.03539484444444,96.69038946428554 75.03291591111112,96.6806673451664 75.0350008888889,96.66147957988883 74.9938360888889,96.64804280337337 74.97002880000001,96.63632348319963 74.9487488,96.61720428470989 74.93513813333334,96.61403490929098 74.92961564444444,96.59693823682044 74.93195804444444,96.58888504403993 74.9337536,96.57631380780117 74.93671822222223,96.56836158414094 74.9349816888889,96.55847870513382 74.91276231111112,96.55221230277235 74.86431217777778,96.56700251199682 74.84576213333334,96.52129314051965 74.80286577777778,96.52829116071459 74.80745528888889,96.55788495481485 74.75934008888889,96.56460446211923 74.76888035555555,96.5936082905226 74.71482524444444,96.6003902226708 74.70723251372864,96.59832314056868z" stroke="#0E478F" stroke-width="0.003" stroke-opacity="0.8" fill="royalblue" fill-opacity="0.75"></path></g><g data-fips="34" data-geo-id="34023" data-county="Middlesex"><path d="M74.93195804444444,96.58888504403993 74.92961564444444,96.59693823682044 74.93513813333334,96.61403490929098 74.9487488,96.61720428470989 74.97002880000001,96.63632348319963 74.9938360888889,96.64804280337337 75.0350008888889,96.66147957988883 75.03291591111112,96.6806673451664 75.05011484444445,96.68250008159441 75.09803804444445,96.65614622628026 75.09743573333333,96.64798686907513 75.12709546666667,96.61386981385135 75.14497635555556,96.59556485358732 75.17092764444445,96.5690812457536 75.19924835555555,96.54003902084654 75.20149262222223,96.53709829266302 75.20036622222221,96.53430218533079 75.20144853333333,96.5324679311259 75.20155164444445,96.5160768106938 75.21936071111111,96.49575290776127 75.21781630111332,96.49409462583516 75.2094656,96.48985221274472 75.19433818415133,96.48440826867109 75.19154560000001,96.4834032422412 75.1882808888889,96.47198226592369 75.18519111111111,96.46049001939407 75.1924544,96.44812780170356 75.19391573333334,96.44457765571178 75.19881955555556,96.43408690378234 75.20255431111111,96.42762377943662 75.20086257777778,96.4195067456441 75.20056106666667,96.40824912407916 75.20767217777778,96.40010711880063 75.2160711111111,96.39611059814304 75.22358115555556,96.39556398159186 75.22359065002931,96.3955372896304 75.22739128888888,96.38485158113122 75.2302087111111,96.37298099315663 75.23293297777778,96.36366382851747 75.22527502222223,96.3529403502948 75.17085155555556,96.36438115898925 75.16065706666667,96.35626997616438 75.16236728888889,96.34868603896655 75.13708657777778,96.3514473466189 75.12269013333334,96.35301528053213 75.06697457777778,96.35919016049328 75.05412835555555,96.36060805847694 75.04832640000001,96.35758023607514 75.03213937777778,96.36774388719537 75.01357937777779,96.37360458503508 75.00521457777778,96.38521855139568 75.00328035555556,96.39476744790933 75.00811164444445,96.39840371493312 75.01093546666667,96.40832398818563 75.05140906666666,96.45416520717862 75.02969528888889,96.47429317624227 75.02555235555556,96.47944474167598 74.999808,96.50522519546885 74.96178702222223,96.52687891615018 74.95985137777778,96.5490657955141 74.93671822222223,96.56836158414094 74.9337536,96.57631380780117 74.93195804444444,96.58888504403993z" stroke="#0E478F" stroke-width="0.003" stroke-opacity="0.8" fill="royalblue" fill-opacity="0.75"></path></g><g data-fips="34" data-geo-id="34025" data-county="Monmouth"><path d="M74.95560888888889,96.74949024920733 74.94074595555556,96.74673333766083 74.95976177777779,96.78779439986684 74.98445866666667,96.842766204698 75.00204515555556,96.83302289485897 75.08856177777778,96.75602277418442 75.19185422222223,96.76101920183142 75.19300195555556,96.77764350752412 75.2057728,96.79454060415638 75.20504960000001,96.80875894362937 75.26391253333334,96.81690963494664 75.26805048888889,96.82372245728683 75.30112426666668,96.78902966111917 75.31693937777779,96.82562355745698 75.32730026666667,96.83341235861926 75.3320192,96.8294348820395 75.34526648888888,96.81844462935054 75.35512137204154,96.82239431236835 75.35354311111111,96.8204713971152 75.35631573333333,96.8021546812934 75.37590446607133,96.72234373183768 75.37780212969594,96.71460666304384 75.38254791111112,96.69525322226134 75.39080462222223,96.6563568845997 75.39381902222223,96.63774725919549 75.39583915856576,96.61648855817153 75.39812906666667,96.59238225863197 75.39812906666667,96.57026572923377 75.39414613333334,96.53590851469977 75.39039573333334,96.52444757684819 75.38996977777778,96.49848438481587 75.37924053333333,96.47222158744648 75.36470542222223,96.47103805882617 75.36402915555556,96.47729199774395 75.37396408888888,96.4881549827036 75.37516515555555,96.49855914132705 75.3836928,96.50377412281539 75.38098773333334,96.52566839554807 75.3788408888889,96.53366431175735 75.37323875555556,96.53348032652225 75.34372693333334,96.52619519904636 75.3358336,96.52264572840669 75.32360177777778,96.51237074875738 75.31513955555555,96.50797961850688 75.300768,96.50295186457701 75.2910136888889,96.49740507776866 75.28273208888889,96.49081295919501 75.27968995555555,96.49064380159642 75.27799964444445,96.49165874035268 75.27512604444445,96.49503894754315 75.26972302222222,96.49895815270051 75.2660664888889,96.49941696592384 75.26164337777779,96.49861988092687 75.25744213333333,96.49600241812239 75.25387022222223,96.49237273900337 75.25298488888889,96.48962978102341 75.24929920000001,96.48969239843642 75.24582542222223,96.4944212345745 75.24346595555556,96.50084664754809 75.23988764444445,96.50556156296558 75.23404231111111,96.50748162627131 75.2311552,96.505830655666 75.2285952,96.49957021440036 75.21781630111332,96.49409462583516 75.21936071111111,96.49575290776127 75.20155164444445,96.5160768106938 75.20144853333333,96.5324679311259 75.20036622222221,96.53430218533079 75.20149262222223,96.53709829266302 75.19924835555555,96.54003902084654 75.17092764444445,96.5690812457536 75.14497635555556,96.59556485358732 75.12709546666667,96.61386981385135 75.09743573333333,96.64798686907513 75.09803804444445,96.65614622628026 75.05011484444445,96.68250008159441 75.03291591111112,96.6806673451664 75.03539484444444,96.69038946428554 74.99145386666667,96.71479111139098 74.97771306666667,96.73969624525512 74.95560888888889,96.74949024920733z" stroke="#0E478F" stroke-width="0.003" stroke-opacity="0.8" fill="royalblue" fill-opacity="0.75"></path></g><g data-fips="34" data-geo-id="34027" data-county="Morris"><path d="M74.77314631111112,96.16530337358958 74.7450176,96.18074970695768 74.79190755555555,96.22334819943423 74.81033031111112,96.22350963363657 74.86263822222223,96.24483967975239 74.91039431111112,96.23005206040568 74.92888035555555,96.22448949274506 74.9823872,96.20839495403554 74.98659911111112,96.21868426016118 74.98737422222223,96.22468377332753 75.00025386666667,96.23508300278485 75.01246791111112,96.26520199706158 75.0011968,96.29621865290768 75.00581120000001,96.31079286350507 75.04993066666667,96.28793923585225 75.05480320000001,96.28739167375079 75.06221368888889,96.27431063941053 75.09991324444444,96.2457873042259 75.09989262222223,96.23927373765733 75.10452195555555,96.24011447818133 75.11343075555557,96.22589918643725 75.11831040000001,96.21635826124353 75.12352213333334,96.21168065717231 75.1166968888889,96.20574373488563 75.1107128888889,96.20828605348416 75.11675591111111,96.17553028122907 75.1374784,96.15650484290235 75.14370773333334,96.13299309706079 75.14321493333334,96.12289363916516 75.13859057777778,96.10661675561887 75.1458744888889,96.06711784683696 75.18431075555556,96.07763465046135 75.18406613333333,96.0771351001606 75.18819768888889,96.06711408312513 75.17679146666667,96.05933118092092 75.1771320888889,96.04074745746576 75.18041600000001,96.00592084495453 75.16645333333334,96.00042864872934 75.16442382222223,95.97812709571963 75.16342471111112,95.98177359676265 75.14420906666666,95.9798712240952 75.12875448888889,95.9773167330759 75.11976817777779,95.96869231172745 75.10088533333334,95.96946603305366 75.0889216,95.95827864886449 75.07658666666667,95.95495974553603 75.068416,95.9621949339209 75.0735872,95.94609181345359 75.05986204444444,95.9297619632593 75.03551217777778,95.9381673897129 75.02380302222222,95.94877202901358 75.02101902222222,95.94138347952907 75.03152,95.90871699949699 75.01993813333333,95.90009718900691 74.99675875555556,95.92593039314039 74.94072533333333,95.98984696092982 74.92192426666668,96.014572117998 74.92539520000001,96.03508605956799 74.91340088888889,96.05486764098413 74.87193599999999,96.07598546069482 74.8704128,96.07304446962247 74.85724871111111,96.05562617362853 74.83063111111112,96.06492638708468 74.82375537777779,96.06924148494156 74.8040704,96.09206907555739 74.80746453333333,96.10932579038875 74.79348977777778,96.12364852309678 74.7956551111111,96.1349406076445 74.77314631111112,96.16530337358958z" stroke="#0E478F" stroke-width="0.003" stroke-opacity="0.8" fill="royalblue" fill-opacity="0.75"></path></g><g data-fips="34" data-geo-id="34029" data-county="Ocean"><path d="M75.00204515555556,96.83302289485897 74.98445866666667,96.842766204698 75.017664,96.92433905888633 75.02446151111111,96.94119612302934 75.06899697777777,97.05057837394824 75.10065208888889,97.12637534801759 75.10016071111112,97.29015723904007 75.09467022222222,97.30811528098072 75.07994097777778,97.31548822557929 75.08096497777778,97.32593730985171 75.10698951111111,97.38007217999113 75.14568391111112,97.37288823924348 75.15559054050858,97.37884432216686 75.15659591111111,97.37253524229675 75.17042844444445,97.37162278686651 75.1805368888889,97.3657615636929 75.20068053333334,97.33447850056308 75.2067512888889,97.32809923071652 75.24197404444445,97.26331411584576 75.27698986666667,97.20390641912084 75.29695644444445,97.15649724786442 75.30564053333333,97.14220397863 75.30743466666667,97.13909129445888 75.30854484560236,97.13658726507435 75.30886684444444,97.13586097223961 75.30874951111112,97.13140467184058 75.31310577777778,97.10167167859423 75.32284657777778,96.99883673985693 75.32639378294564,96.97479044210675 75.33217066666667,96.93560977045027 75.34566443857464,96.86269015514482 75.34974506666667,96.84062211749855 75.35392284444444,96.823815421949 75.3555072,96.82286438700447 75.35512137204154,96.82239431236835 75.34526648888888,96.81844462935054 75.3320192,96.8294348820395 75.32730026666667,96.83341235861926 75.31693937777779,96.82562355745698 75.30112426666668,96.78902966111917 75.26805048888889,96.82372245728683 75.26391253333334,96.81690963494664 75.20504960000001,96.80875894362937 75.2057728,96.79454060415638 75.19300195555556,96.77764350752412 75.19185422222223,96.76101920183142 75.08856177777778,96.75602277418442 75.00204515555556,96.83302289485897z" stroke="#0E478F" stroke-width="0.003" stroke-opacity="0.8" fill="royalblue" fill-opacity="0.75"></path></g><g data-fips="34" data-geo-id="34031" data-county="Passaic"><path d="M75.01993813333333,95.90009718900691 75.03152,95.90871699949699 75.02101902222222,95.94138347952907 75.02380302222222,95.94877202901358 75.03551217777778,95.9381673897129 75.05986204444444,95.9297619632593 75.0735872,95.94609181345359 75.068416,95.9621949339209 75.07658666666667,95.95495974553603 75.0889216,95.95827864886449 75.10088533333334,95.96946603305366 75.11976817777779,95.96869231172745 75.12875448888889,95.9773167330759 75.14420906666666,95.9798712240952 75.16342471111112,95.98177359676265 75.16442382222223,95.97812709571963 75.16645333333334,96.00042864872934 75.18041600000001,96.00592084495453 75.1771320888889,96.04074745746576 75.17679146666667,96.05933118092092 75.18819768888889,96.06711408312513 75.18406613333333,96.0771351001606 75.18431075555556,96.07763465046135 75.18527857777778,96.07811161847519 75.18983893333333,96.08753169327937 75.2022912,96.0930980295962 75.20690488888889,96.09361720287501 75.23186062222223,96.11186170121874 75.2370688,96.11560567148793 75.24788480000001,96.12337966137547 75.28532195555556,96.15049125115313 75.29124764444444,96.13722359153437 75.29186062222222,96.1144755464679 75.30134684444444,96.10980815735394 75.29381120000001,96.09706696172249 75.28508657777778,96.08872156536066 75.28641351111112,96.0807334661271 75.28332586666667,96.0779667410035 75.28367146666666,96.05410815796475 75.27840071111112,96.05295997519832 75.27248284444444,96.03602369949212 75.27359004444445,96.02986664878718 75.27747697777778,96.01276209932077 75.25669333333333,95.99622652235331 75.25607751111112,96.00266759440109 75.22706986666667,95.99974668206097 75.21810986666668,95.99867661982492 75.20104391111111,95.98851105131308 75.18582471111111,95.96579053526008 75.18530986666667,95.9612410985635 75.19967431111112,95.92373300396214 75.22746952996147,95.8552028577316 75.21112301497486,95.84633136689627 75.21104142222222,95.84628708213805 75.17860324265003,95.82733026868684 75.1630264888889,95.81822517850549 75.14951466666668,95.80896633239374 75.11657800169743,95.78885890167801 75.0774648888889,95.82975995185308 75.01993813333333,95.90009718900691z" stroke="#0E478F" stroke-width="0.003" stroke-opacity="0.8" fill="royalblue" fill-opacity="0.75"></path></g><g data-fips="34" data-geo-id="34033" data-county="Salem"><path d="M74.26908302222223,97.25967829058163 74.26871893333333,97.26415425934145 74.26954951111111,97.27053529634455 74.27066453333333,97.27529111777432 74.2702208,97.27802333956615 74.27076693333333,97.28032717635438 74.27138133333334,97.28112463897034 74.27306524444445,97.284654029966 74.27882311111111,97.28946786416337 74.27984711111111,97.2901913845904 74.28270293333334,97.29168269677822 74.28299377777778,97.29180543317491 74.28464853333334,97.29301155951458 74.28659413333334,97.2953739139559 74.2889720888889,97.2975885419692 74.29285191111111,97.30122036585624 74.29575395555555,97.30210614526786 74.29715342222222,97.30195851621805 74.30028231111112,97.30426149058111 74.30205724444444,97.30680057130924 74.30262613333333,97.31638026471654 74.30061795555555,97.32099616095347 74.29758151111112,97.32764729937387 74.2926200888889,97.33402292539522 74.28811235555555,97.33882566807553 74.28692337777778,97.34120292922573 74.28865777777777,97.34477787604476 74.29143040000001,97.34620429509401 74.29206257777778,97.34974300484201 74.29215715555556,97.35417026563086 74.28979342222223,97.36875445846574 74.28967822222222,97.37377210557017 74.2902272,97.37759130013019 74.29181084444444,97.37862071105215 74.29113742222222,97.38046199747491 74.28075164444445,97.38188670029864 74.27956053333334,97.39751948842991 74.28060871111111,97.40595349183673 74.28520462222222,97.41506152179646 74.30514986666667,97.41637677355953 74.3070776888889,97.42209062134393 74.32279324444445,97.43323594838202 74.32797937777778,97.43572019998737 74.33584924444445,97.43497990675681 74.3520760888889,97.46870705982484 74.35960675555556,97.47852206029218 74.36650737777778,97.48321830078268 74.3770354467129,97.487419742358 74.3687744,97.46122839504199 74.37599786666667,97.44892342308731 74.37204977777778,97.42197366019035 74.38234311111111,97.41348465778394 74.40482631111112,97.41881931239168 74.4231992888889,97.38736588951143 74.44051911111112,97.38605925693624 74.4746247111111,97.34993109128649 74.4971136,97.32429183989056 74.54014862222223,97.359311662603 74.60705920000001,97.41801343222622 74.61445333333333,97.3930298059625 74.60999182222223,97.3774023733209 74.61371946666667,97.33764161522478 74.6226816,97.3153378599493 74.52446151111111,97.22460475424397 74.49965724444445,97.2296060142558 74.49068515555557,97.22695763076898 74.48655786666667,97.21352465304143 74.4627320888889,97.21280303549541 74.45678577777778,97.20693831981576 74.43433244444445,97.20304053136309 74.4273728,97.19028372781987 74.39887004444445,97.1697184884681 74.39770453333334,97.15173348929883 74.3740343103404,97.10704617858408 74.35641740728654,97.11540790027462 74.35498666666668,97.11608694161741 74.34641361733753,97.12449584419268 74.34617742222223,97.1247275012025 74.34651591111111,97.12500785097548 74.347168,97.12530855480568 74.34500337777779,97.13032593569054 74.33995448888889,97.13328640283417 74.33718115555556,97.13754183330948 74.33739448888889,97.14022445860455 74.3329856,97.15382085657974 74.33220027774912,97.15550752796642 74.32948053333334,97.1613484985594 74.32861582222222,97.16543191860727 74.328576,97.16759927986092 74.327296,97.17129767839265 74.32715946666667,97.17513638914426 74.3275463111111,97.17719248212352 74.32701155555556,97.18026540396744 74.32608711111112,97.1813747256533 74.3240952888889,97.18069711728403 74.32309973333334,97.17980318090241 74.32160640000001,97.17952584545509 74.31925120000001,97.18043180345063 74.31726862222222,97.18387062888925 74.31651439970268,97.18581145469109 74.31378417777778,97.19283658660214 74.3082368,97.19570173001757 74.30601813333334,97.19695126194014 74.30468124444445,97.19921366574529 74.30418346666667,97.20697620611203 74.30446791111112,97.20771544641522 74.30276053333334,97.21787913221159 74.3006983111111,97.22314513275407 74.2980672,97.22748694675312 74.29522275555556,97.23035053478715 74.29237760000001,97.23441476178425 74.29202204444445,97.23506131949736 74.29209315555556,97.23561550661145 74.28611982222222,97.24291277856628 74.28320355555556,97.24392865967536 74.28121244444445,97.24402101170207 74.2775488,97.24908539236458 74.2750968888889,97.2515010823665 74.27111395555556,97.25427125659982 74.2688384,97.25898027708762 74.26908302222223,97.25967829058163z" stroke="#0E478F" stroke-width="0.003" stroke-opacity="0.8" fill="royalblue" fill-opacity="0.75"></path></g><g data-fips="34" data-geo-id="34035" data-county="Somerset"><path d="M74.81042417777778,96.43585575108409 74.82134044444444,96.46182334758109 74.84576213333334,96.52129314051965 74.86431217777778,96.56700251199682 74.91276231111112,96.55221230277235 74.9349816888889,96.55847870513382 74.93671822222223,96.56836158414094 74.95985137777778,96.5490657955141 74.96178702222223,96.52687891615018 74.999808,96.50522519546885 75.02555235555556,96.47944474167598 75.02969528888889,96.47429317624227 75.05140906666666,96.45416520717862 75.01093546666667,96.40832398818563 75.00811164444445,96.39840371493312 75.00328035555556,96.39476744790933 75.00521457777778,96.38521855139568 75.01357937777779,96.37360458503508 75.03213937777778,96.36774388719537 75.04832640000001,96.35758023607514 75.07598151111111,96.3385108614649 75.08351857777778,96.31839826290266 75.09083022222222,96.30560866571062 75.0908544,96.29435866874141 75.07209528888889,96.29591865920395 75.05717617777778,96.3060848312519 75.04993066666667,96.28793923585225 75.00581120000001,96.31079286350507 75.0011968,96.29621865290768 75.01246791111112,96.26520199706158 75.00025386666667,96.23508300278485 74.98737422222223,96.22468377332753 74.98659911111112,96.21868426016118 74.9823872,96.20839495403554 74.92888035555555,96.22448949274506 74.91039431111112,96.23005206040568 74.86263822222223,96.24483967975239 74.8686464,96.26226522727738 74.85824426666667,96.29522116827911 74.86296888888889,96.31291759496719 74.86112426666666,96.32645719651634 74.87807786666667,96.33703812462556 74.86453191111111,96.35616133293924 74.8706488888889,96.37189296963658 74.84966471111112,96.39998170493007 74.82597048888888,96.44703360004334 74.81042417777778,96.43585575108409z" stroke="#0E478F" stroke-width="0.003" stroke-opacity="0.8" fill="royalblue" fill-opacity="0.75"></path></g><g data-fips="34" data-geo-id="34037" data-county="Sussex"><path d="M74.67255608888888,95.89404836084954 74.67248711111111,95.89702237101864 74.67305742222223,95.89754507253103 74.67501297777778,95.89788095781952 74.67748835555557,95.89757620804158 74.6799544888889,95.89633549301612 74.68423253333334,95.89236032015584 74.68655217777778,95.89095531439648 74.68840248888888,95.89047218887255 74.68980337777778,95.89117706020231 74.6900638173051,95.89210940024834 74.81570986666667,96.04657399821076 74.83063111111112,96.06492638708468 74.85724871111111,96.05562617362853 74.8704128,96.07304446962247 74.87193599999999,96.07598546069482 74.91340088888889,96.05486764098413 74.92539520000001,96.03508605956799 74.92192426666668,96.014572117998 74.94072533333333,95.98984696092982 74.99675875555556,95.92593039314039 75.01993813333333,95.90009718900691 75.0774648888889,95.82975995185308 75.11657800169743,95.78885890167801 75.1083392,95.7838281919868 75.05238471111112,95.74673455554549 75.02250453333335,95.72864911551449 74.94588586666667,95.6809199029778 74.92156871111112,95.66661666817123 74.88361671111112,95.64336837557693 74.87957688888889,95.64608731731748 74.87685048888889,95.64657046166784 74.87394560000001,95.64781051484117 74.86512142222223,95.65287846379778 74.85840142222223,95.65420553452333 74.8546688,95.6536987692723 74.84214115555557,95.6540738706809 74.8401984,95.65518116430995 74.83710222222223,95.65956467741469 74.83484515555556,95.66785821241669 74.83255893333335,95.67070865043982 74.82909297777779,95.67400306242146 74.82674702222222,95.67471608675717 74.82198471111111,95.67480793657055 74.81664355555556,95.6757055955901 74.81449528888889,95.67647825365535 74.812416,95.67842689977682 74.81185991111111,95.68021736536295 74.81430968888888,95.68440974892034 74.81458417777779,95.68672831390472 74.81418097777778,95.68768544211784 74.80401208888888,95.69475977821025 74.8003320888889,95.69949069630894 74.79772231111112,95.70138939821794 74.79332693333333,95.70357860665322 74.78751502222222,95.70986091044449 74.78466346666667,95.71562307031189 74.7816064,95.71924248030132 74.7813476335796,95.72002605202321 74.77963591111111,95.72520907590943 74.77595093333333,95.73268590338311 74.77581795555555,95.73410585908798 74.77686684444444,95.73743661978867 74.77626097777778,95.74037843744404 74.77551502222222,95.74191739685813 74.7740536888889,95.74392829650907 74.77001315555556,95.74457335957993 74.76906453333334,95.74496682582995 74.76824817777778,95.746025199776 74.76502897777779,95.75302382056334 74.76476515555557,95.75677437682845 74.76182613333334,95.76195347740389 74.76095644444445,95.76607791354292 74.76135893333334,95.7669335908384 74.76562702222222,95.77123354451525 74.76670364444445,95.77294474456303 74.76648391111111,95.7742966536546 74.7659392,95.77583098739325 74.76104035555555,95.78405504795433 74.7562424888889,95.7937060534208 74.75322666666666,95.80131729158666 74.75307235555556,95.80413795591511 74.75047893333334,95.81043839258453 74.74529848888889,95.81727479340758 74.7379904,95.82428330430719 74.73694435555555,95.82646627588481 74.736512,95.82880502110996 74.73404017777779,95.83421326716795 74.72130204444444,95.85075998167687 74.71563306666667,95.85525332938148 74.70573013333335,95.85934606151831 74.70384782222222,95.86195167396494 74.70411804444444,95.86370096025222 74.70370702222222,95.86453074473114 74.69205760000001,95.87333106266449 74.69063253333334,95.87386717807664 74.68848924444444,95.8736784055733 74.6859256888889,95.87418997772482 74.68097920000001,95.8769308753978 74.67931591111112,95.87898646909437 74.67255608888888,95.89404836084954z" stroke="#0E478F" stroke-width="0.003" stroke-opacity="0.8" fill="royalblue" fill-opacity="0.75"></path></g><g data-fips="34" data-geo-id="34039" data-county="Union"><path d="M75.04832640000001,96.35758023607514 75.05412835555555,96.36060805847694 75.06697457777778,96.35919016049328 75.12269013333334,96.35301528053213 75.13708657777778,96.3514473466189 75.16236728888889,96.34868603896655 75.16065706666667,96.35626997616438 75.17085155555556,96.36438115898925 75.22527502222223,96.3529403502948 75.23293297777778,96.36366382851747 75.23596728888889,96.35693119724502 75.23288248888889,96.3506333917251 75.23382471111111,96.34131664776436 75.23307733333334,96.3333458247486 75.23395768888889,96.3278692771845 75.2352372576736,96.32627221418647 75.237576123007,96.323352910319 75.24426382222222,96.31500476640686 75.24878933333333,96.31327655217638 75.25645440000001,96.31438808806638 75.26291501174514,96.31536542605615 75.2629990941223,96.31537814563359 75.27643306666667,96.29355428345006 75.28056675555555,96.28705788354144 75.26230115555556,96.2728335764216 75.2289792,96.27180570754527 75.22633102222223,96.26233182435304 75.21994737777779,96.25620553429226 75.19571768888889,96.2505045713402 75.17497813333334,96.24231010876201 75.16642702222222,96.24884306065863 75.1619392,96.25072034870566 75.14624284444444,96.24707361107656 75.11343075555557,96.22589918643725 75.10452195555555,96.24011447818133 75.09989262222223,96.23927373765733 75.09991324444444,96.2457873042259 75.06221368888889,96.27431063941053 75.05480320000001,96.28739167375079 75.04993066666667,96.28793923585225 75.05717617777778,96.3060848312519 75.07209528888889,96.29591865920395 75.0908544,96.29435866874141 75.09083022222222,96.30560866571062 75.08351857777778,96.31839826290266 75.07598151111111,96.3385108614649 75.04832640000001,96.35758023607514z" stroke="#0E478F" stroke-width="0.003" stroke-opacity="0.8" fill="royalblue" fill-opacity="0.75"></path></g><g data-fips="34" data-geo-id="34041" data-county="Warren"><path d="M74.5216568888889,96.27106574402846 74.52379022222223,96.27669262300526 74.52663466666667,96.28063019917153 74.53114311111112,96.28243058003122 74.53545528888888,96.28187546812907 74.5382656,96.28244558298718 74.54038257777778,96.28397586557975 74.54094008888889,96.28586616294432 74.54045084444445,96.28879151047144 74.53670684444445,96.29500179452495 74.53302044444445,96.29702675378644 74.53094968888888,96.29878166543487 74.52680817777778,96.30517092765439 74.52412302222223,96.31070476103902 74.52411164444445,96.31287916861648 74.52783715555556,96.31706000457916 74.53050026666666,96.32249814083335 74.53256604444445,96.33374869982512 74.53206542222222,96.3366867986946 74.53106417777778,96.33812581720221 74.52594417777779,96.3387104090194 74.52394097777777,96.33962475962969 74.52315591111112,96.34071896493265 74.52348586666668,96.3431171562192 74.52551182222223,96.34605481532269 74.52671786666667,96.34878251818708 74.52992640000001,96.35431249604984 74.5312928466112,96.36464617274598 74.53796337777779,96.36224693622006 74.56290986666667,96.3299709414216 74.58961137777779,96.31957530678358 74.61176462222222,96.29748236058266 74.65461831111112,96.26814519411727 74.67847964444444,96.25805258348197 74.68876302222223,96.25334339133485 74.71839146666667,96.21188248758287 74.7450176,96.18074970695768 74.77314631111112,96.16530337358958 74.7956551111111,96.1349406076445 74.79348977777778,96.12364852309678 74.80746453333333,96.10932579038875 74.8040704,96.09206907555739 74.82375537777779,96.06924148494156 74.83063111111112,96.06492638708468 74.81570986666667,96.04657399821076 74.6900638173051,95.89210940024834 74.69030471111111,95.89297175663913 74.6891456,95.89828194208704 74.68729813333334,95.90064439438825 74.67904711111112,95.90641900366306 74.6742528,95.90722368923382 74.67033102222223,95.9088867987659 74.66693902222222,95.9113516657886 74.66213262222222,95.91738560145805 74.65874986666667,95.91740918142132 74.657728,95.91857873634854 74.6558072888889,95.92335670504735 74.65538346666666,95.92619067957764 74.65440782222223,95.92875481983555 74.65302328888889,95.9311340284104 74.6483896888889,95.93724995798442 74.6479104,95.93917532321893 74.64858311111111,95.94269211919858 74.64833635555556,95.94354441722649 74.64483484444445,95.94485489688788 74.64213617777777,95.94642083665096 74.6377472,95.95113444453457 74.63534319103694,95.95253610482291 74.61651057777777,95.96351538733741 74.61333404444444,95.96491969312905 74.60899484444444,95.96519489564214 74.60281813333333,95.96735217718954 74.6024448,95.96852738815181 74.59871573333334,95.97270029113764 74.59507057777778,95.97473386715265 74.58907448888888,95.9771970623475 74.58802133333333,95.97901377110162 74.5788992,95.9847094869732 74.57621617777778,95.98675868624976 74.57381333333335,95.98945410473706 74.57307093333334,95.99152010480341 74.57313422222222,95.99527509359754 74.57272462222222,95.99748690751541 74.57202773333333,95.99973537868296 74.57029617777778,96.00285691677634 74.57029262222223,96.00573718305866 74.57153422222223,96.00840634922783 74.57325226666667,96.01000365001045 74.5748807111111,96.01028712893726 74.57948231111112,96.0091795760191 74.58096489772245,96.0108550984223 74.581024,96.01092189101382 74.58149688888889,96.01260953550407 74.58087111111112,96.01494692276952 74.58110862222222,96.01626343015874 74.58140942222222,96.01719005383084 74.58211271111111,96.02216665296382 74.58292337777779,96.02530966203457 74.58724764444445,96.02993443615125 74.59118008888889,96.03788010951813 74.59162737777778,96.04105903590002 74.5971768888889,96.05010919044172 74.59873706666666,96.05248752006892 74.6102904888889,96.06214484396163 74.6119424,96.06591815215495 74.61255680000001,96.06858849981664 74.61319964444445,96.07506912073802 74.6126528,96.07926498164171 74.61410133333334,96.08257443200159 74.62013297777779,96.08868300069332 74.62850560000001,96.09998989023073 74.63003875555556,96.10322112768762 74.63051448888889,96.10524949929132 74.6301816888889,96.10841746350506 74.62725404444444,96.1106356007562 74.62093084444444,96.1183773056024 74.62168746666667,96.12205601752046 74.61972337777779,96.12450116430689 74.61629866666667,96.12468823617552 74.61436871111111,96.12323300903836 74.61213582222223,96.12235402785879 74.60198257777778,96.12300080879854 74.5985536,96.12497965354514 74.59753173333333,96.12724514208645 74.59768462222223,96.1322608850098 74.59915377777779,96.13435974454535 74.60585457777778,96.14095570000357 74.60705991111112,96.14309843639641 74.60698382222223,96.14623158584621 74.60594702222222,96.1485799350242 74.59829546666667,96.15775165095494 74.59677937777778,96.15956027694116 74.59535857777777,96.16210447859721 74.59503004444444,96.1640679901308 74.59543822222223,96.16640533376854 74.59498666666667,96.1694142528658 74.58950755555556,96.17758917471497 74.58750005876509,96.17870846848305 74.58748942222222,96.17871439890789 74.58357902222222,96.17922722390054 74.57913742222223,96.18167294662587 74.57716124444445,96.18422751619514 74.57318044444445,96.19181171738416 74.57187342222223,96.19352639287307 74.57109333333334,96.19386350041859 74.56774684444444,96.19401280373557 74.56044231111112,96.19290475802653 74.55029333333333,96.18952415797686 74.54611697777779,96.18944245787515 74.54464924444444,96.19012610600257 74.54339626666666,96.19164362782007 74.54178133333333,96.19465414662442 74.5409031111111,96.19859971581187 74.5404608,96.20282106710492 74.53934933333333,96.20500674354975 74.53650702222222,96.20740357648947 74.5302784,96.21070247449352 74.52690986666667,96.21464421302738 74.52667662222223,96.21608416688105 74.52705777777778,96.2188626019404 74.52775182222223,96.22042447869875 74.53455644444445,96.22812722593547 74.53667271111111,96.23152075084107 74.53718471111111,96.23351773902633 74.53688888888888,96.23501919184005 74.53413546666667,96.24060427938484 74.53197368888888,96.24623390245843 74.52969813333334,96.24820039786387 74.52952397396551,96.24843627341173 74.52841244444446,96.2499416703565 74.52535466666667,96.25812199919736 74.5216568888889,96.27106574402846z" stroke="#0E478F" stroke-width="0.003" stroke-opacity="0.8" fill="royalblue" fill-opacity="0.75"></path></g></svg>