<svg version="1.1" xmlns="http://www.w3.org/2000/svg" preserveAspectRatio="xMinYMin meet" viewBox="50.453210311111114 99.64269138192006 4.300948622222222 4.87507325493857"><g data-fips="35" data-geo-id="35001" data-county="Bernalillo"><path d="M51.770848711111114,101.21027465430512 51.863778133333334,101.43819873356551 51.893336177777776,101.51292684971932 51.89375288888889,101.5138499243367 52.07734897777778,101.51383779010003 52.108918044444444,101.51375978424355 52.11015751111112,101.51195349142041 52.122402844444444,101.500520086506 52.134432,101.48259654673876 52.31680995555556,101.48485446921802 52.32748444444445,101.49454347351642 52.32955875555556,101.49670392006973 52.32940017777778,101.51359077126162 52.365753600000005,101.51352229922152 52.51574257777778,101.51368611196739 52.51563448888889,101.47130932907827 52.515683555555555,101.4445106266914 52.510724977777784,101.44146450326248 52.45527111111112,101.44149226686778 52.44888035555555,101.4415261037471 52.44880071111111,101.36630946103155 52.44855751111112,101.21358401738077 52.33607111111111,101.21207036423657 52.295552711111114,101.21159511049916 52.263670044444446,101.21161077825576 52.21401102222223,101.21159424006812 52.20011022222223,101.21168041268743 52.19646222222222,101.21167344924734 52.191728355555554,101.21203032466772 52.16730524444445,101.22464688855693 52.164717511111114,101.22915822562464 52.1653376,101.22086024120249 52.15422648888889,101.21171697073657 52.15213653333334,101.21161251911738 52.15013902222223,101.21160903739407 52.12688711111111,101.2115768314454 52.10382933333334,101.21156377497556 52.079600355555556,101.21154984807171 51.938106311111106,101.21120341545522 51.770848711111114,101.21027465430512z" stroke="#0E478F" stroke-width="0.003" stroke-opacity="0.8" fill="royalblue" fill-opacity="0.75"></path></g><g data-fips="35" data-geo-id="35003" data-county="Catron"><path d="M50.455132444444445,102.90439032710972 50.455298133333336,102.93932860502962 50.45529821816463,102.93938807343011 50.519867733333335,102.94053633360573 50.74019768888889,102.93900818395309 50.81374008888889,102.94018702074088 50.88000853333333,102.9461004709286 51.19957475555556,102.94588291052284 51.199571911111114,102.71030506957882 51.22291413333333,102.71035707520127 51.24340693333334,102.71340147168166 51.40426382222222,102.71131277856351 51.404268088888884,102.42554699201057 51.4021184,102.41334056722414 51.40174151111111,102.04069772189939 51.39525688888889,102.04072611495806 51.39508551111111,101.95394963999746 51.39570204444444,101.76633357309377 51.19246791111111,101.76535761140818 50.50068835555556,101.7648678982005 50.49843555555556,101.76522546690346 50.45606684444445,101.76533256442922 50.45604835555556,101.81431984574121 50.45604835555556,101.81445794166333 50.4554624,102.26389000633067 50.45587484444445,102.37102900236249 50.45550824590222,102.45391346691852 50.45536355555556,102.48660078957056 50.45570702222223,102.58483840642882 50.45525475555556,102.76845262975297 50.45577671111111,102.79802659140698 50.455559111111114,102.80007537057568 50.45543466666667,102.80294833452197 50.45553137777778,102.80610727414359 50.45558968888889,102.80636100522835 50.455132444444445,102.90439032710972z" stroke="#0E478F" stroke-width="0.003" stroke-opacity="0.8" fill="royalblue" fill-opacity="0.75"></path></g><g data-fips="35" data-geo-id="35005" data-county="Chaves"><path d="M53.08303573333334,103.45109796248622 53.08159288888889,103.52364835695208 53.22718008888889,103.52358257696795 53.43891626666667,103.52215986000746 53.445567288888896,103.52216070335678 53.4459904,103.14790646284904 53.65282062222223,103.14724198103735 53.78687146666667,103.14673174992978 53.7895424,103.1468673598657 54.00818488888889,103.14605708684833 54.176350577777775,103.14629525378106 54.201663288888895,103.14619185043712 54.210547911111114,103.14616811850199 54.21056711111111,102.97893460299085 54.21062186666667,102.85178019840298 54.210587733333334,102.78079195191414 54.24256071111111,102.78069655706544 54.24298026666667,102.63223572304442 54.392797155555556,102.63174071796578 54.393060266666666,102.55732836469844 54.24474097777778,102.55822710724048 54.245770666666665,102.41854401758846 54.15684764444445,102.41885044383011 54.157019733333335,102.19364112162933 54.13296497777778,102.1934719804309 54.082830933333334,102.19316546466763 53.933795555555555,102.1925283885551 53.93331982222223,102.2678673099875 53.81873493333334,102.26746933207687 53.48543715555556,102.26381538156477 53.485206044444446,102.1886998041475 53.40915413333334,102.18806183025146 53.40830364444445,102.41437375418022 53.410769066666674,102.42090038527553 53.410093511111114,102.6107733454027 53.41001386666667,102.63493344227773 53.40982542222223,102.77832016356825 53.41504853333334,102.78251755536334 53.41482311111111,102.82165308460073 53.41501866666667,102.8569578881646 53.401715200000005,102.85689237158661 53.400582400000005,102.92915009929852 53.400350577777786,102.99885114735721 53.32872462222223,103.00267518737981 53.280076799999996,103.00283908255659 53.256091733333335,103.00493317263194 53.10793386666667,103.00445678504678 53.10846293333333,103.1144156786967 53.10858880000001,103.14884977957973 53.082657422222226,103.14892860065541 53.08303573333334,103.45109796248622z" stroke="#0E478F" stroke-width="0.003" stroke-opacity="0.8" fill="royalblue" fill-opacity="0.75"></path></g><g data-fips="35" data-geo-id="35006" data-county="Cibola"><path d="M50.456116622222225,101.59955019344979 50.45606684444445,101.76533256442922 50.49843555555556,101.76522546690346 50.50068835555556,101.7648678982005 51.19246791111111,101.76535761140818 51.39570204444444,101.76633357309377 51.41933155555556,101.76521682999925 51.76764942222223,101.76579377291628 51.765773511111114,101.7398371170681 51.76653368888889,101.57708458298957 51.76683946666667,101.4378672894694 51.863778133333334,101.43819873356551 51.770848711111114,101.21027465430512 51.74123377777778,101.13533464594522 51.69110328888889,101.13517779879595 51.46397297777778,101.13635762934767 51.46431075555555,101.09802394632636 51.38898417777778,101.09817128605282 51.38899626666667,101.13578775797185 51.31701404444445,101.1357372186978 51.120007111111114,101.13482314867743 50.866691555555555,101.13433168954424 50.86671431111112,101.14079270938942 50.866733511111114,101.14627735871113 50.86620302222222,101.43655798341914 50.84235164444444,101.43651199675116 50.830958933333335,101.4365198058101 50.59530808888889,101.43608076183268 50.456283675965864,101.43591805863059 50.456283733333336,101.4360052737611 50.45612657777778,101.54971230330915 50.456445155555556,101.56213389648295 50.456103822222225,101.57447105851378 50.45663075555556,101.58709181725598 50.456116622222225,101.59955019344979z" stroke="#0E478F" stroke-width="0.003" stroke-opacity="0.8" fill="royalblue" fill-opacity="0.75"></path></g><g data-fips="35" data-geo-id="35007" data-county="Colfax"><path d="M53.08461368888889,100.0322956120523 53.06471466666667,100.04054901595376 53.085156266666665,100.05741568919912 53.08880071111111,100.07678475381952 53.106689422222225,100.09399808486887 53.09413475555556,100.10124464907368 53.09185564444444,100.11277318205441 53.07997724444445,100.12883613936465 53.08228906666667,100.13700101339613 53.092903822222226,100.13542486883802 53.09674382222222,100.14961770439669 53.09123271111112,100.1608491505092 53.10058595555555,100.1702577945199 53.10055822222222,100.1924400545492 53.097179733333334,100.2042447038056 53.099411200000006,100.2304653901426 53.09464817777778,100.26204372981027 53.10042951111111,100.2836062856992 53.090656711111116,100.29698894800438 53.429159822222225,100.2973805190819 53.42904746666667,100.33577718892796 53.73436017777779,100.33519104004347 54.03817031111111,100.3355603584927 54.03843555555556,100.02680902175581 54.037801244444445,99.91157387102481 54.03885866666666,99.64624669687962 53.866285511111116,99.64766681183221 53.80349653333334,99.64865419708848 53.675195022222226,99.64844853011141 53.60031573333334,99.64790453349394 53.599612444444446,99.64859721582405 53.58575715555556,99.64879397904966 53.52388906666666,99.64873254624875 53.52382577777778,99.64869960399923 53.332939377777784,99.64889547659858 53.31254897777778,99.64937180078277 53.24743111111111,99.64696877785975 53.236303952563205,99.64700492900721 53.2230810512768,99.64704788901116 53.17652870633743,99.64719913312989 53.16539235555556,99.65896879668298 53.1654016,99.67642151695355 53.18272497777778,99.71433507456676 53.19102791111111,99.71798180110153 53.17022435555556,99.77836266933252 53.17469653333333,99.79095251364114 53.167332977777775,99.81009182406206 53.17211164444444,99.81658703845928 53.166010311111116,99.8290437155282 53.17216782222222,99.84611188438771 53.17381191111111,99.8792628996082 53.16932835555556,99.88839807075293 53.155351466666666,99.89409007553076 53.13367395555556,99.89323222431621 53.12651164444445,99.884245872077 53.11059697777778,99.88888425182694 53.101073066666665,99.91139383144971 53.09489920000001,99.90737252807182 53.08278968888889,99.9119561209603 53.06976853333334,99.92631687803025 53.07708871111112,99.94232262351446 53.07441422222223,99.95021373286986 53.083459555555564,99.96543314318302 53.07494257777778,99.97235130497832 53.06681386666667,99.99049275422718 53.078811022222226,100.00720970279257 53.08461368888889,100.0322956120523z" stroke="#0E478F" stroke-width="0.003" stroke-opacity="0.8" fill="royalblue" fill-opacity="0.75"></path></g><g data-fips="35" data-geo-id="35009" data-county="Curry"><path d="M54.230637511111105,101.74340965149801 54.2292864,102.00351906858391 54.41939057777778,102.0033081629121 54.42857244444445,102.0033425965332 54.52825955555556,102.00334517905412 54.576364088888894,102.0034080203681 54.65346133333334,102.00360256984314 54.724311988525514,102.00387028972499 54.724281644809246,101.99517441015375 54.724281600000005,101.99516156804148 54.724305066666666,101.93763577520943 54.72430648888889,101.93754530465034 54.72432426666667,101.93646309564465 54.72448497777778,101.93416937926682 54.72452977777778,101.93321120116984 54.724541155555556,101.93297079297763 54.72454186666668,101.92977389103726 54.72454186666668,101.92825466668215 54.72456177777779,101.92543328824041 54.72454328888889,101.9225126919859 54.724563200000006,101.91943339883574 54.7245952,101.91530937039258 54.72456391111111,101.87203464661965 54.72455964444445,101.86858061847732 54.724558933333334,101.868484024048 54.72455537777778,101.86599494790252 54.72492657777779,101.73035240611624 54.72477440000001,101.70155706338994 54.7251008,101.68591818646024 54.72514204444444,101.62002517440354 54.72514133333333,101.5811882641945 54.72513351111111,101.53093114777192 54.725318400000006,101.48819613246079 54.72529606907449,101.44084321560294 54.55349404444445,101.44081726114206 54.55337457777778,101.51815138105762 54.47836586666667,101.51777090804575 54.47802737777778,101.59339833012098 54.440511288888885,101.59328318324307 54.40309617777778,101.59300613736268 54.4030912,101.66844587966278 54.303825066666676,101.66801863895182 54.25366186666667,101.66753517928258 54.25344853333334,101.74311590689115 54.230637511111105,101.74340965149801z" stroke="#0E478F" stroke-width="0.003" stroke-opacity="0.8" fill="royalblue" fill-opacity="0.75"></path></g><g data-fips="35" data-geo-id="35011" data-county="De Baca"><path d="M53.41031466666667,101.9656434542674 53.40915413333334,102.18806183025146 53.485206044444446,102.1886998041475 53.48543715555556,102.26381538156477 53.81873493333334,102.26746933207687 53.93331982222223,102.2678673099875 53.933795555555555,102.1925283885551 54.082830933333334,102.19316546466763 54.08307911111111,102.04911534576584 54.08059022222223,102.04087668402244 54.080868977777776,101.74307443696742 53.95279644444445,101.74295089101086 53.952609422222224,101.59234641753399 53.8027968,101.59258450610136 53.802862222222224,101.6677185310978 53.728046222222225,101.66821928672879 53.72816924444445,101.74316601635034 53.41011697777778,101.74362045570994 53.41031466666667,101.9656434542674z" stroke="#0E478F" stroke-width="0.003" stroke-opacity="0.8" fill="royalblue" fill-opacity="0.75"></path></g><g data-fips="35" data-geo-id="35013" data-county="Doña Ana"><path d="M51.69804017777778,103.45058556693817 51.69814115555556,103.45863492516905 51.69899306666667,103.77509158818921 51.698671644444445,103.89081514746692 51.700199822222224,103.92370289745861 51.70005778190009,104.14100556036189 51.88767206017636,104.14119106101626 51.910712888888895,104.141213842241 51.910712888888895,104.14107497353534 51.912366222222225,104.1410816660088 51.915702044444444,104.1410666079427 52.088499911111114,104.14089176684946 52.088499911111114,104.14105238643313 52.24410240000001,104.14088172811441 52.246583466666664,104.14151918520508 52.246667377777776,104.13998241947989 52.24675768888889,104.13834272287261 52.24702364444444,104.1365239575052 52.24694186666667,104.1359868530208 52.24679608888889,104.13536273627102 52.244967111111116,104.13402747762406 52.24356977777777,104.13418560156195 52.2432,104.13425671539689 52.243169422222216,104.13419145799789 52.241960533333334,104.1306775167364 52.241668266666665,104.12985590077133 52.24153386666667,104.12950616749778 52.24117831111111,104.1285858092192 52.23673102222222,104.1256246913072 52.23669760000001,104.12565732362864 52.23487004444445,104.12383323939844 52.23442204444444,104.1232307801063 52.23354558225139,104.12191411949625 52.23314204444444,104.12130789945911 52.2251064888889,104.11871302255238 52.22190577777778,104.11812893312137 52.22155093333333,104.11687203803079 52.219133155555554,104.1162862610327 52.21621760000001,104.11888038260737 52.211737600000006,104.11871302255238 52.208822044444446,104.11578416292932 52.20825315555556,104.1144452187066 52.20405688888889,104.10892182856554 52.203345777777784,104.10841968261192 52.199945955555556,104.10658263752494 52.193616355555555,104.10647969475393 52.191810133333334,104.10406259254955 52.19417244444445,104.09427540118448 52.194101333333336,104.0902573803899 52.19182577777778,104.0890017060171 52.19139911111111,104.08866685606918 52.185147022222225,104.0885119874772 52.1800128,104.08318431877166 52.1772352,104.08031941468222 52.17578097777778,104.07670506342734 52.17000817777778,104.07198111826358 52.17004088888889,104.06756084461037 52.17075697777778,104.06507888267097 52.174793244444444,104.05734191742039 52.173730133333336,104.05508574960089 52.16842382222222,104.0506871213213 52.16504888888889,104.04962343972467 52.163345066666665,104.0480103008971 52.163214933333336,104.04481826371187 52.16651377777778,104.03985279600008 52.17161386666667,104.03550356086471 52.177104355555564,104.03346204980791 52.18697742222222,104.02807528382719 52.1867072,104.02611484319235 52.180558222222224,104.02100992334724 52.17850808888888,104.0177329780694 52.179950222222224,104.0134336088368 52.179619555555554,104.00935187682771 52.18470897777778,104.00267952629596 52.18533333333334,103.99950404866306 52.182963911111116,103.99677683822776 52.180369066666664,103.9956042924259 52.179821511111115,103.99259615721363 52.18178062222222,103.98942696923578 52.17906773333333,103.9826028395102 52.17414115555555,103.983994370676 52.16840106666667,103.9793318038921 52.167446044444446,103.97637417170117 52.169605688888886,103.97187127691363 52.173381688888895,103.96844215956037 52.17879608888889,103.96744441699545 52.18172586666667,103.96431360124646 52.182409955555556,103.95948213516812 52.197735111111115,103.95931442870693 52.20787342222222,103.95929244861895 52.220941511111114,103.95926411669723 52.28007537777778,103.95901758737384 52.34183253333333,103.95865282314932 52.35400546097422,103.95890966375599 52.3539456,103.94060028205229 52.35401173333333,103.8914529987407 52.35417457777778,103.52558293762215 52.354428444444444,103.15228223343713 52.379940266666665,103.15200086289231 52.380078222222224,103.07195800044774 51.990833066666674,103.26683517188042 51.990945422222225,103.30364294042353 51.95528960000001,103.30356512742047 51.726653866666666,103.3029722235269 51.69815182222222,103.30309317291726 51.69804017777778,103.45058556693817z" stroke="#0E478F" stroke-width="0.003" stroke-opacity="0.8" fill="royalblue" fill-opacity="0.75"></path></g><g data-fips="35" data-geo-id="35015" data-county="Eddy"><path d="M53.43891626666667,103.52215986000746 53.4388864,103.55271668072949 53.439074133333335,103.74141841916773 53.441680355555555,103.74703809181511 53.44160711111111,103.95949270569997 53.58682595555556,103.95952573878812 53.58868053333334,103.95956514973105 53.66617813333334,103.95963642478932 53.66630684444444,103.95979909938073 53.81003518295396,103.95983485110065 54.027007288888896,103.95988882181737 54.05853937777778,103.95979239115695 54.13299484444444,103.9594326618001 54.223419022222224,103.95973117858804 54.24150612275912,103.9597224818812 54.24146631111111,103.66339565271502 54.24146631111111,103.52063928591706 54.17655751111111,103.52061904512439 54.176350577777775,103.14629525378106 54.00818488888889,103.14605708684833 53.7895424,103.1468673598657 53.78687146666667,103.14673174992978 53.65282062222223,103.14724198103735 53.4459904,103.14790646284904 53.445567288888896,103.52216070335678 53.43891626666667,103.52215986000746z" stroke="#0E478F" stroke-width="0.003" stroke-opacity="0.8" fill="royalblue" fill-opacity="0.75"></path></g><g data-fips="35" data-geo-id="35017" data-county="Grant"><path d="M50.45514453333333,103.05783062704685 50.45512533333334,103.05868513331052 50.45538326785991,103.30489385438734 50.59229795555556,103.30533197023837 50.59347982222222,103.45227046575917 50.67516088888889,103.45215988487351 50.74025031111111,103.45196995549396 50.740074666666665,103.5255500484767 50.818125511111106,103.52546824720694 50.818183822222224,103.73256215929962 50.81765262222222,103.89292675061077 50.82692977777778,103.89293010764423 50.8269952,104.07417567040135 51.04558720000001,104.07373609513499 51.04571448888889,103.8929007335966 51.03647928888889,103.89289485878575 51.036579555555555,103.78599191664324 51.036911644444444,103.52528356154124 51.16285795555555,103.52520766319199 51.254210844444444,103.52479528083278 51.25404657777778,103.45142211207768 51.47841066666667,103.45051887928858 51.40129777777778,103.43607750719022 51.3870584888889,103.43021861913849 51.39532728888889,103.40354264987774 51.39381617777778,103.377326209492 51.399419022222226,103.37279620894988 51.4024704,103.35243192779302 51.397078755555555,103.34013344985804 51.4018232888889,103.31767925919384 51.398124800000005,103.30465450214159 51.38710257777778,103.29932673458748 51.37814257777778,103.28181577592022 51.38112853333333,103.2645563016155 51.37181297777778,103.2471210381555 51.36135964444445,103.24060325104747 51.357456355555556,103.20374255985497 51.36627768888889,103.19231421939241 51.35605475555556,103.15675181532815 51.32105102222222,103.14730893801766 51.301922133333335,103.1145683057463 51.302969600000004,103.08184981383101 51.30560782222222,103.06905977342146 51.316485688888896,103.05924263609819 51.30965048888889,103.04373537824705 51.31226524444444,103.03543262595764 51.30459591111111,103.00274312324811 51.30219235555556,102.97641588377604 51.31402666666666,102.96158981698548 51.29834382222222,102.95565720390205 51.2959936,102.94696985635625 51.19957475555556,102.94588291052284 50.88000853333333,102.9461004709286 50.81374008888889,102.94018702074088 50.74019768888889,102.93900818395309 50.519867733333335,102.94053633360573 50.45529821816463,102.93938807343011 50.45538417777778,102.99962310461939 50.45538346666667,102.99999336951191 50.45545742222222,103.03789502903984 50.45553422222223,103.0387319389899 50.45514453333333,103.05783062704685z" stroke="#0E478F" stroke-width="0.003" stroke-opacity="0.8" fill="royalblue" fill-opacity="0.75"></path></g><g data-fips="35" data-geo-id="35019" data-county="Guadalupe"><path d="M53.11092266666667,101.74143894773533 53.110704355555555,101.96550392521976 53.41031466666667,101.9656434542674 53.41011697777778,101.74362045570994 53.72816924444445,101.74316601635034 53.728046222222225,101.66821928672879 53.802862222222224,101.6677185310978 53.8027968,101.59258450610136 53.952609422222224,101.59234641753399 53.952698311111114,101.44045285950116 53.95512817777778,101.42794754586936 53.95545813333334,101.32857651238834 53.95546951111112,101.27761606045942 53.95545884444445,101.2135500715185 53.79185493333333,101.21323324268428 53.41074417777778,101.21296254439548 53.27465102222222,101.21291031952588 53.212859022222226,101.21288507749173 53.12627982222223,101.21285983544857 53.126548622222224,101.36454892647481 53.12682951111111,101.74159878324498 53.11092266666667,101.74143894773533z" stroke="#0E478F" stroke-width="0.003" stroke-opacity="0.8" fill="royalblue" fill-opacity="0.75"></path></g><g data-fips="35" data-geo-id="35021" data-county="Harding"><path d="M53.738336000000004,100.33954164444017 53.73218204444444,100.35727879895362 53.74973937777778,100.37193514656012 53.745843199999996,100.37947224008008 53.75689884444445,100.39081597023858 53.74965617777778,100.41867634561665 53.75792213333333,100.42462295762556 53.759235555555556,100.44703237881765 53.78060231111112,100.46879322329916 53.7744,100.48422544380469 53.78437404444445,100.48860449262506 53.78805404444444,100.50651446159692 53.78467982222222,100.51574243902446 53.795660088888894,100.5187560358647 53.80183395555556,100.53468688912815 53.79148515555556,100.5427862767037 53.811709155555555,100.56252281502981 53.793779911111116,100.5799034003492 53.79242240000001,100.58972055006413 53.80000782222223,100.60466580844039 53.77948728888889,100.63025056231939 53.772858311111115,100.64877596324962 53.76673991111111,100.6506317416279 53.784918044444446,100.66611393542527 53.774279822222226,100.67174552174602 53.783530666666664,100.67733893759996 53.77555555555556,100.68242410890696 53.78551608888889,100.69204264444602 53.78053760000001,100.6991118769145 53.78690275555556,100.71786440183439 53.781248000000005,100.72126456456692 53.968052622222224,100.71912578602107 54.02901191111111,100.71934317306693 54.060870400000006,100.70158795535832 54.24098915555556,101.03306765983373 54.30255928888889,101.03345685568904 54.3025400888889,101.06196613759494 54.47896746666667,101.06200102879988 54.48552533333334,101.05574301440222 54.485649066666674,100.97026806890679 54.485764977777784,100.83230501888562 54.48880568888889,100.75612967106886 54.4889856,100.52872599322632 54.49595591111112,100.5287198404591 54.49601635555556,100.4518678336506 54.190560000000005,100.45214237526727 54.19093973333333,100.37445817365538 54.03814115555556,100.37396925626494 54.03817031111111,100.3355603584927 53.73436017777779,100.33519104004347 53.738336000000004,100.33954164444017z" stroke="#0E478F" stroke-width="0.003" stroke-opacity="0.8" fill="royalblue" fill-opacity="0.75"></path></g><g data-fips="35" data-geo-id="35023" data-county="Hidalgo"><path d="M50.453210311111114,104.39470203636344 50.45330204444445,104.51759729992692 50.58771342222222,104.51775298156153 50.59476977777778,104.51776463685863 50.63913884444444,104.51771135548631 50.69677724444445,104.51702368952344 50.861971200000006,104.51681888711386 51.051681422222224,104.51685385341682 51.05168213333333,104.37824211347643 51.0517184,104.37819540898617 51.05202702222222,104.28331833389291 51.051808711111114,104.14114189824387 51.05065671111111,104.11026672673742 51.045593600000004,104.11028681215811 51.04558720000001,104.07373609513499 50.8269952,104.07417567040135 50.82692977777778,103.89293010764423 50.81765262222222,103.89292675061077 50.818183822222224,103.73256215929962 50.818125511111106,103.52546824720694 50.740074666666665,103.5255500484767 50.74025031111111,103.45196995549396 50.67516088888889,103.45215988487351 50.59347982222222,103.45227046575917 50.59229795555556,103.30533197023837 50.45538326785991,103.30489385438734 50.45538346666667,103.30508331224459 50.45501297777778,103.37620577581143 50.455008,103.37912174158363 50.455002311111116,103.38221502628755 50.455002311111116,103.38639553296011 50.455006236376896,103.41539533819008 50.45503146666667,103.60153146479917 50.45455217777778,103.88513635875971 50.454545066666675,103.88935058730144 50.454235733333334,103.93626891997505 50.45432960000001,103.94844962458055 50.454336,104.0681662503402 50.45420871111112,104.07604362803804 50.45396906666667,104.09083498374507 50.454212977777786,104.11840340549541 50.453905777777784,104.13030603361348 50.45396480000001,104.26401932170651 50.453466311111114,104.3784205910923 50.453444977777785,104.3784314331773 50.453210311111114,104.39470203636344z" stroke="#0E478F" stroke-width="0.003" stroke-opacity="0.8" fill="royalblue" fill-opacity="0.75"></path></g><g data-fips="35" data-geo-id="35025" data-county="Lea"><path d="M54.176350577777775,103.14629525378106 54.17655751111111,103.52061904512439 54.24146631111111,103.52063928591706 54.24146631111111,103.66339565271502 54.24150612275912,103.9597224818812 54.523377066666676,103.9595869515206 54.55749617777778,103.95954586352745 54.56328320000001,103.95962384684266 54.56518542222223,103.95962552390233 54.565238755555555,103.9594989057941 54.60221084444444,103.95946704160157 54.69248142222223,103.95951735347847 54.69448817777778,103.95950729110574 54.709743644444444,103.95946284894369 54.70979982222222,103.88686790510273 54.709796977777785,103.85665465825913 54.709744355555564,103.83820940427444 54.70954951111111,103.52076663411349 54.70950328888889,103.465261328315 54.70948408888889,103.45478339389734 54.70950328888889,103.45354593283508 54.709464888888895,103.43440406799805 54.70959431111111,103.41592538310394 54.709430044444446,103.38532423683172 54.70947697777778,103.37846859532596 54.70947626666668,103.36331452126362 54.70945635555556,103.34815655558717 54.70947057777778,103.30530913433444 54.70954808888889,103.29998141312888 54.709538844444445,103.29914318673892 54.709547377777774,103.26281558067903 54.709565422122665,103.26206877514585 54.70956657777778,103.26202094551661 54.709412266666675,103.24434131344582 54.70939306666667,103.23765313159194 54.70947057777778,103.23728404105887 54.709431466666665,103.22826784877415 54.709545955555555,103.21894659205837 54.70963982222222,103.20145161062034 54.709577244444446,103.15139489562914 54.7095616,103.14692329889272 54.709599999999995,103.11680680003043 54.70972302222222,103.10799573334998 54.71005866666667,103.08390606071397 54.710111999999995,103.08105410575256 54.71162014737564,102.9971696305623 54.71281564444445,102.9306078997782 54.713088000000006,102.89911900067791 54.71342791111112,102.89562470191356 54.71441351111111,102.84895337616663 54.714675911111115,102.8368322183605 54.71526733884232,102.78665219379567 54.715267555555556,102.78663380038694 54.71814361735538,102.63135003056634 54.392797155555556,102.63174071796578 54.24298026666667,102.63223572304442 54.24256071111111,102.78069655706544 54.210587733333334,102.78079195191414 54.21062186666667,102.85178019840298 54.21056711111111,102.97893460299085 54.210547911111114,103.14616811850199 54.201663288888895,103.14619185043712 54.176350577777775,103.14629525378106z" stroke="#0E478F" stroke-width="0.003" stroke-opacity="0.8" fill="royalblue" fill-opacity="0.75"></path></g><g data-fips="35" data-geo-id="35027" data-county="Lincoln"><path d="M52.356508444444444,102.55455859661552 52.357122133333334,102.70871845421871 52.35777066666667,102.78477968730768 52.376384,102.78479672117156 52.670834488888886,102.78538864550694 52.811453155555554,102.78473625093704 52.81623395555556,102.78476435682684 52.81709724444445,102.85780279157801 53.061821155555556,102.85729993481424 53.10764373333334,102.85683025841378 53.10793386666667,103.00445678504678 53.256091733333335,103.00493317263194 53.280076799999996,103.00283908255659 53.32872462222223,103.00267518737981 53.400350577777786,102.99885114735721 53.400582400000005,102.92915009929852 53.401715200000005,102.85689237158661 53.41501866666667,102.8569578881646 53.41482311111111,102.82165308460073 53.41504853333334,102.78251755536334 53.40982542222223,102.77832016356825 53.41001386666667,102.63493344227773 53.410093511111114,102.6107733454027 53.410769066666674,102.42090038527553 53.40830364444445,102.41437375418022 53.40915413333334,102.18806183025146 53.41031466666667,101.9656434542674 53.110704355555555,101.96550392521976 53.11060053333333,102.04054715246271 52.6748672,102.04058242875882 52.67577955555556,102.41335169524753 52.584773688888895,102.41336710327707 52.584760888888894,102.4793718804444 52.58473386666667,102.56327848519426 52.509654044444446,102.56329386176627 52.43145884444445,102.5545321115928 52.356508444444444,102.55455859661552z" stroke="#0E478F" stroke-width="0.003" stroke-opacity="0.8" fill="royalblue" fill-opacity="0.75"></path></g><g data-fips="35" data-geo-id="35028" data-county="Los Alamos"><path d="M52.32460871111111,100.68067617798704 52.329850311111116,100.6935956221918 52.350323200000005,100.69612275417548 52.36833564444445,100.68876207335754 52.421257955555554,100.71021671650772 52.4440896,100.74184607662588 52.46849991111111,100.72741581665476 52.47007288888889,100.7235610487767 52.473950577777785,100.72259425567809 52.484396800000006,100.69962218073593 52.49871146666667,100.6807358170959 52.49942613333334,100.67874577276663 52.475968,100.67738980869376 52.46194417777778,100.67790465715436 52.44568391111112,100.66876136407875 52.44494720000001,100.66558847289396 52.43661795555556,100.66213909444679 52.43506062222223,100.65882903923107 52.42525653333333,100.65440105677384 52.445621333333335,100.65430893209299 52.44753848888889,100.5883953422464 52.44756977777778,100.5632686901777 52.445752177777784,100.55713716521255 52.43431751111111,100.55149364503993 52.40862293333333,100.55093216743003 52.40877511111111,100.56399786543368 52.397658311111115,100.56926614860892 52.34829582222222,100.56902545204404 52.33798186666667,100.5626124258954 52.338038044444446,100.67836161486375 52.32460871111111,100.68067617798704z" stroke="#0E478F" stroke-width="0.003" stroke-opacity="0.8" fill="royalblue" fill-opacity="0.75"></path></g><g data-fips="35" data-geo-id="35029" data-county="Luna"><path d="M51.036579555555555,103.78599191664324 51.03647928888889,103.89289485878575 51.04571448888889,103.8929007335966 51.04558720000001,104.07373609513499 51.045593600000004,104.11028681215811 51.05065671111111,104.11026672673742 51.051808711111114,104.14114189824387 51.16348444444445,104.14115277350358 51.30783715555556,104.14111429180863 51.45519644444445,104.14104402083805 51.610670222222225,104.14114189824387 51.61084728888889,104.14114189824387 51.700036266666665,104.14100553908901 51.70005778190009,104.14100556036189 51.700199822222224,103.92370289745861 51.698671644444445,103.89081514746692 51.69899306666667,103.77509158818921 51.69814115555556,103.45863492516905 51.69804017777778,103.45058556693817 51.47841066666667,103.45051887928858 51.25404657777778,103.45142211207768 51.254210844444444,103.52479528083278 51.16285795555555,103.52520766319199 51.036911644444444,103.52528356154124 51.036579555555555,103.78599191664324z" stroke="#0E478F" stroke-width="0.003" stroke-opacity="0.8" fill="royalblue" fill-opacity="0.75"></path></g><g data-fips="35" data-geo-id="35031" data-county="McKinley"><path d="M50.455611733333335,101.08469060444475 50.45570469541831,101.10287311536659 50.45581907481885,101.12523821377724 50.45611804444445,101.18366355011412 50.45616057404586,101.24852134277027 50.456283675965864,101.43591805863059 50.59530808888889,101.43608076183268 50.830958933333335,101.4365198058101 50.84235164444444,101.43651199675116 50.86620302222222,101.43655798341914 50.866733511111114,101.14627735871113 50.86671431111112,101.14079270938942 50.866691555555555,101.13433168954424 51.120007111111114,101.13482314867743 51.31701404444445,101.1357372186978 51.38899626666667,101.13578775797185 51.38898417777778,101.09817128605282 51.46431075555555,101.09802394632636 51.46397297777778,101.13635762934767 51.69110328888889,101.13517779879595 51.69342435555556,101.03631816444526 51.69180871111111,100.8304251892257 51.69161457777778,100.52881476880663 51.465592177777786,100.52729238370709 51.33102506666667,100.52639493433189 51.092467911111115,100.52509752370479 50.82041884444444,100.52517839282756 50.62788195555556,100.52514411136309 50.6117824,100.52514586938733 50.539037155555555,100.5253084864357 50.456197527411206,100.52517109251193 50.45619697777778,100.52549044127541 50.45616995555556,100.59265102254466 50.45613937777778,100.59268263619741 50.456138666666675,100.62528884828527 50.45616071111111,100.63311876827206 50.455968,100.86380564899571 50.45596728888889,100.8657877989641 50.45581582222222,100.92507851260599 50.45583573333334,100.92517814653915 50.455611733333335,101.08469060444475z" stroke="#0E478F" stroke-width="0.003" stroke-opacity="0.8" fill="royalblue" fill-opacity="0.75"></path></g><g data-fips="35" data-geo-id="35033" data-county="Mora"><path d="M52.82312746666667,100.54622928447102 52.82095715555556,100.6406792765417 52.96047715555556,100.6410864587631 53.085987555555555,100.64110927493775 53.16425244444445,100.66949908221717 53.18337706666667,100.6791492239894 53.20699946666667,100.68046393250869 53.22574008888889,100.69481272565723 53.25530595555556,100.69617974950208 53.27682488888889,100.71488923291224 53.295752533333335,100.7238257531612 53.315232711111115,100.74326650615049 53.32010524444445,100.72969281675273 53.328770133333336,100.72831680942072 53.51065244444444,100.71791173702512 53.655919644444445,100.72004792318168 53.72022542222222,100.72177032350345 53.781248000000005,100.72126456456692 53.78690275555556,100.71786440183439 53.78053760000001,100.6991118769145 53.78551608888889,100.69204264444602 53.77555555555556,100.68242410890696 53.783530666666664,100.67733893759996 53.774279822222226,100.67174552174602 53.784918044444446,100.66611393542527 53.76673991111111,100.6506317416279 53.772858311111115,100.64877596324962 53.77948728888889,100.63025056231939 53.80000782222223,100.60466580844039 53.79242240000001,100.58972055006413 53.793779911111116,100.5799034003492 53.811709155555555,100.56252281502981 53.79148515555556,100.5427862767037 53.80183395555556,100.53468688912815 53.795660088888894,100.5187560358647 53.78467982222222,100.51574243902446 53.78805404444444,100.50651446159692 53.78437404444445,100.48860449262506 53.7744,100.48422544380469 53.78060231111112,100.46879322329916 53.759235555555556,100.44703237881765 53.75792213333333,100.42462295762556 53.74965617777778,100.41867634561665 53.75689884444445,100.39081597023858 53.745843199999996,100.37947224008008 53.74973937777778,100.37193514656012 53.73218204444444,100.35727879895362 53.738336000000004,100.33954164444017 53.73436017777779,100.33519104004347 53.42904746666667,100.33577718892796 53.429159822222225,100.2973805190819 53.090656711111116,100.29698894800438 53.05788302222222,100.30494428308486 53.04200746666667,100.31907660490452 53.054010311111114,100.3373187807817 53.05101155555556,100.35895031728172 53.03354595555555,100.37786199983668 53.038405688888886,100.38930111447941 53.034672355555564,100.41168324995516 53.0041472,100.45862634433854 52.985354666666666,100.49466557504658 52.97289102222222,100.50928491814828 52.95617422222223,100.51610551933301 52.95138417777778,100.5355587436472 52.929390222222224,100.55057454160644 52.90306986666667,100.55071688920675 52.8838336,100.54548322608487 52.874552888888886,100.56079558690834 52.863986488888884,100.56399259431475 52.85004088888889,100.55551523834654 52.83016462222222,100.55501090449559 52.82312746666667,100.54622928447102z" stroke="#0E478F" stroke-width="0.003" stroke-opacity="0.8" fill="royalblue" fill-opacity="0.75"></path></g><g data-fips="35" data-geo-id="35035" data-county="Otero"><path d="M52.3539456,103.94060028205229 52.35400546097422,103.95890966375599 52.354232177777774,103.95891444732032 52.39033950775965,103.9586866665206 52.39219958291484,103.95867493233625 52.39942613333334,103.95862934401353 52.475793777777774,103.95841970855464 52.479502933333336,103.9584004220637 52.49291377777779,103.95817820779743 52.5329536,103.95777318919963 52.58634594091165,103.95787439567188 52.62364231111111,103.95794509176368 52.69290666666667,103.95813628050537 52.70317582222222,103.9582452914172 52.72600106666667,103.95792664370202 52.79962524444444,103.95804739457054 52.813253688888885,103.95858573988517 53.028066844444446,103.95941337556326 53.02856391111111,103.95939408932159 53.02965404444445,103.95936222508563 53.0557184,103.95938821959491 53.223826488888896,103.9594804581053 53.22644622222222,103.9594804581053 53.22791822222222,103.95949052048157 53.238815288888894,103.95946284894369 53.23990968888889,103.9594578177539 53.24939377777778,103.95949052048157 53.27743644444445,103.95945027096865 53.27854506666667,103.95941169849897 53.39139060678969,103.95948125939509 53.39145102222222,103.95948129663672 53.44160711111111,103.95949270569997 53.441680355555555,103.74703809181511 53.439074133333335,103.74141841916773 53.4388864,103.55271668072949 53.43891626666667,103.52215986000746 53.22718008888889,103.52358257696795 53.08159288888889,103.52364835695208 53.08303573333334,103.45109796248622 53.082657422222226,103.14892860065541 53.10858880000001,103.14884977957973 53.10846293333333,103.1144156786967 53.10793386666667,103.00445678504678 53.10764373333334,102.85683025841378 53.061821155555556,102.85729993481424 52.81709724444445,102.85780279157801 52.81623395555556,102.78476435682684 52.811453155555554,102.78473625093704 52.670834488888886,102.78538864550694 52.376384,102.78479672117156 52.38006257777778,103.01821814997353 52.380078222222224,103.07195800044774 52.379940266666665,103.15200086289231 52.354428444444444,103.15228223343713 52.35417457777778,103.52558293762215 52.35401173333333,103.8914529987407 52.3539456,103.94060028205229z" stroke="#0E478F" stroke-width="0.003" stroke-opacity="0.8" fill="royalblue" fill-opacity="0.75"></path></g><g data-fips="35" data-geo-id="35037" data-county="Quay"><path d="M53.952698311111114,101.44045285950116 53.952609422222224,101.59234641753399 53.95279644444445,101.74295089101086 54.080868977777776,101.74307443696742 54.230637511111105,101.74340965149801 54.25344853333334,101.74311590689115 54.25366186666667,101.66753517928258 54.303825066666676,101.66801863895182 54.4030912,101.66844587966278 54.40309617777778,101.59300613736268 54.440511288888885,101.59328318324307 54.47802737777778,101.59339833012098 54.47836586666667,101.51777090804575 54.55337457777778,101.51815138105762 54.55349404444445,101.44081726114206 54.72529606907449,101.44084321560294 54.725232355555555,101.3055644391071 54.72479217777778,101.29239803624634 54.72531911111112,101.28323531393653 54.72526222222223,101.2770003676899 54.72518328888889,101.27528805271888 54.725284977777775,101.2626048485908 54.725408,101.24585480410646 54.72544782222223,101.24294108313083 54.725428622222225,101.24218936017819 54.7254208,101.24187352974806 54.72533546666667,101.21688713289831 54.725137777777775,101.1913155091382 54.725428622222225,101.1836365560733 54.726006044444446,100.85858321094332 54.72620669897672,100.75620255020338 54.48880568888889,100.75612967106886 54.485764977777784,100.83230501888562 54.485649066666674,100.97026806890679 54.48552533333334,101.05574301440222 54.47896746666667,101.06200102879988 54.3025400888889,101.06196613759494 54.30248533333334,101.19167945284708 54.156214044444454,101.19107171804482 54.14575644444445,101.19029854643806 54.1456632888889,101.17137235686026 53.95546951111112,101.27761606045942 53.95545813333334,101.32857651238834 53.95512817777778,101.42794754586936 53.952698311111114,101.44045285950116z" stroke="#0E478F" stroke-width="0.003" stroke-opacity="0.8" fill="royalblue" fill-opacity="0.75"></path></g><g data-fips="35" data-geo-id="35039" data-county="Rio Arriba"><path d="M51.46624924444445,100.05764844428461 51.465983288888886,100.10479998802757 51.466317511111114,100.15636350895925 51.46635448888889,100.15703602039629 51.46668871111112,100.25626751255565 51.46717653333333,100.33406720681917 51.618816,100.33563616108009 51.69449173333334,100.3386320594073 51.73046826666667,100.33692479231699 51.8729024,100.33690980837123 51.992851200000004,100.33692214809149 51.99266346666667,100.52845175507211 52.008171377777785,100.52875675705415 52.047466666666665,100.52860117984193 52.1143104,100.52802281629634 52.34429440000001,100.52635713748226 52.35056355555556,100.52715438294308 52.44646115555556,100.5262850597119 52.445752177777784,100.55713716521255 52.44756977777778,100.5632686901777 52.44753848888889,100.5883953422464 52.583576177777786,100.58835933558429 52.583713422222225,100.53993103417301 52.58248177777778,100.53683574464019 52.57557902222223,100.53686298941544 52.57410844444444,100.53232878412365 52.57607253333334,100.53045753600777 52.5714944,100.52802193732072 52.57162453333334,100.52616287892992 52.586043733333334,100.5257708441753 52.63094826666667,100.5257137088802 52.64752782222222,100.52569876579525 52.8236032,100.52550626341284 52.82312746666667,100.54622928447102 52.83016462222222,100.55501090449559 52.85004088888889,100.55551523834654 52.863986488888884,100.56399259431475 52.874552888888886,100.56079558690834 52.8838336,100.54548322608487 52.90306986666667,100.55071688920675 52.929390222222224,100.55057454160644 52.95138417777778,100.5355587436472 52.95617422222223,100.51610551933301 52.89735822222222,100.48485078787196 52.81003875555556,100.43947448858287 52.79179591111111,100.41320906063174 52.73736817777778,100.34214165177767 52.723948799999995,100.32470121751405 52.58071893333334,100.26601338477326 52.594978133333335,100.2407012549128 52.62347093333334,100.23357620905873 52.65080888888889,100.21498688542894 52.65644373333333,100.19756542562047 52.65388942222223,100.15817953982511 52.665977600000005,100.1171484937763 52.662862222222216,100.08663309916628 52.656625777777776,100.07129376597472 52.657805511111114,100.04896251469829 52.65374364444445,100.01974849494408 52.64774115555556,99.9996130461563 52.64178417777778,99.95552212244613 52.63331982222223,99.95800555184212 52.63336391111112,99.9452896529376 52.64475591111111,99.94531536012808 52.6429496888889,99.92447340056117 52.63567075555556,99.89757016157911 52.63816533333333,99.89091056040519 52.63493973333333,99.86833564012338 52.63648213333334,99.84974178088055 52.633289955555554,99.81003053712107 52.64031644444445,99.78744298137806 52.64221226666667,99.74410886569527 52.63234062222222,99.71369465357077 52.63076266666667,99.6958903078175 52.618883555555556,99.66385312758338 52.61773039321387,99.64704217566057 52.61750471111111,99.64704445791122 52.47895537777778,99.64813157025684 52.44607644444445,99.64800336135487 52.445386666666664,99.64798377386236 52.41366826666667,99.6483381285327 52.37821226666667,99.64803541360313 52.28353776176285,99.64838322969217 52.26624782222222,99.6484467494422 52.183353600000004,99.64915990370899 52.18337777777778,99.64912696166735 52.1751808,99.64897471580738 52.1751232,99.64898718039359 52.15193315555556,99.64891417349891 52.14177706666667,99.64902101283027 52.08846862222222,99.64961040677801 52.003700622222226,99.64964156794663 51.99837013333334,99.64277419002693 51.921412261526754,99.64279794276746 51.6117952,99.6428935047555 51.61080888888888,99.64510613157873 51.604712533333334,99.65902487902568 51.59983431111112,99.67097024993005 51.5928128,99.67743162194553 51.58761671111111,99.68534551819276 51.590645333333335,99.69399697556977 51.58781155555556,99.7053588448137 51.59140053333334,99.71522275922557 51.590659555555554,99.72579758776365 51.58643413333334,99.7320100867572 51.58212195555556,99.73466529859826 51.574212977777776,99.736327198493 51.566852266666665,99.74424667283124 51.55794631111111,99.75262482117485 51.54963555555556,99.75360801230876 51.54512995555555,99.75147270928814 51.53862826666667,99.75646683077963 51.53395413333333,99.76659973286854 51.529358933333334,99.77176870831761 51.517092977777786,99.77364743033436 51.51105564444445,99.77183269592027 51.5091712,99.77728297425189 51.50622577777777,99.78281456411432 51.49609244444445,99.78968821442176 51.48855822222222,99.7898694646648 51.484816355555566,99.79594284530422 51.48396444444445,99.80398950537989 51.48738346666667,99.80703273887704 51.486660977777774,99.81172701030776 51.48328604444445,99.81114524023994 51.47934862222222,99.8163179341417 51.48118542222222,99.8192815754579 51.477528177777785,99.8220221848636 51.47545884444445,99.82088012968536 51.47149653333334,99.82231346802972 51.47148373333333,99.82590289782445 51.47143537777777,99.84741064435583 51.471002311111114,99.89292793737152 51.46826311111111,99.93136025008172 51.467800177777775,99.97425197090229 51.466463999999995,100.01752410974646 51.46624924444445,100.05764844428461z" stroke="#0E478F" stroke-width="0.003" stroke-opacity="0.8" fill="royalblue" fill-opacity="0.75"></path></g><g data-fips="35" data-geo-id="35041" data-county="Roosevelt"><path d="M54.080868977777776,101.74307443696742 54.08059022222223,102.04087668402244 54.08307911111111,102.04911534576584 54.082830933333334,102.19316546466763 54.13296497777778,102.1934719804309 54.157019733333335,102.19364112162933 54.15684764444445,102.41885044383011 54.245770666666665,102.41854401758846 54.24474097777778,102.55822710724048 54.393060266666666,102.55732836469844 54.392797155555556,102.63174071796578 54.71814361735538,102.63135003056634 54.718144,102.6313293491462 54.71881671111111,102.58105165646172 54.71903075555556,102.5704085983906 54.718908444444445,102.56311617673799 54.71922702222223,102.5565389657976 54.719621688888886,102.54438764603645 54.719894755555565,102.51912249749812 54.720278755555555,102.48851971310073 54.72064284444444,102.48124737745968 54.72188728888889,102.41416403638377 54.722199466666666,102.39222594732917 54.7230976,102.3483411535025 54.7230592,102.3442611334925 54.723631644444445,102.31056526462322 54.72430222222223,102.28569174726597 54.724539022222224,102.26081660358682 54.724571109225955,102.25434393367149 54.72460017777778,102.2484796569015 54.724583111111116,102.23586689120233 54.72444728888889,102.23193675309811 54.72442951111111,102.22829475011119 54.72446506666667,102.2276236542767 54.72443235555556,102.22657237278727 54.72444871111111,102.22104452776809 54.72448995555556,102.20980731542534 54.72461084444445,102.19581073043304 54.724573155555554,102.18845680802083 54.724565299588974,102.16708447049805 54.72451982222223,102.04323842635644 54.72446648888889,102.01523843114941 54.724312177777776,102.00392452224911 54.724311988525514,102.00387028972499 54.65346133333334,102.00360256984314 54.576364088888894,102.0034080203681 54.52825955555556,102.00334517905412 54.42857244444445,102.0033425965332 54.41939057777778,102.0033081629121 54.2292864,102.00351906858391 54.230637511111105,101.74340965149801 54.080868977777776,101.74307443696742z" stroke="#0E478F" stroke-width="0.003" stroke-opacity="0.8" fill="royalblue" fill-opacity="0.75"></path></g><g data-fips="35" data-geo-id="35043" data-county="Sandoval"><path d="M52.42525653333333,100.65440105677384 52.43506062222223,100.65882903923107 52.43661795555556,100.66213909444679 52.44494720000001,100.66558847289396 52.44568391111112,100.66876136407875 52.445621333333335,100.65430893209299 52.42525653333333,100.65440105677384z" stroke="#0E478F" stroke-width="0.003" stroke-opacity="0.8" fill="royalblue" fill-opacity="0.75"></path><path d="M51.46717653333333,100.33406720681917 51.465592177777786,100.52729238370709 51.69161457777778,100.52881476880663 51.69180871111111,100.8304251892257 51.69342435555556,101.03631816444526 51.69110328888889,101.13517779879595 51.74123377777778,101.13533464594522 51.770848711111114,101.21027465430512 51.938106311111106,101.21120341545522 52.079600355555556,101.21154984807171 52.10382933333334,101.21156377497556 52.12688711111111,101.2115768314454 52.15013902222223,101.21160903739407 52.15213653333334,101.21161251911738 52.15422648888889,101.21171697073657 52.1653376,101.22086024120249 52.164717511111114,101.22915822562464 52.16730524444445,101.22464688855693 52.191728355555554,101.21203032466772 52.19646222222222,101.21167344924734 52.20011022222223,101.21168041268743 52.21401102222223,101.21159424006812 52.263670044444446,101.21161077825576 52.295552711111114,101.21159511049916 52.33607111111111,101.21207036423657 52.44855751111112,101.21358401738077 52.447884800000004,101.1935583477054 52.44519182222223,101.13636547158218 52.44520817777778,101.07255482412276 52.44526364444445,101.01517890472147 52.445387377777784,100.96044141162443 52.44539164444445,100.93899355447988 52.44539946666667,100.83196983880886 52.4440896,100.74184607662588 52.421257955555554,100.71021671650772 52.36833564444445,100.68876207335754 52.350323200000005,100.69612275417548 52.329850311111116,100.6935956221918 52.32460871111111,100.68067617798704 52.338038044444446,100.67836161486375 52.33798186666667,100.5626124258954 52.34829582222222,100.56902545204404 52.397658311111115,100.56926614860892 52.40877511111111,100.56399786543368 52.40862293333333,100.55093216743003 52.43431751111111,100.55149364503993 52.445752177777784,100.55713716521255 52.44646115555556,100.5262850597119 52.35056355555556,100.52715438294308 52.34429440000001,100.52635713748226 52.1143104,100.52802281629634 52.047466666666665,100.52860117984193 52.008171377777785,100.52875675705415 51.99266346666667,100.52845175507211 51.992851200000004,100.33692214809149 51.8729024,100.33690980837123 51.73046826666667,100.33692479231699 51.69449173333334,100.3386320594073 51.618816,100.33563616108009 51.46717653333333,100.33406720681917z" stroke="#0E478F" stroke-width="0.003" stroke-opacity="0.8" fill="royalblue" fill-opacity="0.75"></path></g><g data-fips="35" data-geo-id="35045" data-county="San Juan"><path d="M50.456271405323385,100.2501826359994 50.456047644444446,100.36760508587645 50.45637048888889,100.42460359125178 50.456197527411206,100.52517109251193 50.539037155555555,100.5253084864357 50.6117824,100.52514586938733 50.62788195555556,100.52514411136309 50.82041884444444,100.52517839282756 51.092467911111115,100.52509752370479 51.33102506666667,100.52639493433189 51.465592177777786,100.52729238370709 51.46717653333333,100.33406720681917 51.46668871111112,100.25626751255565 51.46635448888889,100.15703602039629 51.466317511111114,100.15636350895925 51.465983288888886,100.10479998802757 51.46624924444445,100.05764844428461 51.466463999999995,100.01752410974646 51.467800177777775,99.97425197090229 51.46826311111111,99.93136025008172 51.471002311111114,99.89292793737152 51.47143537777777,99.84741064435583 51.47148373333333,99.82590289782445 51.47149653333334,99.82231346802972 51.47545884444445,99.82088012968536 51.477528177777785,99.8220221848636 51.48118542222222,99.8192815754579 51.47934862222222,99.8163179341417 51.48328604444445,99.81114524023994 51.486660977777774,99.81172701030776 51.48738346666667,99.80703273887704 51.48396444444445,99.80398950537989 51.484816355555566,99.79594284530422 51.48855822222222,99.7898694646648 51.49609244444445,99.78968821442176 51.50622577777777,99.78281456411432 51.5091712,99.77728297425189 51.51105564444445,99.77183269592027 51.517092977777786,99.77364743033436 51.529358933333334,99.77176870831761 51.53395413333333,99.76659973286854 51.53862826666667,99.75646683077963 51.54512995555555,99.75147270928814 51.54963555555556,99.75360801230876 51.55794631111111,99.75262482117485 51.566852266666665,99.74424667283124 51.574212977777776,99.736327198493 51.58212195555556,99.73466529859826 51.58643413333334,99.7320100867572 51.590659555555554,99.72579758776365 51.59140053333334,99.71522275922557 51.58781155555556,99.7053588448137 51.590645333333335,99.69399697556977 51.58761671111111,99.68534551819276 51.5928128,99.67743162194553 51.59983431111112,99.67097024993005 51.604712533333334,99.65902487902568 51.61080888888888,99.64510613157873 51.6117952,99.6428935047555 51.56854257837867,99.64289387844687 51.199556977777775,99.64289706638598 51.17620587597796,99.64301297038207 51.02267875555556,99.64377500257814 51.02177066666667,99.64328884459236 50.99513884444444,99.64329418700677 50.99491555555556,99.6433253510825 50.97211448888889,99.643344049521 50.97193173333333,99.64333425510151 50.93027351481032,99.64337979215576 50.81855124701796,99.64350191683745 50.759332266666675,99.64356664958314 50.75889137777777,99.64353281442087 50.521312711111115,99.6438720556774 50.518138311111116,99.64386582291374 50.456730311111116,99.64371356522318 50.45671537777778,99.67005973434064 50.45669546666667,99.67060978334473 50.456599466666674,99.75410938096815 50.456580977777776,99.75447295982558 50.45658229610667,100.06243817528181 50.45658240000001,100.08664902240122 50.456271405323385,100.2501826359994z" stroke="#0E478F" stroke-width="0.003" stroke-opacity="0.8" fill="royalblue" fill-opacity="0.75"></path></g><g data-fips="35" data-geo-id="35047" data-county="San Miguel"><path d="M52.81998222222222,100.68310292222884 52.82047502222222,100.69249950936629 52.820476444444445,100.70719387853717 52.82047502222222,100.7612651621521 52.82393315555555,100.83083126471794 52.82274417777778,100.91911420228747 52.822682311111116,100.99690405536401 52.82317582222222,101.13650227486603 52.82461368888889,101.21370326297277 52.82530204444444,101.36491806042756 52.84775253333333,101.36489374107329 53.126548622222224,101.36454892647481 53.12627982222223,101.21285983544857 53.212859022222226,101.21288507749173 53.27465102222222,101.21291031952588 53.41074417777778,101.21296254439548 53.79185493333333,101.21323324268428 53.95545884444445,101.2135500715185 53.95546951111112,101.27761606045942 54.1456632888889,101.17137235686026 54.14575644444445,101.19029854643806 54.156214044444454,101.19107171804482 54.30248533333334,101.19167945284708 54.3025400888889,101.06196613759494 54.30255928888889,101.03345685568904 54.24098915555556,101.03306765983373 54.060870400000006,100.70158795535832 54.02901191111111,100.71934317306693 53.968052622222224,100.71912578602107 53.781248000000005,100.72126456456692 53.72022542222222,100.72177032350345 53.655919644444445,100.72004792318168 53.51065244444444,100.71791173702512 53.328770133333336,100.72831680942072 53.32010524444445,100.72969281675273 53.315232711111115,100.74326650615049 53.295752533333335,100.7238257531612 53.27682488888889,100.71488923291224 53.25530595555556,100.69617974950208 53.22574008888889,100.69481272565723 53.20699946666667,100.68046393250869 53.18337706666667,100.6791492239894 53.16425244444445,100.66949908221717 53.085987555555555,100.64110927493775 52.96047715555556,100.6410864587631 52.82095715555556,100.6406792765417 52.81998222222222,100.68310292222884z" stroke="#0E478F" stroke-width="0.003" stroke-opacity="0.8" fill="royalblue" fill-opacity="0.75"></path></g><g data-fips="35" data-geo-id="35049" data-county="Santa Fe"><path d="M52.4440896,100.74184607662588 52.44539946666667,100.83196983880886 52.44539164444445,100.93899355447988 52.445387377777784,100.96044141162443 52.44526364444445,101.01517890472147 52.44520817777778,101.07255482412276 52.44519182222223,101.13636547158218 52.447884800000004,101.1935583477054 52.44855751111112,101.21358401738077 52.44880071111111,101.36630946103155 52.483759644444454,101.36608972230077 52.60122737777778,101.36572320005799 52.82530204444444,101.36491806042756 52.82461368888889,101.21370326297277 52.82317582222222,101.13650227486603 52.822682311111116,100.99690405536401 52.82274417777778,100.91911420228747 52.82393315555555,100.83083126471794 52.82047502222222,100.7612651621521 52.820476444444445,100.70719387853717 52.82047502222222,100.69249950936629 52.81998222222222,100.68310292222884 52.82095715555556,100.6406792765417 52.82312746666667,100.54622928447102 52.8236032,100.52550626341284 52.64752782222222,100.52569876579525 52.63094826666667,100.5257137088802 52.586043733333334,100.5257708441753 52.57162453333334,100.52616287892992 52.5714944,100.52802193732072 52.57607253333334,100.53045753600777 52.57410844444444,100.53232878412365 52.57557902222223,100.53686298941544 52.58248177777778,100.53683574464019 52.583713422222225,100.53993103417301 52.583576177777786,100.58835933558429 52.44753848888889,100.5883953422464 52.445621333333335,100.65430893209299 52.44568391111112,100.66876136407875 52.46194417777778,100.67790465715436 52.475968,100.67738980869376 52.49942613333334,100.67874577276663 52.49871146666667,100.6807358170959 52.484396800000006,100.69962218073593 52.473950577777785,100.72259425567809 52.47007288888889,100.7235610487767 52.46849991111111,100.72741581665476 52.4440896,100.74184607662588z" stroke="#0E478F" stroke-width="0.003" stroke-opacity="0.8" fill="royalblue" fill-opacity="0.75"></path></g><g data-fips="35" data-geo-id="35051" data-county="Sierra"><path d="M51.199571911111114,102.71030506957882 51.19957475555556,102.94588291052284 51.2959936,102.94696985635625 51.29834382222222,102.95565720390205 51.31402666666666,102.96158981698548 51.30219235555556,102.97641588377604 51.30459591111111,103.00274312324811 51.31226524444444,103.03543262595764 51.30965048888889,103.04373537824705 51.316485688888896,103.05924263609819 51.30560782222222,103.06905977342146 51.302969600000004,103.08184981383101 51.301922133333335,103.1145683057463 51.32105102222222,103.14730893801766 51.35605475555556,103.15675181532815 51.36627768888889,103.19231421939241 51.357456355555556,103.20374255985497 51.36135964444445,103.24060325104747 51.37181297777778,103.2471210381555 51.38112853333333,103.2645563016155 51.37814257777778,103.28181577592022 51.38710257777778,103.29932673458748 51.398124800000005,103.30465450214159 51.4018232888889,103.31767925919384 51.397078755555555,103.34013344985804 51.4024704,103.35243192779302 51.399419022222226,103.37279620894988 51.39381617777778,103.377326209492 51.39532728888889,103.40354264987774 51.3870584888889,103.43021861913849 51.40129777777778,103.43607750719022 51.47841066666667,103.45051887928858 51.69804017777778,103.45058556693817 51.69815182222222,103.30309317291726 51.726653866666666,103.3029722235269 51.95528960000001,103.30356512742047 51.990945422222225,103.30364294042353 51.990833066666674,103.26683517188042 52.380078222222224,103.07195800044774 52.38006257777778,103.01821814997353 52.376384,102.78479672117156 52.35777066666667,102.78477968730768 52.357122133333334,102.70871845421871 52.28869617777778,102.70844136851329 52.28494577777778,102.71220452987077 51.624592355555556,102.71051394439802 51.40426382222222,102.71131277856351 51.24340693333334,102.71340147168166 51.22291413333333,102.71035707520127 51.199571911111114,102.71030506957882z" stroke="#0E478F" stroke-width="0.003" stroke-opacity="0.8" fill="royalblue" fill-opacity="0.75"></path></g><g data-fips="35" data-geo-id="35053" data-county="Socorro"><path d="M51.39508551111111,101.95394963999746 51.39525688888889,102.04072611495806 51.40174151111111,102.04069772189939 51.4021184,102.41334056722414 51.404268088888884,102.42554699201057 51.40426382222222,102.71131277856351 51.624592355555556,102.71051394439802 52.28494577777778,102.71220452987077 52.28869617777778,102.70844136851329 52.357122133333334,102.70871845421871 52.356508444444444,102.55455859661552 52.43145884444445,102.5545321115928 52.509654044444446,102.56329386176627 52.58473386666667,102.56327848519426 52.584760888888894,102.4793718804444 52.584773688888895,102.41336710327707 52.67577955555556,102.41335169524753 52.6748672,102.04058242875882 52.54987093333334,102.04058845153938 52.32641991111112,102.04072697535358 52.32574293333334,101.88580599078851 52.297732266666664,101.88807624201769 52.26337848888888,101.8708738356697 52.220694755555556,101.85630518819374 52.07588906666667,101.80680271184696 52.07249066666667,101.80505213998536 52.072327111111115,101.80496754519609 52.05487928888889,101.79597748644998 51.99444408888889,101.7650415006193 51.89685475555556,101.76508209415917 51.76764942222223,101.76579377291628 51.41933155555556,101.76521682999925 51.39570204444444,101.76633357309377 51.39508551111111,101.95394963999746z" stroke="#0E478F" stroke-width="0.003" stroke-opacity="0.8" fill="royalblue" fill-opacity="0.75"></path></g><g data-fips="35" data-geo-id="35055" data-county="Taos"><path d="M52.594978133333335,100.2407012549128 52.58071893333334,100.26601338477326 52.723948799999995,100.32470121751405 52.73736817777778,100.34214165177767 52.79179591111111,100.41320906063174 52.81003875555556,100.43947448858287 52.89735822222222,100.48485078787196 52.95617422222223,100.51610551933301 52.97289102222222,100.50928491814828 52.985354666666666,100.49466557504658 53.0041472,100.45862634433854 53.034672355555564,100.41168324995516 53.038405688888886,100.38930111447941 53.03354595555555,100.37786199983668 53.05101155555556,100.35895031728172 53.054010311111114,100.3373187807817 53.04200746666667,100.31907660490452 53.05788302222222,100.30494428308486 53.090656711111116,100.29698894800438 53.10042951111111,100.2836062856992 53.09464817777778,100.26204372981027 53.099411200000006,100.2304653901426 53.097179733333334,100.2042447038056 53.10055822222222,100.1924400545492 53.10058595555555,100.1702577945199 53.09123271111112,100.1608491505092 53.09674382222222,100.14961770439669 53.092903822222226,100.13542486883802 53.08228906666667,100.13700101339613 53.07997724444445,100.12883613936465 53.09185564444444,100.11277318205441 53.09413475555556,100.10124464907368 53.106689422222225,100.09399808486887 53.08880071111111,100.07678475381952 53.085156266666665,100.05741568919912 53.06471466666667,100.04054901595376 53.08461368888889,100.0322956120523 53.078811022222226,100.00720970279257 53.06681386666667,99.99049275422718 53.07494257777778,99.97235130497832 53.083459555555564,99.96543314318302 53.07441422222223,99.95021373286986 53.07708871111112,99.94232262351446 53.06976853333334,99.92631687803025 53.08278968888889,99.9119561209603 53.09489920000001,99.90737252807182 53.101073066666665,99.91139383144971 53.11059697777778,99.88888425182694 53.12651164444445,99.884245872077 53.13367395555556,99.89323222431621 53.155351466666666,99.89409007553076 53.16932835555556,99.88839807075293 53.17381191111111,99.8792628996082 53.17216782222222,99.84611188438771 53.166010311111116,99.8290437155282 53.17211164444444,99.81658703845928 53.167332977777775,99.81009182406206 53.17469653333333,99.79095251364114 53.17022435555556,99.77836266933252 53.19102791111111,99.71798180110153 53.18272497777778,99.71433507456676 53.1654016,99.67642151695355 53.16539235555556,99.65896879668298 53.17652870633743,99.64719913312989 53.17645297777778,99.6471993791645 53.15463395555556,99.64681118501056 53.03515733333334,99.64658770525651 53.03490425358507,99.64658581625645 53.01869582222223,99.6464648355954 53.01528533333334,99.64644435729687 53.00253724444445,99.64646750667737 52.9714944,99.64655298124444 52.96889955555556,99.64665804358532 52.95365546666667,99.64657078843234 52.88713244444445,99.64674529862586 52.860643555555555,99.6465716787916 52.82384284444445,99.64659393776961 52.822426305708085,99.64659667089497 52.82242156505742,99.6465966800418 52.6249536,99.64697768139962 52.62401991111111,99.64697857175352 52.61773039321387,99.64704217566057 52.618883555555556,99.66385312758338 52.63076266666667,99.6958903078175 52.63234062222222,99.71369465357077 52.64221226666667,99.74410886569527 52.64031644444445,99.78744298137806 52.633289955555554,99.81003053712107 52.63648213333334,99.84974178088055 52.63493973333333,99.86833564012338 52.63816533333333,99.89091056040519 52.63567075555556,99.89757016157911 52.6429496888889,99.92447340056117 52.64475591111111,99.94531536012808 52.63336391111112,99.9452896529376 52.63331982222223,99.95800555184212 52.64178417777778,99.95552212244613 52.64774115555556,99.9996130461563 52.65374364444445,100.01974849494408 52.657805511111114,100.04896251469829 52.656625777777776,100.07129376597472 52.662862222222216,100.08663309916628 52.665977600000005,100.1171484937763 52.65388942222223,100.15817953982511 52.65644373333333,100.19756542562047 52.65080888888889,100.21498688542894 52.62347093333334,100.23357620905873 52.594978133333335,100.2407012549128z" stroke="#0E478F" stroke-width="0.003" stroke-opacity="0.8" fill="royalblue" fill-opacity="0.75"></path></g><g data-fips="35" data-geo-id="35057" data-county="Torrance"><path d="M52.29164586666667,101.74019999446287 52.28814933333333,101.81547293855117 52.32577351111111,101.81504312018974 52.32574293333334,101.88580599078851 52.32641991111112,102.04072697535358 52.54987093333334,102.04058845153938 52.6748672,102.04058242875882 53.11060053333333,102.04054715246271 53.110704355555555,101.96550392521976 53.11092266666667,101.74143894773533 53.12682951111111,101.74159878324498 53.126548622222224,101.36454892647481 52.84775253333333,101.36489374107329 52.82530204444444,101.36491806042756 52.60122737777778,101.36572320005799 52.483759644444454,101.36608972230077 52.44880071111111,101.36630946103155 52.44888035555555,101.4415261037471 52.45527111111112,101.44149226686778 52.510724977777784,101.44146450326248 52.515683555555555,101.4445106266914 52.51563448888889,101.47130932907827 52.51574257777778,101.51368611196739 52.365753600000005,101.51352229922152 52.32940017777778,101.51359077126162 52.29236053333333,101.51364104183148 52.2918784,101.56534635411751 52.290341688888894,101.6462865389155 52.29164586666667,101.74019999446287z" stroke="#0E478F" stroke-width="0.003" stroke-opacity="0.8" fill="royalblue" fill-opacity="0.75"></path></g><g data-fips="35" data-geo-id="35059" data-county="Union"><path d="M54.037801244444445,99.91157387102481 54.03843555555556,100.02680902175581 54.03817031111111,100.3355603584927 54.03814115555556,100.37396925626494 54.19093973333333,100.37445817365538 54.190560000000005,100.45214237526727 54.49601635555556,100.4518678336506 54.49595591111112,100.5287198404591 54.4889856,100.52872599322632 54.48880568888889,100.75612967106886 54.72620669897672,100.75620255020338 54.72629617777778,100.71049900500454 54.725747911111114,100.70624000916727 54.72589084444445,100.69078076971624 54.72555662222222,100.68100682357924 54.72618311111112,100.67006311114258 54.72652515555556,100.47898147844845 54.725920711111115,100.24787410295106 54.72587022222222,100.24722719164019 54.725742933333336,100.08626155596671 54.753824711111115,100.08629871037738 54.753731555555554,100.06312548284676 54.75399964444444,99.99572449245878 54.75395413333334,99.982911072119 54.753764977777784,99.9315003384271 54.75399253333333,99.89226346932033 54.754158933333336,99.72336703505749 54.753957688888896,99.72157585852705 54.75399182222222,99.64280535434202 54.69432745829618,99.64274314747769 54.64467768888889,99.64269138192006 54.234135466666665,99.64466450238328 54.23334115555556,99.64464224277096 54.03885866666666,99.64624669687962 54.037801244444445,99.91157387102481z" stroke="#0E478F" stroke-width="0.003" stroke-opacity="0.8" fill="royalblue" fill-opacity="0.75"></path></g><g data-fips="35" data-geo-id="35061" data-county="Valencia"><path d="M51.76653368888889,101.57708458298957 51.765773511111114,101.7398371170681 51.76764942222223,101.76579377291628 51.89685475555556,101.76508209415917 51.99444408888889,101.7650415006193 52.05487928888889,101.79597748644998 52.072327111111115,101.80496754519609 52.07249066666667,101.80505213998536 52.07588906666667,101.80680271184696 52.220694755555556,101.85630518819374 52.26337848888888,101.8708738356697 52.297732266666664,101.88807624201769 52.32574293333334,101.88580599078851 52.32577351111111,101.81504312018974 52.28814933333333,101.81547293855117 52.29164586666667,101.74019999446287 52.290341688888894,101.6462865389155 52.2918784,101.56534635411751 52.29236053333333,101.51364104183148 52.32940017777778,101.51359077126162 52.32955875555556,101.49670392006973 52.32748444444445,101.49454347351642 52.31680995555556,101.48485446921802 52.134432,101.48259654673876 52.122402844444444,101.500520086506 52.11015751111112,101.51195349142041 52.108918044444444,101.51375978424355 52.07734897777778,101.51383779010003 51.89375288888889,101.5138499243367 51.893336177777776,101.51292684971932 51.863778133333334,101.43819873356551 51.76683946666667,101.4378672894694 51.76653368888889,101.57708458298957z" stroke="#0E478F" stroke-width="0.003" stroke-opacity="0.8" fill="royalblue" fill-opacity="0.75"></path></g></svg>