<svg version="1.1" xmlns="http://www.w3.org/2000/svg" preserveAspectRatio="xMinYMin meet" viewBox="76.89758435555555 95.01357077500734 0.5277880888888973 0.8294527845568211"><g data-fips="44" data-geo-i-d="44001" data-county="Bristol"><path d="M77.25358039492986,95.26430246211194 77.25501582222222,95.2707990834565 77.25844653149774,95.27339780166608 77.26059377777779,95.27502425698904 77.26617102222222,95.28347563489169 77.27208462222222,95.29418018190296 77.28125758893583,95.29484398212671 77.28723911111112,95.2952768301157 77.29368248888889,95.30017958875449 77.30108876043434,95.31109308892786 77.30402346666666,95.31541698284684 77.30267093333333,95.32905369322734 77.29853511111111,95.33555051467275 77.2959096888889,95.3353381862425 77.29344355555556,95.34407065693755 77.29511395555555,95.36100174470779 77.29678506666667,95.36557948380764 77.29837582222223,95.36600488212011 77.30134707111482,95.36965442197568 77.3047813109007,95.37387237588203 77.3081984,95.37806897725667 77.3171968,95.3764685610432 77.31920415306048,95.37341420452148 77.32120533333334,95.37036908896471 77.32999324444445,95.36645406908062 77.33090417777778,95.35547659598998 77.33934222222223,95.34918274489164 77.34374968888889,95.34449049252376 77.34294611124253,95.34001326850432 77.34212622222223,95.33544482662231 77.33665066666667,95.32285617089607 77.33841833238294,95.32128175847694 77.33973973333335,95.32010479567563 77.34906666666667,95.31271956586338 77.35125475555556,95.30795688704248 77.35060693333334,95.3069042850441 77.35023009434795,95.30632852999474 77.32523235555556,95.26812352945223 77.30886985124488,95.25886801173652 77.28612419962802,95.24599951369129 77.28512355555556,95.2454333307195 77.28503154360861,95.24537958583298 77.2816512,95.24877923403037 77.28020124444444,95.25010553033589 77.2745536,95.25533606343396 77.26763022222222,95.26177112212027 77.26430151111111,95.26136406513022 77.25358039492986,95.26430246211194z" stroke="#0E478F" stroke-width="0.003" stroke-opacity="0.8" fill="royalblue" fill-opacity="0.75"></path></g><g data-fips="44" data-geo-i-d="44003" data-county="Kent"><path d="M76.94955227591552,95.29395214172291 76.94956231111112,95.29439455864137 76.95146745195997,95.35973648956247 76.95147093333333,95.35985582886948 76.9510139407008,95.37515342315307 76.95085852544356,95.38035499971318 76.94979128888889,95.41606231577802 76.94978938827215,95.41611731516329 77.0426616888889,95.41436684752891 77.05316764444444,95.41219300422844 77.1236928,95.41122872887087 77.13960604444445,95.41068382100676 77.15691022222222,95.41060108588178 77.16662968888889,95.41066004655698 77.16406684444445,95.3986556258264 77.17842204444445,95.38062651170502 77.19013973333334,95.38510764860918 77.19643875555556,95.36953833388586 77.2205253191365,95.36192368776739 77.22005191111111,95.3535253047483 77.20856746666666,95.34577473363791 77.20530631111112,95.34886289491087 77.19645981923769,95.3514332203737 77.19504497777778,95.35184428892288 77.1949374505999,95.35116194194666 77.19162136185714,95.3301149437772 77.19159608888889,95.32995451013912 77.19401031111111,95.32639020675686 77.19687395555556,95.32745580569558 77.19603057777778,95.3290955919821 77.19727217777778,95.33086388375546 77.2138176,95.33299490747626 77.2255523826853,95.33305886021756 77.23338595555556,95.33310155193476 77.2341816888889,95.33374046261554 77.23322666666667,95.3364026774272 77.2338631111111,95.34471040525435 77.23943182222223,95.34907612841687 77.24237511111112,95.3497148725598 77.2458752,95.34407065693755 77.2510456888889,95.32276855545254 77.2510456888889,95.30689285397285 77.2514076543914,95.30531969356394 77.25231146666667,95.30139140328589 77.24620127957446,95.29862439708688 77.24335359999999,95.29733477895132 77.24119628709306,95.29370190324666 77.24014222222222,95.29192679876728 77.2402729393278,95.28344180302406 77.24031146666667,95.28094072526125 77.24048071111112,95.27417981748073 77.237630305472,95.26318680758814 77.2375232,95.26307044516443 77.22696746666668,95.25285147296862 77.22296675555556,95.2535293585828 77.21416106666668,95.25863566475326 77.2131000888889,95.25898744647795 77.20243982222223,95.25989215495557 77.19775146666667,95.2628864634611 77.19357297777778,95.27137764351892 77.1952952888889,95.27924151465224 77.19020231111111,95.28012972260557 77.18908444444445,95.28524619746126 77.18382293333333,95.28720633535733 77.18357404444444,95.28721586431385 77.17193173333334,95.28770755645755 77.16699733333334,95.28784953659357 77.15708515555556,95.28828119229988 77.1311744,95.28921405372645 77.12188231111111,95.28823068969236 77.11079964444444,95.2896895312513 77.03578026666666,95.29178768656139 77.01291804444445,95.2925270738387 76.94955227591552,95.29395214172291z" stroke="#0E478F" stroke-width="0.003" stroke-opacity="0.8" fill="royalblue" fill-opacity="0.75"></path></g><g data-fips="44" data-geo-i-d="44005" data-county="Newport"><path d="M77.25403022222223,95.5415272821068 77.25316053333334,95.54575188476772 77.26144284444445,95.55483873204028 77.27097244444445,95.55664133019422 77.28255288888889,95.5502864623257 77.28873386666666,95.55123812136873 77.28875093333335,95.55426947954973 77.28967537777777,95.55483873204028 77.29465315555555,95.55132825780332 77.3012544,95.5230018405176 77.30799004444445,95.51972212608362 77.30865828888456,95.5196751819306 77.32281386666668,95.51868074457195 77.33141902222222,95.52152860113932 77.33618346666667,95.52589505845593 77.33567786666667,95.53476180993012 77.33993955555556,95.5319980870039 77.34275484444444,95.5239330387017 77.34245333333334,95.520917272378 77.34144995555556,95.52063343910189 77.34000782222223,95.50761557023898 77.34511719735303,95.49479646105726 77.34795093333334,95.48768563850786 77.3489856,95.4812713976312 77.34416,95.47724280191292 77.34283235555556,95.47409459491871 77.34319644444444,95.43711436130066 77.33788444444444,95.42500197444058 77.33840535495182,95.41736070066611 77.33994026666667,95.39483943615795 77.34893743852545,95.39176794528555 77.35739733333334,95.38887973192092 77.36035271111112,95.39125797542638 77.36015853070002,95.39421403501964 77.36005902222222,95.39572882361014 77.35988906666667,95.40354536638 77.36335644444445,95.41249635793852 77.36273777777778,95.44066843371738 77.3592440888889,95.46462620254987 77.36832853333334,95.494498077351 77.36435057777777,95.5088897569563 77.36910791111112,95.51240645125347 77.36932266666668,95.5159590197435 77.37588124444444,95.52306354113921 77.37598862222222,95.52876820813172 77.37130168888889,95.54159845369108 77.37112391111111,95.5450525489687 77.37246791111112,95.54702528178163 77.37385244444444,95.54807472329966 77.39012906666667,95.54234053117246 77.39211022222223,95.53528853561895 77.41139626666667,95.52157321650978 77.41077831111112,95.51769820346036 77.41378346666667,95.51389604864934 77.42537244444445,95.51056742751373 77.42407111111112,95.4871043666076 77.4177336888889,95.42043817610022 77.41751608888889,95.41890732607116 77.41333902222223,95.4106885758956 77.41113742222223,95.40827209389556 77.41090844444444,95.40608186683878 77.41048248888889,95.39783476558588 77.41122275555556,95.39039896451018 77.41462186666666,95.38610943762077 77.41463057813903,95.38598557318561 77.41532361150387,95.3761308475386 77.41547804444444,95.3739346418693 77.41548231111112,95.37387374278615 77.416768,95.35723651222548 77.41661297777779,95.35594394481785 77.41533297777778,95.35556321284419 77.41497742222222,95.35556321284419 77.40738133333333,95.35338062116779 77.40160782222223,95.35213651865408 77.3958056650644,95.35073082702635 77.38589155555556,95.3483288559548 77.38589155555556,95.34794807667357 77.38596266666667,95.34518735612701 77.38219377777777,95.34414015372985 77.37516444444445,95.3424360315741 77.37516231111111,95.3425083863273 77.37288248888889,95.34194953884412 77.37198933333333,95.34167630150742 77.36534471111112,95.3574506684054 77.36051855260068,95.35965690771411 77.35524266666667,95.36206864543061 77.34525582222223,95.3748557331265 77.33683138744156,95.37577153715745 77.33256391111112,95.37623544104656 77.3294737754277,95.37917907633943 77.31778702222222,95.39031049426411 77.31538915555556,95.39463111787484 77.31610761227044,95.39613057316957 77.3173959111111,95.39881922585948 77.31666133333334,95.40647655095846 77.30834346666667,95.43487097887086 77.30604373333334,95.43853354353345 77.30596720243832,95.43856529099503 77.30178631111112,95.44029963341514 77.29674163725932,95.44864058963117 77.2951808,95.45122107709612 77.29028764444445,95.46357913638595 77.28847715555555,95.47521558029393 77.28308967045653,95.48182696830136 77.27585351111111,95.49070588440313 77.27595093333333,95.50083402202895 77.27157830492715,95.50592977258643 77.26853546666668,95.50947557015611 77.26719075555556,95.51230771312098 77.27799324444445,95.52429754057374 77.27830826666667,95.53056112980337 77.27218346666666,95.5369569450637 77.26430577777778,95.53545461936048 77.25403022222223,95.5415272821068z" stroke="#0E478F" stroke-width="0.003" stroke-opacity="0.8" fill="royalblue" fill-opacity="0.75"></path><path d="M77.25072711111112,95.35510823503404 77.25307093333333,95.36417193680646 77.26130204444445,95.37908515326775 77.26466133333334,95.3824684793728 77.27409422222223,95.38503058723822 77.27937635555556,95.39030859167677 77.27885582222223,95.39779862085007 77.27675804444445,95.40447267060881 77.27377706666667,95.40755217117831 77.27143253333334,95.41817516690728 77.27221404444445,95.42653267247513 77.27559111111111,95.43183752930395 77.27921564444445,95.43348688509394 77.28535182222222,95.42911005354225 77.29252906666666,95.41504104662634 77.29539413333333,95.40685601594726 77.29383111111112,95.39170222109223 77.28719004444446,95.38421049603322 77.27899591111111,95.37883872261693 77.27470364444444,95.3714691322067 77.27204835555557,95.36749898703164 77.27026062222222,95.35720034355235 77.26590506666668,95.34937313099246 77.25072711111112,95.35510823503404z" stroke="#0E478F" stroke-width="0.003" stroke-opacity="0.8" fill="royalblue" fill-opacity="0.75"></path><path d="M77.22626844444444,95.54521955525499 77.22697386666667,95.55693163843483 77.23358222222222,95.55081495276374 77.23428693333334,95.5455374352862 77.23833884444446,95.54157378088453 77.24021546666667,95.5322932570158 77.25482453333333,95.52416844640774 77.25277013333333,95.50629103370181 77.25520497777778,95.454658397094 77.25257955555556,95.44082811975898 77.24786204444445,95.43787861354494 77.24542720000001,95.43859057629324 77.24158506666667,95.44376322731891 77.23770453333333,95.45425166868267 77.23225813333333,95.48490840092612 77.23306311111111,95.49430149308297 77.24166115555556,95.50344626953591 77.23625884444445,95.51472295425499 77.22956302222222,95.51553560840291 77.22626844444444,95.54521955525499z" stroke="#0E478F" stroke-width="0.003" stroke-opacity="0.8" fill="royalblue" fill-opacity="0.75"></path></g><g data-fips="44" data-geo-i-d="44007" data-county="Providence"><path d="M76.94276124444444,95.02384329105246 76.94369991111111,95.09334994744295 76.94424252973361,95.11163500855595 76.9459969545504,95.17071781057913 76.94614588013967,95.17573046368581 76.9463744,95.18342136260723 76.9463744,95.18433768969288 76.94735217777777,95.21436938348316 76.9473656888889,95.21596164077023 76.94843871034597,95.24696330189482 76.94857813333334,95.25099034753492 76.94955227591552,95.29395214172291 77.01291804444445,95.2925270738387 77.03578026666666,95.29178768656139 77.11079964444444,95.2896895312513 77.12188231111111,95.28823068969236 77.1311744,95.28921405372645 77.15708515555556,95.28828119229988 77.16699733333334,95.28784953659357 77.17193173333334,95.28770755645755 77.18357404444444,95.28721586431385 77.18382293333333,95.28720633535733 77.18908444444445,95.28524619746126 77.19020231111111,95.28012972260557 77.1952952888889,95.27924151465224 77.19357297777778,95.27137764351892 77.19775146666667,95.2628864634611 77.20243982222223,95.25989215495557 77.2131000888889,95.25898744647795 77.21416106666668,95.25863566475326 77.22296675555556,95.2535293585828 77.22696746666668,95.25285147296862 77.2375232,95.26307044516443 77.237630305472,95.26318680758814 77.23693084444444,95.26048893109544 77.23697331710343,95.2537890531602 77.23698133333333,95.25252444529531 77.23318684444445,95.24282818606163 77.2333816888889,95.23817927190053 77.23913133208855,95.23685254201717 77.2399736888889,95.23665816580956 77.24680154074076,95.23848952839225 77.24690346666667,95.23851686649128 77.25062092124814,95.24306080735947 77.25146666666666,95.24409453671134 77.25180444444445,95.25626370698504 77.25332456612139,95.26314453033876 77.25358039492986,95.26430246211194 77.26430151111111,95.26136406513022 77.26763022222222,95.26177112212027 77.2745536,95.25533606343396 77.28020124444444,95.25010553033589 77.2816512,95.24877923403037 77.28503154360861,95.24537958583298 77.27794062222223,95.24123758197643 77.27687395555556,95.23923591768371 77.27694506666667,95.23523048510341 77.27488284444445,95.22998487895353 77.27367395555557,95.22788651046812 77.27232213333333,95.22760036373062 77.26983324444444,95.22616960995234 77.2688376888889,95.22426188615742 77.26876657777778,95.22244949340562 77.26921000864753,95.22078394384206 77.26983324444444,95.21844296083827 77.26983324444444,95.2164395960673 77.27011768888889,95.2147223739979 77.26990435555555,95.21405455238512 77.26421546666667,95.20060116280848 77.26585102222222,95.19592517776202 77.26961991111112,95.19210778177403 77.27104213333334,95.19048531624364 77.2727488,95.18876736459413 77.26805546666667,95.18094052893355 77.26777031111112,95.17989051126435 77.27324871915926,95.16419586214931 77.27360213333334,95.16318325587622 77.2711730005462,95.1539265230366 77.27087725072178,95.15279940887527 77.26876586666667,95.14475223682985 77.26983253333334,95.1334817438197 77.26983253333334,95.13329068438183 77.27025920000001,95.12870507837982 77.27021333779761,95.12871255971478 77.26957151437128,95.12881725794976 77.26030293333334,95.13032918658801 77.25900883511075,95.13050304248142 77.25888071111112,95.13052025529966 77.25333404444444,95.13138005709752 77.2517696,95.13157112251831 77.25127182222222,95.13166665500432 77.2472896,95.13233537821833 77.24529848888889,95.1325264406476 77.24330666666667,95.13290856371125 77.23980134798855,95.13364723143758 77.23968,95.13367280265936 77.23968,95.13314476495769 77.23968,95.11316815186568 77.23968,95.11301874454008 77.23968,95.10548515684272 77.2397511111111,95.1052940096946 77.23989262222223,95.0652354615797 77.23982151111112,95.06341833999707 77.23984660565291,95.04583219150956 77.23989262222223,95.01357077500734 77.20934618781746,95.01412591229033 77.18534860857295,95.01456203004768 77.15679409702258,95.01508095871611 77.15562311111111,95.01510223925742 77.154912,95.01519795449369 77.15409386433878,95.01528137597818 77.13613795555555,95.01711222761392 77.13592462222222,95.01720793968971 77.13484995802617,95.01723774734893 77.11328782222223,95.01783580717529 77.10086542222223,95.0180693415999 77.09378567371563,95.0182886889423 77.07965580421931,95.01872646333376 77.05220730778305,95.01957686904268 77.02693275284587,95.02035991147626 76.96639288888889,95.02223548346512 76.94276124444444,95.02384329105246z" stroke="#0E478F" stroke-width="0.003" stroke-opacity="0.8" fill="royalblue" fill-opacity="0.75"></path></g><g data-fips="44" data-geo-i-d="44009" data-county="Washington"><path d="M77.07510542222222,95.82985629419605 77.07612017777778,95.8365073315266 77.08444942222222,95.84246356863963 77.08892444444444,95.84302355956416 77.1186112,95.83794379376181 77.12209706666667,95.83608705849593 77.12435768888889,95.82887397308139 77.12394951111112,95.82548201177443 77.1198392888889,95.82371086370975 77.11219982222222,95.81483168878984 77.10879857777778,95.80709644421088 77.10995982222222,95.79670284214791 77.11469582222223,95.78803623474133 77.1171079111111,95.78008211249713 77.11644017777778,95.77642845024425 77.11211164444445,95.76944666076817 77.10308622222223,95.7654482031284 77.10104106666667,95.7692320421564 77.10058595555556,95.77842499308343 77.09850453333333,95.7877574087797 77.09187555555556,95.79558296174167 77.08800426666667,95.80329885715031 77.08048711111111,95.80920726890395 77.07510542222222,95.82985629419605z" stroke="#0E478F" stroke-width="0.003" stroke-opacity="0.8" fill="royalblue" fill-opacity="0.75"></path><path d="M76.89805582222222,95.68202008732392 76.89758435555555,95.68847783080253 76.90138168888889,95.69176561448513 76.91821866666668,95.6829488851736 76.95220835555556,95.67337809407621 76.96092302222222,95.6712588361047 76.9925354634558,95.66840524404876 76.99858488888889,95.66785915942795 77.01217351111111,95.66274413968449 77.02181688888889,95.65719867986593 77.06701866666667,95.64010264491364 77.11617351111111,95.6283097096826 77.13655182222223,95.62516353506297 77.13902919276623,95.62564278501871 77.14602595555556,95.62699629606897 77.16743466666667,95.62982019550266 77.17339164444445,95.61619036940887 77.18729173333334,95.59546976152333 77.18695466666667,95.57173933751697 77.18778257267407,95.57085985240337 77.1918592,95.56652906518232 77.1973696,95.56356661104445 77.19788554035257,95.56362511988917 77.19987911111112,95.56385119496099 77.20276480000001,95.56034787535995 77.20629191111111,95.55165464547251 77.20680177777778,95.54655843586124 77.20467484444445,95.54074533821357 77.20480426666667,95.53601835168814 77.21031751111111,95.53407658525784 77.2116216888889,95.53672822949386 77.21357937777779,95.53410505734908 77.21413617777779,95.52909186805303 77.21389724444445,95.52516322386295 77.21246506666667,95.52261454904846 77.21143111111111,95.50944613721114 77.21274265272818,95.50467570646049 77.2160448,95.49266326640024 77.21612444444445,95.48618305837971 77.21429475555556,95.47534477729405 77.21127182222223,95.47215657196105 77.1963968,95.44632657922658 77.19273813333334,95.4317595759452 77.21697555636587,95.42518107073106 77.22398577777778,95.42327822965464 77.2205253191365,95.36192368776739 77.19643875555556,95.36953833388586 77.19013973333334,95.38510764860918 77.17842204444445,95.38062651170502 77.16406684444445,95.3986556258264 77.16662968888889,95.41066004655698 77.15691022222222,95.41060108588178 77.13960604444445,95.41068382100676 77.1236928,95.41122872887087 77.05316764444444,95.41219300422844 77.0426616888889,95.41436684752891 76.94978938827215,95.41611731516329 76.94748750065516,95.48269240210179 76.94679586425629,95.50268179128567 76.94387648529793,95.58698496754036 76.94386986666666,95.58717596324712 76.9291448888889,95.58443545516815 76.91402737777778,95.59152828428597 76.91195520000001,95.59367493679312 76.9113088,95.59749112855869 76.9122624,95.60741780860286 76.91844053333334,95.61768788330939 76.91889829244467,95.6222302004059 76.91974186666667,95.63060006171125 76.9153863111111,95.63758335706743 76.91665706666667,95.64667277410341 76.9211768888889,95.65556857030369 76.91447964444446,95.66551526208714 76.89919075555557,95.67857744859282 76.89805582222222,95.68202008732392z" stroke="#0E478F" stroke-width="0.003" stroke-opacity="0.8" fill="royalblue" fill-opacity="0.75"></path></g></svg>