<svg version="1.1" xmlns="http://www.w3.org/2000/svg" preserveAspectRatio="xMinYMin meet" viewBox="75.77760711111111 92.07285367448526 1.4028095999999977 2.2591641678790637"><g data-fips="50" data-geo-id="50001" data-county="Addison"><path d="M75.77760711111111,93.04213907329682 75.77821866666667,93.04454107245411 75.78256213333333,93.04833183624885 75.78454257777778,93.049358624117 75.78800355555556,93.05425391935445 75.79010844444446,93.05500069042645 75.79423004444445,93.05745161525377 75.79678151111112,93.06000529474628 75.79894115555555,93.06557513459012 75.79919357443798,93.06660057604532 75.80017848888889,93.07060157948656 75.80019413333333,93.07529240750083 75.79646293333333,93.10028570300874 75.79549795555556,93.10372697048592 75.79547520000001,93.10643477599662 75.79644586666667,93.11076700490554 75.79959253333334,93.11894736515607 75.80051555555556,93.1372267791457 75.7983367111111,93.15290950409653 75.79893902222223,93.15591718535691 75.80378595555555,93.16859297787593 75.80639573333333,93.17982603069143 75.80737564444445,93.18241584293118 75.81618417777777,93.19434980978481 75.82128924444444,93.20486662592988 75.82289706666667,93.20953194171602 75.82282666666667,93.2109130172512 75.81914026666666,93.22029853900594 75.81759928888889,93.22563721144516 75.81721173333334,93.22980583220357 75.8179648,93.2321479013443 75.82311680000001,93.23701910641353 75.82402702222223,93.23842615876788 75.82417991111112,93.2393421544395 75.8231552,93.2420308989534 75.82108586666666,93.24523810377812 75.81734044444444,93.24725126752043 75.81270115555556,93.25209263439426 75.81141760000001,93.25508933056625 75.80959928888889,93.26215462052453 75.80978346666667,93.26355121595104 75.8113408,93.26691000557597 75.81634915555556,93.27091211579194 75.81809493333334,93.27323678226301 75.81914323433017,93.27567534420976 75.81917937777779,93.27575941943954 75.81989688888889,93.27812035222237 75.82063502222222,93.28347052972373 75.8212544,93.28524297669034 75.82706915555556,93.29058265554846 75.83111253333334,93.29367097566788 75.83463324444445,93.2978850152782 75.83605688888889,93.30523768383156 75.83661653333333,93.30695826285738 75.83957831111111,93.31166768457672 75.83949724444444,93.31312120669635 75.83673102222222,93.31932092263587 75.83079028804829,93.33013689995877 75.92435413333334,93.31902355598906 75.94217102222223,93.3167528856725 75.93318684444445,93.24727492819297 75.97783253333334,93.24232273914839 76.06759964444444,93.23798245282946 76.07692017777778,93.27914707224122 76.11814897777778,93.25787099547614 76.10816284444444,93.21828247971018 76.10299377777778,93.22100868041554 76.10299875555556,93.2026023986398 76.12225208888889,93.21021557816131 76.1766712888889,93.18269120116193 76.17836373333333,93.22087848846586 76.18468764444444,93.22324951485317 76.21949866666668,93.14809847368156 76.22611057777777,93.14543011733777 76.23727217777778,93.12434366418896 76.27214008888889,93.05732402726451 76.21578453333333,93.03459211905198 76.1622016,93.01378448147895 76.15358648888889,93.01484651696836 76.13561955555555,92.92467614409907 76.12290346666667,92.92700366672025 76.11345991111112,92.85745324055284 76.10786275555556,92.79586273025816 76.07439786666667,92.78560506870363 76.0771392,92.80389749990637 76.03980800000001,92.8051570543758 75.9942520888889,92.8141052671582 75.94894222222223,92.82246820704357 75.8966200888889,92.82895037423498 75.86601099336313,92.82488608852832 75.8637383111111,92.83127079130779 75.86147413333335,92.83943371658344 75.85877617777778,92.84504246009475 75.85800462222223,92.8453233794522 75.85470435555555,92.84443991825785 75.85386666666668,92.8446880828646 75.85134791111112,92.84794688262613 75.84940231111112,92.84935040346863 75.84481422222223,92.85084719050943 75.84546702222222,92.85433888276972 75.84007893333333,92.85848239111661 75.83942684444445,92.86286178473011 75.83662435555556,92.86518780092453 75.83626524444445,92.86591118895727 75.83624817777778,92.86920154878271 75.83437653333334,92.87253637156118 75.8318392888889,92.87830960013713 75.83145742222221,92.88012409566487 75.82529564444445,92.884091186234 75.82406755555556,92.88645305949129 75.82201671111112,92.88873151706564 75.8203072,92.88914315752329 75.81706524444445,92.89139968924437 75.81583146666667,92.89538684220821 75.81487928888889,92.89594323670433 75.8126208,92.89621994429453 75.81114097777778,92.89764015761848 75.81098311111111,92.89943917718995 75.81179875555556,92.90719693887718 75.8112832,92.9089450945626 75.80738702222223,92.91261476241087 75.80665457777779,92.9145372551641 75.806304,92.91676802105738 75.80681671111111,92.91950926792725 75.80771626666667,92.92142062912424 75.80762168888889,92.92219487124899 75.80534897777778,92.92603519858633 75.80470471111111,92.93289640503633 75.80275128888889,92.94228192966989 75.80212053333334,92.94382886050103 75.79867164444444,92.94870623109585 75.79611022222223,92.95024011081927 75.79323662222222,92.95519323721953 75.79322311111112,92.95648421128254 75.79466595555556,92.96188855559208 75.7961088,92.97033636382437 75.79639751111111,92.9751441754849 75.79283982222222,92.98827994814235 75.78365226666668,93.00808895051655 75.78296391111111,93.0157086024469 75.7816952888889,93.02388937003053 75.77760711111111,93.04213907329682z" stroke="#0E478F" stroke-width="0.0075" stroke-opacity="0.8" fill="royalblue" fill-opacity="0.75"></path></g><g data-fips="50" data-geo-id="50003" data-county="Bennington"><path d="M75.88527146666667,94.25337688519569 75.88199537777778,94.25930676229419 75.89232284444445,94.31346172563876 75.90047502222222,94.31353822354458 75.98756023635421,94.31589317780882 76.07252266983204,94.31819063890889 76.07260231111111,94.31819279243999 76.13848119337315,94.32010266865285 76.1394432,94.29245403522836 76.14149404444444,94.23216778307224 76.14479928888889,94.1381580517021 76.0831552,94.13495797610128 76.08690062222222,94.04476586354454 76.0898296888889,93.960645307457 76.09093262222223,93.9531543435866 76.09109333333333,93.9511075589073 76.18223146666668,93.9568794867094 76.18493795555555,93.9051713408687 76.18702648888889,93.86726634409703 76.19456497777777,93.86704683717764 76.1970360888889,93.81124825728044 76.21733831111112,93.81807362645833 76.21696,93.77537826620825 76.18282524444444,93.77388134044288 76.10601742222222,93.77026393983911 76.09507768888889,93.78277244801873 76.098752,93.76988870253138 76.00163271111111,93.7661225176444 75.90790119566236,93.76027035977137 75.90649386666666,93.81441106868685 75.9049471538568,93.84242491751328 75.90491164444444,93.84306790416906 75.9044362437809,93.85578780718299 75.90003626666667,93.97338557722202 75.89958657713423,93.98221398726449 75.89704533333334,94.03207974305047 75.89686417890432,94.03714569207533 75.89383537777778,94.12178196153891 75.89376497777778,94.1229185253957 75.89371306666666,94.12497885660196 75.89358237042852,94.13073107924569 75.89276160000001,94.16684231467823 75.89085424356082,94.22474849773809 75.89072142222223,94.22877878897812 75.88671217777778,94.2272815585915 75.88594631111111,94.22811648248165 75.8847552,94.24164528282367 75.88711111111111,94.24772948415779 75.88527146666667,94.25337688519569z" stroke="#0E478F" stroke-width="0.0075" stroke-opacity="0.8" fill="royalblue" fill-opacity="0.75"></path></g><g data-fips="50" data-geo-id="50005" data-county="Caledonia"><path d="M76.49433102222223,92.57825580480655 76.49115377777778,92.58418588998512 76.57153635555557,92.62756968573703 76.64091733333333,92.66540913983553 76.64336568888889,92.66890996312074 76.64561493333333,92.67884474250721 76.60810666666667,92.74934203715765 76.57413617777777,92.7909308523186 76.57507413333335,92.8165603477541 76.5380600888889,92.88457626585154 76.58312533333334,92.90531287819303 76.67599573333334,92.89635383459373 76.68185102222223,92.89758858623006 76.76745457777778,92.93083971352685 76.77109399399062,92.93039777450821 76.76985813333333,92.92745369660818 76.76615608888889,92.92647829705137 76.76229617777778,92.92042926700734 76.75911395555556,92.90898674028858 76.75638186666667,92.90352593927079 76.75294862222223,92.89874397277303 76.75407857777778,92.8916268254133 76.75480106666666,92.89013108279238 76.75728568888889,92.88815819130772 76.7580536888889,92.88650364876044 76.75870862222223,92.88258235456618 76.75832533333333,92.88045147267412 76.76214542222222,92.87185870653201 76.76235171305457,92.87086817231787 76.76255146666666,92.86990901147445 76.76167111111111,92.86607690210153 76.76189724444444,92.86276552694477 76.76397795555556,92.85528174283786 76.76594560000001,92.85040649592233 76.76553955555555,92.84770766531324 76.76436480000001,92.84489455501367 76.76160711111112,92.84203564494413 76.75748835555557,92.83300930609428 76.7564984888889,92.8257024297601 76.75410204444445,92.8211146857673 76.75273671111111,92.8207830037187 76.75180515555556,92.81815629338621 76.75346915555556,92.81194010229271 76.75812977777778,92.80299553094684 76.76205866666668,92.79876264675687 76.76707413333334,92.79729035361773 76.77226382222221,92.79283947097355 76.77366755555556,92.79147731380499 76.77620266666666,92.78745921197633 76.77685973333334,92.78559711940946 76.77701902222222,92.78269058611798 76.77700195555556,92.77367195839395 76.77596017777778,92.77208473436252 76.77643662222222,92.7690870788484 76.77933440000001,92.76706635740159 76.78166542222222,92.76740828469312 76.78639644444445,92.76906918786887 76.78965831111111,92.76842411499479 76.79290524444444,92.76751066369562 76.79835448888889,92.7646081989894 76.80831573333334,92.75974028230449 76.80961137777778,92.75829881587603 76.81091862705252,92.75337986016962 76.81093902222223,92.75330311334179 76.81342577777778,92.75205337514373 76.82621653333334,92.75299192407583 76.82978204444446,92.75200962885039 76.83899520000001,92.7518107816487 76.84334293333333,92.7536998026815 76.84594133333334,92.75377337384124 76.85041066666668,92.75197681910882 76.85327075555556,92.74755528895932 76.8587136,92.74306978269337 76.86619804444445,92.74133057423394 76.8694528,92.74211118593627 76.88398577777778,92.74935993419146 76.88827520000001,92.75218262536413 76.89068657777779,92.75292034036752 76.89250844444445,92.75258827034878 76.8981752888889,92.74945936205704 76.90479786666667,92.7486997288626 76.91070648888889,92.74538765223772 76.91539942980332,92.74186732226204 76.84743964444445,92.64888591673538 76.86858097777778,92.63563965157778 76.90194702222222,92.59407632881496 76.86495502222222,92.54330816356564 76.87245440000001,92.53255380588614 76.91183502222222,92.47932848678096 76.86379946666668,92.44348362253372 76.91570204444444,92.37387592740701 76.84271217777778,92.32141912737063 76.7971712,92.3855402159503 76.79110826666667,92.39170211852613 76.71857564444444,92.34085556331505 76.73680782222222,92.4068134630831 76.69575182222223,92.3870259757656 76.63115875555556,92.51362780645357 76.61300266666667,92.54804156533383 76.53348551111111,92.50633264729953 76.49433102222223,92.57825580480655z" stroke="#0E478F" stroke-width="0.0075" stroke-opacity="0.8" fill="royalblue" fill-opacity="0.75"></path></g><g data-fips="50" data-geo-id="50007" data-county="Chittenden"><path d="M75.83183216550842,92.52690349551378 75.8328263111111,92.52787403556015 75.83517297777779,92.53249292837775 75.83631217777778,92.53349091226625 75.8399808,92.53501380262537 75.84502613333333,92.53849155125157 75.84799928888889,92.54234427436444 75.84808533333334,92.54354364545262 75.8476088888889,92.54590539614895 75.84782577777779,92.54707775468083 75.85308800000001,92.55443862781429 75.8535872,92.55608965792189 75.8538040888889,92.55931676255109 75.85460764444444,92.5611432143576 75.85528035555555,92.56186639759346 75.85853511111111,92.5632209703854 75.85989262222223,92.56504729946533 75.86048721445093,92.56999821815074 75.86054328888889,92.57046510457705 75.8603264,92.57385895453336 75.86073884444444,92.5766742135996 75.861856,92.57834056730675 75.86640284444445,92.58304120232145 75.87078613333334,92.58993291833929 75.87205617777778,92.59803303009343 75.87241386666668,92.60448240432916 75.87563733333333,92.61353922808846 75.87631004444444,92.61886880909117 75.87646222222222,92.62618970912106 75.8754744888889,92.6354015537986 75.87895751111111,92.64419458551745 75.88009742222224,92.64949845117553 75.87996037060715,92.65188039152716 75.87992533333335,92.6524893194242 75.87837795555556,92.66166812411029 75.8680952888889,92.68729180435218 75.86672497777778,92.69514549702399 75.86487751111112,92.70131245626354 75.86344604444444,92.70383497934728 75.86065493333334,92.70712752855445 75.85395982222222,92.7137757415058 75.85168,92.71745571156356 75.85071004444444,92.72526157229474 75.8509248,92.73278492704699 75.85611733333333,92.7452235847091 75.85638748331036,92.7462218474144 75.85768746666668,92.7510253285713 75.85849102222222,92.7556901680947 75.85860622222222,92.76406446778753 75.85810133333334,92.7701982967099 75.85832604444444,92.77936553316208 75.85972124444444,92.78781194960297 75.86358186666666,92.8015620868337 75.86680960000001,92.80916897135111 75.86771555555556,92.81491470036799 75.86641635555556,92.82374722105152 75.86601099336313,92.82488608852832 75.8966200888889,92.82895037423498 75.94894222222223,92.82246820704357 75.9942520888889,92.8141052671582 76.03980800000001,92.8051570543758 76.0771392,92.80389749990637 76.07439786666667,92.78560506870363 76.10786275555556,92.79586273025816 76.11345991111112,92.85745324055284 76.12290346666667,92.92700366672025 76.16285866666668,92.81288464051275 76.15189475555556,92.80743669936673 76.17483448888889,92.75948380329801 76.19157902222223,92.72415745516122 76.21254257777778,92.7304844590722 76.22793600000001,92.6993670038847 76.20328391111111,92.68654131369541 76.2275591111111,92.63842502434815 76.2036352,92.63090042583245 76.22857457777778,92.58411210417782 76.20924017777779,92.57388288929789 76.22446293333334,92.54246900212898 76.21043697777779,92.53812632258916 76.15248213333334,92.45965667280268 76.14285368888889,92.45746228745679 76.06184675555556,92.43936643467589 75.9977272888889,92.40500215018142 75.92614826666667,92.36764206943195 75.92305137777778,92.44073186611215 75.90915128888889,92.44947746151166 75.907936,92.48259282301692 75.90515342222223,92.49010269612441 75.89849457777778,92.49943899255715 75.87995662222222,92.51204345609142 75.83183216550842,92.52690349551378z" stroke="#0E478F" stroke-width="0.0075" stroke-opacity="0.8" fill="royalblue" fill-opacity="0.75"></path></g><g data-fips="50" data-geo-id="50009" data-county="Essex"><path d="M76.81826275555557,92.30390091200269 76.84271217777778,92.32141912737063 76.91570204444444,92.37387592740701 76.86379946666668,92.44348362253372 76.91183502222222,92.47932848678096 76.87245440000001,92.53255380588614 76.86495502222222,92.54330816356564 76.90194702222222,92.59407632881496 76.86858097777778,92.63563965157778 76.84743964444445,92.64888591673538 76.91539942980332,92.74186732226204 76.91856995555557,92.73948888583433 76.9235584,92.73762923860889 76.92882631111111,92.73670138173571 76.93201706666667,92.73510817824189 76.93304746666668,92.73410767987757 76.93354240000001,92.7323085297642 76.93335253333333,92.7311936056613 76.93156195555555,92.72601255893113 76.9307328,92.72216004416136 76.93120711111112,92.72088974268163 76.93309724444445,92.71928615890177 76.93352177777778,92.71824758605685 76.93338737777779,92.71721297401089 76.93137706666667,92.71516160233836 76.93100586666668,92.71429606498003 76.93199075555556,92.70786083919583 76.93288533333333,92.70699618836035 76.93594453333333,92.70594048104343 76.93976106666668,92.7064648545528 76.94199751111111,92.70552854104788 76.94229404444445,92.70386184586908 76.93974115555555,92.69945059499048 76.93974186666667,92.69795190767326 76.94054897777778,92.69646910471175 76.94654293333333,92.69060618984497 76.94884408888889,92.68962184699994 76.95743075555555,92.6900806782427 76.95971626666667,92.68875991128988 76.96156373333334,92.68679811397428 76.96505742222223,92.68446099061856 76.96662117160369,92.68360227562513 76.96712746666667,92.68332424679863 76.96926862222223,92.68288626602428 76.9734464,92.68350939222617 76.97469155555557,92.68432959929734 76.97810986666667,92.68793478998002 76.98132551111111,92.68852800262168 76.9826816,92.68823139705624 76.98324764444445,92.68752570861426 76.98494506666667,92.68313412373081 76.98642773333333,92.68100092025867 76.98778808888889,92.67986510435055 76.99091911111111,92.67891641728892 76.99470293333334,92.67854808761119 77.0026048,92.67943904323829 77.0076152888889,92.67795875527993 77.01373582222223,92.6738850315021 77.01979022222223,92.66874269307762 77.02339555555555,92.66658108279213 77.02759111111111,92.66209730261708 77.02815431111111,92.65784919223088 77.0276032,92.65596901063671 77.02807964444445,92.65501694636677 77.02941582222222,92.654335752749 77.0354176,92.6535181106992 77.03879751111111,92.65169754608708 77.04047644444445,92.6497633827733 77.04247395555556,92.6451428426239 77.04368853333334,92.6361068782787 77.0465080888889,92.62963510581287 77.04723911111111,92.62901937320234 77.0523960888889,92.62958927480747 77.05397262222223,92.62840463042107 77.05571271111111,92.62596153654815 77.0553976888889,92.62421882654317 77.05134151111112,92.62129526092899 77.05040782222223,92.62019215964517 77.05018453333334,92.61815231380925 77.05052942222223,92.61705413561862 77.05181155555556,92.61504507357122 77.05378773333334,92.61354221789313 77.05648924444445,92.6123592398528 77.06112355555555,92.60632537846092 77.06239502222223,92.6058937948406 77.07191893333334,92.60450632648765 77.07312142222223,92.6042780688243 77.07764053333334,92.6058688765199 77.08481422222222,92.60376872207402 77.08592568888889,92.60185489401319 77.08765582222223,92.59582492691096 77.08783217777778,92.59352601796313 77.09048746666666,92.59060988166891 77.09268622222223,92.58978536122095 77.09493973333333,92.58896082907765 77.09868515555556,92.58849322342675 77.09954844444445,92.5883566300214 77.10034275555556,92.58758192996362 77.10075164444444,92.5862368985176 77.10025173333334,92.58539436852561 77.09636764444444,92.58202213214005 77.09514026666668,92.58015445518177 77.09443555555556,92.57687266277708 77.0937536,92.57564206750237 77.09005013333334,92.57254352460686 77.08873173333333,92.57058378795236 77.08852693333334,92.56864692475294 77.08952533333334,92.56732439507529 77.09361493333334,92.5678929069964 77.09459128888889,92.56766450550705 77.09688533333333,92.56593101865104 77.10088248888889,92.56002600325036 77.10260906666667,92.55669718528773 77.10363093333333,92.55405155173025 77.10358542222222,92.55238749423903 77.10208497777778,92.5495151869354 77.09292373333334,92.54253984737997 77.08671715555555,92.53697773332868 77.08578417777778,92.5349938436391 77.08601102222222,92.5332374259835 77.08719146666667,92.52951883467453 77.08876586666666,92.52660946475484 77.09006862222223,92.52530693801316 77.09143466666667,92.52473202036342 77.10185315555556,92.5256492907844 77.10606293333333,92.52764348050488 77.11047182222222,92.52720332740267 77.11299840000001,92.52630404731372 77.11390933333334,92.5248537915908 77.11361066666666,92.52165272042633 77.11385955555556,92.51969725522744 77.11610097777779,92.5122770681255 77.11772444444445,92.50976918382874 77.11918577777777,92.5100467336809 77.12051911111111,92.51128570802331 77.12181475555556,92.51190169106536 77.12361102222222,92.5111718952061 77.12702364444445,92.50793312817795 77.1287296,92.5056736716666 77.12977706666668,92.50202321052316 77.12668373333334,92.50001416076131 77.12052053333333,92.49729703998958 77.1175488,92.49702042776366 77.11671893333333,92.4946906414278 77.11683626666667,92.49207014417183 77.11572337777778,92.48909897231205 77.11588906666667,92.4870015829267 77.1165632,92.48531462759507 77.11724586666668,92.48341986558208 77.11708657777778,92.48090873613162 77.11533511111111,92.4735115597071 77.115904,92.46638720212738 77.11668195555556,92.46512029161292 77.1172280888889,92.46509731111937 77.11775573333334,92.46386334515907 77.11877546666668,92.46291112514018 77.11670471111113,92.45831566940218 77.11137848888889,92.45393570828222 77.1110144,92.4532501539675 77.1110144,92.45101255221923 77.11370026666667,92.45039592235892 77.11429262222222,92.44872789073533 77.11427549558947,92.44861385292424 77.11390506666667,92.44614729430461 77.1116288,92.44029904981895 77.10975217777778,92.43769708607994 77.10851982222223,92.43666146602412 77.10745244444445,92.43696435681562 77.10671857777778,92.43898658712403 77.10561066666668,92.44004015815918 77.10423964444445,92.44015011228718 77.10211911111111,92.43991121168884 77.10145493333334,92.43851177418435 77.10128924444444,92.43734521724801 77.10171733333334,92.43595071607189 77.10150186666667,92.43483409130437 77.09655822222223,92.43390438730906 77.0952192,92.4327097457697 77.09398897777778,92.43104820338144 77.09398897777778,92.42941560661956 77.09493617777778,92.42700411809471 77.09541404444444,92.42517643889562 77.09465244444445,92.42288375980863 77.09465244444445,92.42125093305721 77.09548231111111,92.42031701146678 77.09686968888889,92.41827513047156 77.09725653333334,92.41699516838509 77.09652693333334,92.41569217794238 77.09342933333333,92.41560217752081 77.09153848888889,92.41498517086697 77.0870727111111,92.41144500570931 77.08700444444445,92.41085095680549 77.08823395555555,92.40888475150794 77.08855182222223,92.40671244712337 77.08697813333335,92.4034678408417 77.0858368,92.3977073168619 77.08667875555555,92.39560361757248 77.08540017777777,92.39251845391138 77.08432924444445,92.39160407747323 77.08389546666666,92.39062165694392 77.08389546666666,92.38970725056308 77.08500977777778,92.38664278344699 77.08462222222222,92.38520203768444 77.08095146666668,92.38236846646296 77.07513315555556,92.37157821486042 77.071392,92.3678982823103 77.07127751111112,92.36659418699207 77.07204906666668,92.3624535146904 77.07188906666667,92.36158470660467 77.0708856888889,92.36121936290505 77.06837831111112,92.3627307698261 77.06789973333333,92.36270874961114 77.06672213333334,92.36147059950497 77.06623217777778,92.36018938154268 77.06621297777778,92.35543161076197 77.06662471111112,92.35339544967354 77.06653866666667,92.34650861007741 77.06530915555555,92.34325862622113 77.0623224888889,92.34179176843642 77.06180206639289,92.34038768059278 77.06171235555556,92.3401456393888 77.06177208888889,92.33801281131804 77.06221866666667,92.33722174242533 77.06743182222222,92.3353371524579 77.0716864,92.33458810603193 77.07431964444444,92.33180313046941 77.07429902222222,92.32984225101129 77.0760768,92.32611359260937 77.07858915555556,92.32479853972957 77.08116266666667,92.32271522645968 77.08339840000001,92.31837909015849 77.087264,92.31501833592284 77.08735075555556,92.31416684706855 77.08680533333333,92.31302082345911 77.08661404444445,92.31144700753461 77.0894464,92.30765103978419 77.09554346666667,92.30468842894899 77.09866311111111,92.3049419149469 77.09942186666667,92.30435077986661 77.1034688,92.29852727542385 77.10456462222223,92.29557321589363 77.10355271111112,92.29244964485085 77.10549191111112,92.2851045294917 77.1064192,92.28333250222185 77.1063352888889,92.28155941831409 77.10374115555557,92.27998574826884 77.10212337777779,92.27679617860295 77.10186666666667,92.274297125045 77.10271004444445,92.27227113831293 77.10726613333333,92.26650355422123 77.10922951111111,92.26565536103539 77.109504,92.26643437581059 77.11025706666668,92.26643437581059 77.11128462222221,92.26570148060662 77.11454435555557,92.2558862058155 77.11736035555556,92.25423762962438 77.11842275555556,92.25252281981358 77.11857422222224,92.25108574994337 77.11811271111111,92.24823657553273 77.11641884444445,92.24454176633074 77.1152,92.24340940643606 77.1151608888889,92.2414575630589 77.11601777777778,92.23971328545801 77.11740017777778,92.2381324570446 77.1211768888889,92.23471487112218 77.12115413333333,92.23322419062912 77.11978382222223,92.23068011407507 77.11987484444445,92.22861648071479 77.1203320888889,92.22763028472582 77.12291484444445,92.22407662910413 77.12702862222223,92.22157730103133 77.13095964444445,92.22050068037764 77.13482382222222,92.21662648604048 77.13501226666666,92.2132457606781 77.13540124444445,92.21235162657379 77.13661297777777,92.21106810347207 77.13963164444445,92.20934900086047 77.14681457777777,92.19987947093915 77.14722702222222,92.19854949735888 77.145536,92.19696553413095 77.14535111111113,92.19614743724331 77.14569244444445,92.19546082918916 77.14941013333333,92.1923940809444 77.15379697777779,92.1873574341521 77.15478186666667,92.18563762531365 77.1558912,92.18529526378957 77.15771164444445,92.18584645480625 77.15851093333333,92.18508844030131 77.15987911111111,92.17912136391523 77.15953564444445,92.17820360636077 77.1549952,92.17549442945291 77.15236764444445,92.1709483898404 77.14900835555555,92.1665626837329 77.14475448888889,92.16265774888598 77.14350293333334,92.15021503241084 77.14407537777778,92.1490677605805 77.14453475555557,92.146381327281 77.14359893333334,92.14229417230719 77.14500053333333,92.13108717029971 77.1440192,92.12523008498005 77.13964800000001,92.12348229103384 77.13623964444444,92.11608448551905 77.1330808888889,92.11371718828968 77.12868693333334,92.10539820719751 77.12811235555556,92.10149314990535 77.12925866666667,92.09546512826887 77.13415751111111,92.08995539731828 77.1377664,92.08771776717931 77.14131768888889,92.08730543034598 77.14516693333334,92.08562990446597 77.15739591111111,92.08570935727383 77.16439822222222,92.08866814205655 77.1700544,92.08668792527709 77.17955768888889,92.07758147134783 77.1804167111111,92.07589258590957 77.15478186666667,92.0761551258479 77.11248924444445,92.07698196795062 77.07744711111111,92.07682706169611 77.01909475555556,92.0781246401798 76.96536746666666,92.07810653463454 76.8727775710779,92.08134254534502 76.85083733333333,92.18276112296684 76.8892920888889,92.21379367439874 76.85273457777778,92.25807621239758 76.81826275555557,92.30390091200269z" stroke="#0E478F" stroke-width="0.0075" stroke-opacity="0.8" fill="royalblue" fill-opacity="0.75"></path></g><g data-fips="50" data-geo-id="50011" data-county="Franklin"><path d="M75.90466844444444,92.31846924183057 75.90661617777778,92.33102199135519 75.92614826666667,92.36764206943195 75.9977272888889,92.40500215018142 76.06184675555556,92.43936643467589 76.14285368888889,92.45746228745679 76.14102115555556,92.44328971444436 76.1438656,92.4407528571204 76.15804942222222,92.44434620581441 76.16645404444445,92.43358148662637 76.19479608888889,92.37944670124826 76.23430755555556,92.39832550783625 76.24316017777778,92.35019991382944 76.2513400888889,92.35022894674744 76.25455644444445,92.3240844124289 76.26208,92.32401730604434 76.27050453333334,92.30396303204961 76.31940195555555,92.29619149660608 76.36472746666668,92.28880175767127 76.37795982222222,92.29979583133668 76.3888632888889,92.3088512697675 76.4212352,92.2569641727238 76.41689386666667,92.16438025143927 76.4174016,92.1539570695819 76.40578849248541,92.08128742882832 76.4046848,92.08125781967203 76.38586951111112,92.07799991297506 76.38275413333334,92.07665404902333 76.38052977777778,92.07629595137544 76.32016355555557,92.0740608084444 76.30035601931215,92.07394767602833 76.24724906666667,92.07364435008665 76.19866097777778,92.07285367448526 76.13824071111111,92.07436962948532 76.13414044444445,92.074868568125 76.13408711111111,92.07525986980065 76.11161671111111,92.0754298689292 76.07838862222223,92.07454264901921 76.07783893333334,92.07445010375176 76.05448106666667,92.07473377464436 76.05159964444445,92.07379725302188 76.04644622222223,92.0736483738533 76.04259697777778,92.07473779833492 76.0284664888889,92.07477300561533 76.02775324444445,92.07402560072872 75.96789332430166,92.07552269592395 75.9524066841679,92.07591001009453 75.92553884444445,92.13051736674481 75.91751537777778,92.14029771083473 75.9247808,92.1625372220009 75.95179591111112,92.1813534419983 75.95091911111112,92.20329410052435 75.94036337777777,92.26686548629532 75.91688533333334,92.28601257219357 75.90466844444444,92.31846924183057z" stroke="#0E478F" stroke-width="0.0075" stroke-opacity="0.8" fill="royalblue" fill-opacity="0.75"></path></g><g data-fips="50" data-geo-id="50013" data-county="Grand Isle"><path d="M75.81157973333333,92.47088211325496 75.81139128888888,92.47214789889864 75.81168355555556,92.4732897796925 75.81658168888889,92.4783105916193 75.81815040000001,92.48524770769248 75.82090737777777,92.49088169368389 75.82127502222222,92.49325857032018 75.82093795555555,92.49501919390146 75.82016213333333,92.49662398122757 75.81750044444445,92.49988434899107 75.81735253333333,92.50114950209999 75.82023537777779,92.50533120107261 75.82174862222223,92.50841635889608 75.82265671111112,92.51498849628777 75.82771555555556,92.52288445999895 75.83183216550842,92.52690349551378 75.87995662222222,92.51204345609142 75.89849457777778,92.49943899255715 75.90515342222223,92.49010269612441 75.907936,92.48259282301692 75.90915128888889,92.44947746151166 75.92305137777778,92.44073186611215 75.92614826666667,92.36764206943195 75.90661617777778,92.33102199135519 75.90466844444444,92.31846924183057 75.91688533333334,92.28601257219357 75.94036337777777,92.26686548629532 75.95091911111112,92.20329410052435 75.95179591111112,92.1813534419983 75.9247808,92.1625372220009 75.91751537777778,92.14029771083473 75.92553884444445,92.13051736674481 75.9524066841679,92.07591001009453 75.91746773333334,92.07678380857664 75.91159253333333,92.07735816712027 75.8448896,92.0787070321824 75.83986631111111,92.09533742190737 75.8375616,92.09949929693929 75.83670542222222,92.10232767202027 75.83707591111111,92.10563547815613 75.83794773333334,92.10907177600467 75.83984497777779,92.11351714470612 75.84374044444445,92.11930103934395 75.84801137777778,92.12390642991367 75.84836053333333,92.12504817215178 75.84860017777778,92.12927825068908 75.84739342222223,92.14653202804877 75.84819057777779,92.16587672794557 75.84783715555557,92.17233523600041 75.84632462222223,92.1753970252459 75.84512952275044,92.17623017017016 75.84153813333334,92.17873377880716 75.83739946666667,92.18271292903626 75.83557831111112,92.18557838988733 75.83425422222223,92.18875794114601 75.83265635555556,92.19286288737936 75.83130382222222,92.19865790389952 75.82829582222222,92.21514035599361 75.82641564444445,92.22352881293685 75.82437902222223,92.22780886469869 75.82171804444445,92.22948327589981 75.81879324444445,92.23320312420923 75.81767324444444,92.24146057211792 75.81770026666666,92.24525587382566 75.81905635555556,92.25228715483888 75.81957902222223,92.25294099742408 75.8219768888889,92.25399495202896 75.82483271111111,92.25957527619789 75.8260288,92.2611855984039 75.8288512,92.26387772429754 75.83425422222223,92.2670269012541 75.83648355555556,92.26884153529869 75.83753102222222,92.26995835909102 75.83985777777778,92.27396030090048 75.85035164444444,92.28578005047595 75.851072,92.2881994332832 75.85142542222222,92.29119395581569 75.85197937777778,92.30165653007143 75.85154062222223,92.30523046682558 75.85015964444445,92.30834232720656 75.84408604444444,92.31415682947801 75.84208213333334,92.31745652997253 75.84092871111112,92.32220640585889 75.83689884444445,92.33517592804337 75.83454506666668,92.33945973846639 75.83019306666667,92.34523106579566 75.82893440000001,92.34870319712383 75.82928497777779,92.36485968469742 75.82893511111111,92.39022548264745 75.8319480888889,92.39515545873279 75.83195875555556,92.39600175577631 75.82912213333334,92.40298073413803 75.8256768,92.405674272896 75.82600177777778,92.406769456152 75.82761671111112,92.40923579305333 75.8277624888889,92.41201504691136 75.82500337777778,92.41299810479258 75.8244672,92.41357213087866 75.82384355555556,92.42178888106088 75.82573155555556,92.42445654942964 75.82601315555556,92.42704910947074 75.82535822222222,92.42800891717272 75.82359964444444,92.42781395751958 75.82283804444445,92.42818687977079 75.81932515555556,92.43375343396303 75.81940053333334,92.43534492231387 75.82007893333333,92.4366784599388 75.82010808888889,92.43760612019454 75.8164216888889,92.4447570028425 75.81968995555556,92.44904371107035 75.81884586666666,92.4501580633831 75.81384320000001,92.45414656956845 75.81356871111112,92.45497301849768 75.81447182222223,92.45946781503432 75.81404657777777,92.46358457512457 75.81344284444445,92.46683381146092 75.81157973333333,92.47088211325496z" stroke="#0E478F" stroke-width="0.0075" stroke-opacity="0.8" fill="royalblue" fill-opacity="0.75"></path></g><g data-fips="50" data-geo-id="50015" data-county="Lamoille"><path d="M76.14102115555556,92.44328971444436 76.14285368888889,92.45746228745679 76.15248213333334,92.45965667280268 76.21043697777779,92.53812632258916 76.22446293333334,92.54246900212898 76.20924017777779,92.57388288929789 76.22857457777778,92.58411210417782 76.2036352,92.63090042583245 76.2275591111111,92.63842502434815 76.25539128888889,92.64747058892081 76.33465031111112,92.69164824144022 76.37560391111111,92.61090814041185 76.44948337777778,92.66695446662823 76.45116586666667,92.66430289165794 76.49115377777778,92.58418588998512 76.49433102222223,92.57825580480655 76.53348551111111,92.50633264729953 76.53820373333333,92.4981827894022 76.4570296888889,92.4565859090871 76.46104817777778,92.44867791900572 76.50324266666667,92.36761504691384 76.3888632888889,92.3088512697675 76.37795982222222,92.29979583133668 76.36472746666668,92.28880175767127 76.31940195555555,92.29619149660608 76.27050453333334,92.30396303204961 76.26208,92.32401730604434 76.25455644444445,92.3240844124289 76.2513400888889,92.35022894674744 76.24316017777778,92.35019991382944 76.23430755555556,92.39832550783625 76.19479608888889,92.37944670124826 76.16645404444445,92.43358148662637 76.15804942222222,92.44434620581441 76.1438656,92.4407528571204 76.14102115555556,92.44328971444436z" stroke="#0E478F" stroke-width="0.0075" stroke-opacity="0.8" fill="royalblue" fill-opacity="0.75"></path></g><g data-fips="50" data-geo-id="50017" data-county="Orange"><path d="M76.23727217777778,93.12434366418896 76.24305208888889,93.15682558145106 76.2997184,93.17619477166775 76.3915072,93.21171698556765 76.47279502222223,93.24628905877366 76.56003484444444,93.27446461058221 76.65407658732067,93.3126473513439 76.65439288888889,93.31233339428167 76.65385173333333,93.30148414551378 76.6540088888889,93.29932213279835 76.65488355555556,93.29772347280198 76.65988551111111,93.29387291759267 76.66094079999999,93.29240906922124 76.6626247111111,93.28925172187105 76.66435271111112,93.2832320975435 76.66855324444444,93.27939833017072 76.66962986666667,93.27597029124412 76.6690247111111,93.27168668633422 76.66743182222223,93.26840208242584 76.66590577777778,93.26318260471106 76.66612977777778,93.26147257316717 76.6675640888889,93.25748756330137 76.66962702222223,93.25377336601157 76.67043342222222,93.25048776197171 76.66996337777779,93.23956696066963 76.66675271111112,93.2311824870909 76.66637084444444,93.22870330168283 76.6685952,93.22153634938087 76.66989795555556,93.21962093774786 76.67243662222224,93.21878650101505 76.67571626666667,93.21858430120625 76.68090595555556,93.21585798808222 76.68007366154305,93.21371584425317 76.67958944931151,93.21246955133233 76.67926755555555,93.21164102829519 76.67775715555555,93.2089538533233 76.67656817777778,93.20548027076572 76.67713066666667,93.20148850492714 76.6779392,93.19986547762898 76.6786816,93.19885217281524 76.68108515555555,93.1991235073651 76.68563982222223,93.19802829477851 76.68677973333334,93.19695279589101 76.68722844444444,93.19256278025154 76.68926293333332,93.18826224016951 76.69239182222222,93.18373834021183 76.69685973333333,93.18020108678891 76.7039168,93.17552653238647 76.71395413333333,93.16670940514165 76.71524266666667,93.16473889438647 76.71607964444445,93.16242869238535 76.71696568888889,93.15193192514545 76.7169664,93.15059389929128 76.71538844444446,93.14274583786757 76.71559253333334,93.14063723941743 76.71620337777777,93.13918734886312 76.71803164444445,93.13839621500776 76.7211576888889,93.1383715227683 76.72471111111112,93.1366766226297 76.72574506666666,93.13552493179358 76.72982115555557,93.12848786680047 76.729632,93.12728365786899 76.72825315555556,93.12533553335595 76.72110577777778,93.11930107406295 76.7187392,93.11875371356655 76.71841706666666,93.11794451965383 76.71843413333335,93.11681222226261 76.71958897777778,93.11353970070522 76.72000711111112,93.11070969192109 76.72052906666667,93.10152999849275 76.71977742222222,93.09848888980687 76.71700906666668,93.09460054786373 76.71681066666667,93.09210372877158 76.72247537777778,93.0861182447087 76.72621155555557,93.08384251313277 76.72634595555556,93.08246437732177 76.7253752888889,93.07735886317143 76.7251256888889,93.07412764585126 76.7271288888889,93.07193352010812 76.72967324444446,93.07134517590265 76.73196871111111,93.067186056729 76.73237333333333,93.06506188490596 76.73311573333334,93.06372879922536 76.73455644444445,93.06246293313313 76.73566008888889,93.06262116788942 76.7393728,93.06245502138412 76.7417856,93.05999738266556 76.74214613333334,93.05843769290493 76.74311395555556,93.05721622014241 76.7433654302267,93.05706418255467 76.74360247445291,93.05692086902343 76.74620586666667,93.0553468724643 76.74666382222222,93.05422424613518 76.74632106666667,93.05241909704574 76.74353991111111,93.04755530361285 76.74339911111112,93.04567773378562 76.74383004444444,93.04423637620077 76.74497991111112,93.04254963614142 76.74675128888889,93.04126253673108 76.75276657777778,93.03789180501649 76.7554040888889,93.03559738039351 76.75586204444446,93.03170981252748 76.75814186666666,93.0293607218457 76.75934364444444,93.02864331017267 76.75993528888888,93.02771709397308 76.76196835555555,93.02262264312475 76.76566115555556,93.01826212218336 76.76546133333333,93.0160619449531 76.76977493333334,93.01281546864547 76.77170986666667,93.00625070212456 76.7663608888889,93.00218100890321 76.76531128888888,93.00043959670387 76.76609137777778,92.99872486393878 76.76712177777779,92.99806648033925 76.77154702222222,92.99883475882622 76.77419306666667,92.99836547651552 76.775616,92.99747244367143 76.77660871111111,92.99618336337488 76.77733119999999,92.9942833538105 76.77794204444444,92.98971278124026 76.77778488888889,92.9876075838267 76.77654542222223,92.98606874159128 76.77377208888889,92.98461898449025 76.77178737777778,92.98436943251505 76.76100906666667,92.97766876229002 76.76112,92.97567802225913 76.76277902222223,92.96800759284312 76.76698311111112,92.96402538777969 76.77017031111112,92.96229968143037 76.77103786666667,92.96228482151061 76.77238115555556,92.96331510034116 76.77332906666668,92.96323584876741 76.77603342222223,92.95646637760615 76.77565013333333,92.95549245246978 76.77307804444445,92.9542460424316 76.77014542222223,92.95089407831875 76.7695168,92.93689856897704 76.76962986666666,92.93592530913716 76.77149724444445,92.93247714319021 76.7714368,92.93121438368087 76.77109399399062,92.93039777450821 76.76745457777778,92.93083971352685 76.68185102222223,92.89758858623006 76.67599573333334,92.89635383459373 76.58312533333334,92.90531287819303 76.5380600888889,92.88457626585154 76.50151324444445,92.8677875899611 76.48495502222222,92.9593117710011 76.40199964444444,92.92543051741178 76.39893262222222,92.93457837802157 76.38091875555556,92.92798401372735 76.35277511111111,92.99895653400114 76.34859448888889,92.99815360521048 76.31376213333333,93.07385573296719 76.27214008888889,93.05732402726451 76.23727217777778,93.12434366418896z" stroke="#0E478F" stroke-width="0.0075" stroke-opacity="0.8" fill="royalblue" fill-opacity="0.75"></path></g><g data-fips="50" data-geo-id="50019" data-county="Orleans"><path d="M76.4212352,92.2569641727238 76.3888632888889,92.3088512697675 76.50324266666667,92.36761504691384 76.46104817777778,92.44867791900572 76.4570296888889,92.4565859090871 76.53820373333333,92.4981827894022 76.53348551111111,92.50633264729953 76.61300266666667,92.54804156533383 76.63115875555556,92.51362780645357 76.69575182222223,92.3870259757656 76.73680782222222,92.4068134630831 76.71857564444444,92.34085556331505 76.79110826666667,92.39170211852613 76.7971712,92.3855402159503 76.84271217777778,92.32141912737063 76.81826275555557,92.30390091200269 76.85273457777778,92.25807621239758 76.8892920888889,92.21379367439874 76.85083733333333,92.18276112296684 76.8727775710779,92.08134254534502 76.86043804444445,92.08177379725653 76.83754595555556,92.08120250016356 76.80945422222223,92.08169232741884 76.7834368,92.08277858244907 76.77885226666666,92.08278864027031 76.77609671111111,92.08068048254972 76.76290204444444,92.08320402675426 76.72671431111111,92.08397947389565 76.6858624,92.08338908901766 76.6245509114144,92.08495976687675 76.60738204444445,92.08539959127721 76.59245084444444,92.08508781213132 76.57950364444444,92.08576567818523 76.56587148094962,92.08486299705024 76.55211875555555,92.08395231833553 76.51463253333334,92.08298275587651 76.48080711111112,92.08102346575379 76.4579320888889,92.08068852909989 76.4213312,92.08170439703169 76.40578849248541,92.08128742882832 76.4174016,92.1539570695819 76.41689386666667,92.16438025143927 76.4212352,92.2569641727238z" stroke="#0E478F" stroke-width="0.0075" stroke-opacity="0.8" fill="royalblue" fill-opacity="0.75"></path></g><g data-fips="50" data-geo-id="50021" data-county="Rutland"><path d="M75.78223715555556,93.4922502469384 75.78243768888889,93.49347646923088 75.78408106666667,93.4964628865759 75.7854840888889,93.49746421561002 75.78995342222223,93.4989220025511 75.79238115555556,93.50261195707816 75.8004416,93.50904207752909 75.80423466666667,93.51128965729413 75.80577777777779,93.5120983725132 75.80745457777778,93.51207678074574 75.81016177777778,93.51028267360788 75.81568853333334,93.50478910869829 75.81627093333333,93.50355428682917 75.81685404444445,93.50117585690695 75.81623040000001,93.49574329356754 75.81621617777778,93.48391145684477 75.8202680888889,93.48108544655494 75.82332942222223,93.47751493589979 75.82402204444445,93.4759868956584 75.8240888888889,93.47484182160215 75.82148551111112,93.46837753097228 75.82253724444445,93.46633359939312 75.82582542222222,93.4619960263696 75.82587022222222,93.46138897647353 75.82400995555557,93.45840275022022 75.8244344888889,93.45669542539395 75.82656071111111,93.4564783224397 75.82779235555556,93.45754712927636 75.8289336888889,93.45772591676678 75.83352177777778,93.45658834756605 75.83388942222223,93.45612958072932 75.84169173333333,93.45864047507867 75.84556017777778,93.45514228669087 75.85585635555556,93.45529652177281 75.85856497777779,93.45361072029007 75.86306417777779,93.453879901611 75.86644693333334,93.45658441810076 75.86801351111112,93.45706381093362 75.87009280000001,93.45374531110393 75.87112248888889,93.45322855929976 75.87262222222222,93.45417265946494 75.8737408,93.4554979109231 75.8740792888889,93.45681822082918 75.87535288888888,93.47013558949286 75.87696355555556,93.4708996902351 75.8800064,93.47563826911484 75.88107946666668,93.47824358898741 75.8811008,93.48255443889161 75.88067484444444,93.48677562469754 75.88036124444444,93.48805498015201 75.87774293333334,93.49319470543126 75.8809856,93.49537318570225 75.8811640888889,93.49595730713756 75.87950933333335,93.49793542340274 75.87886648888889,93.50015299463274 75.87938062222221,93.50139475891368 75.88015217777777,93.50183845018014 75.8862848,93.50109830846793 75.88885617777778,93.50276017869095 75.88910080000001,93.50489217295019 75.88997262222223,93.50603666485043 75.89732977777778,93.50826276572826 75.90108515555556,93.51129456458004 75.90497351111112,93.51515647228118 75.90926080000001,93.52310325891968 75.91207751111111,93.52604108175308 75.91223466666668,93.5272970202563 75.91082097777779,93.52940850674298 75.91101724444445,93.53627227928882 75.91266702222222,93.5368756174305 75.91353955555556,93.53781642023499 75.91424756256619,93.53930633582051 75.91677013333334,93.54461447749878 75.91709226666667,93.54456739407485 75.91723377777778,93.54714515639449 75.91687751111111,93.55001607071429 75.91582862222224,93.55167558592778 75.91337173333334,93.55358416702668 75.91274808888889,93.55614094151531 75.91279573333334,93.55999796070569 75.91344355555556,93.56035589659714 75.91320106666667,93.56423519437091 75.91224817777778,93.60783136770439 75.91199014127936,93.6162877105998 75.90927502222222,93.70519421259691 75.9092096,93.70589072181592 75.90909724444445,93.71253453923148 75.90891804444445,93.72112090385947 75.90790119566236,93.76027035977137 76.00163271111111,93.7661225176444 76.098752,93.76988870253138 76.09507768888889,93.78277244801873 76.10601742222222,93.77026393983911 76.18282524444444,93.77388134044288 76.18412373333334,93.72869394816439 76.19293084444445,93.72809353802835 76.19311004444445,93.70511693087343 76.21268408888889,93.69610264781056 76.25969848888889,93.72167835354767 76.26060942222223,93.69447554803614 76.27569848888889,93.655495955033 76.28515911111111,93.61640351746394 76.28289137777779,93.60952257698584 76.26699306666667,93.60392650825285 76.25134720000001,93.60056136132931 76.25224106666667,93.58686949345375 76.23746133333333,93.58376412542665 76.24890168888889,93.50099720085666 76.25043271111112,93.48902994234157 76.26097422222223,93.49300424412283 76.30155022222222,93.39935447627057 76.21685831111111,93.36590918805794 76.22679964444445,93.3407204874579 76.21788088888889,93.33690621041497 76.24333368888888,93.27975304542181 76.2377536,93.26053030976624 76.2089984,93.24557429311281 76.2043768888889,93.25527366182777 76.17893973333334,93.24496599604751 76.17809635555557,93.22672599257527 76.11814897777778,93.25787099547614 76.07692017777778,93.27914707224122 76.06759964444444,93.23798245282946 75.97783253333334,93.24232273914839 75.93318684444445,93.24727492819297 75.94217102222223,93.3167528856725 75.92435413333334,93.31902355598906 75.83079028804829,93.33013689995877 75.82597333333334,93.33890541454076 75.8255736888889,93.34087895917492 75.82526293333333,93.34747139870007 75.82583751111112,93.35414576311445 75.82534257777779,93.35755055911089 75.8202624,93.36504533758982 75.81655822222223,93.36864036776865 75.8144832,93.37131829649798 75.81028266666667,93.3790454361845 75.8089080888889,93.38325632564397 75.80763235555555,93.38558639897543 75.80563057777778,93.38775606790094 75.80296675555556,93.38925000477258 75.80107448888889,93.39209516632276 75.80071608888889,93.39391056927013 75.80197404444445,93.39752252391352 75.8015104,93.40082157046821 75.79918256126741,93.40859918284819 75.79891484444445,93.40949359388658 75.79871217777777,93.41252260237918 75.79410062222222,93.42356079855381 75.79341297777778,93.42922114044944 75.79110186666666,93.43371246499265 75.7877056,93.43587839959069 75.78651235555556,93.43724042121019 75.78562631111112,93.43890310630539 75.78411875555555,93.44485281623301 75.78459733333334,93.44693089732715 75.7914176,93.45783888660529 75.79188053333333,93.45944794658473 75.79176746666667,93.46052946959004 75.78758542222222,93.46861325135335 75.78750933333333,93.46995585741962 75.78869048888889,93.47435373440442 75.78907306666667,93.47777909823282 75.78668302222222,93.48195054606208 75.78288,93.49004416086139 75.78223715555556,93.4922502469384z" stroke="#0E478F" stroke-width="0.0075" stroke-opacity="0.8" fill="royalblue" fill-opacity="0.75"></path></g><g data-fips="50" data-geo-id="50023" data-county="Washington"><path d="M76.12290346666667,92.92700366672025 76.13561955555555,92.92467614409907 76.15358648888889,93.01484651696836 76.1622016,93.01378448147895 76.21578453333333,93.03459211905198 76.27214008888889,93.05732402726451 76.31376213333333,93.07385573296719 76.34859448888889,92.99815360521048 76.35277511111111,92.99895653400114 76.38091875555556,92.92798401372735 76.39893262222222,92.93457837802157 76.40199964444444,92.92543051741178 76.48495502222222,92.9593117710011 76.50151324444445,92.8677875899611 76.5380600888889,92.88457626585154 76.57507413333335,92.8165603477541 76.57413617777777,92.7909308523186 76.60810666666667,92.74934203715765 76.64561493333333,92.67884474250721 76.64336568888889,92.66890996312074 76.64091733333333,92.66540913983553 76.57153635555557,92.62756968573703 76.49115377777778,92.58418588998512 76.45116586666667,92.66430289165794 76.44948337777778,92.66695446662823 76.37560391111111,92.61090814041185 76.33465031111112,92.69164824144022 76.25539128888889,92.64747058892081 76.2275591111111,92.63842502434815 76.20328391111111,92.68654131369541 76.22793600000001,92.6993670038847 76.21254257777778,92.7304844590722 76.19157902222223,92.72415745516122 76.17483448888889,92.75948380329801 76.15189475555556,92.80743669936673 76.16285866666668,92.81288464051275 76.12290346666667,92.92700366672025z" stroke="#0E478F" stroke-width="0.0075" stroke-opacity="0.8" fill="royalblue" fill-opacity="0.75"></path></g><g data-fips="50" data-geo-id="50025" data-county="Windham"><path d="M76.08690062222222,94.04476586354454 76.0831552,94.13495797610128 76.14479928888889,94.1381580517021 76.14149404444444,94.23216778307224 76.1394432,94.29245403522836 76.13848119337315,94.32010266865285 76.17223649277639,94.32108123553684 76.22463075555557,94.32260011479357 76.23745675997178,94.32308465282728 76.31205441564659,94.3259027094968 76.43256093668822,94.3304547743122 76.47394204444446,94.33201784236432 76.47396408888889,94.32984844951007 76.47217706666667,94.3258647328667 76.46732302222223,94.31811920522566 76.46359395555555,94.31356146339537 76.4624192,94.30890072494444 76.4615552,94.30214767706875 76.46036266666667,94.29871614418022 76.45912604444445,94.29690102316631 76.45519786666668,94.29455600699688 76.45411555555556,94.29316115837392 76.45314346666666,94.29083633861134 76.45075768888888,94.28784784422294 76.4477560888889,94.2870525018366 76.44590293333333,94.28740900252915 76.44530773333334,94.28831671347916 76.44497848888889,94.29115213191588 76.44395377777778,94.29250537458658 76.43876622222223,94.29564667853947 76.43671395555556,94.29628789891412 76.43512533333335,94.29622009647946 76.43300835555556,94.29415983453899 76.43254684444445,94.29152410717332 76.4338944,94.28884467137567 76.43722382222222,94.28711547086297 76.43849102222222,94.28576985682366 76.43872142222223,94.28356585214304 76.43814542222222,94.28062640736928 76.43609173333333,94.27656190812957 76.43318186666667,94.27225391651943 76.43139271111112,94.27022771631371 76.41628444444446,94.25648437676506 76.41402026666667,94.25294651496392 76.41164846166329,94.23802412657166 76.41163875555556,94.23796305223723 76.41071360000001,94.22956132909476 76.41073635555556,94.22472822903127 76.40992,94.22042814900726 76.40645262222222,94.21588140489476 76.40421217144164,94.2108348158082 76.40373546666666,94.20976098904711 76.40587946666668,94.20295214040863 76.40523946666667,94.19742902233952 76.40454257777778,94.19692354379796 76.40447004444445,94.196246331695 76.40524017777778,94.19226052134573 76.40503822222223,94.18802021278749 76.4068736,94.17876229440117 76.4074488888889,94.17811884498414 76.41138417777778,94.1766543166824 76.41549653333334,94.17448123617325 76.41792924444444,94.17206348221714 76.42113635555556,94.16798093493834 76.42115533262543,94.16794382156476 76.42206648888889,94.16616185011654 76.42198186666667,94.15721705036381 76.42295608888888,94.15293347989629 76.42368640000001,94.15182370163569 76.42647395555555,94.15022744904275 76.42707200000001,94.14905062241715 76.42720568888889,94.14620944228383 76.42517546666667,94.13641769798046 76.42570951111111,94.12948977244685 76.42551182222222,94.12542568945912 76.42493795555555,94.12227156092543 76.42414222222223,94.12016159212817 76.42327964444445,94.11938442095698 76.4219072,94.11900554634899 76.42033706666668,94.11698386972276 76.41987271111111,94.11571797973914 76.42018346666667,94.1135426848592 76.42155662222223,94.11081058114466 76.43134435555555,94.1028185582384 76.43882595555556,94.10184583911955 76.44143928888889,94.10024825209715 76.4497088,94.09846695053236 76.45377991111111,94.09444254900794 76.45745351111111,94.09230827201165 76.45920355555556,94.09268537203303 76.4609976888889,94.09448433964559 76.46305635555557,94.0941937483278 76.46863288888889,94.08794909518593 76.47173191111112,94.0836372309237 76.47175324444444,94.08252616589499 76.47002595555556,94.08052561352403 76.46909511111112,94.07717079544747 76.46953671111112,94.07325870942697 76.47079822222223,94.06999098796999 76.47292373333333,94.06694088852959 76.47506773333333,94.06574880861844 76.47872213333333,94.06645764203608 76.4809144888889,94.06588201938122 76.48357191111111,94.06272474715811 76.4844359111111,94.06094621637044 76.48439111111111,94.05830117379638 76.48381511111111,94.05674423919564 76.47787804444445,94.05172112228306 76.47499733333333,94.05020972814631 76.47360142222223,94.048164324981 76.47118435555556,94.04216095879036 76.47076266666667,94.039270918416 76.47224533333333,94.03204277319034 76.4727096888889,94.02746027902796 76.47129031111112,94.02401296081226 76.46869617777779,94.02081065875763 76.46803057777778,94.01916419411 76.46765297777777,94.01580592713483 76.46827306666667,94.0137807550783 76.47017813333333,94.01117741758381 76.47665066666667,94.00525695665608 76.48341191111112,93.99760124028724 76.48720355555555,93.9920610622477 76.48982044444445,93.98749788996876 76.49044195555555,93.98573951023269 76.49053084444445,93.98273476132468 76.48767004444444,93.974720708214 76.48494151111112,93.96888817645748 76.48538524444444,93.9661718469927 76.48669368888889,93.96372227203824 76.49077688888889,93.96004820792982 76.49199715555557,93.95739868927356 76.49232995555556,93.95599595525351 76.4921088,93.95056199758211 76.49000106666666,93.94693193919196 76.48856872839488,93.94528310853335 76.48642346666666,93.94281351347519 76.48502542222222,93.94029574566346 76.4851584,93.93936032494938 76.48655644444445,93.93904851478186 76.48666737777778,93.93833621731028 76.48646755555556,93.93483794335393 76.48575715555556,93.93403691691219 76.48411448888889,93.93330117145972 76.48120675555556,93.93347950529753 76.47858773333333,93.93178677408142 76.47510044444445,93.92434676230422 76.47492266666667,93.9224607851545 76.47535146666667,93.92145198217091 76.47800817777778,93.91906490108725 76.47871857777778,93.91759400603017 76.47889564444445,93.9159671089582 76.47851111517213,93.90993538821519 76.47850666666668,93.90986560544744 76.47867164444445,93.9013249853877 76.47818240000001,93.89943047868854 76.48362382222223,93.89372416845917 76.48468977777779,93.89200787796199 76.48444515555556,93.88957768202596 76.48040177777779,93.88280050007737 76.47980088888889,93.87956719354021 76.48784426666667,93.87122708540778 76.48873315555555,93.86955404580185 76.48811093333335,93.86344388123362 76.48671075555556,93.85735455567209 76.48675555555556,93.85365148050684 76.48877795555556,93.84758457442356 76.4910464,93.84254282388098 76.49153871023324,93.83995493112285 76.40895146666666,93.83729469428589 76.31243591111111,93.85028875198076 76.28069688888888,93.83979339658728 76.2625336888889,93.83339416634341 76.21733831111112,93.81807362645833 76.1970360888889,93.81124825728044 76.19456497777777,93.86704683717764 76.18702648888889,93.86726634409703 76.18493795555555,93.9051713408687 76.18223146666668,93.9568794867094 76.09109333333333,93.9511075589073 76.09093262222223,93.9531543435866 76.0898296888889,93.960645307457 76.08690062222222,94.04476586354454z" stroke="#0E478F" stroke-width="0.0075" stroke-opacity="0.8" fill="royalblue" fill-opacity="0.75"></path></g><g data-fips="50" data-geo-id="50027" data-county="Windsor"><path d="M76.10299875555556,93.2026023986398 76.10299377777778,93.22100868041554 76.10816284444444,93.21828247971018 76.11814897777778,93.25787099547614 76.17809635555557,93.22672599257527 76.17893973333334,93.24496599604751 76.2043768888889,93.25527366182777 76.2089984,93.24557429311281 76.2377536,93.26053030976624 76.24333368888888,93.27975304542181 76.21788088888889,93.33690621041497 76.22679964444445,93.3407204874579 76.21685831111111,93.36590918805794 76.30155022222222,93.39935447627057 76.26097422222223,93.49300424412283 76.25043271111112,93.48902994234157 76.24890168888889,93.50099720085666 76.23746133333333,93.58376412542665 76.25224106666667,93.58686949345375 76.25134720000001,93.60056136132931 76.26699306666667,93.60392650825285 76.28289137777779,93.60952257698584 76.28515911111111,93.61640351746394 76.27569848888889,93.655495955033 76.26060942222223,93.69447554803614 76.25969848888889,93.72167835354767 76.21268408888889,93.69610264781056 76.19311004444445,93.70511693087343 76.19293084444445,93.72809353802835 76.18412373333334,93.72869394816439 76.18282524444444,93.77388134044288 76.21696,93.77537826620825 76.21733831111112,93.81807362645833 76.2625336888889,93.83339416634341 76.28069688888888,93.83979339658728 76.31243591111111,93.85028875198076 76.40895146666666,93.83729469428589 76.49153871023324,93.83995493112285 76.49160248888889,93.83961966208832 76.49122417777778,93.83812532923703 76.48949048888889,93.83484469284583 76.48786702222223,93.82906482742175 76.48804053333333,93.82060535602773 76.48968675555555,93.81616377377668 76.49050951111111,93.81515902603687 76.50020764444444,93.81031666543552 76.50456888888888,93.80257041190319 76.50997902222223,93.7913203354361 76.51437084444444,93.77128899009044 76.51878257777778,93.76190848542616 76.51853866666667,93.76032228221482 76.51724871111111,93.75793068071164 76.51375502222223,93.7546895991136 76.50937173333334,93.74755976994491 76.50830435555557,93.74489979400934 76.50819342222222,93.74364845944784 76.50912924444445,93.74098928593581 76.51079173072604,93.73776047424147 76.51084477534158,93.737657450305 76.51485795555556,93.72986248142416 76.51606115555556,93.72809647164311 76.51882453333333,93.72532609683796 76.52201244444446,93.72085684691649 76.52259342222223,93.7189575582883 76.52112355555556,93.71803918838134 76.51524195555555,93.71821523483199 76.51274737777779,93.71781130525586 76.50604302222223,93.71327008694031 76.50510791111111,93.7117715944747 76.50481848888889,93.7101840510575 76.50419342222223,93.69978033547468 76.50461795555556,93.69617994127755 76.5062016,93.69217718132761 76.5118200888889,93.6866094615539 76.51284551111111,93.68470809763377 76.51440020369493,93.67362483306769 76.5154624,93.66605133913448 76.51557546666666,93.66188893204068 76.51807515920818,93.64854581611647 76.51808730431404,93.64848097938838 76.51845973333333,93.64649273016263 76.5186424888889,93.63908252493434 76.51982791111112,93.63308376154887 76.52181617777778,93.62853996739112 76.52226346666667,93.62665926943782 76.52079786666667,93.61308806798047 76.52088888888889,93.6108482710051 76.52158151111111,93.60946084771643 76.52658417777778,93.60415482958172 76.52767928888889,93.60238605121691 76.52855253333334,93.59837695131398 76.52947342222222,93.59011093965876 76.52952035555556,93.58706357354677 76.52914204444446,93.58533839485472 76.52638364444445,93.57860873716409 76.5229824,93.57504018872453 76.51818311111111,93.57095864276548 76.51671040000001,93.56824562667335 76.51657742222223,93.56569035574861 76.51852444444445,93.55870348954343 76.51843626666667,93.55544757323864 76.5196672,93.55199532169004 76.5221688888889,93.55213165021655 76.5233088,93.55114595847058 76.52742400000001,93.54435453729468 76.52950542222223,93.53877290409504 76.5289336888889,93.52500294994647 76.52779875555555,93.517600090418 76.52791111111111,93.51596317184598 76.530176,93.50620549025348 76.53466595555555,93.50095400920301 76.54121528888889,93.49679862820147 76.55116373333334,93.49279905573766 76.56363946666667,93.48137217787448 76.56556282020864,93.48056732291045 76.56560355555555,93.48055027649984 76.56639004444445,93.47995716494053 76.56699377777778,93.47811691005288 76.56663845062236,93.47451668543954 76.56659057777777,93.4740316142863 76.56567324444445,93.47250544814437 76.56341333333333,93.4706197830127 76.56195911111112,93.46648878745314 76.56220373333333,93.46184180878335 76.56365511111112,93.45612466885953 76.56606862222223,93.45423749825642 76.56729884444445,93.45075673336768 76.56720924444446,93.45012795350641 76.56570951111111,93.44848818202536 76.56557511111112,93.44671474099987 76.56595484444445,93.44581571869396 76.56718577777778,93.44462584408015 76.57065457777777,93.44253589065235 76.57582435555555,93.44031222474273 76.57665208888889,93.43869478189741 76.57680853333333,93.43501164219789 76.57595804444445,93.43220392910902 76.57669688888889,93.42557672487122 76.57750257777778,93.42332981283823 76.57895751111111,93.42207166200421 76.58256284444445,93.41537647233274 76.58359324444444,93.4124547684481 76.5842432,93.40798345561677 76.5844679111111,93.40402800792072 76.58357262222222,93.40101626253244 76.58238577777777,93.39912831239111 76.58275241676758,93.38984327806685 76.58275256844509,93.38983943657138 76.58287928888889,93.38662993510766 76.58462791111111,93.37979596244571 76.58686933333333,93.37601864290615 76.5902976,93.3736134266429 76.59220266666667,93.37132124785859 76.59594666666666,93.36549792597404 76.597472,93.36243993514552 76.600992,93.3582354307317 76.60368213333334,93.35585310592178 76.60716088888888,93.34888171886229 76.61209244444444,93.34886203563096 76.62572942222222,93.34006789446752 76.6345152,93.33495615817674 76.64096355555556,93.32554853811232 76.64208426666667,93.3235902332367 76.64347306666667,93.31985361873654 76.64490737777778,93.31778287100002 76.64605084444445,93.31701678420296 76.65008711111112,93.31584597163447 76.65241955555557,93.31429207342859 76.65407658732067,93.3126473513439 76.56003484444444,93.27446461058221 76.47279502222223,93.24628905877366 76.3915072,93.21171698556765 76.2997184,93.17619477166775 76.24305208888889,93.15682558145106 76.23727217777778,93.12434366418896 76.22611057777777,93.14543011733777 76.21949866666668,93.14809847368156 76.18468764444444,93.22324951485317 76.17836373333333,93.22087848846586 76.1766712888889,93.18269120116193 76.12225208888889,93.21021557816131 76.10299875555556,93.2026023986398z" stroke="#0E478F" stroke-width="0.0075" stroke-opacity="0.8" fill="royalblue" fill-opacity="0.75"></path></g></svg>