<svg version="1.1" xmlns="http://www.w3.org/2000/svg" preserveAspectRatio="xMinYMin meet" viewBox="49.02621297777778 92.08367171013147 4.981139911111107 3.9023407927606115"><g data-fips="56" data-geo-id="56001" data-county="Albany"><path d="M52.39261511111111,95.60762445919025 52.39383822222223,95.98188854757791 52.46750364444445,95.98319727587554 52.48671725253263,95.98331691866275 52.57871573333333,95.98388978833128 52.81392284444444,95.98399625554784 52.817917155555556,95.98397364305694 53.13625742222223,95.98278364910632 53.136455116856176,95.98278342034827 53.135022222222226,95.87129227155168 53.13416248888889,95.7162627514046 53.13376995555556,95.66839611246354 53.13547662222222,95.35922480460678 53.13495253333334,95.27794634711887 53.138666666666666,94.94650653599248 53.13144177777777,94.61734538379258 53.09679075555555,94.61763056531225 53.09006151111112,94.62923033829371 53.09009066666667,94.64284550055228 53.08304782222223,94.64288113326967 53.08285937777779,94.67032075410829 53.07609813333333,94.67039198712999 53.07833457777778,94.7252876904811 53.064048355555556,94.72552523845073 53.06628195555556,94.75329269158237 52.977698133333334,94.75347052992119 52.95900515555556,94.75452312993461 52.952264533333334,94.74905229410541 52.907081955555554,94.74618161388585 52.89680711111111,94.73952930355418 52.89624462222223,94.66931674461657 52.92398791111111,94.66943418474716 52.92405617777778,94.64159448993786 52.93782471111111,94.64157041326703 52.93792568888889,94.61813444693504 52.57002453333334,94.61557838448736 52.5689464888889,94.94859065726926 52.56958222222222,94.94858682446812 52.570131200000006,95.04761474808333 52.57139911111111,95.46480387897533 52.573577955555564,95.60773157596515 52.47421084444445,95.60772020074126 52.39261511111111,95.60762445919025z" stroke="#0E478F" stroke-width="0.003" stroke-opacity="0.8" fill="royalblue" fill-opacity="0.75"></path></g><g data-fips="56" data-geo-id="56003" data-county="Big Horn"><path d="M50.75817594080569,92.08919936790653 50.75878257777778,92.21871161956446 50.778811733333335,92.21874874589882 50.77869724444445,92.332643343976 50.7785984,92.49787522518562 50.77867093333333,92.56939494857355 50.79223466666667,92.56951363413461 50.79220337777778,92.6609720714975 50.79196657777778,92.91986913998065 50.808489244444445,92.91988202791944 51.135450311111114,92.9201615963542 51.39767537777778,92.92045504263518 51.424101688888896,92.92191828657081 51.806714311111115,92.92264692080985 51.807999288888894,92.76547000752785 51.788363377777785,92.75437685268808 51.77672391111112,92.74144194877226 51.779633066666676,92.73087235238503 51.796078933333334,92.72151445196027 51.785596444444444,92.71312110231156 51.790782577777776,92.69634271640456 51.78367644444445,92.6865602253825 51.76919111111112,92.69047879352838 51.76593635555556,92.66070619512644 51.76728675555556,92.64368957253751 51.73866168888889,92.65168957850192 51.71290382222222,92.63927874030318 51.71313066666667,92.63105186386468 51.69736533333334,92.63104787865838 51.69472497777778,92.62636706534991 51.70193137777778,92.58956103380322 51.678486755555554,92.56665015267441 51.67300266666667,92.54985540164125 51.65953564444444,92.5481852376019 51.64826951111112,92.53057774925726 51.64714808888888,92.52808462833879 51.64545137777778,92.51908035667438 51.64369422222223,92.51135559297593 51.64316231111112,92.50728515340099 51.63901511111112,92.50265127393817 51.6378048,92.49806196079723 51.634719999999994,92.49477352870147 51.62971875555556,92.49252254791921 51.62425528888889,92.49067296331222 51.6189568,92.49143397664392 51.612911644444445,92.48945552096805 51.610551466666664,92.48371851694452 51.607072,92.47904080085196 51.602825244444446,92.48089175517268 51.60321422222222,92.48155001341335 51.60127573333334,92.48296639201229 51.59816035555556,92.48405512215574 51.59599857777778,92.48490411772335 51.58969671111112,92.48298736774018 51.58471822222222,92.48056312269449 51.57807715555556,92.47776517626463 51.57391857777778,92.47537967302563 51.56787271111111,92.46575974517367 51.56265884444445,92.45935989603342 51.560741688888896,92.4531801989899 51.55508906666667,92.44923560106669 51.55273031111111,92.45141930446967 51.54464497777778,92.45702659815532 51.535385600000005,92.45301230669932 51.531806577777786,92.44470702769046 51.53439857777778,92.4389965831441 51.538219377777786,92.4351179979397 51.537550933333335,92.4275170177109 51.53285262222222,92.4241075997904 51.52578488888889,92.4247765014073 51.5214144,92.42068998195833 51.520273777777774,92.41491316966247 51.51274168888889,92.40970884567498 51.501846755555555,92.40577329031555 51.492945066666664,92.40213853999089 51.48748871111111,92.39550458277017 51.47669831111111,92.39325874811288 51.469888000000005,92.395572606693 51.464265955555554,92.39750425269149 51.45568,92.39896369807073 51.44911857777778,92.39811644398928 51.44468053333333,92.40328680166206 51.44283022222223,92.40735354542427 51.43834026666667,92.4093308039321 51.43626097777778,92.40989686551761 51.43215715555556,92.40726653249837 51.42811235555556,92.40280469456827 51.42447146666667,92.39753626285427 51.42658346666667,92.38925904610241 51.42279324444445,92.38466274932335 51.4178432,92.38242750061077 51.412948622222224,92.38499392700095 51.40837831111111,92.38214033393643 51.39990826666667,92.37902743585853 51.392795022222224,92.374167137949 51.388383288888896,92.37581730335907 51.38129066666667,92.37358771759364 51.378180266666675,92.36825357563657 51.37759928888889,92.36617182595664 51.381715911111115,92.36151363992863 51.381600000000006,92.35227923461323 51.37920071111112,92.34563655900251 51.379395555555554,92.34102077708403 51.37993031111112,92.3358358437662 51.37731555555556,92.33439884009303 51.3759808,92.33117521562819 51.37601066666667,92.32604548702507 51.37134862222223,92.31868260022816 51.36268302222223,92.31678939259359 51.35091342222222,92.31435718095895 51.34459875555556,92.31005047301574 51.33890133333333,92.30531963708026 51.324467911111114,92.29861244790081 51.3194368,92.29204979152499 51.32334577777778,92.28643752326133 51.32651377777778,92.28387774716651 51.33010417777778,92.27622179679354 51.33064675555556,92.27282951977524 51.326889244444445,92.26917036896192 51.32487182222222,92.26958441600522 51.32315448888889,92.26718631061566 51.32317724444445,92.26473998019203 51.32062435555556,92.26127283126466 51.32116551111111,92.25363193653325 51.31982222222222,92.24631598623121 51.31807715555556,92.24479952805967 51.31335253333334,92.24041541618456 51.308543288888885,92.22879606087812 51.30420266666667,92.22406358592241 51.2975744,92.2192775427188 51.29768888888889,92.21159596709143 51.29909048888889,92.20595480210136 51.30007893333334,92.19562244380815 51.30421973333333,92.19205979051864 51.30554240000001,92.19140826998127 51.3061888,92.18735141039272 51.30495857777778,92.18311856002923 51.30426382222222,92.17623650352937 51.299003733333336,92.17076762539457 51.292416,92.16403575504268 51.28708053333333,92.15850243922179 51.283656533333335,92.14745832678614 51.28606648888889,92.13785906045098 51.28679751111111,92.13307591142478 51.287317333333334,92.12845517348109 51.28682666666667,92.12357073731367 51.285063111111114,92.11882660893824 51.28379733333334,92.11152873405524 51.283800177777785,92.10580136616994 51.28005973333333,92.10007745101746 51.2736768,92.09592567326908 51.26548195555556,92.09370235324737 51.26291697777778,92.08892760675936 51.262918368808535,92.08831093814985 51.20188231111111,92.08803556623724 51.199528533333336,92.08837951134387 51.09376711111111,92.08854142631196 51.044637155555556,92.08906538405293 51.030656711111114,92.08940228334664 51.022687999999995,92.09015451704832 51.02262892598685,92.0901514858812 51.00714595555555,92.08935702833216 50.8439616,92.08992019931463 50.797567288888885,92.08902817415941 50.7886336,92.0891227073554 50.75817594080569,92.08919936790653z" stroke="#0E478F" stroke-width="0.003" stroke-opacity="0.8" fill="royalblue" fill-opacity="0.75"></path></g><g data-fips="56" data-geo-id="56005" data-county="Campbell"><path d="M52.60457605758364,92.09595722471656 52.60579342222222,92.22138164452971 52.61207111111111,92.23245375656086 52.61157191111111,92.38343707528216 52.61462968888889,92.39734320129159 52.61469013333333,92.45438141417432 52.61534151111111,92.52644178479 52.61607608888889,92.56328680301533 52.61192746666667,92.5693450806184 52.61048604444445,92.9186189964162 52.615679288888884,93.26276273989745 52.60970808888889,93.2628514439809 52.60987306666667,93.58379451333991 52.84621795555556,93.58295736963805 53.276588800000006,93.58038704883732 53.276050488888885,93.57436272844339 53.275955200000006,93.34316641648684 53.27544391111111,93.25749052037139 53.27589191111112,93.12003516144347 53.27695573333334,92.91222113438596 53.274823822222224,92.91023114055676 53.27326791111111,92.87209980933923 53.27452586666667,92.56273520306762 53.27256817777778,92.303618365141 53.27867662222223,92.30422754247016 53.28014862222222,92.21912402156018 53.27886152998685,92.08926007593959 53.06928833138418,92.08924140694484 52.73026488888889,92.08921120637709 52.68381724444445,92.08866311365932 52.68319431111111,92.08962352957245 52.67329137777778,92.09599807302166 52.60457605758364,92.09595722471656z" stroke="#0E478F" stroke-width="0.003" stroke-opacity="0.8" fill="royalblue" fill-opacity="0.75"></path></g><g data-fips="56" data-geo-id="56007" data-county="Carbon"><path d="M51.24994275555556,95.36157564633382 51.24986311111112,95.6044118173345 51.25894826666667,95.60444120490317 51.25801173333334,95.97914380319625 51.466222933333334,95.97906088421084 51.64981831111112,95.97816667129885 51.685124338200886,95.97826635249055 51.73959537777778,95.97842014286292 51.91068017777778,95.97781708614323 52.01225031111112,95.97855300300922 52.29947804444445,95.97912401572114 52.30964408888889,95.97919845428521 52.31116871111111,95.9793708875782 52.3157688888889,95.97941140462129 52.34357191111111,95.97995414199865 52.347480177777776,95.97998429393613 52.39383822222223,95.98188854757791 52.39261511111111,95.60762445919025 52.47421084444445,95.60772020074126 52.573577955555564,95.60773157596515 52.57139911111111,95.46480387897533 52.570131200000006,95.04761474808333 52.56958222222222,94.94858682446812 52.5689464888889,94.94859065726926 52.57002453333334,94.61557838448736 52.568283022222225,94.61559572715274 52.17778986666667,94.61822597373843 51.539254755555554,94.61449927551197 51.53939768888889,94.78057083375867 51.53968284444444,94.94733731841788 51.5528384,94.94733731841788 51.55165155555556,95.27934253466142 51.54864355555556,95.35846623441392 51.24996551111111,95.35642556737658 51.24994275555556,95.36157564633382z" stroke="#0E478F" stroke-width="0.003" stroke-opacity="0.8" fill="royalblue" fill-opacity="0.75"></path></g><g data-fips="56" data-geo-id="56009" data-county="Converse"><path d="M52.5667072,93.58428267832429 52.56665884444445,93.60085045396971 52.569693155555555,93.60574717488618 52.56976497777778,93.9437303676718 52.56971591111112,94.08695086213015 52.570432000000004,94.22258792556153 52.57054720000001,94.28197116794067 52.567417600000006,94.28251952707174 52.56805760000001,94.32155059725605 52.57196871111112,94.33665258780628 52.568413155555554,94.34013809115311 52.56902613333333,94.5481982462365 52.568283022222225,94.61559572715274 52.57002453333334,94.61557838448736 52.93792568888889,94.61813444693504 52.93782471111111,94.64157041326703 52.92405617777778,94.64159448993786 52.92398791111111,94.66943418474716 52.89624462222223,94.66931674461657 52.89680711111111,94.73952930355418 52.907081955555554,94.74618161388585 52.952264533333334,94.74905229410541 52.95900515555556,94.75452312993461 52.977698133333334,94.75347052992119 53.06628195555556,94.75329269158237 53.064048355555556,94.72552523845073 53.07833457777778,94.7252876904811 53.07609813333333,94.67039198712999 53.08285937777779,94.67032075410829 53.08304782222223,94.64288113326967 53.09009066666667,94.64284550055228 53.09006151111112,94.62923033829371 53.09679075555555,94.61763056531225 53.13144177777777,94.61734538379258 53.132616533333334,94.61741667929877 53.13065031111112,94.46876859936772 53.12959217777777,94.44906147128151 53.222466133333334,94.44815715138014 53.2493248,94.44690885842401 53.34098275555556,94.44641320551034 53.40982257777778,94.44605378213075 53.4090816,94.27781568291792 53.405544533333334,94.27648536307034 53.4044864,93.5792155650687 53.276588800000006,93.58038704883732 52.84621795555556,93.58295736963805 52.60987306666667,93.58379451333991 52.5667072,93.58428267832429z" stroke="#0E478F" stroke-width="0.003" stroke-opacity="0.8" fill="royalblue" fill-opacity="0.75"></path></g><g data-fips="56" data-geo-id="56011" data-county="Crook"><path d="M53.27256817777778,92.303618365141 53.27452586666667,92.56273520306762 53.27326791111111,92.87209980933923 53.274823822222224,92.91023114055676 53.27695573333334,92.91222113438596 53.7774336,92.90682707280652 53.78264462222222,92.90753011381685 54.00569813333334,92.90805763692146 54.00505671111111,92.83900087787833 54.00467413333334,92.57258640869037 54.004699022222226,92.54703884273478 54.00470992575289,92.51942001912991 54.00475733333334,92.39918276174984 54.004666311111116,92.39664397294132 54.0047808,92.3900564074384 54.00471466666667,92.36708560318156 54.00466915555556,92.36678735108342 54.00464853333333,92.32249086517152 54.00464853333333,92.32221642205562 54.00426951111112,92.22317363264523 54.00468337777778,92.21519454371642 54.00341475555555,92.09219294056481 53.86656355555556,92.09139950258754 53.71013902222222,92.09116518991658 53.709922133333336,92.09116518991658 53.572350577777776,92.09074684389446 53.571433955555555,92.09099925976642 53.52791466666667,92.09009417780885 53.504103111111114,92.09054873185792 53.50039964444445,92.09043107108741 53.32036266666667,92.08916997389525 53.31962026666667,92.08927858622287 53.3153664,92.08931780729088 53.30613120406329,92.0892631354254 53.30602311111112,92.08926249552059 53.27886152998685,92.08926007593959 53.28014862222222,92.21912402156018 53.27867662222223,92.30422754247016 53.27256817777778,92.303618365141z" stroke="#0E478F" stroke-width="0.003" stroke-opacity="0.8" fill="royalblue" fill-opacity="0.75"></path></g><g data-fips="56" data-geo-id="56013" data-county="Fremont"><path d="M49.7399616,93.07871635638114 49.73963804444445,93.26342407490185 49.741200355555556,93.26978966023623 49.74110577777778,93.61337709947745 49.952201244444446,93.61492804779246 49.952275911111116,93.64716544905198 49.952382577777776,93.71017524755601 49.96771626666666,93.71004319487659 49.98539591111111,93.70203829730082 49.994707911111114,93.70993363983808 49.99205404444445,93.74469938673207 50.010757688888894,93.76481983506469 50.001416533333334,93.79226883092468 50.006137599999995,93.79909344946196 49.996290844444445,93.80876593300786 50.00761031111111,93.82483865913568 50.0123776,93.84423223853437 50.00810666666666,93.8573487011897 50.01954631111111,93.86936966713148 50.02563484444445,93.90438454007217 50.040607288888886,93.90794699746652 50.04754915555556,93.94476802304789 50.06823111111112,93.95472567319032 50.090345955555556,93.98573756293956 50.096205511111116,94.00881728451304 50.0868928,94.01804706339237 50.094715022222225,94.03594296724549 50.095943822222225,94.05482646009568 50.131621688888885,94.0567977260668 50.13898026666667,94.07153591039119 50.157043200000004,94.07484437953556 50.1659712,94.09619092770367 50.18143004444444,94.09797812800082 50.19647573333333,94.1103111717358 50.20603946666667,94.12610856018074 50.22530986666666,94.11976523609283 50.24229048888889,94.14459458975283 50.25286328888889,94.16861769863289 50.25591964444445,94.19000261866955 50.26463288888889,94.20674225893569 50.28774542222222,94.21542554761064 50.29795768888889,94.23756844486087 50.31320817777778,94.25565663273815 50.33940551111111,94.26690580144455 50.32766862222223,94.27279461260822 50.320672,94.29137686724299 50.329654044444446,94.29789769993272 50.35003946666667,94.29165294181598 50.36126791111111,94.30859470909442 50.39479822222222,94.3217248726562 50.38370986666667,94.33133150566638 50.39757368888889,94.34989081167289 50.39326862222222,94.3635324791824 50.43708373333334,94.36428230371115 50.43948302222222,94.61534618498797 50.45774151111111,94.6151852827364 50.45769671111111,94.77871827336352 50.886725688888895,94.77899212533032 51.53939768888889,94.78057083375867 51.539254755555554,94.61449927551197 51.525671111111116,94.61449927551197 51.524603733333336,94.27903842721571 51.554542222222224,94.27913531555552 51.55419306666667,94.19436406872492 51.55390080000001,93.94237310665727 51.54366008888889,93.94247054207435 51.543444622222225,93.60565996446704 51.53064391111111,93.60556197507879 51.53073991111111,93.57752741127732 51.48792533333333,93.57749309870914 51.48790257777778,93.60603232266358 51.088864,93.60765009385543 51.088849777777774,93.61844422935225 51.07808000000001,93.618315890926 50.95974328888889,93.6182933581965 50.959807999999995,93.6042861384451 50.87504142222222,93.60407251641442 50.87504924444444,93.57576862144609 50.79028124444445,93.57567058257095 50.79028124444445,93.54693819408473 50.70572657777778,93.54723343393665 50.70601102222223,93.50455058788324 50.62095928888888,93.50474690138137 50.62095928888888,93.4755872025188 50.5359424,93.47611357916037 50.53572195555556,93.46192726698598 50.366835200000004,93.46133691526964 50.366837333333336,93.38330058707577 50.349135644444445,93.37099167834572 50.32184604444445,93.31959367151843 50.30248177777778,93.30949422787197 50.293619911111115,93.28710797860703 50.268402488888896,93.27808783584473 50.26634737777778,93.27092886869781 50.26018986666667,93.25048579035706 50.25069795555555,93.24279401856833 50.22846648888889,93.24183863857434 50.21854577777778,93.20239323685976 50.20553671111111,93.20087185849736 50.19490275555556,93.1762885417121 50.18033777777779,93.17156234514454 50.174321066666664,93.1553770779749 50.152964977777785,93.15365600797345 50.15036657777778,93.13720504954267 50.12460657777778,93.14679097447369 50.10835626666667,93.13168546988214 50.09072782222222,93.13147506761875 50.0801024,93.1417582133613 50.070242844444444,93.14681566317253 50.06722915555556,93.14232906235202 50.05590328888889,93.15210078085428 50.04479004444444,93.15918043416205 50.02373404444445,93.18277509140587 50.01636835555555,93.20543587545399 50.01149866666667,93.21490118397001 50.012712533333335,93.2249221947545 50.01518648888889,93.23457566572017 50.01042133333334,93.2401762995515 50.00181902222222,93.24063477852903 49.992430222222225,93.24458149384739 49.98402986666667,93.24869455113115 49.97626382222223,93.24851019925458 49.96816924444444,93.25198419844754 49.9599296,93.25778326956919 49.955042133333336,93.26333142931314 49.95001528888889,93.26657098151921 49.94876871111111,93.26561105978749 49.945325511111115,93.2654770242957 49.944582399999994,93.26742149457 49.93906915555556,93.27107373186124 49.933838933333334,93.27458680076316 49.93146737777778,93.27825731494914 49.929359644444446,93.28012253820197 49.92566826666667,93.28024077540175 49.92216888888889,93.27869381993033 49.916025600000005,93.27507063197251 49.91069368888889,93.27147777009272 49.90684088888889,93.26879529849384 49.903553422222224,93.26841489401833 49.90095857777777,93.26608215269667 49.900704000000005,93.26337873771709 49.898274844444444,93.26094920487752 49.89637191111112,93.26219503059676 49.89031324444445,93.26498522969241 49.88346453333334,93.26022278957457 49.880474311111115,93.25288716805198 49.882942577777776,93.2477353235522 49.87977244444444,93.24179821451723 49.88137315555556,93.23605278607063 49.886079288888894,93.2315937022498 49.89228231111112,93.23064208485994 49.89850168888889,93.2296441027232 49.90461653333333,93.22727333417016 49.90742826666667,93.22468944261803 49.90836622222222,93.22193776914187 49.90686720000001,93.22018511284753 49.9007936,93.21826669815144 49.89805653333333,93.21483706767384 49.89917511111111,93.21013468652907 49.90214400000001,93.20890156859788 49.90225848888889,93.1984634222226 49.89810702222222,93.19549541415947 49.88703644444445,93.18586414286418 49.88353137777777,93.17948650415946 49.88496711111111,93.17088911745202 49.88378382222223,93.16388393278422 49.87803377777778,93.16042743113246 49.87197582222222,93.158586052575 49.87176248888889,93.14792368128909 49.878621155555564,93.13923278194432 49.87892906666667,93.13116884701464 49.87053226666667,93.1322939529349 49.86293048888889,93.13592002553548 49.83583928888889,93.1395646399061 49.81518080000001,93.12703570037863 49.79181724444445,93.13162422610864 49.780883200000005,93.13579853449295 49.77704035555556,93.1318573472278 49.77647146666667,93.13106710239586 49.77647146666667,93.12869630406628 49.77675591111112,93.12652298814206 49.77742506666667,93.12308997290282 49.77675591111112,93.12108934623731 49.77661368888889,93.12000255748819 49.77462186666667,93.1191133517242 49.77270186666667,93.1194097551425 49.76921742222222,93.11891574861369 49.76630186666667,93.1193109541694 49.764737422222225,93.1181253295181 49.76445297777778,93.11367902372999 49.76423964444445,93.1101217365202 49.76438186666667,93.10705834416142 49.762746311111115,93.10527952681346 49.760825600000004,93.10320417174427 49.76103893333334,93.10122757485351 49.759261155555556,93.0985590634123 49.758123377777785,93.09569274924831 49.75606115555556,93.09282629502623 49.75449671111111,93.09015740138138 49.75492337777778,93.08808151125476 49.75396124444445,93.0841855591223 49.74331591111111,93.07859573553256 49.7399616,93.07871635638114z" stroke="#0E478F" stroke-width="0.003" stroke-opacity="0.8" fill="royalblue" fill-opacity="0.75"></path></g><g data-fips="56" data-geo-id="56015" data-county="Goshen"><path d="M53.578212266666675,94.4455426629293 53.5790464,94.7134369986464 53.57984853333333,95.36269678525406 53.58009457777778,95.44638455517361 53.623114666666666,95.44669629375355 53.95112177777778,95.44692344373436 54.007082666666676,95.44708786558122 54.00685582222223,95.42048952071892 54.006944000000004,95.40011754786232 54.006773333333335,95.39131410085938 54.00679466666667,95.37681871512791 54.00681742222222,95.37013594577753 54.006876546938315,95.31990458184646 54.00691626666667,95.28613622410154 54.006737066666666,95.14106154435382 54.006804622222226,95.12130624070423 54.006761955555554,95.11286871261379 54.00694471111111,95.05738510767762 54.00685795555555,95.05456244397567 54.006876444444444,95.03672814384655 54.00692551111111,95.03637699239206 54.0069696,95.03283091900292 54.00696591862542,95.02991726292441 54.00694826666667,95.01594452817135 54.00684088888889,95.01073459289427 54.006779022222226,94.95974787531893 54.006779074772616,94.95967123426749 54.00678826666667,94.94626410253326 54.00704,94.91186707953437 54.006941866666665,94.9034234803045 54.00675484444445,94.90008157722858 54.00707768888889,94.87174040800863 54.00692551111111,94.86840443615114 54.006666666666675,94.79190212017787 54.006902755555565,94.79190212017787 54.00691484444445,94.7839683284333 54.00667946666667,94.55125292392252 54.00691555555556,94.4442431059018 54.00691555555556,94.44349234529875 54.006916782012446,94.44332193288125 53.666321066666676,94.44572044401343 53.578212266666675,94.4455426629293z" stroke="#0E478F" stroke-width="0.003" stroke-opacity="0.8" fill="royalblue" fill-opacity="0.75"></path></g><g data-fips="56" data-geo-id="56017" data-county="Hot Springs"><path d="M50.26634737777778,93.27092886869781 50.268402488888896,93.27808783584473 50.293619911111115,93.28710797860703 50.30248177777778,93.30949422787197 50.32184604444445,93.31959367151843 50.349135644444445,93.37099167834572 50.366837333333336,93.38330058707577 50.366835200000004,93.46133691526964 50.53572195555556,93.46192726698598 50.5359424,93.47611357916037 50.62095928888888,93.4755872025188 50.62095928888888,93.50474690138137 50.70601102222223,93.50455058788324 50.70572657777778,93.54723343393665 50.79028124444445,93.54693819408473 50.79028124444445,93.57567058257095 50.87504924444444,93.57576862144609 50.87504142222222,93.60407251641442 50.959807999999995,93.6042861384451 50.95974328888889,93.6182933581965 51.07808000000001,93.618315890926 51.088849777777774,93.61844422935225 51.088864,93.60765009385543 51.48790257777778,93.60603232266358 51.48792533333333,93.57749309870914 51.487888355555555,93.43514037907799 51.401800533333336,93.43578995554182 51.402043733333336,93.34966412198305 51.23087857777778,93.34956275461722 51.230970311111115,93.26563372752432 51.075599644444445,93.26533608958906 51.060487111111115,93.25607800966515 51.068263111111115,93.23646495321984 50.97977315555556,93.23807809639251 50.98001066666667,93.18220759624374 50.89453297777778,93.1821089008734 50.89631004444445,93.09450170510607 50.851960177777784,93.09468752935273 50.85137493333334,93.00774644872766 50.80834986666667,93.0080998392689 50.636603022222225,93.0078889930681 50.63695715555556,93.09549111360016 50.54863288888889,93.09568780720639 50.550909866666665,93.18072813525876 50.42284231111111,93.1810044883722 50.42232675555556,93.26666559308038 50.39418951111111,93.26826115472431 50.29507697777778,93.2681428934556 50.26634737777778,93.27092886869781z" stroke="#0E478F" stroke-width="0.003" stroke-opacity="0.8" fill="royalblue" fill-opacity="0.75"></path></g><g data-fips="56" data-geo-id="56019" data-county="Johnson"><path d="M51.64826951111112,92.53057774925726 51.65953564444444,92.5481852376019 51.67300266666667,92.54985540164125 51.678486755555554,92.56665015267441 51.70193137777778,92.58956103380322 51.69472497777778,92.62636706534991 51.69736533333334,92.63104787865838 51.71313066666667,92.63105186386468 51.71290382222222,92.63927874030318 51.73866168888889,92.65168957850192 51.76728675555556,92.64368957253751 51.76593635555556,92.66070619512644 51.76919111111112,92.69047879352838 51.78367644444445,92.6865602253825 51.790782577777776,92.69634271640456 51.785596444444444,92.71312110231156 51.796078933333334,92.72151445196027 51.779633066666676,92.73087235238503 51.77672391111112,92.74144194877226 51.788363377777785,92.75437685268808 51.807999288888894,92.76547000752785 51.806714311111115,92.92264692080985 51.8196736,92.92262114614812 51.82035768888889,93.26829958958547 51.830289777777786,93.2681704877729 51.832320711111116,93.5243592598235 51.83236693333334,93.57858226795395 51.83223466666667,93.58634998300295 52.304495644444444,93.58600298669062 52.5667072,93.58428267832429 52.60987306666667,93.58379451333991 52.60970808888889,93.2628514439809 52.615679288888884,93.26276273989745 52.61048604444445,92.9186189964162 52.61192746666667,92.5693450806184 52.61607608888889,92.56328680301533 52.61534151111111,92.52644178479 52.494588444444446,92.5266424018339 52.317228799999995,92.52864154774096 52.231110400000006,92.53353482316342 52.04303360000001,92.53253883601293 51.88750222222223,92.53121648198726 51.64826951111112,92.53057774925726z" stroke="#0E478F" stroke-width="0.003" stroke-opacity="0.8" fill="royalblue" fill-opacity="0.75"></path></g><g data-fips="56" data-geo-id="56021" data-county="Laramie"><path d="M53.13376995555556,95.66839611246354 53.13416248888889,95.7162627514046 53.135022222222226,95.87129227155168 53.136455116856176,95.98278342034827 53.15091413333333,95.98276668940778 53.15215715555556,95.98274878749876 53.37360284444445,95.9828677655538 53.43625031111112,95.9829014246628 53.45457493333333,95.98175004124145 53.49473621321459,95.98116522762864 53.563734044444445,95.98016049402783 53.61811539359929,95.97980957504787 53.690916266666676,95.97933979308534 53.690980977777784,95.97936146500626 53.7118776888889,95.97967429363078 53.89177457777778,95.97950091892508 53.892130844444445,95.9795847795769 53.89406364444445,95.9795631077339 53.956561066666666,95.97953012882789 53.970069333333335,95.97960833591935 53.98324053333334,95.97958949084608 53.99682773333333,95.97964508379582 54.0065784888889,95.97973742451751 54.006643200000006,95.96522222733199 54.006686577777785,95.96405732118879 54.006629688888886,95.89646286794579 54.00673777777778,95.89594487493318 54.00669653333333,95.88206312564242 54.00665457777779,95.8731234110825 54.006390044444444,95.83271249319239 54.006993066666666,95.72116801459948 54.00705848888889,95.71854889476415 54.00714453333334,95.71837573372196 54.00706275555556,95.68240827161172 54.00712817777778,95.67790234317124 54.007236266666666,95.67772906807812 54.006978133333334,95.66880426940486 54.0072621561472,95.60945110290805 54.00726257777777,95.60936295091147 54.00735288888889,95.595754198043 54.00722488888889,95.58607977464888 54.00712675555556,95.49318465458535 54.00712817777778,95.48692675465267 54.006978844444454,95.47099847906496 54.00697457777778,95.46905750822238 54.007051377777785,95.45813448471698 54.007089066666666,95.4580651169314 54.007082666666676,95.44708786558122 53.95112177777778,95.44692344373436 53.623114666666666,95.44669629375355 53.58009457777778,95.44638455517361 53.57984853333333,95.36269678525406 53.13547662222222,95.35922480460678 53.13376995555556,95.66839611246354z" stroke="#0E478F" stroke-width="0.003" stroke-opacity="0.8" fill="royalblue" fill-opacity="0.75"></path></g><g data-fips="56" data-geo-id="56023" data-county="Lincoln"><path d="M49.03316835555556,94.88884433791331 49.033166933333334,94.89505351257021 49.0334656,95.03006166142825 49.03379129317547,95.24201042258198 49.034084647223466,95.43228723437943 49.36564408888889,95.43293266846615 49.74364444444444,95.43402683747719 49.74468266666668,95.18896302263659 49.74477653333334,95.02491226819191 49.739191466666675,95.00272403372276 49.73958542222223,94.77193403645653 49.6394680888889,94.77184562495464 49.630921955555564,94.76636289870882 49.47561031111111,94.76675021362897 49.392615822222226,94.76544986366147 49.391410488888894,94.60083531701444 49.35812906666667,94.60093265233736 49.358169600000004,94.34824562897968 49.33441635555556,94.34815465873965 49.33444693333333,94.28131816837342 49.3598848,94.28133463877631 49.35967644444445,94.21956499246419 49.359649422222226,93.94423701856309 49.36634026666666,93.94408112643988 49.366289066666674,93.8378656960567 49.198938311111114,93.83791059510878 49.198936177777775,93.76098393836529 49.11794915555555,93.76141298472128 49.034939022222225,93.75924426534269 49.035214933333336,93.87654928231504 49.035258311111114,93.88272832561847 49.035212800000004,93.88741363192847 49.03518862222223,93.89443894985271 49.03521066666667,93.89455109076604 49.035276088888885,93.99661609775583 49.03526257777778,94.00064807026183 49.035271111111115,94.0026435135622 49.035294577777776,94.00835011308595 49.035316622222226,94.01369316799938 49.035332977777784,94.02198125582086 49.03533653333333,94.02359845190324 49.03537991111111,94.02673638790553 49.035310933333335,94.03855203441057 49.035354311111114,94.04133316279948 49.03535360000001,94.04285742690402 49.03535360000001,94.04311325044218 49.03523128888889,94.04502654230627 49.03527616269014,94.04814487240348 49.03528604444445,94.0488315445539 49.03543182222222,94.09126054348482 49.03540835555555,94.09668462404628 49.035406933333334,94.10157471878242 49.035391604519816,94.11222908840907 49.03528177777778,94.18850927055688 49.03568782222222,94.33611149875054 49.03394346666666,94.47137821614739 49.03345030997618,94.53778694436929 49.03338595555556,94.54644754813121 49.033187555555564,94.6962796323156 49.03319182222223,94.76228200586742 49.03317546666667,94.84489776221012 49.033203199999996,94.85651164836074 49.03316835555556,94.88884433791331z" stroke="#0E478F" stroke-width="0.003" stroke-opacity="0.8" fill="royalblue" fill-opacity="0.75"></path></g><g data-fips="56" data-geo-id="56025" data-county="Natrona"><path d="M51.524603733333336,94.27903842721571 51.525671111111116,94.61449927551197 51.539254755555554,94.61449927551197 52.17778986666667,94.61822597373843 52.568283022222225,94.61559572715274 52.56902613333333,94.5481982462365 52.568413155555554,94.34013809115311 52.57196871111112,94.33665258780628 52.56805760000001,94.32155059725605 52.567417600000006,94.28251952707174 52.57054720000001,94.28197116794067 52.570432000000004,94.22258792556153 52.56971591111112,94.08695086213015 52.56976497777778,93.9437303676718 52.569693155555555,93.60574717488618 52.56665884444445,93.60085045396971 52.5667072,93.58428267832429 52.304495644444444,93.58600298669062 51.83223466666667,93.58634998300295 51.83236693333334,93.57858226795395 51.74721351111111,93.57852540812917 51.7328896,93.57727055671255 51.53073991111111,93.57752741127732 51.53064391111111,93.60556197507879 51.543444622222225,93.60565996446704 51.54366008888889,93.94247054207435 51.55390080000001,93.94237310665727 51.55419306666667,94.19436406872492 51.554542222222224,94.27913531555552 51.524603733333336,94.27903842721571z" stroke="#0E478F" stroke-width="0.003" stroke-opacity="0.8" fill="royalblue" fill-opacity="0.75"></path></g><g data-fips="56" data-geo-id="56027" data-county="Niobrara"><path d="M53.4044864,93.5792155650687 53.405544533333334,94.27648536307034 53.4090816,94.27781568291792 53.40982257777778,94.44605378213075 53.578212266666675,94.4455426629293 53.666321066666676,94.44572044401343 54.006916782012446,94.44332193288125 54.00704995555555,94.42481500590353 54.00693973333334,94.4218525005249 54.00705208888889,94.40630782988643 54.006891377777784,94.30963961121412 54.006852977777775,94.30518194560122 54.00666524444444,94.06644986338853 54.006132622222225,93.7845710256737 54.00612693333334,93.7774916813844 54.00588942222222,93.77033625092288 54.00575786666667,93.74928023483504 54.005607822222224,93.68567297649449 54.00549973333334,93.64850988473879 54.00549035494613,93.60060731351662 54.00548551111112,93.5758509739757 54.005484704864,93.57560005748803 53.4044864,93.5792155650687z" stroke="#0E478F" stroke-width="0.003" stroke-opacity="0.8" fill="royalblue" fill-opacity="0.75"></path></g><g data-fips="56" data-geo-id="56029" data-county="Park"><path d="M49.02621297777778,92.22355088621623 49.02654862222222,92.34055116822698 49.027192177777785,92.3651629511089 49.02731894960071,92.42426526737839 49.06612977777778,92.42441455560146 49.08879075555555,92.42441855501497 49.14562702222222,92.42436956218035 49.223694933333334,92.42380564167351 49.30285013333334,92.42423658142046 49.30313386666667,92.45611223955167 49.30282666666667,92.50764258876418 49.398170311111116,92.50770449075435 49.50760533333333,92.50743391866591 49.51054293333333,92.51278222597615 49.50990791111111,92.52193021346945 49.507036444444445,92.5234833514841 49.507110399999995,92.52726920086837 49.511193600000006,92.52901781463609 49.51440426666667,92.53085020954668 49.51768604444445,92.5331426178375 49.52167822222222,92.53685399168796 49.52743893333333,92.5382620362401 49.53255466666666,92.5399284941857 49.53655324444444,92.54170566401332 49.53914951111111,92.54196510031531 49.540213333333334,92.54234826565704 49.541397333333336,92.5414522135838 49.54202453333333,92.54093832447573 49.54182897777778,92.53879291306322 49.543471644444445,92.53625324223341 49.5464512,92.53588600362583 49.55048462222222,92.53562254841154 49.55292444444445,92.53458168903913 49.55695217777778,92.53546886565127 49.56237724444444,92.5387110865008 49.567495111111114,92.54286812917562 49.571450311111114,92.54764347156792 49.5721208888889,92.55033828360902 49.5702976,92.55243438380182 49.56891733333333,92.55281748008846 49.567950933333336,92.55468404069654 49.567017955555556,92.55672611500381 49.56621511111111,92.5588828346474 49.565740088888894,92.55999408261732 49.566732800000004,92.56179457841952 49.568636444444444,92.56250179391802 49.57063893333333,92.56170779679923 49.5736064,92.56341148582219 49.57706382222223,92.56697630345178 49.58010524444444,92.57141556211656 49.580954311111114,92.57530200375895 49.579502222222224,92.57860183447073 49.57948444444444,92.58190646355393 49.578785422222225,92.5848998126882 49.57994524444445,92.58941945783178 49.57999928888889,92.59212429686103 49.57756088888889,92.59557570006564 49.57584142222222,92.59980443644372 49.57578595555555,92.6025227474195 49.57685831111111,92.6083925498142 49.57730915555556,92.61130779435172 49.57687182222223,92.61394982648764 49.5760704,92.61595095388986 49.574336,92.6178752798875 49.57328995555556,92.61771683183545 49.57175822222222,92.61824698337206 49.570934755555555,92.619537463624 49.571457422222224,92.62243022767585 49.57170702222222,92.62583698782282 49.57136782222223,92.62978455449266 49.57224888888889,92.63582096387742 49.57175111111111,92.64082276884868 49.56960853333334,92.64785803957705 49.56953102222223,92.65277714379138 49.567488,92.65446521998597 49.56678471111111,92.65819773617048 49.569632000000006,92.66253245253571 49.57185848888889,92.66484456755997 49.573316977777786,92.66923852787754 49.57591324444444,92.67245139520774 49.578210133333336,92.67405328233569 49.58052337777778,92.67611904435506 49.58364871111112,92.67686966936142 49.585875200000004,92.67749285995816 49.5882048,92.67859288458835 49.59191751111111,92.67986211795173 49.59398968888889,92.6822671148546 49.59658951111111,92.68636115468428 49.59680426666667,92.68973630632519 49.59740017777777,92.6939482530316 49.59742008888889,92.69671690461249 49.59870222222223,92.70036610877293 49.602060800000004,92.7012318531331 49.60586097777777,92.70332152788242 49.60757688888889,92.7058320236943 49.61124124444445,92.70930852848942 49.61359928888889,92.71305842370498 49.615104711111115,92.7168409071105 49.61543253333334,92.72084298869234 49.61621831111111,92.72594094207999 49.61579591111111,92.72990957654173 49.61662506666667,92.73500673684424 49.61702968888889,92.73860382049035 49.61846186666667,92.74403333553803 49.61713137777778,92.74768952069317 49.61791644444445,92.75190722262622 49.61986986666667,92.75533823030455 49.624307200000004,92.75823916822148 49.62937528888889,92.75983074556088 49.63314844444445,92.76165191005518 49.63369244444445,92.76392132746902 49.63410062222223,92.76493622450192 49.63424711111111,92.76562308406764 49.63370382222223,92.76606044339566 49.63401386666667,92.76650177539243 49.634774755555554,92.76726018271123 49.634883555555554,92.76899464206164 49.634786133333336,92.76922921254655 49.634677333333336,92.76879784067269 49.63460124444445,92.76813288561196 49.63430755555555,92.76786550991511 49.63431324444445,92.76873323401131 49.634242844444444,92.7696436843596 49.633796977777784,92.77007504997677 49.63302471111111,92.76975301696075 49.632699022222226,92.77042988059262 49.63219911111112,92.77102921143575 49.632008533333334,92.77150429850714 49.631519288888896,92.7715937496148 49.6313728,92.77136217035384 49.63175324444445,92.77222984242371 49.632900266666674,92.77358251047377 49.63323804444445,92.77500570999652 49.63291733333333,92.77518062597711 49.632352000000004,92.77437262902234 49.63052515555555,92.77417683963745 49.630957511111106,92.77825548374183 49.63315697777778,92.78152991971072 49.63709084444445,92.78318843338101 49.644920177777784,92.78184890652992 49.64686862222223,92.78433515522282 49.64721848888889,92.78633043723772 49.65000817777778,92.78696040752287 49.654433422222226,92.785506696112 49.65519431111112,92.78786361803392 49.65815751111111,92.792045628321 49.66435911111111,92.79334120575234 49.671876977777785,92.80056272797034 49.674695822222226,92.8113004694121 49.67248924444445,92.81719197800113 49.675539911111116,92.82435792049473 49.6763136,92.83041889023436 49.67799253333334,92.83689818915704 49.68231822222222,92.83926494958007 49.68269937777778,92.84412524402 49.68127217777778,92.854025254363 49.683157333333334,92.86290941738997 49.68717013333334,92.86905072813889 49.69275022222223,92.87363470799667 49.694269866666666,92.87248180146182 49.69685617777778,92.87478659963705 49.69836871111111,92.87718853318682 49.694609066666665,92.87994651767137 49.69211306666667,92.88090285311841 49.69117653333334,92.88710575689555 49.69508693333334,92.8890340482868 49.69954204444445,92.89225466883383 49.69563235555556,92.89595910527535 49.694478933333336,92.89523212194189 49.69119288888889,92.89700542967154 49.69252337777778,92.90206322663417 49.69592604444445,92.90538328365808 49.69919715555555,92.90336925722679 49.7008768,92.90678641714396 49.69547591111112,92.90992475282908 49.69230293333334,92.91252255255709 49.69189475555556,92.91631096884448 49.69314488888889,92.91800729866895 49.69311288888889,92.92175867976344 49.69226737777778,92.92535418836009 49.68809031111111,92.92816441957636 49.68811591111111,92.93274673980497 49.687715555555556,92.9360055888203 49.68903253333334,92.938371312239 49.68822684444445,92.94208472030121 49.68817066666667,92.94521818951941 49.689895822222226,92.94587617691332 49.691378488888894,92.95083561788525 49.693913599999995,92.9529381750531 49.73957262222223,92.95598387552101 49.73984711111111,92.97582757771798 49.73995093333333,93.06531109340625 49.7399616,93.07871635638114 49.74331591111111,93.07859573553256 49.75396124444445,93.0841855591223 49.75492337777778,93.08808151125476 49.75449671111111,93.09015740138138 49.75606115555556,93.09282629502623 49.758123377777785,93.09569274924831 49.759261155555556,93.0985590634123 49.76103893333334,93.10122757485351 49.760825600000004,93.10320417174427 49.762746311111115,93.10527952681346 49.76438186666667,93.10705834416142 49.76423964444445,93.1101217365202 49.76445297777778,93.11367902372999 49.764737422222225,93.1181253295181 49.76630186666667,93.1193109541694 49.76921742222222,93.11891574861369 49.77270186666667,93.1194097551425 49.77462186666667,93.1191133517242 49.77661368888889,93.12000255748819 49.77675591111112,93.12108934623731 49.77742506666667,93.12308997290282 49.77675591111112,93.12652298814206 49.77647146666667,93.12869630406628 49.77647146666667,93.13106710239586 49.77704035555556,93.1318573472278 49.780883200000005,93.13579853449295 49.79181724444445,93.13162422610864 49.81518080000001,93.12703570037863 49.83583928888889,93.1395646399061 49.86293048888889,93.13592002553548 49.87053226666667,93.1322939529349 49.87892906666667,93.13116884701464 49.878621155555564,93.13923278194432 49.87176248888889,93.14792368128909 49.87197582222222,93.158586052575 49.87803377777778,93.16042743113246 49.88378382222223,93.16388393278422 49.88496711111111,93.17088911745202 49.88353137777777,93.17948650415946 49.88703644444445,93.18586414286418 49.89810702222222,93.19549541415947 49.90225848888889,93.1984634222226 49.90214400000001,93.20890156859788 49.89917511111111,93.21013468652907 49.89805653333333,93.21483706767384 49.9007936,93.21826669815144 49.90686720000001,93.22018511284753 49.90836622222222,93.22193776914187 49.90742826666667,93.22468944261803 49.90461653333333,93.22727333417016 49.89850168888889,93.2296441027232 49.89228231111112,93.23064208485994 49.886079288888894,93.2315937022498 49.88137315555556,93.23605278607063 49.87977244444444,93.24179821451723 49.882942577777776,93.2477353235522 49.880474311111115,93.25288716805198 49.88346453333334,93.26022278957457 49.89031324444445,93.26498522969241 49.89637191111112,93.26219503059676 49.898274844444444,93.26094920487752 49.900704000000005,93.26337873771709 49.90095857777777,93.26608215269667 49.903553422222224,93.26841489401833 49.90684088888889,93.26879529849384 49.91069368888889,93.27147777009272 49.916025600000005,93.27507063197251 49.92216888888889,93.27869381993033 49.92566826666667,93.28024077540175 49.929359644444446,93.28012253820197 49.93146737777778,93.27825731494914 49.933838933333334,93.27458680076316 49.93906915555556,93.27107373186124 49.944582399999994,93.26742149457 49.945325511111115,93.2654770242957 49.94876871111111,93.26561105978749 49.95001528888889,93.26657098151921 49.955042133333336,93.26333142931314 49.9599296,93.25778326956919 49.96816924444444,93.25198419844754 49.97626382222223,93.24851019925458 49.98402986666667,93.24869455113115 49.992430222222225,93.24458149384739 50.00181902222222,93.24063477852903 50.01042133333334,93.2401762995515 50.01518648888889,93.23457566572017 50.012712533333335,93.2249221947545 50.01149866666667,93.21490118397001 50.01636835555555,93.20543587545399 50.02373404444445,93.18277509140587 50.04479004444444,93.15918043416205 50.05590328888889,93.15210078085428 50.06722915555556,93.14232906235202 50.070242844444444,93.14681566317253 50.0801024,93.1417582133613 50.09072782222222,93.13147506761875 50.10835626666667,93.13168546988214 50.12460657777778,93.14679097447369 50.15036657777778,93.13720504954267 50.152964977777785,93.15365600797345 50.174321066666664,93.1553770779749 50.18033777777779,93.17156234514454 50.19490275555556,93.1762885417121 50.20553671111111,93.20087185849736 50.21854577777778,93.20239323685976 50.22846648888889,93.24183863857434 50.25069795555555,93.24279401856833 50.26018986666667,93.25048579035706 50.26634737777778,93.27092886869781 50.29507697777778,93.2681428934556 50.39418951111111,93.26826115472431 50.42232675555556,93.26666559308038 50.42284231111111,93.1810044883722 50.550909866666665,93.18072813525876 50.54863288888889,93.09568780720639 50.63695715555556,93.09549111360016 50.636603022222225,93.0078889930681 50.80834986666667,93.0080998392689 50.808489244444445,92.91988202791944 50.79196657777778,92.91986913998065 50.79220337777778,92.6609720714975 50.79223466666667,92.56951363413461 50.77867093333333,92.56939494857355 50.7785984,92.49787522518562 50.77869724444445,92.332643343976 50.778811733333335,92.21874874589882 50.75878257777778,92.21871161956446 50.75817594080569,92.08919936790653 50.71427054881209,92.08930987561362 50.524275657517514,92.08978808094524 50.444613688888886,92.08998858398772 50.42985955555556,92.09000165751897 50.41532800000001,92.08367171013147 50.30156017777778,92.08423393092974 50.29739093333333,92.084296287818 50.2217152,92.08497315744052 50.2140928,92.08469456570589 50.08048284444445,92.08696349024606 50.016943644444446,92.08705903253708 49.955036444444445,92.08799533860528 49.921077480812095,92.08741148987602 49.92093368888889,92.08740901768164 49.866144,92.08631580990638 49.78129777777777,92.0864173875839 49.77670757229582,92.08632627027144 49.75961315555556,92.08598693837547 49.75904213333333,92.08592357758964 49.69948231111112,92.08568220252906 49.635908977777774,92.09344291004389 49.57385244444444,92.09277720159645 49.547064177777784,92.09045822359423 49.53448462222223,92.09056180526203 49.519859200000006,92.08901308906059 49.49125191111111,92.0958341678961 49.43070577777778,92.09729119772598 49.38868266666666,92.09719265580719 49.38493653333334,92.09741588317763 49.276251022222226,92.09732840228415 49.24389902222223,92.0916730337706 49.236228266666664,92.08967582401078 49.21954986666667,92.0866406567011 49.035182222222225,92.088256817711 49.03461994089031,92.08825856477331 49.02741404444445,92.088280954184 49.02669724444445,92.15403542373868 49.02710826666667,92.15636892247079 49.02621297777778,92.22355088621623z" stroke="#0E478F" stroke-width="0.003" stroke-opacity="0.8" fill="royalblue" fill-opacity="0.75"></path></g><g data-fips="56" data-geo-id="56031" data-county="Platte"><path d="M53.12959217777777,94.44906147128151 53.13065031111112,94.46876859936772 53.132616533333334,94.61741667929877 53.13144177777777,94.61734538379258 53.138666666666666,94.94650653599248 53.13495253333334,95.27794634711887 53.13547662222222,95.35922480460678 53.57984853333333,95.36269678525406 53.5790464,94.7134369986464 53.578212266666675,94.4455426629293 53.40982257777778,94.44605378213075 53.34098275555556,94.44641320551034 53.2493248,94.44690885842401 53.222466133333334,94.44815715138014 53.12959217777777,94.44906147128151z" stroke="#0E478F" stroke-width="0.003" stroke-opacity="0.8" fill="royalblue" fill-opacity="0.75"></path></g><g data-fips="56" data-geo-id="56033" data-county="Sheridan"><path d="M51.262918368808535,92.08831093814985 51.26291697777778,92.08892760675936 51.26548195555556,92.09370235324737 51.2736768,92.09592567326908 51.28005973333333,92.10007745101746 51.283800177777785,92.10580136616994 51.28379733333334,92.11152873405524 51.285063111111114,92.11882660893824 51.28682666666667,92.12357073731367 51.287317333333334,92.12845517348109 51.28679751111111,92.13307591142478 51.28606648888889,92.13785906045098 51.283656533333335,92.14745832678614 51.28708053333333,92.15850243922179 51.292416,92.16403575504268 51.299003733333336,92.17076762539457 51.30426382222222,92.17623650352937 51.30495857777778,92.18311856002923 51.3061888,92.18735141039272 51.30554240000001,92.19140826998127 51.30421973333333,92.19205979051864 51.30007893333334,92.19562244380815 51.29909048888889,92.20595480210136 51.29768888888889,92.21159596709143 51.2975744,92.2192775427188 51.30420266666667,92.22406358592241 51.308543288888885,92.22879606087812 51.31335253333334,92.24041541618456 51.31807715555556,92.24479952805967 51.31982222222222,92.24631598623121 51.32116551111111,92.25363193653325 51.32062435555556,92.26127283126466 51.32317724444445,92.26473998019203 51.32315448888889,92.26718631061566 51.32487182222222,92.26958441600522 51.326889244444445,92.26917036896192 51.33064675555556,92.27282951977524 51.33010417777778,92.27622179679354 51.32651377777778,92.28387774716651 51.32334577777778,92.28643752326133 51.3194368,92.29204979152499 51.324467911111114,92.29861244790081 51.33890133333333,92.30531963708026 51.34459875555556,92.31005047301574 51.35091342222222,92.31435718095895 51.36268302222223,92.31678939259359 51.37134862222223,92.31868260022816 51.37601066666667,92.32604548702507 51.3759808,92.33117521562819 51.37731555555556,92.33439884009303 51.37993031111112,92.3358358437662 51.379395555555554,92.34102077708403 51.37920071111112,92.34563655900251 51.381600000000006,92.35227923461323 51.381715911111115,92.36151363992863 51.37759928888889,92.36617182595664 51.378180266666675,92.36825357563657 51.38129066666667,92.37358771759364 51.388383288888896,92.37581730335907 51.392795022222224,92.374167137949 51.39990826666667,92.37902743585853 51.40837831111111,92.38214033393643 51.412948622222224,92.38499392700095 51.4178432,92.38242750061077 51.42279324444445,92.38466274932335 51.42658346666667,92.38925904610241 51.42447146666667,92.39753626285427 51.42811235555556,92.40280469456827 51.43215715555556,92.40726653249837 51.43626097777778,92.40989686551761 51.43834026666667,92.4093308039321 51.44283022222223,92.40735354542427 51.44468053333333,92.40328680166206 51.44911857777778,92.39811644398928 51.45568,92.39896369807073 51.464265955555554,92.39750425269149 51.469888000000005,92.395572606693 51.47669831111111,92.39325874811288 51.48748871111111,92.39550458277017 51.492945066666664,92.40213853999089 51.501846755555555,92.40577329031555 51.51274168888889,92.40970884567498 51.520273777777774,92.41491316966247 51.5214144,92.42068998195833 51.52578488888889,92.4247765014073 51.53285262222222,92.4241075997904 51.537550933333335,92.4275170177109 51.538219377777786,92.4351179979397 51.53439857777778,92.4389965831441 51.531806577777786,92.44470702769046 51.535385600000005,92.45301230669932 51.54464497777778,92.45702659815532 51.55273031111111,92.45141930446967 51.55508906666667,92.44923560106669 51.560741688888896,92.4531801989899 51.56265884444445,92.45935989603342 51.56787271111111,92.46575974517367 51.57391857777778,92.47537967302563 51.57807715555556,92.47776517626463 51.58471822222222,92.48056312269449 51.58969671111112,92.48298736774018 51.59599857777778,92.48490411772335 51.59816035555556,92.48405512215574 51.60127573333334,92.48296639201229 51.60321422222222,92.48155001341335 51.602825244444446,92.48089175517268 51.607072,92.47904080085196 51.610551466666664,92.48371851694452 51.612911644444445,92.48945552096805 51.6189568,92.49143397664392 51.62425528888889,92.49067296331222 51.62971875555556,92.49252254791921 51.634719999999994,92.49477352870147 51.6378048,92.49806196079723 51.63901511111112,92.50265127393817 51.64316231111112,92.50728515340099 51.64369422222223,92.51135559297593 51.64545137777778,92.51908035667438 51.64714808888888,92.52808462833879 51.64826951111112,92.53057774925726 51.88750222222223,92.53121648198726 52.04303360000001,92.53253883601293 52.231110400000006,92.53353482316342 52.317228799999995,92.52864154774096 52.494588444444446,92.5266424018339 52.61534151111111,92.52644178479 52.61469013333333,92.45438141417432 52.61462968888889,92.39734320129159 52.61157191111111,92.38343707528216 52.61207111111111,92.23245375656086 52.60579342222222,92.22138164452971 52.60457605758364,92.09595722471656 52.43478328888889,92.09585629008748 52.43469148980267,92.09585585468113 52.219207230432,92.09483379603978 51.99020586666667,92.09374760484923 51.98728888888889,92.09368525818849 51.9199534598208,92.09339765497263 51.87498595555555,92.09320558888132 51.85778062222222,92.09262233780363 51.85071004444444,92.0930296085746 51.83595733333334,92.09088260555667 51.8217720888889,92.09022491274783 51.81569422222223,92.08949983292365 51.66119751111112,92.08819446510893 51.561208888888885,92.08812104986191 51.50699163597582,92.0884859742684 51.47888071111112,92.088675181812 51.47814826666667,92.0887445736408 51.37731271111112,92.08882703918374 51.262918368808535,92.08831093814985z" stroke="#0E478F" stroke-width="0.003" stroke-opacity="0.8" fill="royalblue" fill-opacity="0.75"></path></g><g data-fips="56" data-geo-id="56035" data-county="Sublette"><path d="M49.33444693333333,94.28131816837342 49.33441635555556,94.34815465873965 49.358169600000004,94.34824562897968 49.35812906666667,94.60093265233736 49.391410488888894,94.60083531701444 49.392615822222226,94.76544986366147 49.47561031111111,94.76675021362897 49.630921955555564,94.76636289870882 49.6394680888889,94.77184562495464 49.73958542222223,94.77193403645653 50.10275697777778,94.77838004045378 50.45769671111111,94.77871827336352 50.45774151111111,94.6151852827364 50.43948302222222,94.61534618498797 50.43708373333334,94.36428230371115 50.39326862222222,94.3635324791824 50.39757368888889,94.34989081167289 50.38370986666667,94.33133150566638 50.39479822222222,94.3217248726562 50.36126791111111,94.30859470909442 50.35003946666667,94.29165294181598 50.329654044444446,94.29789769993272 50.320672,94.29137686724299 50.32766862222223,94.27279461260822 50.33940551111111,94.26690580144455 50.31320817777778,94.25565663273815 50.29795768888889,94.23756844486087 50.28774542222222,94.21542554761064 50.26463288888889,94.20674225893569 50.25591964444445,94.19000261866955 50.25286328888889,94.16861769863289 50.24229048888889,94.14459458975283 50.22530986666666,94.11976523609283 50.20603946666667,94.12610856018074 50.19647573333333,94.1103111717358 50.18143004444444,94.09797812800082 50.1659712,94.09619092770367 50.157043200000004,94.07484437953556 50.13898026666667,94.07153591039119 50.131621688888885,94.0567977260668 50.095943822222225,94.05482646009568 50.094715022222225,94.03594296724549 50.0868928,94.01804706339237 50.096205511111116,94.00881728451304 50.090345955555556,93.98573756293956 50.06823111111112,93.95472567319032 50.04754915555556,93.94476802304789 50.040607288888886,93.90794699746652 50.02563484444445,93.90438454007217 50.01954631111111,93.86936966713148 50.00810666666666,93.8573487011897 50.0123776,93.84423223853437 50.00761031111111,93.82483865913568 49.996290844444445,93.80876593300786 50.006137599999995,93.79909344946196 50.001416533333334,93.79226883092468 50.010757688888894,93.76481983506469 49.99205404444445,93.74469938673207 49.994707911111114,93.70993363983808 49.98539591111111,93.70203829730082 49.96771626666666,93.71004319487659 49.952382577777776,93.71017524755601 49.952275911111116,93.64716544905198 49.952201244444446,93.61492804779246 49.74110577777778,93.61337709947745 49.737024,93.69857011865354 49.71453582222223,93.69841651620814 49.673951288888894,93.69821497354269 49.533000533333336,93.69842336473326 49.53318471111111,93.78323846168612 49.36648533333334,93.78277440196209 49.366289066666674,93.8378656960567 49.36634026666666,93.94408112643988 49.359649422222226,93.94423701856309 49.35967644444445,94.21956499246419 49.3598848,94.28133463877631 49.33444693333333,94.28131816837342z" stroke="#0E478F" stroke-width="0.003" stroke-opacity="0.8" fill="royalblue" fill-opacity="0.75"></path></g><g data-fips="56" data-geo-id="56037" data-county="Sweetwater"><path d="M49.73958542222223,94.77193403645653 49.739191466666675,95.00272403372276 49.74477653333334,95.02491226819191 49.74468266666668,95.18896302263659 49.74364444444444,95.43402683747719 49.74330132522169,95.98336627003624 49.77315911111111,95.98312095770396 49.777274311111114,95.98355719487748 49.77789297777778,95.98357792313345 49.795178666666665,95.9830295642146 49.88067626666667,95.98331033966105 49.881385244444445,95.98326605636959 49.98015360000001,95.98276668940778 49.98124302222222,95.98269602394737 50.007878399999996,95.9825744791674 50.10225961047751,95.98279719637532 50.10849706666667,95.98281191526023 50.13283982222223,95.98188477870208 50.31058844444444,95.98011149726105 50.323921777777784,95.9791221311994 50.36538168888889,95.98025283398317 50.453279288888886,95.98044128244564 50.57127964444445,95.98097364626264 50.75121208888889,95.98091522780122 50.82548124444445,95.98143156971797 50.84397582222223,95.98095668606982 51.02176071111111,95.98095480160367 51.07112746666667,95.98063349928829 51.16690560000001,95.97911741989472 51.25801173333334,95.97914380319625 51.25894826666667,95.60444120490317 51.24986311111112,95.6044118173345 51.24994275555556,95.36157564633382 51.24996551111111,95.35642556737658 51.54864355555556,95.35846623441392 51.55165155555556,95.27934253466142 51.5528384,94.94733731841788 51.53968284444444,94.94733731841788 51.53939768888889,94.78057083375867 50.886725688888895,94.77899212533032 50.45769671111111,94.77871827336352 50.10275697777778,94.77838004045378 49.73958542222223,94.77193403645653z" stroke="#0E478F" stroke-width="0.003" stroke-opacity="0.8" fill="royalblue" fill-opacity="0.75"></path></g><g data-fips="56" data-geo-id="56039" data-county="Teton"><path d="M49.02731894960071,92.42426526737839 49.02740764444445,92.46557989957228 49.029380266666664,92.61178617949606 49.031840711111116,92.61611040331059 49.031684266666666,92.65198935814286 49.03166862222222,92.65422719922833 49.031716977777776,92.71483230170949 49.031328,92.73601815935399 49.0317376,92.96302285963108 49.03221191111111,92.97301963497581 49.0320832,93.02443068950359 49.03199928888889,93.02647419965547 49.03199928888889,93.02690466364967 49.03176746666667,93.06680137768723 49.03299626666667,93.08672522335759 49.033198994130494,93.10299503889286 49.03330346666667,93.11137768116052 49.03358933333334,93.17715319317337 49.03344711111111,93.26842672010125 49.03371377777778,93.35594855820983 49.033646222222224,93.35635398270028 49.033656177777786,93.36076820578867 49.033877333333336,93.39442095689454 49.03391928888889,93.39642312851701 49.03387164444444,93.3973179867865 49.034040888888896,93.40112245793298 49.03416462222223,93.42267321871802 49.03433606362454,93.49735055436427 49.034521071352174,93.57783146807165 49.034939022222225,93.75924426534269 49.11794915555555,93.76141298472128 49.198936177777775,93.76098393836529 49.198938311111114,93.83791059510878 49.366289066666674,93.8378656960567 49.36648533333334,93.78277440196209 49.53318471111111,93.78323846168612 49.533000533333336,93.69842336473326 49.673951288888894,93.69821497354269 49.71453582222223,93.69841651620814 49.737024,93.69857011865354 49.74110577777778,93.61337709947745 49.741200355555556,93.26978966023623 49.73963804444445,93.26342407490185 49.7399616,93.07871635638114 49.73995093333333,93.06531109340625 49.73984711111111,92.97582757771798 49.73957262222223,92.95598387552101 49.693913599999995,92.9529381750531 49.691378488888894,92.95083561788525 49.689895822222226,92.94587617691332 49.68817066666667,92.94521818951941 49.68822684444445,92.94208472030121 49.68903253333334,92.938371312239 49.687715555555556,92.9360055888203 49.68811591111111,92.93274673980497 49.68809031111111,92.92816441957636 49.69226737777778,92.92535418836009 49.69311288888889,92.92175867976344 49.69314488888889,92.91800729866895 49.69189475555556,92.91631096884448 49.69230293333334,92.91252255255709 49.69547591111112,92.90992475282908 49.7008768,92.90678641714396 49.69919715555555,92.90336925722679 49.69592604444445,92.90538328365808 49.69252337777778,92.90206322663417 49.69119288888889,92.89700542967154 49.694478933333336,92.89523212194189 49.69563235555556,92.89595910527535 49.69954204444445,92.89225466883383 49.69508693333334,92.8890340482868 49.69117653333334,92.88710575689555 49.69211306666667,92.88090285311841 49.694609066666665,92.87994651767137 49.69836871111111,92.87718853318682 49.69685617777778,92.87478659963705 49.694269866666666,92.87248180146182 49.69275022222223,92.87363470799667 49.68717013333334,92.86905072813889 49.683157333333334,92.86290941738997 49.68127217777778,92.854025254363 49.68269937777778,92.84412524402 49.68231822222222,92.83926494958007 49.67799253333334,92.83689818915704 49.6763136,92.83041889023436 49.675539911111116,92.82435792049473 49.67248924444445,92.81719197800113 49.674695822222226,92.8113004694121 49.671876977777785,92.80056272797034 49.66435911111111,92.79334120575234 49.65815751111111,92.792045628321 49.65519431111112,92.78786361803392 49.654433422222226,92.785506696112 49.65000817777778,92.78696040752287 49.64721848888889,92.78633043723772 49.64686862222223,92.78433515522282 49.644920177777784,92.78184890652992 49.63709084444445,92.78318843338101 49.63315697777778,92.78152991971072 49.630957511111106,92.77825548374183 49.63052515555555,92.77417683963745 49.632352000000004,92.77437262902234 49.63291733333333,92.77518062597711 49.63323804444445,92.77500570999652 49.632900266666674,92.77358251047377 49.63175324444445,92.77222984242371 49.6313728,92.77136217035384 49.631519288888896,92.7715937496148 49.632008533333334,92.77150429850714 49.63219911111112,92.77102921143575 49.632699022222226,92.77042988059262 49.63302471111111,92.76975301696075 49.633796977777784,92.77007504997677 49.634242844444444,92.7696436843596 49.63431324444445,92.76873323401131 49.63430755555555,92.76786550991511 49.63460124444445,92.76813288561196 49.634677333333336,92.76879784067269 49.634786133333336,92.76922921254655 49.634883555555554,92.76899464206164 49.634774755555554,92.76726018271123 49.63401386666667,92.76650177539243 49.63370382222223,92.76606044339566 49.63424711111111,92.76562308406764 49.63410062222223,92.76493622450192 49.63369244444445,92.76392132746902 49.63314844444445,92.76165191005518 49.62937528888889,92.75983074556088 49.624307200000004,92.75823916822148 49.61986986666667,92.75533823030455 49.61791644444445,92.75190722262622 49.61713137777778,92.74768952069317 49.61846186666667,92.74403333553803 49.61702968888889,92.73860382049035 49.61662506666667,92.73500673684424 49.61579591111111,92.72990957654173 49.61621831111111,92.72594094207999 49.61543253333334,92.72084298869234 49.615104711111115,92.7168409071105 49.61359928888889,92.71305842370498 49.61124124444445,92.70930852848942 49.60757688888889,92.7058320236943 49.60586097777777,92.70332152788242 49.602060800000004,92.7012318531331 49.59870222222223,92.70036610877293 49.59742008888889,92.69671690461249 49.59740017777777,92.6939482530316 49.59680426666667,92.68973630632519 49.59658951111111,92.68636115468428 49.59398968888889,92.6822671148546 49.59191751111111,92.67986211795173 49.5882048,92.67859288458835 49.585875200000004,92.67749285995816 49.58364871111112,92.67686966936142 49.58052337777778,92.67611904435506 49.578210133333336,92.67405328233569 49.57591324444444,92.67245139520774 49.573316977777786,92.66923852787754 49.57185848888889,92.66484456755997 49.569632000000006,92.66253245253571 49.56678471111111,92.65819773617048 49.567488,92.65446521998597 49.56953102222223,92.65277714379138 49.56960853333334,92.64785803957705 49.57175111111111,92.64082276884868 49.57224888888889,92.63582096387742 49.57136782222223,92.62978455449266 49.57170702222222,92.62583698782282 49.571457422222224,92.62243022767585 49.570934755555555,92.619537463624 49.57175822222222,92.61824698337206 49.57328995555556,92.61771683183545 49.574336,92.6178752798875 49.5760704,92.61595095388986 49.57687182222223,92.61394982648764 49.57730915555556,92.61130779435172 49.57685831111111,92.6083925498142 49.57578595555555,92.6025227474195 49.57584142222222,92.59980443644372 49.57756088888889,92.59557570006564 49.57999928888889,92.59212429686103 49.57994524444445,92.58941945783178 49.578785422222225,92.5848998126882 49.57948444444444,92.58190646355393 49.579502222222224,92.57860183447073 49.580954311111114,92.57530200375895 49.58010524444444,92.57141556211656 49.57706382222223,92.56697630345178 49.5736064,92.56341148582219 49.57063893333333,92.56170779679923 49.568636444444444,92.56250179391802 49.566732800000004,92.56179457841952 49.565740088888894,92.55999408261732 49.56621511111111,92.5588828346474 49.567017955555556,92.55672611500381 49.567950933333336,92.55468404069654 49.56891733333333,92.55281748008846 49.5702976,92.55243438380182 49.5721208888889,92.55033828360902 49.571450311111114,92.54764347156792 49.567495111111114,92.54286812917562 49.56237724444444,92.5387110865008 49.55695217777778,92.53546886565127 49.55292444444445,92.53458168903913 49.55048462222222,92.53562254841154 49.5464512,92.53588600362583 49.543471644444445,92.53625324223341 49.54182897777778,92.53879291306322 49.54202453333333,92.54093832447573 49.541397333333336,92.5414522135838 49.540213333333334,92.54234826565704 49.53914951111111,92.54196510031531 49.53655324444444,92.54170566401332 49.53255466666666,92.5399284941857 49.52743893333333,92.5382620362401 49.52167822222222,92.53685399168796 49.51768604444445,92.5331426178375 49.51440426666667,92.53085020954668 49.511193600000006,92.52901781463609 49.507110399999995,92.52726920086837 49.507036444444445,92.5234833514841 49.50990791111111,92.52193021346945 49.51054293333333,92.51278222597615 49.50760533333333,92.50743391866591 49.398170311111116,92.50770449075435 49.30282666666667,92.50764258876418 49.30313386666667,92.45611223955167 49.30285013333334,92.42423658142046 49.223694933333334,92.42380564167351 49.14562702222222,92.42436956218035 49.08879075555555,92.42441855501497 49.06612977777778,92.42441455560146 49.02731894960071,92.42426526737839z" stroke="#0E478F" stroke-width="0.003" stroke-opacity="0.8" fill="royalblue" fill-opacity="0.75"></path></g><g data-fips="56" data-geo-id="56041" data-county="Uinta"><path d="M49.03356369036516,95.74351699027017 49.033441422222225,95.98298528072291 49.24392746666667,95.98403300082799 49.26931484444445,95.98450409223733 49.393906488888895,95.98450503441657 49.42171164444444,95.98601250289208 49.51060337777778,95.98582312917432 49.599495822222224,95.98474717400697 49.60864142222223,95.9853708910945 49.68838471111111,95.98431282955602 49.69127893333334,95.98379368502336 49.74330132522169,95.98336627003624 49.74364444444444,95.43402683747719 49.36564408888889,95.43293266846615 49.034084647223466,95.43228723437943 49.034105600000004,95.44585516621568 49.03376782222223,95.624125830807 49.033528888888895,95.64027128856239 49.03355284954027,95.71122833584724 49.03356373333334,95.74343267162786 49.03356369036516,95.74351699027017z" stroke="#0E478F" stroke-width="0.003" stroke-opacity="0.8" fill="royalblue" fill-opacity="0.75"></path></g><g data-fips="56" data-geo-id="56043" data-county="Washakie"><path d="M50.808489244444445,92.91988202791944 50.80834986666667,93.0080998392689 50.85137493333334,93.00774644872766 50.851960177777784,93.09468752935273 50.89631004444445,93.09450170510607 50.89453297777778,93.1821089008734 50.98001066666667,93.18220759624374 50.97977315555556,93.23807809639251 51.068263111111115,93.23646495321984 51.060487111111115,93.25607800966515 51.075599644444445,93.26533608958906 51.230970311111115,93.26563372752432 51.23087857777778,93.34956275461722 51.402043733333336,93.34966412198305 51.401800533333336,93.43578995554182 51.487888355555555,93.43514037907799 51.48792533333333,93.57749309870914 51.53073991111111,93.57752741127732 51.7328896,93.57727055671255 51.74721351111111,93.57852540812917 51.83236693333334,93.57858226795395 51.832320711111116,93.5243592598235 51.830289777777786,93.2681704877729 51.82035768888889,93.26829958958547 51.8196736,92.92262114614812 51.806714311111115,92.92264692080985 51.424101688888896,92.92191828657081 51.39767537777778,92.92045504263518 51.135450311111114,92.9201615963542 50.808489244444445,92.91988202791944z" stroke="#0E478F" stroke-width="0.003" stroke-opacity="0.8" fill="royalblue" fill-opacity="0.75"></path></g><g data-fips="56" data-geo-id="56045" data-county="Weston"><path d="M53.27589191111112,93.12003516144347 53.27544391111111,93.25749052037139 53.275955200000006,93.34316641648684 53.276050488888885,93.57436272844339 53.276588800000006,93.58038704883732 53.4044864,93.5792155650687 54.005484704864,93.57560005748803 54.005310577777784,93.52138406443004 54.00544711111112,93.5010040722532 54.00541511111111,93.49693606574363 54.005403022222225,93.49660228830112 54.00523875555556,93.33611871601784 54.0052352,93.33285443950973 54.00520812197689,93.32181594473965 54.00498631111112,93.23131561461537 54.00527857777778,93.14935261852577 54.00536888888889,93.14781702804825 54.00564472930275,92.94701379206398 54.00569813333334,92.90805763692146 53.78264462222222,92.90753011381685 53.7774336,92.90682707280652 53.27695573333334,92.91222113438596 53.27589191111112,93.12003516144347z" stroke="#0E478F" stroke-width="0.003" stroke-opacity="0.8" fill="royalblue" fill-opacity="0.75"></path></g></svg>