<svg version="1.1" xmlns="http://www.w3.org/2000/svg" preserveAspectRatio="xMinYMin meet" viewBox="6.3361208888888845 135.90472531893255 2.0978496000000133 2.556847638036089"><g data-fips="60" data-geo-id="60010" data-county="Eastern"><path d="M6.584687644444441,138.26703295205047 6.582359082058671,138.26807016792645 6.5904711111111185,138.27437046538773 6.5964095999999905,138.28147053017142 6.6099303712554605,138.29889266154288 6.613254400000005,138.29613469146778 6.61672177777778,138.28337714227152 6.629232355555562,138.2744431156658 6.639456000000004,138.26956901338013 6.655886222222216,138.26624044087455 6.664331377777772,138.26121101879585 6.6828223999999965,138.26446023982456 6.700015644444446,138.2575017897175 6.7041642666666625,138.2551537550007 6.711675022222214,138.26564605998902 6.714415644444449,138.26763247460642 6.720289422222232,138.2678922439297 6.722787555555564,138.2633595480348 6.718541511111107,138.2604075288731 6.711552711111108,138.24590282276108 6.711271822222221,138.23601264571462 6.700282311111106,138.2367162374495 6.695457422222232,138.2401476656466 6.675460977777786,138.24079918282004 6.667842844444446,138.23853795966193 6.655531377777779,138.2375423562748 6.64172515555555,138.2367763987168 6.633560888888881,138.22445333289085 6.620248888888879,138.23814544029395 6.612103111111113,138.2424096444967 6.604484977777773,138.2481736849921 6.597884444444451,138.25592493397386 6.584687644444441,138.26703295205047z" stroke="#0E478F" stroke-width="0.01" stroke-opacity="0.8" fill="royalblue" fill-opacity="0.75"></path></g><g data-fips="60" data-geo-id="60020" data-county="Manu'a"><path d="M7.452746666666664,138.21839227896578 7.4582200888888925,138.23231645377635 7.468293688888884,138.249184026934 7.472921599999993,138.25522419555682 7.477454222222231,138.25570847519282 7.483704888888881,138.24773491822793 7.491584000000007,138.24073315055728 7.4990208000000065,138.2385020092512 7.510412800000005,138.24316682369488 7.518030222222216,138.2447721724482 7.521253688888889,138.24353514273582 7.522750577777778,138.22913902719475 7.524407466666667,138.21625973860318 7.51835662222222,138.21125677592812 7.499392711111109,138.21135800740197 7.480133688888883,138.2139306279748 7.460991999999997,138.21213558454994 7.452746666666664,138.21839227896578z" stroke="#0E478F" stroke-width="0.01" stroke-opacity="0.8" fill="royalblue" fill-opacity="0.75"></path><path d="M7.33349831111112,138.17658055653163 7.335526400000001,138.1824625940023 7.345870222222221,138.19223148947475 7.35249564444445,138.19013595841355 7.359576177777773,138.1840724896191 7.368777244444452,138.18365516210721 7.377103644444449,138.18494895414582 7.380583111111102,138.19005894429947 7.386535822222221,138.19787715910275 7.391115377777775,138.1880631909799 7.388499199999994,138.1807170300209 7.389100088888881,138.171513516547 7.385673955555548,138.1695304529835 7.38386559999999,138.1710705520763 7.380923733333334,138.17520468848173 7.371606755555553,138.1766223608028 7.36166328888889,138.17654168590298 7.345634133333341,138.1741808622779 7.338467555555549,138.172592330641 7.33349831111112,138.17658055653163z" stroke="#0E478F" stroke-width="0.01" stroke-opacity="0.8" fill="royalblue" fill-opacity="0.75"></path></g><g data-fips="60" data-geo-id="60030" data-county="Rose Island"><path d="M8.41704391111111,138.44971416236353 8.418823111111104,138.45925505353387 8.425560888888889,138.46157295696864 8.43122133333333,138.46146569351123 8.433970488888898,138.45936305020055 8.431490844444449,138.45057661764415 8.427016533333335,138.4459940500131 8.419955200000004,138.44567082152702 8.41704391111111,138.44971416236353z" stroke="#0E478F" stroke-width="0.01" stroke-opacity="0.8" fill="royalblue" fill-opacity="0.75"></path></g><g data-fips="60" data-geo-id="60040" data-county="Swains Island"><path d="M6.336310044444447,135.9078872191622 6.3361208888888845,135.90976670276893 6.337989688888896,135.91398364629785 6.342496000000009,135.9175275376404 6.345442133333341,135.91687541661668 6.349788444444453,135.9136967175892 6.353014044444454,135.91105858568184 6.352799288888895,135.90804372140335 6.350991644444447,135.90595630978828 6.347637333333337,135.90472531893255 6.340017777777778,135.90583096430754 6.337682488888883,135.90669171973335 6.336310044444447,135.9078872191622z" stroke="#0E478F" stroke-width="0.01" stroke-opacity="0.8" fill="royalblue" fill-opacity="0.75"></path></g><g data-fips="60" data-geo-id="60050" data-county="Western"><path d="M6.508799288888885,138.29086877092257 6.5089038222222175,138.2929310835098 6.521368177777772,138.2984245937754 6.529192533333339,138.29988515707748 6.542993066666673,138.30068810543906 6.552551111111118,138.31818219650933 6.570831644444439,138.33025827210224 6.584585244444437,138.32371178524454 6.598100622222228,138.30870826264766 6.6099303712554605,138.29889266154288 6.5964095999999905,138.28147053017142 6.5904711111111185,138.27437046538773 6.582359082058671,138.26807016792645 6.578819555555553,138.26964679828447 6.568859022222225,138.26709532577672 6.552893155555547,138.26705863534667 6.543389155555552,138.26835454627886 6.534262044444445,138.27249551220697 6.527412622222215,138.27618379654112 6.524460800000007,138.2787603608466 6.518596266666666,138.28421963993964 6.508799288888885,138.29086877092257z" stroke="#0E478F" stroke-width="0.01" stroke-opacity="0.8" fill="royalblue" fill-opacity="0.75"></path></g></svg>