<svg version="1.1" xmlns="http://www.w3.org/2000/svg" preserveAspectRatio="xMinYMin meet" viewBox="230.83970204444446 118.19761383573055 0.24205226666663293 0.3092920852778889"><g data-fips="66" data-geo-id="66010" data-county="Guam"><path d="M230.85676871111113,118.49857363596159 230.85352888888892,118.50644351351944 230.86371271111113,118.50690592100844 230.8720455111111,118.50181425890534 230.86741617777778,118.49486978585716 230.86186097777778,118.49579612088857 230.85676871111113,118.49857363596159z" stroke="#0E478F" stroke-width="0.003" stroke-opacity="0.8" fill="royalblue" fill-opacity="0.75"></path><path d="M230.84473315555556,118.3397878686279 230.83970204444446,118.34957095123393 230.84536604444446,118.35602032149629 230.85498879999997,118.3676667524763 230.85989333333333,118.37389979785183 230.86819342222225,118.37409571921995 230.87152071111112,118.38226427614863 230.86524444444444,118.39586356256748 230.85178382222222,118.41326829791927 230.85186631111114,118.42588660688679 230.86324977777775,118.4462618291682 230.87068088888887,118.47700182534295 230.8808832,118.48841452854346 230.89984497777778,118.49489170235685 230.91470435555556,118.49548783011262 230.92770133333335,118.48224835530624 230.93736106666668,118.47315066698182 230.94579271111112,118.46084554233747 230.94925724444442,118.45140842849321 230.94923946666668,118.42362977547899 230.9517767111111,118.39105744164219 230.9605169777778,118.37174903473381 230.9736369777778,118.36325611410676 230.98664462222223,118.35195668291047 231.00529137777778,118.33634611160576 231.03381688888888,118.31032856570732 231.05740017777777,118.29510263844175 231.0680042666667,118.27213799873459 231.0758684444444,118.25216389585314 231.0817543111111,118.23933112343902 231.07839715555554,118.23639513018277 231.0591608888889,118.23648951000722 231.04486613333333,118.23235723511841 231.0437937777778,118.2259062115769 231.03418240000002,118.21529885108993 231.02691555555555,118.20543064845415 231.01541831111112,118.19761383573055 231.00912711111113,118.19834269786163 231.00199395555555,118.20984162759598 230.99485013333333,118.22036444623934 230.99494826666665,118.23977594439292 230.9842567111111,118.25924013357682 230.9703992888889,118.28374394282669 230.97168640000004,118.29444951522734 230.96740977777776,118.30645620579014 230.95693866666667,118.30383143553414 230.9506218666667,118.30524438447473 230.94781013333332,118.30816897690323 230.9475911111111,118.31345930040547 230.95095039999998,118.31805913346152 230.94709831111112,118.32374842554762 230.94125084444443,118.32590270297014 230.9322986666667,118.3231129598244 230.91614008888888,118.32574767778284 230.88804408888888,118.33327647812578 230.87250488888887,118.33517178938851 230.8539342222222,118.33566535666034 230.84473315555556,118.3397878686279z" stroke="#0E478F" stroke-width="0.003" stroke-opacity="0.8" fill="royalblue" fill-opacity="0.75"></path></g></svg>