<svg version="1.1" xmlns="http://www.w3.org/2000/svg" preserveAspectRatio="xMinYMin meet" viewBox="231.02911075555556 113.05737966569016 0.851128177777781 4.805438942668204"><g data-fips="69" data-geo-id="69085" data-county="Northern Islands"><path d="M231.84582897777776,116.46805366688389 231.84759395555554,116.47952359161778 231.85994595555556,116.47952359161778 231.88023893333335,116.45128992248327 231.8705336888889,116.4407020143333 231.86082844444448,116.44687801649842 231.84582897777776,116.46805366688389z" stroke="#0E478F" stroke-width="0.003" stroke-opacity="0.8" fill="royalblue" fill-opacity="0.75"></path><path d="M231.70326897777778,115.49430176571515 231.70253937777775,115.50161174145939 231.71176888888888,115.50900772293934 231.71954346666664,115.49967144051743 231.71393635555555,115.49231070917139 231.7080824888889,115.49060938687862 231.70326897777778,115.49430176571515z" stroke="#0E478F" stroke-width="0.003" stroke-opacity="0.8" fill="royalblue" fill-opacity="0.75"></path><path d="M231.69065386666668,115.27982738389763 231.69121280000002,115.28899601543638 231.69904853333333,115.29797753640295 231.7069496888889,115.2984474832426 231.71662080000002,115.28796429577417 231.71421582222223,115.27637910080873 231.7048469333333,115.26735659577405 231.69589760000002,115.2694106435044 231.69065386666668,115.27982738389763z" stroke="#0E478F" stroke-width="0.003" stroke-opacity="0.8" fill="royalblue" fill-opacity="0.75"></path><path d="M231.6568135111111,115.94695848151846 231.65785244444447,115.95517127490218 231.66883982222225,115.95979716524579 231.6739093333333,115.9517910352547 231.67306453333336,115.94418538695598 231.66461368888892,115.93742430295103 231.6568135111111,115.94695848151846z" stroke="#0E478F" stroke-width="0.003" stroke-opacity="0.8" fill="royalblue" fill-opacity="0.75"></path><path d="M231.61644373333334,114.93262037293319 231.6159815111111,114.9508007271007 231.62968533333333,114.946830089662 231.64179626666666,114.93684575134431 231.64602168888888,114.927549589821 231.65700764444443,114.91149293738252 231.66925866666668,114.90240671244233 231.67879111111114,114.90300749257716 231.68751715555555,114.88261608832183 231.6846407111111,114.86657712804679 231.67848817777778,114.86061692537987 231.66156800000002,114.85782083508902 231.65193742222223,114.8607883111954 231.6481400888889,114.87229459601232 231.65303822222225,114.88114570142324 231.64835342222221,114.88972534437761 231.65017102222225,114.8990960128609 231.64010595555555,114.90895753621587 231.6308103111111,114.91740893223253 231.6223495111111,114.92569671168684 231.61644373333334,114.93262037293319z" stroke="#0E478F" stroke-width="0.003" stroke-opacity="0.8" fill="royalblue" fill-opacity="0.75"></path><path d="M231.5636131555556,114.40048028227181 231.56658346666669,114.42472474395126 231.5856369777778,114.44079554061442 231.59864177777777,114.43149361942947 231.6037418666667,114.42592926075805 231.6085688888889,114.41400674370105 231.6063850666667,114.39315766523944 231.59463039999997,114.38029304865387 231.57829546666667,114.37492627016357 231.56731875555553,114.38844269407036 231.5636131555556,114.40048028227181z" stroke="#0E478F" stroke-width="0.003" stroke-opacity="0.8" fill="royalblue" fill-opacity="0.75"></path><path d="M231.56158577777776,116.19890978559293 231.56123591111114,116.21150209557362 231.57082240000003,116.225653889282 231.59346773333334,116.22416074281006 231.61080746666667,116.22437934337914 231.61947733333332,116.22102767874841 231.62613475555554,116.21394913498555 231.6249962666667,116.20473065060928 231.6113912888889,116.19768021461094 231.60011022222224,116.198657794803 231.5696455111111,116.19780472860397 231.56158577777776,116.19890978559293z" stroke="#0E478F" stroke-width="0.003" stroke-opacity="0.8" fill="royalblue" fill-opacity="0.75"></path><path d="M231.38818844444444,113.70897692685027 231.38853902222223,113.71995478621808 231.39804800000002,113.7250782015097 231.40524942222223,113.72054915580917 231.40839537777777,113.71327151462623 231.40468977777778,113.70406281282924 231.39469155555554,113.70183530738268 231.38818844444444,113.70897692685027z" stroke="#0E478F" stroke-width="0.003" stroke-opacity="0.8" fill="royalblue" fill-opacity="0.75"></path><path d="M231.26055893333333,113.45688887748912 231.25848106666663,113.46272893220757 231.26343964444445,113.47170038123193 231.27334826666672,113.47123040730669 231.28093511111112,113.46435162332587 231.2746432,113.45554538214137 231.26711324444446,113.45329054654603 231.26055893333333,113.45688887748912z" stroke="#0E478F" stroke-width="0.003" stroke-opacity="0.8" fill="royalblue" fill-opacity="0.75"></path><path d="M231.02911075555556,113.06160529648656 231.03027982222227,113.0705269174815 231.03671608888894,113.0751264333302 231.04432213333334,113.06836568202728 231.04263182222223,113.06076003074622 231.03502648888892,113.05737966569016 231.02911075555556,113.06160529648656z" stroke="#0E478F" stroke-width="0.003" stroke-opacity="0.8" fill="royalblue" fill-opacity="0.75"></path></g><g data-fips="69" data-geo-id="69100" data-county="Rota"><path d="M231.19556835555557,117.85239461481235 231.19840568888887,117.85778340794452 231.2081464888889,117.85679277470724 231.21952142222227,117.84814739879667 231.22680177777778,117.85042281128561 231.2319232,117.86281860835837 231.26060302222226,117.85873443965542 231.27489422222223,117.84661626265155 231.28129351111113,117.8341048577984 231.30302933333334,117.83232058061265 231.31260444444447,117.82607656008254 231.31330702222223,117.81530261731629 231.31695857777777,117.80387956909631 231.29177244444446,117.79748997716008 231.27869795555557,117.79849930110353 231.25548942222224,117.81402421961468 231.22570026666668,117.82035083538904 231.19556835555557,117.85239461481235z" stroke="#0E478F" stroke-width="0.003" stroke-opacity="0.8" fill="royalblue" fill-opacity="0.75"></path></g><g data-fips="69" data-geo-id="69110" data-county="Saipan"><path d="M231.59947733333337,117.11186075312246 231.6016512,117.12039466166277 231.61388373333332,117.13058906941332 231.63197795555558,117.13112602520164 231.64359893333332,117.14166884123054 231.64940231111115,117.12052209586508 231.64038257777779,117.11313516011688 231.643616,117.09522841900494 231.65917937777778,117.09579128201024 231.66571022222223,117.09824899508783 231.6756088888889,117.10011877602648 231.6743950222222,117.09354939542419 231.678208,117.08640652816798 231.66820977777778,117.07445337278591 231.66737137777778,117.05989069359167 231.67947662222224,117.03998647668554 231.68646826666668,117.03299666017361 231.68578773333334,117.0274821181513 231.6987640888889,117.0181522040389 231.7014961777778,117.00944092658557 231.69462186666667,116.99720465256857 231.68799644444445,116.99562482805125 231.6598520888889,117.02455524794324 231.63726435555557,117.03802532104025 231.61635911111114,117.03046199996463 231.6164288,117.04861202439912 231.6089898666667,117.09401280479297 231.59947733333337,117.11186075312246z" stroke="#0E478F" stroke-width="0.003" stroke-opacity="0.8" fill="royalblue" fill-opacity="0.75"></path></g><g data-fips="69" data-geo-id="69120" data-county="Tinian"><path d="M231.52500124444447,117.19763243701125 231.52555164444445,117.21448579800395 231.53595591111113,117.21661037725295 231.54648320000004,117.2318724949221 231.55801955555557,117.25314924928882 231.56284373333332,117.26624642070337 231.56997546666665,117.26291850545059 231.5835136,117.2479692525656 231.58440675555556,117.22948901358428 231.58920320000001,117.20907336542135 231.586336,117.1974189240032 231.5723527111111,117.18438819157348 231.58113635555557,117.16860599545434 231.57829546666667,117.14746215279277 231.56990577777776,117.13486183116362 231.55669120000002,117.14760724060491 231.53647075555557,117.16890865035695 231.52500124444447,117.19763243701125z" stroke="#0E478F" stroke-width="0.003" stroke-opacity="0.8" fill="royalblue" fill-opacity="0.75"></path><path d="M231.4981994666667,117.31330443070757 231.49114097777775,117.3230096558598 231.49900871111112,117.32679903527824 231.51131448888887,117.32426764273087 231.52025742222227,117.32036270127621 231.52258204444445,117.31237228002539 231.5185159111111,117.30763051330106 231.4981994666667,117.31330443070757z" stroke="#0E478F" stroke-width="0.003" stroke-opacity="0.8" fill="royalblue" fill-opacity="0.75"></path></g></svg>