<svg version="1.1" xmlns="http://www.w3.org/2000/svg" preserveAspectRatio="xMinYMin meet" viewBox="79.68654293333334 114.597894425505 1.9336753777777744 0.47716296597111807"><g data-fips="72" data-geo-id="72001" data-county="Adjuntas"><path d="M80.4745272888889,114.81268892213892 80.47196373333333,114.8451141858423 80.47834524444445,114.85599840463297 80.4790912,114.86425040622821 80.49489208888889,114.87335050417963 80.49951502222223,114.88428400338925 80.5088711111111,114.88038767872177 80.51978737777779,114.88313315174845 80.53360497777778,114.89908479000822 80.54944426666667,114.8995516598679 80.55922133333334,114.88528668772885 80.57310577777778,114.88646221309725 80.58527928888888,114.88687899454136 80.58987093333333,114.86977714484506 80.58525155555556,114.8711810564071 80.59399324444445,114.85283771855794 80.58190506666666,114.84374741951869 80.58217244444445,114.83135530051403 80.57334755555556,114.82182854979476 80.56339555555556,114.82197078991662 80.54600462222223,114.81518950652419 80.54090097777778,114.81911397961147 80.52577706666666,114.81508768725917 80.52288213333334,114.80626729131549 80.5107904,114.79685401709469 80.50168462222223,114.79713630542506 80.49866026666666,114.81199488915934 80.48549617777778,114.81176279532049 80.4745272888889,114.81268892213892z" stroke="#0E478F" stroke-width="0.0025" stroke-opacity="0.8" fill="royalblue" fill-opacity="0.75"></path></g><g data-fips="72" data-geo-id="72003" data-county="Aguada"><path d="M80.18553594862301,114.70317108137766 80.1938944,114.72306512343579 80.21652764444444,114.73689240876547 80.22552746666668,114.74983883989384 80.25189404444444,114.74261857182229 80.26299235555555,114.74616770705526 80.25990044444445,114.72475231563837 80.26549262222223,114.70607135386412 80.26153955555556,114.69262520500972 80.244224,114.68918775987557 80.241675146113,114.67299279592957 80.21972768752669,114.68712757887941 80.21225583074866,114.6919393124241 80.21179235555556,114.69223777572086 80.20124586666667,114.6981052940577 80.19431537777778,114.70097600958327 80.18553594862301,114.70317108137766z" stroke="#0E478F" stroke-width="0.0025" stroke-opacity="0.8" fill="royalblue" fill-opacity="0.75"></path></g><g data-fips="72" data-geo-id="72005" data-county="Aguadilla"><path d="M80.2353664,114.62584053348303 80.23536995555556,114.63493938456945 80.24053617777778,114.64460283523896 80.24418204444444,114.65502265572613 80.24515911111112,114.66638679538869 80.24419626666668,114.67044769009216 80.24205653333333,114.67274715810285 80.241675146113,114.67299279592957 80.244224,114.68918775987557 80.26153955555556,114.69262520500972 80.26654506666668,114.67798526512382 80.28520035555556,114.65691912229559 80.3153728,114.63898627713758 80.313984,114.62472037661514 80.30075662222222,114.61798423412317 80.2819786478351,114.59881958445614 80.26620088888889,114.60093235691046 80.25756640691321,114.60377376397425 80.25724515555555,114.60387947910564 80.25398755555555,114.60559747764148 80.23959368649345,114.61847886649814 80.23883093333335,114.61916143497638 80.2353664,114.62584053348303z" stroke="#0E478F" stroke-width="0.0025" stroke-opacity="0.8" fill="royalblue" fill-opacity="0.75"></path></g><g data-fips="72" data-geo-id="72007" data-county="Aguas Buenas"><path d="M80.93107484444445,114.7904203726779 80.9399104,114.79980341321357 80.94639928888888,114.81628929924847 80.96430862222223,114.81342862096287 80.96635377777778,114.83604056561006 80.98291626666668,114.82702545390329 81.00252942222222,114.81381119633802 81.01168853333333,114.79216509587343 81.0196600888889,114.7571081403137 81.00944,114.76162156793616 81.00518044444445,114.7707595424608 80.99001813333334,114.77616667966686 80.96436551111111,114.77488156883291 80.95175111111111,114.7726737846402 80.93107484444445,114.7904203726779z" stroke="#0E478F" stroke-width="0.0025" stroke-opacity="0.8" fill="royalblue" fill-opacity="0.75"></path></g><g data-fips="72" data-geo-id="72009" data-county="Aibonito"><path d="M80.84277475555557,114.87033317345482 80.83846186666666,114.88985104925305 80.8456768,114.89571489796958 80.8725752888889,114.9193427194397 80.88181404444444,114.92231553441452 80.88353635555556,114.9273483701668 80.89440853333333,114.92640285807215 80.8959623111111,114.91440533389178 80.90702933333334,114.91279465868674 80.90536675555556,114.89685740882209 80.91242737777779,114.87696941322181 80.90757973333334,114.86013345151866 80.89405511111111,114.84925781053583 80.89010275555556,114.86020978961567 80.86917902222223,114.85378900105232 80.84277475555557,114.87033317345482z" stroke="#0E478F" stroke-width="0.0025" stroke-opacity="0.8" fill="royalblue" fill-opacity="0.75"></path></g><g data-fips="72" data-geo-id="72011" data-county="Añasco"><path d="M80.19860693333334,114.75532624439425 80.19526892329074,114.76210579779911 80.20624853333334,114.76335993719896 80.2092715501465,114.76439728873798 80.21613795555555,114.76675347249532 80.22039256292828,114.77369607078002 80.22046506666668,114.77381437797084 80.22195689634063,114.78440427525686 80.24090737777777,114.7798077579988 80.25493404444445,114.78209779572578 80.25910542222222,114.79594050689367 80.25897315555557,114.80008869017577 80.29724302222222,114.79333621883008 80.31158897777777,114.7820019414568 80.32694897777777,114.78057684972818 80.32857955555555,114.76730619617297 80.32660693333334,114.75936936770275 80.3181632,114.75461093250597 80.31042204444445,114.7509346914783 80.27872284444445,114.74460514070579 80.26922524444444,114.74164849789781 80.26299235555555,114.74616770705526 80.25189404444444,114.74261857182229 80.22552746666668,114.74983883989384 80.19860693333334,114.75532624439425z" stroke="#0E478F" stroke-width="0.0025" stroke-opacity="0.8" fill="royalblue" fill-opacity="0.75"></path></g><g data-fips="72" data-geo-id="72013" data-county="Arecibo"><path d="M80.5204416,114.62646583769008 80.51901013333332,114.65929528804097 80.52057457777778,114.66425436221317 80.51905991111111,114.74085969884433 80.54332657777779,114.72238409690686 80.55483662222223,114.73244629260319 80.55658524444445,114.74785010403404 80.58906951111112,114.74122750602797 80.63503004444445,114.73848278529354 80.63983715555555,114.72992988053691 80.64655288888889,114.73108583296732 80.65260231111111,114.70437117969803 80.64840462222222,114.69261246557382 80.65193102222221,114.65635768114926 80.64869688888889,114.65649410632575 80.65417955555556,114.63362662864007 80.6494024878634,114.62099694701207 80.62249386666667,114.61406040331748 80.60740337777779,114.6181259486823 80.59423004444444,114.61885176471459 80.58319928888889,114.62099994619878 80.58046648888889,114.62368193599352 80.57257747574927,114.62637700836578 80.56792237398876,114.62796727406983 80.56126537165028,114.63024139050417 80.56124942222223,114.63024683898281 80.54472106666667,114.62961255622417 80.53897457777778,114.62869486499264 80.5338304,114.62718036023682 80.52274272835592,114.62163480550583 80.5204416,114.62646583769008z" stroke="#0E478F" stroke-width="0.0025" stroke-opacity="0.8" fill="royalblue" fill-opacity="0.75"></path></g><g data-fips="72" data-geo-id="72015" data-county="Arroyo"><path d="M81.00816853333333,114.95945434196415 80.99896248888889,114.96750989656712 81.015744,114.98878609724873 81.01690369867107,115.00925211513425 81.01782897777778,115.00926869369142 81.02526791111111,115.01457404802228 81.02560125268658,115.01475249865433 81.03174586609259,115.0180419045965 81.03179875555556,115.01807021764382 81.03353955555556,115.01785194335059 81.0496,115.00212104200506 81.05277234862777,115.00028350756054 81.03329635555556,114.97729749512726 81.0356032,114.96208150003768 81.02594631111111,114.9538633237477 81.00816853333333,114.95945434196415z" stroke="#0E478F" stroke-width="0.0025" stroke-opacity="0.8" fill="royalblue" fill-opacity="0.75"></path></g><g data-fips="72" data-geo-id="72017" data-county="Barceloneta"><path d="M80.65193102222221,114.65635768114926 80.64840462222222,114.69261246557382 80.66537742222222,114.6747003246089 80.68047715555555,114.68061135864104 80.67997511111112,114.67107352720043 80.69606044444446,114.66132211529562 80.68442951111112,114.65775041050084 80.6916736,114.64269269322517 80.68747925460914,114.62340245802062 80.686336,114.6237674108453 80.66950897777778,114.61721867287585 80.66603528620473,114.61683269224073 80.66596622222222,114.61682501815683 80.66637084444444,114.61837113699478 80.66476608190143,114.62050134041188 80.66471751111112,114.62056581398801 80.65132515555555,114.62149256076528 80.6494024878634,114.62099694701207 80.65417955555556,114.63362662864007 80.64869688888889,114.65649410632575 80.65193102222221,114.65635768114926z" stroke="#0E478F" stroke-width="0.0025" stroke-opacity="0.8" fill="royalblue" fill-opacity="0.75"></path></g><g data-fips="72" data-geo-id="72019" data-county="Barranquitas"><path d="M80.80801137777779,114.83397679406956 80.8008760888889,114.85416322515456 80.8168832,114.86030483796823 80.83745920000001,114.86029361178846 80.84277475555557,114.87033317345482 80.86917902222223,114.85378900105232 80.89010275555556,114.86020978961567 80.89405511111111,114.84925781053583 80.8956728888889,114.84585519774643 80.8792512,114.84573169605449 80.87448035555556,114.8199666871476 80.87798542222222,114.80936022544105 80.87717973333334,114.80058137175067 80.85771235555556,114.79972853726686 80.84830364444444,114.80341837267311 80.84387626666667,114.79754588448645 80.83475413333333,114.7985956589357 80.82480284444445,114.80550883365117 80.81721386666668,114.80360256220253 80.81660160000001,114.83881766041205 80.80801137777779,114.83397679406956z" stroke="#0E478F" stroke-width="0.0025" stroke-opacity="0.8" fill="royalblue" fill-opacity="0.75"></path></g><g data-fips="72" data-geo-id="72021" data-county="Bayamón"><path d="M80.91481813333334,114.75488956755343 80.92008177777778,114.7770758354808 80.9232576,114.77726081121429 80.93107484444445,114.7904203726779 80.95175111111111,114.7726737846402 80.96436551111111,114.77488156883291 80.96854257777778,114.76078570436972 80.9669624888889,114.75916339466299 80.9658432,114.74281483299957 80.97151146666667,114.73361945281833 80.96594133333333,114.71328841549352 80.97100942222222,114.70372452318635 80.98249955555556,114.700221431963 80.97844124444445,114.68534928373523 80.98042097777778,114.67389163032263 80.97309866666667,114.66619566485609 80.95392355555556,114.66851544569832 80.94612195555555,114.66144204490342 80.94389120000001,114.66889844911842 80.93329351111112,114.6698803117893 80.92585742222222,114.67371325221642 80.926592,114.69270164159867 80.92636942222222,114.71449921196009 80.92467484444445,114.71873166575688 80.92541937777779,114.72131048015048 80.92410951111111,114.72428481875824 80.9247616,114.72971636907566 80.92187377777778,114.73212490777804 80.92335573333334,114.73788574090642 80.92159004444444,114.74768006757513 80.92107804444444,114.74758493694799 80.91481813333334,114.75488956755343z" stroke="#0E478F" stroke-width="0.0025" stroke-opacity="0.8" fill="royalblue" fill-opacity="0.75"></path></g><g data-fips="72" data-geo-id="72023" data-county="Cabo Rojo"><path d="M80.20247395555556,114.99646305106259 80.20314311111112,115.01218341310707 80.20472817777778,115.01697435745126 80.20509761822066,115.01925291585661 80.20514062222222,115.01951814449691 80.21069226666667,115.02483056216954 80.21552071111111,115.0322049534331 80.21656325375346,115.03365217363218 80.21704177777778,115.03431643817164 80.22509724444444,115.03558032318197 80.22578631111111,115.03063308999424 80.22224071111111,115.02428116626972 80.22135680000001,115.02074031098891 80.22506097777777,115.01198157515842 80.22857528888889,115.01042217972358 80.23677795555557,115.01170722456342 80.26045653333333,115.02004513510393 80.26435484444444,115.02286020111735 80.27734400000001,115.02461454146899 80.28282453333334,115.00282304061896 80.27723804444445,114.97223441608992 80.2731719111111,114.95914922029216 80.27801315555556,114.94215776205316 80.28507022222223,114.93372591080582 80.2804864,114.9288616241701 80.28409457777778,114.90452327181366 80.2658439111111,114.89797821201495 80.26044160000001,114.8854647756368 80.24196764444444,114.86948079484904 80.24021333333334,114.87003682471881 80.22705673433735,114.85828883491443 80.22697102222222,114.85838365036373 80.22853831111111,114.86492245814703 80.23000604444445,114.87111295656717 80.22600391111112,114.902943150129 80.2247672888889,114.90655226377581 80.21668266666667,114.91218868658322 80.21382115555556,114.91593968375203 80.2146048,114.92664222886633 80.21568426666667,114.93437441888213 80.20630257777779,114.95759892204559 80.21811982222222,114.96028295313201 80.23199217777778,114.9657435796778 80.23314631111111,114.96808121499481 80.23296213333333,114.97295377251046 80.2316096,114.9757631133418 80.22905386666667,114.977458260216 80.20786204444444,114.98558075457221 80.2048192,114.98933863153641 80.20247395555556,114.99646305106259z" stroke="#0E478F" stroke-width="0.0025" stroke-opacity="0.8" fill="royalblue" fill-opacity="0.75"></path></g><g data-fips="72" data-geo-id="72025" data-county="Caguas"><path d="M80.98291626666668,114.82702545390329 80.99436586666667,114.8471366144675 80.9928824888889,114.85658891979051 80.9990407111111,114.85761875986435 81.0197560888889,114.8730848441746 81.01718044444445,114.88123774139311 81.02929422222223,114.8995299624273 81.04151608888888,114.89468760236383 81.05224319999999,114.87632511105812 81.05084017777779,114.85989545598888 81.0586176,114.84490759995565 81.06392533333333,114.84525415507974 81.06694186666667,114.84292555642769 81.06833777777778,114.82923905354384 81.05689315555556,114.81527485496443 81.05993884444445,114.80374032981024 81.05673173333334,114.78602775989194 81.0608120888889,114.77594275975432 81.04540871111112,114.76643367059364 81.04492657777777,114.75871175081676 81.05120213333333,114.75582508783731 81.04845226666667,114.75239456413199 81.03713066666667,114.75034968915318 81.03442773333333,114.76003147518675 81.0196600888889,114.7571081403137 81.01168853333333,114.79216509587343 81.00252942222222,114.81381119633802 80.98291626666668,114.82702545390329z" stroke="#0E478F" stroke-width="0.0025" stroke-opacity="0.8" fill="royalblue" fill-opacity="0.75"></path></g><g data-fips="72" data-geo-id="72027" data-county="Camuy"><path d="M80.42564996124054,114.62129359926206 80.42596835555555,114.6956511601281 80.42744888888889,114.7100718076953 80.43140337777778,114.70933676449401 80.4338104888889,114.70866615568563 80.44305208888889,114.71702416565532 80.4588536888889,114.71814352105241 80.48055253333334,114.72738644919386 80.49018666666667,114.69469647069972 80.48784071111112,114.69200546746607 80.48096497777777,114.67533288639247 80.47717475555555,114.63017186482452 80.47172640244565,114.61893310993757 80.47150933333334,114.6189642358403 80.46245475555556,114.61665031005697 80.44985884444445,114.61662031722624 80.43380327166999,114.61971970346116 80.42564996124054,114.62129359926206z" stroke="#0E478F" stroke-width="0.0025" stroke-opacity="0.8" fill="royalblue" fill-opacity="0.75"></path></g><g data-fips="72" data-geo-id="72029" data-county="Canóvanas"><path d="M81.11549155555555,114.68941182983053 81.12091875555555,114.69527647909001 81.12842524444444,114.70019370658419 81.12561991111112,114.70883024911211 81.12645475555556,114.72357008468708 81.13554417777777,114.74412273386653 81.12665102222222,114.76527578639255 81.13261653333333,114.78043681096936 81.12459733333333,114.7819659960877 81.15577315555555,114.79475293404234 81.17147306666668,114.79331675012031 81.17597226666668,114.7909872230814 81.18301368888889,114.77813476182678 81.16045155555555,114.76410216360009 81.16425884444445,114.74349874844397 81.15433955555555,114.7135161899518 81.16092657777779,114.70101272675328 81.15448746666667,114.70065079990788 81.15914737777777,114.67799350922249 81.13782755555556,114.67442076728724 81.12406897777778,114.68243175568827 81.11549155555555,114.68941182983053z" stroke="#0E478F" stroke-width="0.0025" stroke-opacity="0.8" fill="royalblue" fill-opacity="0.75"></path></g><g data-fips="72" data-geo-id="72031" data-county="Carolina"><path d="M81.04066940096492,114.64703605149593 81.03611093333333,114.65156546774699 81.04552177777778,114.66384286226034 81.04889671111111,114.66670384658845 81.07249066666667,114.68177524658066 81.0669824,114.69961372026903 81.07271253333333,114.70190742354902 81.07403164444445,114.71027261387788 81.07943253333333,114.71577667985571 81.09752746666666,114.74588081349476 81.11005440000001,114.75304696984085 81.10760604444444,114.76448713102054 81.10983395555556,114.76950358654607 81.12459733333333,114.7819659960877 81.13261653333333,114.78043681096936 81.12665102222222,114.76527578639255 81.13554417777777,114.74412273386653 81.12645475555556,114.72357008468708 81.12561991111112,114.70883024911211 81.12842524444444,114.70019370658419 81.12091875555555,114.69527647909001 81.11549155555555,114.68941182983053 81.12406897777778,114.68243175568827 81.11616,114.66333092150516 81.09407217777778,114.65966557616954 81.08998186666668,114.66040390053725 81.07177942876338,114.64117912469018 81.07177332619798,114.64120695575639 81.07169066666667,114.64158392824407 81.068672,114.64727683651027 81.0620280888889,114.65143578391157 81.05015395555556,114.65178960308532 81.05008724278805,114.65175652326373 81.04071751111111,114.64711041584846 81.04066940096492,114.64703605149593z" stroke="#0E478F" stroke-width="0.0025" stroke-opacity="0.8" fill="royalblue" fill-opacity="0.75"></path></g><g data-fips="72" data-geo-id="72033" data-county="Cataño"><path d="M80.94612195555555,114.66144204490342 80.95392355555556,114.66851544569832 80.97309866666667,114.66619566485609 80.9840832,114.65497318231151 80.98674417777778,114.65461562388637 80.98966684444444,114.65551738882725 80.9895480888889,114.65068091645031 80.97464675555557,114.63547917752364 80.96742897777777,114.63797494077794 80.94612195555555,114.66144204490342z" stroke="#0E478F" stroke-width="0.0025" stroke-opacity="0.8" fill="royalblue" fill-opacity="0.75"></path></g><g data-fips="72" data-geo-id="72035" data-county="Cayey"><path d="M80.90536675555556,114.89685740882209 80.90702933333334,114.91279465868674 80.92319786666667,114.93351572468703 80.9229952,114.94961605520616 80.94851911111111,114.94666180797381 80.96783146666667,114.95649358488801 80.9814648888889,114.93706116795217 80.97491128888889,114.91780840937197 80.98651946666666,114.91666982150952 80.993728,114.90554300879325 81.01790506666667,114.90794007021009 81.02887395555555,114.90385142315964 81.02983964444445,114.90191740753333 81.02929422222223,114.8995299624273 81.01718044444445,114.88123774139311 81.0197560888889,114.8730848441746 80.9990407111111,114.85761875986435 80.99432817777779,114.87095580295508 80.98239786666667,114.88076257499947 80.97363413333333,114.88025597837733 80.97288462222222,114.8849335042704 80.94951253333333,114.87603925240376 80.94217457777778,114.88405952076855 80.93705102222222,114.87591802419945 80.93345137777777,114.88158420021156 80.91242737777779,114.87696941322181 80.90536675555556,114.89685740882209z" stroke="#0E478F" stroke-width="0.0025" stroke-opacity="0.8" fill="royalblue" fill-opacity="0.75"></path></g><g data-fips="72" data-geo-id="72037" data-county="Ceiba"><path d="M81.23247573333335,114.7745715227071 81.23562595555556,114.7810658608949 81.26441386666667,114.79539015134013 81.2782912,114.78994637301955 81.29208675555556,114.79500602424756 81.28495786666667,114.80526250242261 81.30062222222222,114.81721614254502 81.3100096,114.81763164769824 81.30667503946191,114.82943580128098 81.3260224,114.83449180431565 81.3309056,114.83061869775361 81.32439822222223,114.81617400487163 81.32439710558009,114.81616507899606 81.32439646180723,114.8161599329993 81.32396017777778,114.81267245106466 81.33893048888889,114.81395344521248 81.34362064328334,114.82575937730245 81.34383217777778,114.82629182111133 81.351776,114.82477064282068 81.35887431111111,114.81310818514595 81.36899911111112,114.79728231639008 81.3480576,114.78978387984799 81.34759255410248,114.78934947792118 81.34634306860865,114.78818231947157 81.3352120888889,114.77778428362394 81.3345581186521,114.76820777957117 81.32667235555556,114.77189041664252 81.30408533333333,114.76855019031403 81.29267626666666,114.77826731423403 81.28354631111111,114.77032067075504 81.2800768,114.77975758340453 81.26754844444444,114.78375276844169 81.25316337777778,114.77915698451855 81.24189084444444,114.76202601611624 81.23814328888889,114.76663289154294 81.23247573333335,114.7745715227071z" stroke="#0E478F" stroke-width="0.0025" stroke-opacity="0.8" fill="royalblue" fill-opacity="0.75"></path></g><g data-fips="72" data-geo-id="72039" data-county="Ciales"><path d="M80.63503004444445,114.73848278529354 80.6320896,114.7428373056345 80.65047537777778,114.74260059368433 80.66373688888889,114.76068234452244 80.6722112,114.77338899699375 80.66527573333333,114.80254534070758 80.67634986666667,114.81907654719494 80.68784000000001,114.83408458708001 80.68905031111112,114.8493408912614 80.68043875555556,114.86209353029504 80.6886712888889,114.86764580466743 80.70325333333334,114.85086477699598 80.69851591111112,114.8150584890729 80.71034808888889,114.79191649296823 80.73459982222222,114.80028411576531 80.7426112,114.79125454797574 80.7360832,114.77214804488023 80.7442823111111,114.75218783098383 80.74361671111112,114.7351357054518 80.73589902222223,114.72046461671208 80.73727217777778,114.70605187204792 80.73006506666667,114.70895088387272 80.72289422222222,114.71012275854729 80.70273706666667,114.71314755477252 80.69028764444444,114.72194955665479 80.68720142222222,114.72114190727572 80.68292551111111,114.7263323526936 80.64655288888889,114.73108583296732 80.63983715555555,114.72992988053691 80.63503004444445,114.73848278529354z" stroke="#0E478F" stroke-width="0.0025" stroke-opacity="0.8" fill="royalblue" fill-opacity="0.75"></path></g><g data-fips="72" data-geo-id="72041" data-county="Cidra"><path d="M80.8956728888889,114.84585519774643 80.89405511111111,114.84925781053583 80.90757973333334,114.86013345151866 80.91242737777779,114.87696941322181 80.93345137777777,114.88158420021156 80.93705102222222,114.87591802419945 80.94217457777778,114.88405952076855 80.94951253333333,114.87603925240376 80.97288462222222,114.8849335042704 80.97363413333333,114.88025597837733 80.98239786666667,114.88076257499947 80.99432817777779,114.87095580295508 80.9990407111111,114.85761875986435 80.9928824888889,114.85658891979051 80.99436586666667,114.8471366144675 80.98291626666668,114.82702545390329 80.96635377777778,114.83604056561006 80.96430862222223,114.81342862096287 80.94639928888888,114.81628929924847 80.93690097777778,114.83274989373612 80.91939555555557,114.83676890373872 80.91601706666667,114.85461753177397 80.8956728888889,114.84585519774643z" stroke="#0E478F" stroke-width="0.0025" stroke-opacity="0.8" fill="royalblue" fill-opacity="0.75"></path></g><g data-fips="72" data-geo-id="72043" data-county="Coamo"><path d="M80.75053511111112,114.85193283365821 80.75480106666666,114.85471033886267 80.75763697777778,114.85428073130151 80.76844942222222,114.87540991217035 80.7605376,114.89703548099797 80.76701937777779,114.91036327221737 80.76066560000001,114.92273369800418 80.76084337777777,114.92697211102698 80.76508088888889,114.94822569749716 80.76303004444445,114.95222321675521 80.80197262222222,114.95971160086344 80.81295715555555,114.95647488830683 80.83111537777778,114.97221721729167 80.85479537777778,114.94151677186935 80.86413368888888,114.93943745897501 80.86799502222223,114.93256053299942 80.88353635555556,114.9273483701668 80.88181404444444,114.92231553441452 80.8725752888889,114.9193427194397 80.8456768,114.89571489796958 80.83846186666666,114.88985104925305 80.84277475555557,114.87033317345482 80.83745920000001,114.86029361178846 80.8168832,114.86030483796823 80.8008760888889,114.85416322515456 80.77248995555556,114.86191466216393 80.76540515555556,114.85541237744627 80.75053511111112,114.85193283365821z" stroke="#0E478F" stroke-width="0.0025" stroke-opacity="0.8" fill="royalblue" fill-opacity="0.75"></path></g><g data-fips="72" data-geo-id="72045" data-county="Comerío"><path d="M80.87798542222222,114.80936022544105 80.87448035555556,114.8199666871476 80.8792512,114.84573169605449 80.8956728888889,114.84585519774643 80.91601706666667,114.85461753177397 80.91939555555557,114.83676890373872 80.93690097777778,114.83274989373612 80.94639928888888,114.81628929924847 80.9399104,114.79980341321357 80.93107484444445,114.7904203726779 80.9232576,114.77726081121429 80.92008177777778,114.7770758354808 80.91149866666667,114.7785361630515 80.90461582222223,114.79389032704005 80.87717973333334,114.80058137175067 80.87798542222222,114.80936022544105z" stroke="#0E478F" stroke-width="0.0025" stroke-opacity="0.8" fill="royalblue" fill-opacity="0.75"></path></g><g data-fips="72" data-geo-id="72047" data-county="Corozal"><path d="M80.79807146666667,114.76410740635473 80.79428764444445,114.77805837563237 80.81721386666668,114.80360256220253 80.82480284444445,114.80550883365117 80.83475413333333,114.7985956589357 80.84387626666667,114.79754588448645 80.85611662222222,114.79139008223606 80.86892373333333,114.73714261531644 80.8492664888889,114.70716158159131 80.83999004444445,114.70909549558027 80.82614115555556,114.7087036199566 80.80691768888889,114.73470495366766 80.80140800000001,114.75752608461515 80.79807146666667,114.76410740635473z" stroke="#0E478F" stroke-width="0.0025" stroke-opacity="0.8" fill="royalblue" fill-opacity="0.75"></path></g><g data-fips="72" data-geo-id="72049" data-county="Culebra"><path d="M81.5377790448918,114.72338671018755 81.53452942222222,114.7256693238453 81.54501831111111,114.74186873153401 81.54500703569764,114.74188673381572 81.53781262222222,114.75337279695121 81.54474666666667,114.76270908129185 81.57412849982302,114.77359423291884 81.57632860793308,114.7744092750366 81.57634204444444,114.77441425265027 81.59085326680697,114.76736086925438 81.59268835555555,114.76646887130991 81.5964446603845,114.76424200207914 81.60010168888888,114.76207395063183 81.61930453333333,114.75175788490297 81.62021831111112,114.74389651140739 81.59578097777778,114.72804647255494 81.58589536379677,114.73089314533198 81.57128665670734,114.7350997708774 81.56563342222222,114.73672760179129 81.56130915555555,114.73558518404724 81.55747475342272,114.7311770656228 81.5574520888889,114.73115100949828 81.54897493333334,114.73089404896179 81.54358471111111,114.72816783857292 81.53905706666667,114.72248898571465 81.5377790448918,114.72338671018755z" stroke="#0E478F" stroke-width="0.0025" stroke-opacity="0.8" fill="royalblue" fill-opacity="0.75"></path></g><g data-fips="72" data-geo-id="72051" data-county="Dorado"><path d="M80.84264509402361,114.62869544876263 80.84094506666668,114.64639300539778 80.85338595555555,114.66675256597084 80.85072853333334,114.6966073412118 80.87410631111112,114.69683889183611 80.88707271111112,114.68903113549557 80.87870933333333,114.6647835387279 80.88324195555556,114.64343336390155 80.90273280000001,114.6439056516823 80.92520510494536,114.63471010280362 80.9220280888889,114.63510657068491 80.91011697777779,114.63520328363005 80.89472213333333,114.63314905505533 80.8877888,114.63035705091615 80.8848041738233,114.62819594639632 80.8845333340613,114.6279998352706 80.88318933333333,114.62702665949959 80.87480959999999,114.62449619411521 80.86997404444445,114.6261096995757 80.86494222222223,114.63055273309566 80.85957333333334,114.63044477055068 80.84264509402361,114.62869544876263z" stroke="#0E478F" stroke-width="0.0025" stroke-opacity="0.8" fill="royalblue" fill-opacity="0.75"></path></g><g data-fips="72" data-geo-id="72053" data-county="Fajardo"><path d="M81.35526542222223,114.6901462369906 81.35449671111111,114.69757625416597 81.3611576888889,114.70270020665612 81.36743466666667,114.72140263322918 81.37409564444445,114.72793559485882 81.37651982222224,114.72363301740526 81.37532515555556,114.71589730813709 81.37464604444445,114.69942188959705 81.37243670399951,114.69784852638894 81.3609016888889,114.68963365120896 81.35526542222223,114.6901462369906z" stroke="#0E478F" stroke-width="0.0025" stroke-opacity="0.8" fill="royalblue" fill-opacity="0.75"></path><path d="M81.24189084444444,114.76202601611624 81.25316337777778,114.77915698451855 81.26754844444444,114.78375276844169 81.2800768,114.77975758340453 81.28354631111111,114.77032067075504 81.29267626666666,114.77826731423403 81.30408533333333,114.76855019031403 81.32667235555556,114.77189041664252 81.3345581186521,114.76820777957117 81.3323384888889,114.7356990517105 81.32904930394746,114.72787232378695 81.32743751111111,114.72403683495217 81.33740942222222,114.70916293103627 81.34133617777778,114.69819596498316 81.33842346666667,114.6937829896723 81.3340288,114.69428956403424 81.33380445649415,114.69438147117069 81.32066846944228,114.69976279644999 81.32000071111112,114.70003634621338 81.31576035555557,114.70411341665587 81.3127808,114.7094529030963 81.30499128888889,114.71234359676353 81.30193265160655,114.71204574534082 81.29001244444446,114.73713062938491 81.26615964444444,114.75466785799443 81.25734755555555,114.76815999235106 81.24189084444444,114.76202601611624z" stroke="#0E478F" stroke-width="0.0025" stroke-opacity="0.8" fill="royalblue" fill-opacity="0.75"></path></g><g data-fips="72" data-geo-id="72054" data-county="Florida"><path d="M80.65260231111111,114.70437117969803 80.64655288888889,114.73108583296732 80.68292551111111,114.7263323526936 80.68720142222222,114.72114190727572 80.6894016,114.69590594261324 80.68047715555555,114.68061135864104 80.66537742222222,114.6747003246089 80.64840462222222,114.69261246557382 80.65260231111111,114.70437117969803z" stroke="#0E478F" stroke-width="0.0025" stroke-opacity="0.8" fill="royalblue" fill-opacity="0.75"></path></g><g data-fips="72" data-geo-id="72055" data-county="Guánica"><path d="M80.36903088875954,115.01960733154525 80.36941084444445,115.02024770823922 80.37823928888889,115.02353443267268 80.38400142222223,115.02879287235568 80.38714524444444,115.03526491362373 80.39698417777778,115.03421553612773 80.40728106666667,115.0387642733119 80.40972373333334,115.03872839824412 80.41294364444445,115.03488746754817 80.41299453105266,115.0347660374717 80.41776213333334,115.0233886733705 80.42001137777778,115.02156928476546 80.42009690140061,115.02155710108795 80.42340622222223,115.02108565506944 80.42405975848291,115.02139525235603 80.42692337777778,115.02275181545787 80.43844266666667,115.01959140005454 80.44139377777778,115.02030302335876 80.44280391111111,115.02302689061338 80.45259875555556,115.02546591512588 80.45330133333334,115.01996814228104 80.45548739105998,115.01825310346811 80.45282204444445,114.9855732775913 80.4375800888889,114.9655431662733 80.43006862222222,114.96663496694562 80.38489031111112,114.95981405557578 80.382624,114.99038612252681 80.36903088875954,115.01960733154525z" stroke="#0E478F" stroke-width="0.0025" stroke-opacity="0.8" fill="royalblue" fill-opacity="0.75"></path></g><g data-fips="72" data-geo-id="72057" data-county="Guayama"><path d="M80.9084352,115.02740260159834 80.90641137777779,115.03986518472745 80.91101906225927,115.04713307633926 80.91773297777777,115.04297803134851 80.920986976227,115.04053705647594 80.92652942222223,115.0363793075378 80.92913777777778,115.03135586546881 80.9338343837595,115.03176667371403 80.9363328,115.03198520759878 80.94224426666666,115.03214366381532 80.94750577777778,115.0338238859839 80.95374151111112,115.03654822222828 80.95616924444444,115.03687259762229 80.9614848,115.03346661633023 80.9706432,115.02792881332421 80.97634915555555,115.02375718247531 80.98403982222223,115.02212168189834 81.0087751111111,115.00910647222962 81.01690369867107,115.00925211513425 81.015744,114.98878609724873 80.99896248888889,114.96750989656712 81.00816853333333,114.95945434196415 81.00309404444445,114.94202986344462 81.01808355555556,114.9252246985849 81.02887395555555,114.90385142315964 81.01790506666667,114.90794007021009 80.993728,114.90554300879325 80.98651946666666,114.91666982150952 80.97491128888889,114.91780840937197 80.9814648888889,114.93706116795217 80.96783146666667,114.95649358488801 80.94851911111111,114.94666180797381 80.938304,114.96535396975707 80.92046791111112,114.9743939690913 80.92002844444445,115.01184178350954 80.9084352,115.02740260159834z" stroke="#0E478F" stroke-width="0.0025" stroke-opacity="0.8" fill="royalblue" fill-opacity="0.75"></path></g><g data-fips="72" data-geo-id="72059" data-county="Guayanilla"><path d="M80.46059486179648,115.0177392745923 80.47034026666667,115.02153116255073 80.48184888888889,115.018116563509 80.4918968888889,115.00979198737164 80.506848,115.00435037934108 80.50847786666667,115.00030435094594 80.50843636415809,114.99459514769501 80.5083839825455,114.98738903124024 80.50838257777778,114.98719577251649 80.5188928,114.97964688914898 80.52302862222223,114.97937620998633 80.52608568475904,114.98531842043722 80.5344512,114.97582368138256 80.54542577777778,114.97101853029855 80.53922133333333,114.961269352586 80.54308266666668,114.95238999555477 80.53083235555556,114.94704399407479 80.52257351111112,114.95495073407484 80.5194680888889,114.94010837755744 80.52203804444444,114.92262597799396 80.51933155555557,114.91840986704086 80.52553528888889,114.90062081550863 80.51978737777779,114.88313315174845 80.5088711111111,114.88038767872177 80.49951502222223,114.88428400338925 80.50043164444445,114.8932510210741 80.49019306666668,114.89955914174314 80.49065742222223,114.90308829467664 80.49620622222223,114.91604666115701 80.48596337777778,114.93120589920544 80.48001208888888,114.95218208293808 80.48495502222222,114.96218470073627 80.47668408888889,114.97010997362617 80.47930382222222,114.98432536353441 80.4716928,115.00954080666386 80.46059486179648,115.0177392745923z" stroke="#0E478F" stroke-width="0.0025" stroke-opacity="0.8" fill="royalblue" fill-opacity="0.75"></path></g><g data-fips="72" data-geo-id="72061" data-county="Guaynabo"><path d="M80.96854257777778,114.76078570436972 80.96436551111111,114.77488156883291 80.99001813333334,114.77616667966686 81.00518044444445,114.7707595424608 81.00944,114.76162156793616 81.00611768888889,114.75921582419504 81.00438613333334,114.73366964525972 80.99579235555557,114.72766589195837 80.99683342222222,114.72241256673452 81.00383928888888,114.71679115270486 81.0026368,114.70336709983275 80.99092906666667,114.6976519384759 80.99568853333334,114.67567764624808 80.99707377777779,114.6723656651061 80.99000533333334,114.66400626312748 80.98966684444444,114.65551738882725 80.98674417777778,114.65461562388637 80.9840832,114.65497318231151 80.97309866666667,114.66619566485609 80.98042097777778,114.67389163032263 80.97844124444445,114.68534928373523 80.98249955555556,114.700221431963 80.97100942222222,114.70372452318635 80.96594133333333,114.71328841549352 80.97151146666667,114.73361945281833 80.9658432,114.74281483299957 80.9669624888889,114.75916339466299 80.96854257777778,114.76078570436972z" stroke="#0E478F" stroke-width="0.0025" stroke-opacity="0.8" fill="royalblue" fill-opacity="0.75"></path></g><g data-fips="72" data-geo-id="72063" data-county="Gurabo"><path d="M81.04492657777777,114.75871175081676 81.04540871111112,114.76643367059364 81.0608120888889,114.77594275975432 81.05673173333334,114.78602775989194 81.05993884444445,114.80374032981024 81.05689315555556,114.81527485496443 81.06833777777778,114.82923905354384 81.07445475555556,114.81924723892703 81.1014976,114.81254442582556 81.1097080888889,114.80893121718046 81.10517902222223,114.79505170023806 81.12459733333333,114.7819659960877 81.10983395555556,114.76950358654607 81.10760604444444,114.76448713102054 81.08931626666667,114.75199083495994 81.05120213333333,114.75582508783731 81.04492657777777,114.75871175081676z" stroke="#0E478F" stroke-width="0.0025" stroke-opacity="0.8" fill="royalblue" fill-opacity="0.75"></path></g><g data-fips="72" data-geo-id="72065" data-county="Hatillo"><path d="M80.47172640244565,114.61893310993757 80.47717475555555,114.63017186482452 80.48096497777777,114.67533288639247 80.48784071111112,114.69200546746607 80.49018666666667,114.69469647069972 80.48055253333334,114.72738644919386 80.47919786666667,114.7420814738748 80.51885297777778,114.74413172283026 80.51905991111111,114.74085969884433 80.52057457777778,114.66425436221317 80.51901013333332,114.65929528804097 80.5204416,114.62646583769008 80.52274272835592,114.62163480550583 80.51177884444445,114.61615092851288 80.49826133333335,114.61512816505692 80.47969382633636,114.61779064249548 80.47172640244565,114.61893310993757z" stroke="#0E478F" stroke-width="0.0025" stroke-opacity="0.8" fill="royalblue" fill-opacity="0.75"></path></g><g data-fips="72" data-geo-id="72067" data-county="Hormigueros"><path d="M80.24196764444444,114.86948079484904 80.26044160000001,114.8854647756368 80.2658439111111,114.89797821201495 80.28409457777778,114.90452327181366 80.29792,114.90428386066142 80.29900088888888,114.89659179651336 80.29004871111111,114.89032693090282 80.28877226666667,114.87765262447769 80.29414471111112,114.87202369544872 80.28559502222222,114.86549721695818 80.24196764444444,114.86948079484904z" stroke="#0E478F" stroke-width="0.0025" stroke-opacity="0.8" fill="royalblue" fill-opacity="0.75"></path></g><g data-fips="72" data-geo-id="72069" data-county="Humacao"><path d="M81.153696,114.89571564617903 81.15896106666668,114.90300375173801 81.17467235555556,114.89622367940936 81.1747192888889,114.90993309914947 81.18809457777779,114.9207438557722 81.21119608237711,114.93194166325958 81.21241205289778,114.92911504219009 81.21242453333333,114.92908603010066 81.21266773333333,114.92531147132681 81.21260755069824,114.92526297332478 81.21152782222222,114.92439287421789 81.21122773333333,114.92146723423876 81.22482915555555,114.88743120920495 81.23241315555556,114.87307511576981 81.23823786666667,114.86695580577569 81.2489728,114.86145065164499 81.25217801074666,114.85434316918696 81.23303395555556,114.8478746209605 81.23697493333334,114.8377809351697 81.21423857777778,114.82941347491463 81.1903552,114.83416767746478 81.1829703111111,114.85300387540171 81.17577173333333,114.85099276462495 81.17040426666667,114.85148226001368 81.16403626666667,114.87925400380328 81.153696,114.89571564617903z" stroke="#0E478F" stroke-width="0.0025" stroke-opacity="0.8" fill="royalblue" fill-opacity="0.75"></path></g><g data-fips="72" data-geo-id="72071" data-county="Isabela"><path d="M80.28888746666668,114.597894425505 80.2819786478351,114.59881958445614 80.30075662222222,114.61798423412317 80.313984,114.62472037661514 80.3153728,114.63898627713758 80.31799964444444,114.6484320298596 80.33623253333333,114.68963889698018 80.34905457777778,114.68832819694308 80.39941048888889,114.70233603656996 80.411008,114.68976779300628 80.39300764444445,114.68347871592874 80.39922631111112,114.67034425803809 80.392576,114.65629396604483 80.37917866666668,114.64726184366667 80.38576579904,114.61783028495915 80.38561208888889,114.61786201456306 80.3843271111111,114.61730040294249 80.37519592948559,114.61473246671343 80.36351583194028,114.61144763127615 80.36340764444445,114.6114172049286 80.34113706666668,114.60175950770684 80.29917155555556,114.59976998730674 80.28888746666668,114.597894425505z" stroke="#0E478F" stroke-width="0.0025" stroke-opacity="0.8" fill="royalblue" fill-opacity="0.75"></path></g><g data-fips="72" data-geo-id="72073" data-county="Jayuya"><path d="M80.60120888888889,114.85723406764697 80.60482346666667,114.86526746341366 80.61397048888888,114.87064074681159 80.64639644444445,114.85507258525539 80.67358862222223,114.8703563724437 80.67753244444445,114.869553385693 80.68043875555556,114.86209353029504 80.68905031111112,114.8493408912614 80.68784000000001,114.83408458708001 80.67634986666667,114.81907654719494 80.66527573333333,114.80254534070758 80.6722112,114.77338899699375 80.66373688888889,114.76068234452244 80.65510613333333,114.77154216835774 80.64179555555556,114.77150097763865 80.63520995555557,114.80566531738103 80.62212195555556,114.79951963314775 80.6197824,114.82376973974552 80.60120888888889,114.85723406764697z" stroke="#0E478F" stroke-width="0.0025" stroke-opacity="0.8" fill="royalblue" fill-opacity="0.75"></path></g><g data-fips="72" data-geo-id="72075" data-county="Juana Díaz"><path d="M80.66520106666667,114.8798189717394 80.66731591111112,114.89786598248762 80.67622471111112,114.91258144659915 80.67170133333333,114.92089122482143 80.67892764444444,114.93268245683565 80.67827697777778,114.94386830048818 80.68455822222222,114.95322613002622 80.68110506666666,114.96089019915946 80.68947911111111,114.98180033892854 80.68153173333334,114.9903764028057 80.68228457512093,115.00243511931716 80.70389831111112,114.9948526324464 80.70405779542742,114.99481109529115 80.71718368358293,114.9913924569188 80.71722951111111,114.99138052098114 80.72590253842809,114.99137718340779 80.72602657792584,114.99137713567461 80.72800763621738,114.99137637331941 80.73860124444445,114.99137229666377 80.74319075555556,114.99398087489405 80.74640526353151,114.99664126415841 80.76725048888889,114.96966130135293 80.76303004444445,114.95222321675521 80.76508088888889,114.94822569749716 80.76084337777777,114.92697211102698 80.76066560000001,114.92273369800418 80.74337137777778,114.92333438505145 80.71653902222222,114.9106655147116 80.69813760000001,114.92050671842686 80.6897472,114.90411253178723 80.69553848888889,114.87043345292555 80.6796224,114.87367752716328 80.67753244444445,114.869553385693 80.67358862222223,114.8703563724437 80.66520106666667,114.8798189717394z" stroke="#0E478F" stroke-width="0.0025" stroke-opacity="0.8" fill="royalblue" fill-opacity="0.75"></path></g><g data-fips="72" data-geo-id="72077" data-county="Juncos"><path d="M81.1014976,114.81254442582556 81.10098417777778,114.82255621867859 81.11686826666667,114.83639462977142 81.11655537777779,114.86133390035181 81.11501653333335,114.86299011246875 81.11762417777778,114.87725003163924 81.14054684444444,114.83277384797145 81.15572266666668,114.82255996182079 81.17195804444445,114.7985290187267 81.17147306666668,114.79331675012031 81.15577315555555,114.79475293404234 81.12459733333333,114.7819659960877 81.10517902222223,114.79505170023806 81.1097080888889,114.80893121718046 81.1014976,114.81254442582556z" stroke="#0E478F" stroke-width="0.0025" stroke-opacity="0.8" fill="royalblue" fill-opacity="0.75"></path></g><g data-fips="72" data-geo-id="72079" data-county="Lajas"><path d="M80.2731719111111,114.95914922029216 80.27723804444445,114.97223441608992 80.28282453333334,115.00282304061896 80.27734400000001,115.02461454146899 80.28321321130348,115.02402418803499 80.28340053333334,115.02400534624304 80.29167857777779,115.0204196335349 80.29678261163185,115.01382403512984 80.30113137777778,115.00820415843496 80.31112675555556,115.00367380709913 80.33811768888889,115.00598909022771 80.34507093333335,115.00767413030796 80.3522112,115.01339293924259 80.35455578816925,115.01108381595107 80.35778702222223,115.00790139227593 80.36545066666667,115.0085196325586 80.36627479206088,115.00989211392267 80.36820906666667,115.01311335878358 80.36787982222222,115.01766730693757 80.36903088875954,115.01960733154525 80.382624,114.99038612252681 80.38489031111112,114.95981405557578 80.36787555555556,114.95328895207956 80.3674048,114.94482565378115 80.34995911111112,114.93905973853377 80.32982044444445,114.94086231542293 80.30726257777778,114.9344993329882 80.27801315555556,114.94215776205316 80.2731719111111,114.95914922029216z" stroke="#0E478F" stroke-width="0.0025" stroke-opacity="0.8" fill="royalblue" fill-opacity="0.75"></path></g><g data-fips="72" data-geo-id="72081" data-county="Lares"><path d="M80.42152106666667,114.7947259776601 80.41752248888889,114.80976153031813 80.4281144888889,114.84364711956441 80.45227306666668,114.844392630815 80.45309724444445,114.85332945238817 80.47163733333333,114.85651407644549 80.47834524444445,114.85599840463297 80.47196373333333,114.8451141858423 80.4745272888889,114.81268892213892 80.48549617777778,114.81176279532049 80.48529208888888,114.80795340249449 80.47949795555556,114.80131215435972 80.47842915555556,114.80146040688831 80.47675875555555,114.76877412297242 80.47919786666667,114.7420814738748 80.48055253333334,114.72738644919386 80.4588536888889,114.71814352105241 80.44305208888889,114.71702416565532 80.4338104888889,114.70866615568563 80.43140337777778,114.70933676449401 80.4195776,114.7574901324701 80.42152106666667,114.7947259776601z" stroke="#0E478F" stroke-width="0.0025" stroke-opacity="0.8" fill="royalblue" fill-opacity="0.75"></path></g><g data-fips="72" data-geo-id="72083" data-county="Las Marías"><path d="M80.31158897777777,114.7820019414568 80.29724302222222,114.79333621883008 80.31557831111111,114.8004555808876 80.31974826666666,114.81390253510685 80.33211377777778,114.8209339307329 80.34144995555556,114.83786327465974 80.3528512,114.83933789127474 80.37092977777777,114.82854735448012 80.4281144888889,114.84364711956441 80.41752248888889,114.80976153031813 80.42152106666667,114.7947259776601 80.42059306666667,114.79548824209229 80.41320177777777,114.79220553124078 80.40943502222223,114.78918856902865 80.40540231111112,114.79048027772502 80.4061696,114.79384764581589 80.40357404444445,114.79423626907695 80.40285724444445,114.79055216374515 80.39936711111112,114.79045931096167 80.39367964444445,114.78298893749903 80.35134506666667,114.77520584333698 80.32839822222222,114.77422253270436 80.32857955555555,114.76730619617297 80.32694897777777,114.78057684972818 80.31158897777777,114.7820019414568z" stroke="#0E478F" stroke-width="0.0025" stroke-opacity="0.8" fill="royalblue" fill-opacity="0.75"></path></g><g data-fips="72" data-geo-id="72085" data-county="Las Piedras"><path d="M81.11762417777778,114.87725003163924 81.12308266666668,114.88100801549378 81.11912746666667,114.8943718551186 81.13247786666666,114.88974629519856 81.153696,114.89571564617903 81.16403626666667,114.87925400380328 81.17040426666667,114.85148226001368 81.17577173333333,114.85099276462495 81.1829703111111,114.85300387540171 81.1903552,114.83416767746478 81.18841671111112,114.81183242351557 81.19775004444445,114.78765946887316 81.19166577777779,114.77977630527032 81.18301368888889,114.77813476182678 81.17597226666668,114.7909872230814 81.17147306666668,114.79331675012031 81.17195804444445,114.7985290187267 81.15572266666668,114.82255996182079 81.14054684444444,114.83277384797145 81.11762417777778,114.87725003163924z" stroke="#0E478F" stroke-width="0.0025" stroke-opacity="0.8" fill="royalblue" fill-opacity="0.75"></path></g><g data-fips="72" data-geo-id="72087" data-county="Loíza"><path d="M81.07188567222899,114.64069459488957 81.07177942876338,114.64117912469018 81.08998186666668,114.66040390053725 81.09407217777778,114.65966557616954 81.11616,114.66333092150516 81.12406897777778,114.68243175568827 81.13782755555556,114.67442076728724 81.15914737777777,114.67799350922249 81.15448746666667,114.70065079990788 81.16092657777779,114.70101272675328 81.1664440888889,114.69811503556514 81.17152853333334,114.68340077501517 81.18865313619862,114.66702958596852 81.18650595555556,114.66455193057732 81.18128,114.66079217500487 81.1812211226149,114.66078212110008 81.17527261396168,114.65976634946509 81.15293653333335,114.6559521527112 81.13423075555556,114.64650395314783 81.1322624,114.64952724253568 81.12580053333333,114.65123188767501 81.11952355555556,114.65103548731835 81.09618346666666,114.64618310398747 81.073216,114.63938736089048 81.07210737777778,114.63968348734501 81.07188567222899,114.64069459488957z" stroke="#0E478F" stroke-width="0.0025" stroke-opacity="0.8" fill="royalblue" fill-opacity="0.75"></path></g><g data-fips="72" data-geo-id="72089" data-county="Luquillo"><path d="M81.22991573333333,114.71004558298426 81.24194631111112,114.72848024316994 81.23555982222223,114.75503113190472 81.23814328888889,114.76663289154294 81.24189084444444,114.76202601611624 81.25734755555555,114.76815999235106 81.26615964444444,114.75466785799443 81.29001244444446,114.73713062938491 81.30193265160655,114.71204574534082 81.29836657777778,114.71169847866133 81.291808,114.70829001380352 81.28721137777778,114.70950085706943 81.28066204444445,114.7085372785106 81.26980266666666,114.70240272623039 81.26975731289131,114.7022288672226 81.26676053333333,114.69074050421682 81.2578304,114.68834318501185 81.25678862222223,114.69023316654125 81.25867377777779,114.69516332520284 81.2561687220869,114.69796251172758 81.25613013333334,114.69800563090092 81.25002382222223,114.69931848075728 81.24431680971193,114.6958779325211 81.22991573333333,114.71004558298426z" stroke="#0E478F" stroke-width="0.0025" stroke-opacity="0.8" fill="royalblue" fill-opacity="0.75"></path></g><g data-fips="72" data-geo-id="72091" data-county="Manatí"><path d="M80.67997511111112,114.67107352720043 80.68047715555555,114.68061135864104 80.6894016,114.69590594261324 80.68720142222222,114.72114190727572 80.69028764444444,114.72194955665479 80.70273706666667,114.71314755477252 80.72289422222222,114.71012275854729 80.73006506666667,114.70895088387272 80.73727217777778,114.70605187204792 80.74554453333334,114.70549663905204 80.75107555555556,114.70638605971901 80.7473856,114.69425659179893 80.7541952,114.67690603311314 80.7541376,114.63801842315709 80.7546217586555,114.62042355398656 80.75380551111111,114.62056431439234 80.75246080000001,114.62489357419852 80.75230968781312,114.62508393297732 80.75083963486237,114.62693577079023 80.74724693333333,114.63146141425722 80.7420544,114.63301410458445 80.73225695629874,114.6329018766374 80.73223680000001,114.63290164575056 80.70285582222222,114.62707014558048 80.69015040000001,114.62254976373414 80.68747925460914,114.62340245802062 80.6916736,114.64269269322517 80.68442951111112,114.65775041050084 80.69606044444446,114.66132211529562 80.67997511111112,114.67107352720043z" stroke="#0E478F" stroke-width="0.0025" stroke-opacity="0.8" fill="royalblue" fill-opacity="0.75"></path></g><g data-fips="72" data-geo-id="72093" data-county="Maricao"><path d="M80.3310072888889,114.84531253792586 80.31896106666667,114.8538945323577 80.34571093333334,114.86001595063519 80.3713031111111,114.8765361372033 80.37294933333334,114.87683845775437 80.37556195555555,114.8782265790406 80.40781013333333,114.87094757109399 80.42396017777777,114.87461743306365 80.43513031111111,114.86935282532498 80.4574008888889,114.88043407312973 80.46213688888889,114.86225219136129 80.47163733333333,114.85651407644549 80.45309724444445,114.85332945238817 80.45227306666668,114.844392630815 80.4281144888889,114.84364711956441 80.37092977777777,114.82854735448012 80.3528512,114.83933789127474 80.34144995555556,114.83786327465974 80.34319075555555,114.84203407613103 80.3310072888889,114.84531253792586z" stroke="#0E478F" stroke-width="0.0025" stroke-opacity="0.8" fill="royalblue" fill-opacity="0.75"></path></g><g data-fips="72" data-geo-id="72095" data-county="Maunabo"><path d="M81.07482808888889,114.94002161458909 81.07440355555556,114.94153472262882 81.07720035555556,114.94636338791722 81.0769223111111,114.9502914092415 81.08092373333334,114.95501280743309 81.07953777777779,114.95804688757326 81.10019697777778,114.96681817918515 81.10711253333334,114.98968704844938 81.12793251863971,114.9986706389357 81.13399537777778,114.99608175595152 81.1405496888889,114.99138201631152 81.14071148159026,114.99140851164746 81.14753874555372,114.99252654642952 81.14848924444445,114.99268219965987 81.1554688,114.98198652095516 81.1588728888889,114.97916684450688 81.17268426286066,114.97516104793134 81.16288568888889,114.96485442982274 81.15252977777779,114.96876170884077 81.13252053333333,114.95725565527543 81.1136896,114.95656612759777 81.08246044444445,114.9384120015471 81.07482808888889,114.94002161458909z" stroke="#0E478F" stroke-width="0.0025" stroke-opacity="0.8" fill="royalblue" fill-opacity="0.75"></path></g><g data-fips="72" data-geo-id="72097" data-county="Mayagüez"><path d="M80.22195689634063,114.78440427525686 80.22197831111112,114.78455628379469 80.23080604444445,114.79853126502644 80.23085256235711,114.7988809687732 80.23253333333334,114.8115157272311 80.24319928888889,114.8219573145433 80.24699377777779,114.83185834391088 80.24520177777778,114.83821508825919 80.22705673433735,114.85828883491443 80.24021333333334,114.87003682471881 80.24196764444444,114.86948079484904 80.28559502222222,114.86549721695818 80.29414471111112,114.87202369544872 80.29714204444444,114.85837017874984 80.31896106666667,114.8538945323577 80.3310072888889,114.84531253792586 80.34319075555555,114.84203407613103 80.34144995555556,114.83786327465974 80.33211377777778,114.8209339307329 80.31974826666666,114.81390253510685 80.31557831111111,114.8004555808876 80.29724302222222,114.79333621883008 80.25897315555557,114.80008869017577 80.25910542222222,114.79594050689367 80.25493404444445,114.78209779572578 80.24090737777777,114.7798077579988 80.22195689634063,114.78440427525686z" stroke="#0E478F" stroke-width="0.0025" stroke-opacity="0.8" fill="royalblue" fill-opacity="0.75"></path><path d="M80.00460017777777,114.69308007698548 80.00628977777778,114.70237575064155 80.01727644444445,114.70660110827922 80.02403697777778,114.69984002014873 80.01896604444444,114.69054416402341 80.0122055111111,114.68716436809015 80.00460017777777,114.69308007698548z" stroke="#0E478F" stroke-width="0.0025" stroke-opacity="0.8" fill="royalblue" fill-opacity="0.75"></path><path d="M79.69103715555556,114.90084901064962 79.68654293333334,114.92448189164567 79.69575751111111,114.93281784452121 79.70220231111111,114.93689885755474 79.71240462222222,114.93988025066453 79.71845617777778,114.94495728931379 79.72082709925213,114.944400827062 79.73584924444445,114.94087503060778 79.7400192,114.93516055298461 79.7489080888889,114.92561966370526 79.75445831111112,114.92281972433774 79.75565155555556,114.92045510172393 79.75594524444445,114.91315450005561 79.7523591111111,114.90308305750504 79.74289920000001,114.89273998341011 79.73702826666667,114.89520386991693 79.73231644444445,114.89871593171537 79.7247296,114.89990031480009 79.72142933333333,114.89885584360384 79.70781866666667,114.89459257898383 79.69266844444445,114.8994162378523 79.69103715555556,114.90084901064962z" stroke="#0E478F" stroke-width="0.0025" stroke-opacity="0.8" fill="royalblue" fill-opacity="0.75"></path></g><g data-fips="72" data-geo-id="72099" data-county="Moca"><path d="M80.25990044444445,114.72475231563837 80.26299235555555,114.74616770705526 80.26922524444444,114.74164849789781 80.27872284444445,114.74460514070579 80.31042204444445,114.7509346914783 80.3181632,114.75461093250597 80.33006008888889,114.73746848240535 80.32184533333334,114.7214970338759 80.32567253333333,114.71779138217909 80.33623253333333,114.68963889698018 80.31799964444444,114.6484320298596 80.3153728,114.63898627713758 80.28520035555556,114.65691912229559 80.26654506666668,114.67798526512382 80.26153955555556,114.69262520500972 80.26549262222223,114.70607135386412 80.25990044444445,114.72475231563837z" stroke="#0E478F" stroke-width="0.0025" stroke-opacity="0.8" fill="royalblue" fill-opacity="0.75"></path></g><g data-fips="72" data-geo-id="72101" data-county="Morovis"><path d="M80.73727217777778,114.70605187204792 80.73589902222223,114.72046461671208 80.74361671111112,114.7351357054518 80.7442823111111,114.75218783098383 80.7360832,114.77214804488023 80.7426112,114.79125454797574 80.77551573333334,114.78707313431796 80.78865280000001,114.77952318541648 80.79358008888889,114.76648834404249 80.79807146666667,114.76410740635473 80.80140800000001,114.75752608461515 80.80691768888889,114.73470495366766 80.79853653333333,114.7264514727709 80.79223111111111,114.72608587117932 80.78536177777778,114.70574315979937 80.78151253333334,114.71187081017669 80.7666744888889,114.70130496508132 80.75107555555556,114.70638605971901 80.74554453333334,114.70549663905204 80.73727217777778,114.70605187204792z" stroke="#0E478F" stroke-width="0.0025" stroke-opacity="0.8" fill="royalblue" fill-opacity="0.75"></path></g><g data-fips="72" data-geo-id="72103" data-county="Naguabo"><path d="M81.18841671111112,114.81183242351557 81.1903552,114.83416767746478 81.21423857777778,114.82941347491463 81.23697493333334,114.8377809351697 81.23303395555556,114.8478746209605 81.25217801074666,114.85434316918696 81.25238471111112,114.8538848025246 81.25535004444446,114.84916799347576 81.25975395555555,114.84526089156333 81.26720071111112,114.84182673685173 81.27108764444445,114.84259770795845 81.27225244444445,114.84423170254192 81.2794657264906,114.84808826832717 81.28270116228231,114.84981805013388 81.28294684444444,114.84994939982931 81.28638506666667,114.85019340123846 81.28390044444446,114.84419577434224 81.28657848888889,114.83822332218314 81.30550968888889,114.82913125652851 81.30667503946191,114.82943580128098 81.3100096,114.81763164769824 81.30062222222222,114.81721614254502 81.28495786666667,114.80526250242261 81.29208675555556,114.79500602424756 81.2782912,114.78994637301955 81.26441386666667,114.79539015134013 81.23562595555556,114.7810658608949 81.23247573333335,114.7745715227071 81.21965582222222,114.76408943119509 81.2137080888889,114.76219528479525 81.21205902222222,114.76745074276285 81.20076515555556,114.76697965509771 81.19166577777779,114.77977630527032 81.19775004444445,114.78765946887316 81.18841671111112,114.81183242351557z" stroke="#0E478F" stroke-width="0.0025" stroke-opacity="0.8" fill="royalblue" fill-opacity="0.75"></path></g><g data-fips="72" data-geo-id="72105" data-county="Naranjito"><path d="M80.84387626666667,114.79754588448645 80.84830364444444,114.80341837267311 80.85771235555556,114.79972853726686 80.87717973333334,114.80058137175067 80.90461582222223,114.79389032704005 80.91149866666667,114.7785361630515 80.92008177777778,114.7770758354808 80.91481813333334,114.75488956755343 80.92107804444444,114.74758493694799 80.91222826666667,114.73398203658452 80.90097137777778,114.74120877859984 80.88283804444444,114.73569380780714 80.86892373333333,114.73714261531644 80.85611662222222,114.79139008223606 80.84387626666667,114.79754588448645z" stroke="#0E478F" stroke-width="0.0025" stroke-opacity="0.8" fill="royalblue" fill-opacity="0.75"></path></g><g data-fips="72" data-geo-id="72107" data-county="Orocovis"><path d="M80.67753244444445,114.869553385693 80.6796224,114.87367752716328 80.69553848888889,114.87043345292555 80.73205688888889,114.85106835959834 80.75053511111112,114.85193283365821 80.76540515555556,114.85541237744627 80.77248995555556,114.86191466216393 80.8008760888889,114.85416322515456 80.80801137777779,114.83397679406956 80.81660160000001,114.83881766041205 80.81721386666668,114.80360256220253 80.79428764444445,114.77805837563237 80.79807146666667,114.76410740635473 80.79358008888889,114.76648834404249 80.78865280000001,114.77952318541648 80.77551573333334,114.78707313431796 80.7426112,114.79125454797574 80.73459982222222,114.80028411576531 80.71034808888889,114.79191649296823 80.69851591111112,114.8150584890729 80.70325333333334,114.85086477699598 80.6886712888889,114.86764580466743 80.68043875555556,114.86209353029504 80.67753244444445,114.869553385693z" stroke="#0E478F" stroke-width="0.0025" stroke-opacity="0.8" fill="royalblue" fill-opacity="0.75"></path></g><g data-fips="72" data-geo-id="72109" data-county="Patillas"><path d="M81.00309404444445,114.94202986344462 81.00816853333333,114.95945434196415 81.02594631111111,114.9538633237477 81.0356032,114.96208150003768 81.03329635555556,114.97729749512726 81.05277234862777,115.00028350756054 81.05435875555555,114.99936459600625 81.06116906666666,114.99864837414495 81.07009066666666,114.99980868151322 81.07707875555556,115.00514282418867 81.07765333333333,115.00696916717591 81.08329884444444,115.00827143970938 81.0833390899023,115.00826457379213 81.09664633422037,115.00599432440994 81.12018631111111,115.00197824949788 81.12793251863971,114.9986706389357 81.10711253333334,114.98968704844938 81.10019697777778,114.96681817918515 81.07953777777779,114.95804688757326 81.08092373333334,114.95501280743309 81.0769223111111,114.9502914092415 81.07720035555556,114.94636338791722 81.07440355555556,114.94153472262882 81.07482808888889,114.94002161458909 81.05918506666667,114.93347159303929 81.05938133333333,114.92758699120972 81.0573824,114.91192460156846 81.02983964444445,114.90191740753333 81.02887395555555,114.90385142315964 81.01808355555556,114.9252246985849 81.00309404444445,114.94202986344462z" stroke="#0E478F" stroke-width="0.0025" stroke-opacity="0.8" fill="royalblue" fill-opacity="0.75"></path></g><g data-fips="72" data-geo-id="72111" data-county="Peñuelas"><path d="M80.51933155555557,114.91840986704086 80.52203804444444,114.92262597799396 80.5194680888889,114.94010837755744 80.52257351111112,114.95495073407484 80.53083235555556,114.94704399407479 80.54308266666668,114.95238999555477 80.53922133333333,114.961269352586 80.54542577777778,114.97101853029855 80.5344512,114.97582368138256 80.52608568475904,114.98531842043722 80.52731235555557,114.9877027046261 80.52735596350934,114.98787211008118 80.52888462222224,114.99381041047988 80.52957611901533,114.99383923151743 80.53238257777778,114.99395620242669 80.53600142222223,114.99131547409333 80.54676053333334,114.99033677624288 80.55683057777779,114.99131921242109 80.55936426666668,114.99324892306696 80.56188017777778,114.99747609448637 80.56951813910287,115.00087095544558 80.57829831111111,114.99046537561087 80.57639395555556,114.95399569811254 80.58286008888889,114.92647466935622 80.58447146666667,114.90878396904394 80.57310577777778,114.88646221309725 80.55922133333334,114.88528668772885 80.54944426666667,114.8995516598679 80.53360497777778,114.89908479000822 80.51978737777779,114.88313315174845 80.52553528888889,114.90062081550863 80.51933155555557,114.91840986704086z" stroke="#0E478F" stroke-width="0.0025" stroke-opacity="0.8" fill="royalblue" fill-opacity="0.75"></path></g><g data-fips="72" data-geo-id="72113" data-county="Ponce"><path d="M80.68742755555556,115.06322656487097 80.68801553837952,115.07146096014442 80.68827235555555,115.07505739147612 80.69841351111111,115.07167704946842 80.70686435555555,115.06407171228489 80.70686435555555,115.05393033502793 80.69841351111111,115.0530851229536 80.68742755555556,115.06322656487097z" stroke="#0E478F" stroke-width="0.0025" stroke-opacity="0.8" fill="royalblue" fill-opacity="0.75"></path><path d="M80.57829831111111,114.99046537561087 80.56951813910287,115.00087095544558 80.58821760000001,115.00918197625276 80.59421084444445,115.00783037295295 80.5952434927222,115.0067856025944 80.59889991111112,115.003086195687 80.60753706666667,114.99885845632545 80.61728426666667,114.99699985290076 80.62308408888889,114.99826783297371 80.63641955555556,115.00726520729519 80.64398791111111,115.00601899352212 80.64735431111112,115.00698785659701 80.64751539726848,115.00720285416338 80.65122817368399,115.01215810471808 80.6519232,115.01308569972204 80.65371866009338,115.01245588744678 80.68228457512093,115.00243511931716 80.68153173333334,114.9903764028057 80.68947911111111,114.98180033892854 80.68110506666666,114.96089019915946 80.68455822222222,114.95322613002622 80.67827697777778,114.94386830048818 80.67892764444444,114.93268245683565 80.67170133333333,114.92089122482143 80.67622471111112,114.91258144659915 80.66731591111112,114.89786598248762 80.66520106666667,114.8798189717394 80.67358862222223,114.8703563724437 80.64639644444445,114.85507258525539 80.61397048888888,114.87064074681159 80.60482346666667,114.86526746341366 80.60218097777778,114.8650489352377 80.58987093333333,114.86977714484506 80.58527928888888,114.88687899454136 80.57310577777778,114.88646221309725 80.58447146666667,114.90878396904394 80.58286008888889,114.92647466935622 80.57639395555556,114.95399569811254 80.57829831111111,114.99046537561087z" stroke="#0E478F" stroke-width="0.0025" stroke-opacity="0.8" fill="royalblue" fill-opacity="0.75"></path></g><g data-fips="72" data-geo-id="72115" data-county="Quebradillas"><path d="M80.38576579904,114.61783028495915 80.37917866666668,114.64726184366667 80.392576,114.65629396604483 80.39922631111112,114.67034425803809 80.39300764444445,114.68347871592874 80.411008,114.68976779300628 80.41280213333333,114.70072798108002 80.42405333333333,114.71024863703666 80.42744888888889,114.7100718076953 80.42596835555555,114.6956511601281 80.42564996124054,114.62129359926206 80.42177991111112,114.62204065785816 80.42156343751688,114.6219914773435 80.40078279224448,114.6172702465477 80.39492551111111,114.61593947808488 80.38576579904,114.61783028495915z" stroke="#0E478F" stroke-width="0.0025" stroke-opacity="0.8" fill="royalblue" fill-opacity="0.75"></path></g><g data-fips="72" data-geo-id="72117" data-county="Rincón"><path d="M80.1647936,114.70941169263646 80.16259555555555,114.7129032959246 80.16534471111112,114.7197813288345 80.16542620161985,114.71992257323781 80.17912731485596,114.74366800176665 80.18834702222223,114.7596442475774 80.19478684444445,114.76205073235306 80.19526892329074,114.76210579779911 80.19860693333334,114.75532624439425 80.22552746666668,114.74983883989384 80.21652764444444,114.73689240876547 80.1938944,114.72306512343579 80.18553594862301,114.70317108137766 80.17018951111112,114.7070079761793 80.1647936,114.70941169263646z" stroke="#0E478F" stroke-width="0.0025" stroke-opacity="0.8" fill="royalblue" fill-opacity="0.75"></path></g><g data-fips="72" data-geo-id="72119" data-county="Río Grande"><path d="M81.16092657777779,114.70101272675328 81.15433955555555,114.7135161899518 81.16425884444445,114.74349874844397 81.16045155555555,114.76410216360009 81.18301368888889,114.77813476182678 81.19166577777779,114.77977630527032 81.20076515555556,114.76697965509771 81.21205902222222,114.76745074276285 81.2137080888889,114.76219528479525 81.21965582222222,114.76408943119509 81.23247573333335,114.7745715227071 81.23814328888889,114.76663289154294 81.23555982222223,114.75503113190472 81.24194631111112,114.72848024316994 81.22991573333333,114.71004558298426 81.24431680971193,114.6958779325211 81.24412088888889,114.69575981742585 81.2344814915589,114.68568332261161 81.22901688888889,114.67997057876549 81.23040071111112,114.67757530791644 81.22984533333334,114.67497688340066 81.22671146666667,114.6742191558669 81.22659200258133,114.67423297775545 81.21990968888889,114.67500611315701 81.21706951111112,114.6707962105332 81.21666763080705,114.67034315657155 81.2145351111111,114.66793906463009 81.20476942222223,114.6765837606928 81.19701973333333,114.67668344038788 81.18865313619862,114.66702958596852 81.17152853333334,114.68340077501517 81.1664440888889,114.69811503556514 81.16092657777779,114.70101272675328z" stroke="#0E478F" stroke-width="0.0025" stroke-opacity="0.8" fill="royalblue" fill-opacity="0.75"></path></g><g data-fips="72" data-geo-id="72121" data-county="Sabana Grande"><path d="M80.36683804444445,114.90409607223293 80.36934968888889,114.9251858004406 80.3674048,114.94482565378115 80.36787555555556,114.95328895207956 80.38489031111112,114.95981405557578 80.43006862222222,114.96663496694562 80.4375800888889,114.9655431662733 80.43556693333333,114.95861899491972 80.4259320888889,114.95429709235596 80.4119495111111,114.90671236726223 80.41840142222222,114.89919103297503 80.40781013333333,114.87094757109399 80.37556195555555,114.8782265790406 80.37294933333334,114.87683845775437 80.3713031111111,114.8765361372033 80.37662648888889,114.88544157932637 80.36683804444445,114.90409607223293z" stroke="#0E478F" stroke-width="0.0025" stroke-opacity="0.8" fill="royalblue" fill-opacity="0.75"></path></g><g data-fips="72" data-geo-id="72123" data-county="Salinas"><path d="M80.82303502222223,114.98891395044942 80.82620311004331,115.00167577526044 80.83650915555556,115.00014735177952 80.84128,115.0015326760742 80.8549497148204,115.01460870158802 80.85498382222222,115.01464132605267 80.85988835555557,115.02410251867582 80.87064817777778,115.02278021998411 80.87869795555557,115.02556233901362 80.87872557723492,115.02559587975394 80.8834304,115.03130877680425 80.88804408888889,115.03434708248086 80.88804174429269,115.03435869212989 80.88612906666667,115.04382928686486 80.89369955555556,115.04855929795684 80.90709262222222,115.04956297427276 80.91101906225927,115.04713307633926 80.90641137777779,115.03986518472745 80.9084352,115.02740260159834 80.92002844444445,115.01184178350954 80.92046791111112,114.9743939690913 80.938304,114.96535396975707 80.94851911111111,114.94666180797381 80.9229952,114.94961605520616 80.92319786666667,114.93351572468703 80.90702933333334,114.91279465868674 80.8959623111111,114.91440533389178 80.89440853333333,114.92640285807215 80.88353635555556,114.9273483701668 80.86799502222223,114.93256053299942 80.86413368888888,114.93943745897501 80.85479537777778,114.94151677186935 80.83111537777778,114.97221721729167 80.82303502222223,114.98891395044942z" stroke="#0E478F" stroke-width="0.0025" stroke-opacity="0.8" fill="royalblue" fill-opacity="0.75"></path></g><g data-fips="72" data-geo-id="72125" data-county="San Germán"><path d="M80.28507022222223,114.93372591080582 80.27801315555556,114.94215776205316 80.30726257777778,114.9344993329882 80.32982044444445,114.94086231542293 80.34995911111112,114.93905973853377 80.3674048,114.94482565378115 80.36934968888889,114.9251858004406 80.36683804444445,114.90409607223293 80.37662648888889,114.88544157932637 80.3713031111111,114.8765361372033 80.34571093333334,114.86001595063519 80.31896106666667,114.8538945323577 80.29714204444444,114.85837017874984 80.29414471111112,114.87202369544872 80.28877226666667,114.87765262447769 80.29004871111111,114.89032693090282 80.29900088888888,114.89659179651336 80.29792,114.90428386066142 80.28409457777778,114.90452327181366 80.2804864,114.9288616241701 80.28507022222223,114.93372591080582z" stroke="#0E478F" stroke-width="0.0025" stroke-opacity="0.8" fill="royalblue" fill-opacity="0.75"></path></g><g data-fips="72" data-geo-id="72127" data-county="San Juan"><path d="M80.97475422309014,114.63028615161929 80.97464675555557,114.63547917752364 80.9895480888889,114.65068091645031 80.98966684444444,114.65551738882725 80.99000533333334,114.66400626312748 80.99707377777779,114.6723656651061 80.99568853333334,114.67567764624808 80.99092906666667,114.6976519384759 81.0026368,114.70336709983275 81.00383928888888,114.71679115270486 80.99683342222222,114.72241256673452 80.99579235555557,114.72766589195837 81.00438613333334,114.73366964525972 81.00611768888889,114.75921582419504 81.00944,114.76162156793616 81.0196600888889,114.7571081403137 81.03442773333333,114.76003147518675 81.03713066666667,114.75034968915318 81.04142293333334,114.744734731057 81.04139875555556,114.7263600724698 81.043552,114.71786930235278 81.0415296,114.70739461189227 81.04882062222222,114.69983177744484 81.0669824,114.69961372026903 81.07249066666667,114.68177524658066 81.04889671111111,114.66670384658845 81.04552177777778,114.66384286226034 81.03611093333333,114.65156546774699 81.04066940096492,114.64703605149593 81.03862044444445,114.64386891825039 81.03589546666667,114.64445815121998 81.0140536888889,114.64112587582524 81.00789079947407,114.6383761162661 81.00746382222223,114.63818560527112 81.00623751613304,114.63752587896634 81.00589840765454,114.63734344530026 81.00117475555557,114.63480218683256 80.98379235555556,114.63233710091852 80.97797475555555,114.6308061448243 80.97788477767034,114.63079161685496 80.97475422309014,114.63028615161929z" stroke="#0E478F" stroke-width="0.0025" stroke-opacity="0.8" fill="royalblue" fill-opacity="0.75"></path></g><g data-fips="72" data-geo-id="72129" data-county="San Lorenzo"><path d="M81.02929422222223,114.8995299624273 81.02983964444445,114.90191740753333 81.0573824,114.91192460156846 81.05938133333333,114.92758699120972 81.08374897777779,114.91356595987068 81.09365262222222,114.9194092980663 81.1141880888889,114.91425496514383 81.11912746666667,114.8943718551186 81.12308266666668,114.88100801549378 81.11762417777778,114.87725003163924 81.11501653333335,114.86299011246875 81.11655537777779,114.86133390035181 81.11686826666667,114.83639462977142 81.10098417777778,114.82255621867859 81.1014976,114.81254442582556 81.07445475555556,114.81924723892703 81.06833777777778,114.82923905354384 81.06694186666667,114.84292555642769 81.06392533333333,114.84525415507974 81.0586176,114.84490759995565 81.05084017777779,114.85989545598888 81.05224319999999,114.87632511105812 81.04151608888888,114.89468760236383 81.02929422222223,114.8995299624273z" stroke="#0E478F" stroke-width="0.0025" stroke-opacity="0.8" fill="royalblue" fill-opacity="0.75"></path></g><g data-fips="72" data-geo-id="72131" data-county="San Sebastián"><path d="M80.3181632,114.75461093250597 80.32660693333334,114.75936936770275 80.32857955555555,114.76730619617297 80.32839822222222,114.77422253270436 80.35134506666667,114.77520584333698 80.39367964444445,114.78298893749903 80.39936711111112,114.79045931096167 80.40285724444445,114.79055216374515 80.40357404444445,114.79423626907695 80.4061696,114.79384764581589 80.40540231111112,114.79048027772502 80.40943502222223,114.78918856902865 80.41320177777777,114.79220553124078 80.42059306666667,114.79548824209229 80.42152106666667,114.7947259776601 80.4195776,114.7574901324701 80.43140337777778,114.70933676449401 80.42744888888889,114.7100718076953 80.42405333333333,114.71024863703666 80.41280213333333,114.70072798108002 80.411008,114.68976779300628 80.39941048888889,114.70233603656996 80.34905457777778,114.68832819694308 80.33623253333333,114.68963889698018 80.32567253333333,114.71779138217909 80.32184533333334,114.7214970338759 80.33006008888889,114.73746848240535 80.3181632,114.75461093250597z" stroke="#0E478F" stroke-width="0.0025" stroke-opacity="0.8" fill="royalblue" fill-opacity="0.75"></path></g><g data-fips="72" data-geo-id="72133" data-county="Santa Isabel"><path d="M80.74640526353151,114.99664126415841 80.74988017777778,114.9995171103892 80.77359573333334,115.01603322606317 80.78297244444445,115.02078815091537 80.7884608,115.02460482426656 80.79284693333334,115.02969878285704 80.79883030274297,115.02387790788691 80.80242417777778,115.02038151098864 80.80242742656398,115.02037392848905 80.80442524444445,115.01571104213383 80.80704142222223,115.01039227742605 80.80888106666667,115.0078513049679 80.82603377777778,115.0017008876944 80.82620311004331,115.00167577526044 80.82303502222223,114.98891395044942 80.83111537777778,114.97221721729167 80.81295715555555,114.95647488830683 80.80197262222222,114.95971160086344 80.76303004444445,114.95222321675521 80.76725048888889,114.96966130135293 80.74640526353151,114.99664126415841z" stroke="#0E478F" stroke-width="0.0025" stroke-opacity="0.8" fill="royalblue" fill-opacity="0.75"></path></g><g data-fips="72" data-geo-id="72135" data-county="Toa Alta"><path d="M80.84326542222222,114.69906220631945 80.83999004444445,114.70909549558027 80.8492664888889,114.70716158159131 80.86892373333333,114.73714261531644 80.88283804444444,114.73569380780714 80.90097137777778,114.74120877859984 80.91222826666667,114.73398203658452 80.92107804444444,114.74758493694799 80.92159004444444,114.74768006757513 80.92335573333334,114.73788574090642 80.92187377777778,114.73212490777804 80.9247616,114.72971636907566 80.92410951111111,114.72428481875824 80.92541937777779,114.72131048015048 80.92467484444445,114.71873166575688 80.92636942222222,114.71449921196009 80.926592,114.69270164159867 80.90032568888888,114.68371478667787 80.88707271111112,114.68903113549557 80.87410631111112,114.69683889183611 80.85072853333334,114.6966073412118 80.84326542222222,114.69906220631945z" stroke="#0E478F" stroke-width="0.0025" stroke-opacity="0.8" fill="royalblue" fill-opacity="0.75"></path></g><g data-fips="72" data-geo-id="72137" data-county="Toa Baja"><path d="M80.88324195555556,114.64343336390155 80.87870933333333,114.6647835387279 80.88707271111112,114.68903113549557 80.90032568888888,114.68371478667787 80.926592,114.69270164159867 80.92585742222222,114.67371325221642 80.93329351111112,114.6698803117893 80.94389120000001,114.66889844911842 80.94612195555555,114.66144204490342 80.96742897777777,114.63797494077794 80.97464675555557,114.63547917752364 80.97475422309014,114.63028615161929 80.96856248888889,114.6292864167083 80.9655288888889,114.63649728084722 80.95784035555556,114.6438569236581 80.95781102436032,114.64386089325956 80.95202417777779,114.6446440664063 80.94431928888889,114.64080801197731 80.9371904,114.63710079190021 80.93475604699279,114.63364105186659 80.93388657777778,114.63240532625564 80.92876871111112,114.63426538990917 80.92520510494536,114.63471010280362 80.90273280000001,114.6439056516823 80.88324195555556,114.64343336390155z" stroke="#0E478F" stroke-width="0.0025" stroke-opacity="0.8" fill="royalblue" fill-opacity="0.75"></path></g><g data-fips="72" data-geo-id="72139" data-county="Trujillo Alto"><path d="M81.04142293333334,114.744734731057 81.03713066666667,114.75034968915318 81.04845226666667,114.75239456413199 81.05120213333333,114.75582508783731 81.08931626666667,114.75199083495994 81.10760604444444,114.76448713102054 81.11005440000001,114.75304696984085 81.09752746666666,114.74588081349476 81.07943253333333,114.71577667985571 81.07403164444445,114.71027261387788 81.07271253333333,114.70190742354902 81.0669824,114.69961372026903 81.04882062222222,114.69983177744484 81.0415296,114.70739461189227 81.043552,114.71786930235278 81.04139875555556,114.7263600724698 81.04142293333334,114.744734731057z" stroke="#0E478F" stroke-width="0.0025" stroke-opacity="0.8" fill="royalblue" fill-opacity="0.75"></path></g><g data-fips="72" data-geo-id="72141" data-county="Utuado"><path d="M80.47675875555555,114.76877412297242 80.47842915555556,114.80146040688831 80.47949795555556,114.80131215435972 80.48529208888888,114.80795340249449 80.48549617777778,114.81176279532049 80.49866026666666,114.81199488915934 80.50168462222223,114.79713630542506 80.5107904,114.79685401709469 80.52288213333334,114.80626729131549 80.52577706666666,114.81508768725917 80.54090097777778,114.81911397961147 80.54600462222223,114.81518950652419 80.56339555555556,114.82197078991662 80.57334755555556,114.82182854979476 80.58217244444445,114.83135530051403 80.58190506666666,114.84374741951869 80.59399324444445,114.85283771855794 80.58525155555556,114.8711810564071 80.58987093333333,114.86977714484506 80.60218097777778,114.8650489352377 80.60482346666667,114.86526746341366 80.60120888888889,114.85723406764697 80.6197824,114.82376973974552 80.62212195555556,114.79951963314775 80.63520995555557,114.80566531738103 80.64179555555556,114.77150097763865 80.65510613333333,114.77154216835774 80.66373688888889,114.76068234452244 80.65047537777778,114.74260059368433 80.6320896,114.7428373056345 80.63503004444445,114.73848278529354 80.58906951111112,114.74122750602797 80.55658524444445,114.74785010403404 80.55483662222223,114.73244629260319 80.54332657777779,114.72238409690686 80.51905991111111,114.74085969884433 80.51885297777778,114.74413172283026 80.47919786666667,114.7420814738748 80.47675875555555,114.76877412297242z" stroke="#0E478F" stroke-width="0.0025" stroke-opacity="0.8" fill="royalblue" fill-opacity="0.75"></path></g><g data-fips="72" data-geo-id="72143" data-county="Vega Alta"><path d="M80.80124942222223,114.70570419606511 80.79853653333333,114.7264514727709 80.80691768888889,114.73470495366766 80.82614115555556,114.7087036199566 80.83999004444445,114.70909549558027 80.84326542222222,114.69906220631945 80.85072853333334,114.6966073412118 80.85338595555555,114.66675256597084 80.84094506666668,114.64639300539778 80.84264509402361,114.62869544876263 80.84232746666667,114.6286626257208 80.82650453333333,114.62049308357783 80.82622879245504,114.62047563506604 80.81802865495844,114.61995674031506 80.81931733333333,114.66304459357825 80.81145031111112,114.66891194041189 80.80862222222223,114.68810637332187 80.80762026666667,114.6923067187354 80.80124942222223,114.70570419606511z" stroke="#0E478F" stroke-width="0.0025" stroke-opacity="0.8" fill="royalblue" fill-opacity="0.75"></path></g><g data-fips="72" data-geo-id="72145" data-county="Vega Baja"><path d="M80.7473856,114.69425659179893 80.75107555555556,114.70638605971901 80.7666744888889,114.70130496508132 80.78151253333334,114.71187081017669 80.78536177777778,114.70574315979937 80.79223111111111,114.72608587117932 80.79853653333333,114.7264514727709 80.80124942222223,114.70570419606511 80.80762026666667,114.6923067187354 80.80862222222223,114.68810637332187 80.81145031111112,114.66891194041189 80.81931733333333,114.66304459357825 80.81802865495844,114.61995674031506 80.80155022222222,114.61891399874965 80.7983744,114.61867555975304 80.79752474511638,114.61858576500487 80.7862848,114.61739787910076 80.78607769587002,114.61739600228839 80.77486648888889,114.61729440440725 80.76734506666666,114.6182294227061 80.7546217586555,114.62042355398656 80.7541376,114.63801842315709 80.7541952,114.67690603311314 80.7473856,114.69425659179893z" stroke="#0E478F" stroke-width="0.0025" stroke-opacity="0.8" fill="royalblue" fill-opacity="0.75"></path></g><g data-fips="72" data-geo-id="72147" data-county="Vieques"><path d="M81.36847715555555,114.89758466005003 81.36756622222222,114.90689566306972 81.37199786666667,114.91130889987996 81.37293866666667,114.91557985002244 81.3805184,114.92003543473362 81.3922936888889,114.92338899282855 81.40500693333334,114.92279055019615 81.417056,114.91555740713758 81.43659377777779,114.9120368190618 81.44443164444445,114.91481155308053 81.44510551599616,114.91600838789503 81.44640662966671,114.91831921006926 81.44650737777778,114.91849814044687 81.45293511111112,114.91845101143241 81.45679644444445,114.91970927550427 81.47462328888889,114.91398415134216 81.47643377777779,114.91098047458951 81.47729624629582,114.91034166254325 81.4790253350309,114.9090609540037 81.48496568888889,114.90466093302823 81.4934501268288,114.90270732411399 81.49348195555557,114.90269999524318 81.49806222222223,114.90310774702647 81.50295324444446,114.90150366663613 81.50534826666667,114.90478213463008 81.51152426666667,114.90329179603981 81.51094755555556,114.89785401133237 81.51205688888889,114.89328244645834 81.51759360000001,114.8908327403204 81.52504746666668,114.89051324258713 81.52832711111111,114.8918368709796 81.5246215111111,114.90009708745322 81.52853831111112,114.90039411633582 81.53455146666667,114.90079364530766 81.53706240000001,114.90000131981104 81.54511360000001,114.89127195490168 81.54823537777779,114.88941407464293 81.5672632888889,114.88836577858044 81.57635697777778,114.88461773350716 81.58135893333333,114.8854131451338 81.58210488888889,114.883546950675 81.5730048,114.87331982234744 81.56807395555556,114.87726125636341 81.56281244444445,114.87856406614146 81.55824568888889,114.87550869109931 81.55486151111111,114.87616422210175 81.54006115555556,114.87357126349167 81.5136903111111,114.8662702935095 81.4936768,114.86296391858595 81.46698097777778,114.86616327544053 81.44504177777777,114.87656008341104 81.42945493333333,114.88243799653846 81.41389368888889,114.88473670883677 81.38936960000001,114.89484622391551 81.36847715555555,114.89758466005003z" stroke="#0E478F" stroke-width="0.0025" stroke-opacity="0.8" fill="royalblue" fill-opacity="0.75"></path></g><g data-fips="72" data-geo-id="72149" data-county="Villalba"><path d="M80.69553848888889,114.87043345292555 80.6897472,114.90411253178723 80.69813760000001,114.92050671842686 80.71653902222222,114.9106655147116 80.74337137777778,114.92333438505145 80.76066560000001,114.92273369800418 80.76701937777779,114.91036327221737 80.7605376,114.89703548099797 80.76844942222222,114.87540991217035 80.75763697777778,114.85428073130151 80.75480106666666,114.85471033886267 80.75053511111112,114.85193283365821 80.73205688888889,114.85106835959834 80.69553848888889,114.87043345292555z" stroke="#0E478F" stroke-width="0.0025" stroke-opacity="0.8" fill="royalblue" fill-opacity="0.75"></path></g><g data-fips="72" data-geo-id="72151" data-county="Yabucoa"><path d="M81.05938133333333,114.92758699120972 81.05918506666667,114.93347159303929 81.07482808888889,114.94002161458909 81.08246044444445,114.9384120015471 81.1136896,114.95656612759777 81.13252053333333,114.95725565527543 81.15252977777779,114.96876170884077 81.16288568888889,114.96485442982274 81.17268426286066,114.97516104793134 81.1807352888889,114.97282590382879 81.18582826666666,114.9729462948132 81.1845434249024,114.95531740575379 81.18451626666668,114.954944751099 81.18678044444445,114.94621230783085 81.18798703260673,114.94456171328252 81.18806621172672,114.94445339670688 81.19050808888889,114.94111287913309 81.19666711868636,114.93674318171571 81.19672391111112,114.93670288805197 81.20236515555555,114.94160951743358 81.20758684444445,114.94033126836874 81.21119608237711,114.93194166325958 81.18809457777779,114.9207438557722 81.1747192888889,114.90993309914947 81.17467235555556,114.89622367940936 81.15896106666668,114.90300375173801 81.153696,114.89571564617903 81.13247786666666,114.88974629519856 81.11912746666667,114.8943718551186 81.1141880888889,114.91425496514383 81.09365262222222,114.9194092980663 81.08374897777779,114.91356595987068 81.05938133333333,114.92758699120972z" stroke="#0E478F" stroke-width="0.0025" stroke-opacity="0.8" fill="royalblue" fill-opacity="0.75"></path></g><g data-fips="72" data-geo-id="72153" data-county="Yauco"><path d="M80.40781013333333,114.87094757109399 80.41840142222222,114.89919103297503 80.4119495111111,114.90671236726223 80.4259320888889,114.95429709235596 80.43556693333333,114.95861899491972 80.4375800888889,114.9655431662733 80.45282204444445,114.9855732775913 80.45548739105998,115.01825310346811 80.45761848888888,115.01658116119717 80.45834461680839,115.01686370014032 80.4602293266912,115.01759704460703 80.46059486179648,115.0177392745923 80.4716928,115.00954080666386 80.47930382222222,114.98432536353441 80.47668408888889,114.97010997362617 80.48495502222222,114.96218470073627 80.48001208888888,114.95218208293808 80.48596337777778,114.93120589920544 80.49620622222223,114.91604666115701 80.49065742222223,114.90308829467664 80.49019306666668,114.89955914174314 80.50043164444445,114.8932510210741 80.49951502222223,114.88428400338925 80.49489208888889,114.87335050417963 80.4790912,114.86425040622821 80.47834524444445,114.85599840463297 80.47163733333333,114.85651407644549 80.46213688888889,114.86225219136129 80.4574008888889,114.88043407312973 80.43513031111111,114.86935282532498 80.42396017777777,114.87461743306365 80.40781013333333,114.87094757109399z" stroke="#0E478F" stroke-width="0.0025" stroke-opacity="0.8" fill="royalblue" fill-opacity="0.75"></path></g></svg>