<svg version="1.1" xmlns="http://www.w3.org/2000/svg"><g data-fips="78" data-geo-i-d="78010" data-county="St. Croix"><path d="M82.03781475555556,115.1366252427707 82.03908266666667,115.14317492787022 82.0465344,115.14562294879416 82.05704035555556,115.14486494833741 82.05746275555555,115.14063948360355 82.04647680000001,115.1362032736908 82.03781475555556,115.1366252427707z" stroke="#0E478F" stroke-width="0.003" stroke-opacity="0.8" fill="royalblue" fill-opacity="0.75"></path><path d="M81.84471324444445,115.22261265005389 81.8481336888889,115.22756022359272 81.86452124444445,115.21998541359099 81.88422115555557,115.21838740169788 81.89161528888889,115.22366875475794 81.92183395555556,115.2131700327169 81.93640462222223,115.21268336648835 81.94591217777779,115.22155653703565 81.94893511111111,115.22022126987586 81.961312,115.21137338956396 81.97875626666666,115.20860933356857 81.99599573333334,115.20422539249236 82.015584,115.19776902598603 82.0342464,115.1920073760831 82.05524195555556,115.18365112463357 82.05881955555556,115.17638517379432 82.071808,115.17462611523645 82.07795982222223,115.17379809536514 82.08556231111112,115.17000660973383 82.08601102222222,115.16567740500163 82.07371804444445,115.16203204309986 82.05189191111111,115.16227397515713 82.02251946666667,115.16067676745284 82.00570168888889,115.1621895976684 81.9953144888889,115.16675038585831 81.97433173333333,115.16527195487708 81.95732053333333,115.14643919471602 81.93513742222223,115.1446536035998 81.91591182222223,115.14866760280206 81.8941504,115.16282280088461 81.86964337777778,115.15437212806262 81.85781191111111,115.1609216888083 81.85231928888889,115.1735979960154 81.8582336,115.18889801264467 81.86048142222222,115.19911944680265 81.84471324444445,115.22261265005389z" stroke="#0E478F" stroke-width="0.003" stroke-opacity="0.8" fill="royalblue" fill-opacity="0.75"></path></g><g data-fips="78" data-geo-i-d="78020" data-county="St. John"><path d="M81.92151893333333,114.73176306796454 81.92150542222222,114.73881164545593 81.9257528888889,114.74706059365589 81.9335872,114.75162305831228 81.94425742222222,114.75167024763496 81.95043768888888,114.74711976964787 81.9672007111111,114.7484456044118 81.9753856,114.75359450872384 81.98889386666667,114.76094149296952 81.99123484444445,114.75728041142543 81.98993706666667,114.75220730585967 81.99305315555556,114.74395868516895 81.99042631111111,114.73670587721996 81.98772195555556,114.72937924499898 81.9966656,114.73027074898224 82.00742257777777,114.73544060193586 82.01234062222223,114.7368961543761 82.01422222222222,114.73263208113599 82.01749831111111,114.73244704175103 82.01893973333334,114.72676762741312 82.00942648888889,114.72191584226391 82.006592,114.72330786469863 82.00082915555555,114.71953033950847 81.99966933333333,114.71562008769534 81.99480533333333,114.71322322996618 81.98812302222223,114.71386609269679 81.98164977777778,114.7091914037738 81.9772600888889,114.70963647680333 81.97601066666668,114.71270024604038 81.96739626666667,114.71204463999432 81.96677404444445,114.70684837621643 81.9572728888889,114.70501183852106 81.95390293333334,114.7065583983149 81.95195591111111,114.71910927572476 81.94316088888888,114.71903809932701 81.92929706666668,114.72014769745434 81.92151893333333,114.73176306796454z" stroke="#0E478F" stroke-width="0.003" stroke-opacity="0.8" fill="royalblue" fill-opacity="0.75"></path><path d="M81.8889030054939,114.70972763529944 81.88891682138646,114.72201394198916 81.89552213333333,114.72081300223456 81.91662720000001,114.72081300223456 81.92162204444445,114.7116692572077 81.92190293333333,114.70591474995085 81.91321315555555,114.70467390075399 81.89490133333334,114.7099496754243 81.8889030054939,114.70972763529944z" stroke="#0E478F" stroke-width="0.003" stroke-opacity="0.8" fill="royalblue" fill-opacity="0.75"></path></g><g data-fips="78" data-geo-i-d="78030" data-county="St. Thomas"><path d="M81.84534684444445,114.77725407121243 81.84471324444445,114.783591765234 81.8546432,114.78253587878962 81.86372764444445,114.78338058863133 81.86351644444444,114.77598619575414 81.85360142222223,114.77476848446213 81.84534684444445,114.77725407121243z" stroke="#0E478F" stroke-width="0.003" stroke-opacity="0.8" fill="royalblue" fill-opacity="0.75"></path><path d="M81.83635342222223,114.68129260533489 81.83841422222223,114.68822402981706 81.84344746666667,114.69410671789603 81.84957155555556,114.6898299927868 81.84675413333333,114.68480595253035 81.84741475555556,114.67922337295039 81.84578844444445,114.67594520924013 81.84120746666667,114.67456766611627 81.83635342222223,114.68129260533489z" stroke="#0E478F" stroke-width="0.003" stroke-opacity="0.8" fill="royalblue" fill-opacity="0.75"></path><path d="M81.77119075555555,114.75528130344934 81.77266986666667,114.76225370490756 81.7809095111111,114.76267612647557 81.78281102222223,114.75507008079967 81.77731768888889,114.74936619017964 81.77119075555555,114.75528130344934z" stroke="#0E478F" stroke-width="0.003" stroke-opacity="0.8" fill="royalblue" fill-opacity="0.75"></path><path d="M81.71767466666667,114.73014339164612 81.71707662222222,114.73287255702665 81.72270862222223,114.7320395046834 81.75812124444445,114.728416563637 81.76185742222222,114.72860910048199 81.76885404444444,114.72790712624584 81.77822222222223,114.72404058093464 81.78935324444444,114.73305609751505 81.7970439111111,114.73794042639135 81.80272853333334,114.7408484623559 81.80528213333334,114.74917143702285 81.80811306666666,114.75516970003545 81.81161742222223,114.7515848574194 81.82003484444445,114.7467384960107 81.82531271111111,114.74273842601168 81.83273671111111,114.74502836883006 81.84957155555556,114.7520792210457 81.86393102222223,114.75751784558278 81.86762382222223,114.75628048678306 81.8870840888889,114.75061559962813 81.89924622222223,114.7620919260706 81.90499413333333,114.76110701815188 81.90395093333333,114.7500747895819 81.89470222222222,114.73887906543168 81.88289991111111,114.72932680339704 81.88031360000001,114.72670994048623 81.88186595555555,114.72329587748645 81.88891682138646,114.72201394198916 81.8889030054939,114.70972763529944 81.86976142222223,114.70901906868764 81.85329493333333,114.71253765605087 81.83984071111112,114.71000886837986 81.82000284444445,114.69720157871127 81.81157902222223,114.70272868081712 81.80384853333334,114.69694080395348 81.80011377777778,114.68843461219365 81.79558328888889,114.6837290258521 81.79124337777777,114.68843161458214 81.78903751111112,114.6959951163643 81.77254613333334,114.70901682083715 81.76021973333333,114.71321423885638 81.73517866666667,114.69832410312469 81.73202488888889,114.69972761959576 81.72418560000001,114.72442566735496 81.71767466666667,114.73014339164612z" stroke="#0E478F" stroke-width="0.003" stroke-opacity="0.8" fill="royalblue" fill-opacity="0.75"></path></g></svg>